G04 DipTrace 4.3.0.5*
G04 2 - Bottom.gbr*
%MOIN*%
G04 #@! TF.FileFunction,Copper,L2,Bot*
G04 #@! TF.Part,Single*
G04 #@! TA.AperFunction,Conductor*
%ADD14C,0.012992*%
%ADD15C,0.03937*%
G04 #@! TA.AperFunction,ViaPad*
%ADD17C,0.04*%
G04 #@! TA.AperFunction,CopperBalancing*
%ADD18C,0.025*%
%FSLAX26Y26*%
G04*
G70*
G90*
G75*
G01*
G04 Bottom*
%LPD*%
X1151583Y3612205D2*
D14*
Y2391732D1*
X1141740D1*
X1151583D2*
Y1968504D1*
X1053157Y1870079D1*
Y1446850D1*
X1151583Y3612205D2*
X1190953Y3651575D1*
X1387803D1*
X1427173Y3612205D1*
Y3218504D1*
X1624024Y3533465D2*
Y2253937D1*
X1545283Y2175197D1*
Y1998031D1*
Y1870079D1*
X1427173Y1751969D1*
Y1171260D1*
X1230323Y974409D1*
X1102370D1*
X1545283Y1998031D2*
D3*
X1663394Y3572835D2*
Y2224409D1*
X1584654Y2145669D1*
Y1958661D1*
Y1860236D1*
X1456701Y1732283D1*
Y1141732D1*
X1250008Y935039D1*
X1200795D1*
X1102370Y836614D1*
X1584654Y1958661D2*
D3*
X1702764Y3533465D2*
Y2194882D1*
X1624024Y2116142D1*
Y2037402D1*
Y1850394D1*
X1496071Y1722441D1*
Y1348425D1*
X1624024Y2037402D2*
D3*
X1742134Y3080709D2*
Y3572835D1*
X1250008Y836614D2*
X1368118Y954724D1*
X1466543D1*
X1584654Y1072835D1*
Y1761811D1*
X1781504Y1958661D1*
Y2401575D1*
X1742134Y2440945D1*
Y3080709D1*
X1190953Y2421260D2*
Y3572835D1*
Y2421260D2*
Y1958661D1*
X1092528Y1860236D1*
Y1397638D1*
X1210638Y3730315D2*
X1417331D1*
X1230323Y2381890D2*
Y3533465D1*
Y2381890D2*
Y1948819D1*
X1131898Y1850394D1*
Y1122047D1*
X1230323Y3533465D2*
Y3602362D1*
X1250008Y3622047D1*
X1368118D1*
X1387803Y3602362D1*
Y3257874D1*
X1269693Y3572835D2*
Y2342520D1*
Y1938976D1*
X1171268Y1840551D1*
Y1151575D1*
X1309063Y2303150D2*
Y3533465D1*
Y2303150D2*
Y1929134D1*
X1210638Y1830709D1*
Y1190945D1*
X1348433Y3572835D2*
Y2263780D1*
Y1919291D1*
X1250008Y1820866D1*
Y1230315D1*
X1387803Y2303150D2*
X1466543Y2381890D1*
Y3533465D1*
X1387803Y2303150D2*
Y1909449D1*
X1289378Y1811024D1*
Y1397638D1*
X1505913Y3572835D2*
Y2342520D1*
X1427173Y2263780D1*
Y1899606D1*
X1328748Y1801181D1*
Y1328740D1*
X1545283Y3533465D2*
Y2312992D1*
X1466543Y2234252D1*
Y1889764D1*
X1437016Y1860236D1*
X1368118Y1791339D1*
Y1230315D1*
X1200795Y1062992D1*
X1437016Y1860236D2*
D3*
X1584654Y3572835D2*
Y2283465D1*
X1505913Y2204724D1*
Y1919291D1*
Y1879921D1*
X1397646Y1771654D1*
Y1200787D1*
X1220480Y1023622D1*
X1151583D1*
X1505913Y1919291D2*
D3*
X2185047Y3818898D2*
X2037409D1*
X2017724Y3799213D1*
Y3710630D1*
X2057094Y3671260D1*
X2116150Y3562992D2*
X2106307D1*
X2057094Y3513780D1*
Y3474409D1*
X2145677Y3740157D2*
Y3651575D1*
X1998039Y3503937D1*
Y3474409D1*
X2057094Y3779528D2*
X2194890D1*
X2322843Y3651575D1*
X2057094Y3779528D2*
Y3730315D1*
X2096465Y3690945D1*
Y3651575D1*
X1938984Y3494094D1*
Y3474409D1*
X1899614Y2401575D2*
Y1427165D1*
Y875984D1*
Y1427165D2*
D3*
X1860244Y2372047D2*
Y1387795D1*
Y905512D1*
X1830717Y875984D1*
X1860244Y1387795D2*
D3*
X1820874Y2401575D2*
Y1043307D1*
X1781504Y1003937D1*
X866150Y2017717D2*
Y1978346D1*
X816937Y1929134D1*
Y1417323D1*
X580717Y3572835D2*
Y3188976D1*
Y2578740D1*
X767724Y2391732D1*
Y2194882D1*
X580717Y3188976D2*
D3*
X816937Y2175197D2*
Y2401575D1*
X620087Y2598425D1*
Y3533465D1*
X816937Y1988189D2*
Y1978346D1*
X777567Y1938976D1*
Y1279528D1*
X787409D1*
X767724Y2017717D2*
X866150Y2116142D1*
Y2411417D1*
X659457Y2618110D1*
Y3228346D1*
Y3572835D1*
X767724Y2017717D2*
Y1978346D1*
X738197Y1948819D1*
Y1210630D1*
X748039D1*
X659457Y3228346D2*
D3*
X905520Y1968504D2*
X915362Y1978346D1*
Y2421260D1*
X698827Y2637795D1*
Y3533465D1*
X905520Y1968504D2*
X856307Y1919291D1*
Y1309055D1*
X935047Y1230315D1*
Y1220472D1*
X895677Y1909449D2*
X964575Y1978346D1*
Y2431102D1*
X738197Y2657480D1*
Y3257874D1*
Y3572835D1*
X895677Y1909449D2*
Y1328740D1*
X974417Y1250000D1*
Y1102362D1*
X935047Y1062992D1*
X738197Y3257874D2*
D3*
X935047Y1870079D2*
Y1899606D1*
X1013787Y1978346D1*
Y2440945D1*
X777567Y2677165D1*
Y3533465D1*
X935047Y1870079D2*
Y1348425D1*
X1013787Y1269685D1*
Y1092520D1*
X994102Y1072835D1*
Y1062992D1*
X974417Y1830709D2*
Y1889764D1*
X1063000Y1978346D1*
Y2450787D1*
X846465Y2667323D1*
X816937Y2696850D1*
Y3572835D1*
X974417Y1830709D2*
Y1368110D1*
X1053157Y1289370D1*
Y1062992D1*
X846465Y2667323D2*
D3*
X1053157Y3198819D2*
Y2883858D1*
X905520Y2736220D1*
X1013787Y1791339D2*
Y1879921D1*
X1112213Y1978346D1*
Y2352362D1*
X1102370Y2362205D1*
Y2470472D1*
X856307Y2716535D1*
Y3533465D1*
X1013787Y1791339D2*
Y1387795D1*
X1092528Y1309055D1*
Y1023622D1*
X905520Y836614D1*
X1929142Y2893701D2*
X1958669Y2923228D1*
X2066937D1*
X2096465Y2952756D1*
X2135835D1*
X2421268Y2667323D1*
Y2647638D1*
X1889772Y2942913D2*
X1899614Y2952756D1*
X2057094D1*
X2086622Y2982283D1*
X2145677D1*
X2460638Y2667323D1*
Y2529528D1*
X2450795D1*
X1033472Y3690945D2*
Y3553150D1*
X1545283Y1535433D2*
Y1082677D1*
X1476386Y1013780D1*
X1437016D1*
X1968512Y875984D2*
X1938984Y905512D1*
Y2342520D1*
X1437016Y895669D2*
X1456701D1*
X1702764Y1141732D1*
Y1397638D1*
X1318906Y836614D2*
X1446858D1*
X1742134Y1131890D1*
Y1318898D1*
X1043315Y836614D2*
Y826772D1*
X1082685Y787402D1*
X1446858D1*
X1781504Y1122047D1*
Y1358268D1*
X2293315Y2391732D2*
Y2500000D1*
X2362213Y2568898D1*
X2293315Y2391732D2*
X2017724D1*
X1919299Y2490157D1*
X1830717D1*
X2076780Y2214567D2*
X2244102D1*
X2283472Y2253937D1*
X2293315D1*
X1830717Y2549213D2*
X2106307Y2824803D1*
Y2854331D1*
X2076780Y2214567D2*
Y2283465D1*
X1919299Y2440945D1*
X1801189D1*
X1781504Y2460630D1*
Y2500000D1*
X1830717Y2549213D1*
X974417Y3346457D2*
Y3267717D1*
X895677Y3188976D1*
X905520Y2903543D2*
Y3179134D1*
X895677Y3188976D1*
X1988197Y3080709D2*
Y3001969D1*
X2234260Y3405512D2*
D15*
Y3375984D1*
X1899614D1*
X1840559Y3435039D1*
Y3572835D1*
X580717Y3789370D2*
X1712606D1*
X1840559Y3661417D1*
Y3572835D1*
X2372055Y3809055D2*
D14*
X2411425D1*
X2332685D1*
X2027567Y2627953D2*
X2165362Y2490157D1*
Y2627953D2*
Y2490157D1*
X2027567D2*
X2165362D1*
X1102370Y3700787D2*
X1072843Y3671260D1*
Y3267717D1*
X1063000Y3257874D1*
X1112213Y2519685D2*
Y3228346D1*
Y3651575D1*
X1663394Y1968504D2*
X1742134Y2047244D1*
Y2342520D1*
X1102370Y3208661D2*
Y3218504D1*
X1112213Y3228346D1*
X1624024Y1742126D2*
Y1515748D1*
Y1122047D1*
Y1515748D2*
D3*
D17*
X866150Y2017717D3*
X816937Y1417323D3*
X1742134Y3080709D3*
X816937Y2175197D3*
X787409Y1279528D3*
X580717Y3188976D3*
X767724Y2017717D3*
X816937Y1988189D3*
X748039Y1210630D3*
X1102370Y3700787D3*
X905520Y1968504D3*
X1151583Y3612205D3*
X895677Y1909449D3*
X935047Y1062992D3*
X1190953Y3572835D3*
X935047Y1870079D3*
X994102Y1062992D3*
X1230323Y3533465D3*
X974417Y1830709D3*
X1053157Y1062992D3*
X1269693Y3572835D3*
X1013787Y1791339D3*
X905520Y836614D3*
X580717Y3572835D3*
X659457D3*
X738197D3*
X816937D3*
X620087Y3533465D3*
X698827D3*
X777567D3*
X856307D3*
X767724Y2194882D3*
X1309063Y3533465D3*
X1348433Y3572835D3*
X1466543Y3533465D3*
X1505913Y3572835D3*
X1545283Y3533465D3*
X1584654Y3572835D3*
X1624024Y3533465D3*
X1663394Y3572835D3*
X1702764Y3533465D3*
X1742134Y3572835D3*
X1437016Y1860236D3*
X1141740Y2391732D3*
X1190953Y2421260D3*
X1230323Y2381890D3*
X1269693Y2342520D3*
X1309063Y2303150D3*
X1348433Y2263780D3*
X1387803Y2303150D3*
X1427173Y2263780D3*
X1053157Y1446850D3*
X1092528Y1397638D3*
X1131898Y1122047D3*
X1171268Y1151575D3*
X1210638Y1190945D3*
X1250008Y1230315D3*
X1289378Y1397638D3*
X1328748Y1328740D3*
X905520Y2736220D3*
X935047Y1220472D3*
X1584654Y1958661D3*
X1624024Y2037402D3*
X1496071Y1348425D3*
X1387803Y3257874D3*
X846465Y2667323D3*
X1200795Y1062992D3*
X1151583Y1023622D3*
X1545283Y1998031D3*
X1102370Y974409D3*
Y836614D3*
X1250008D3*
X659457Y3228346D3*
X738197Y3257874D3*
X974417Y3346457D3*
X895677Y3188976D3*
X1988197Y3001969D3*
X1112213Y2519685D3*
Y3651575D3*
X1053157Y3198819D3*
X1427173Y3218504D3*
X1033472Y3690945D3*
X2027567Y2627953D3*
X2165362D3*
Y2490157D3*
X2027567D3*
X1781504Y1003937D3*
X1899614Y875984D3*
X1830717D3*
X1968512D3*
X2106307Y2854331D3*
X1820874Y2401575D3*
X1860244Y2372047D3*
X1899614Y2401575D3*
X1938984Y2342520D3*
X2076780Y2214567D3*
X2293315Y2253937D3*
Y2391732D3*
X1830717Y2490157D3*
Y2549213D3*
X1663394Y1968504D3*
X905520Y2903543D3*
X1988197Y3080709D3*
X1742134Y2342520D3*
X1929142Y2893701D3*
X1889772Y2942913D3*
X1624024Y1122047D3*
Y1742126D3*
X2421268Y2647638D3*
X2362213Y2568898D3*
X2450795Y2529528D3*
X1102370Y3208661D3*
X1063000Y3257874D3*
X1033472Y3553150D3*
X1318906Y836614D3*
X1742134Y1318898D3*
X1043315Y836614D3*
X1781504Y1358268D3*
X1437016Y895669D3*
X1702764Y1397638D3*
X2185047Y3818898D3*
X2057094Y3779528D3*
X2322843Y3651575D3*
X2057094Y3671260D3*
X1840559Y3572835D3*
X2234260Y3405512D3*
X580717Y3789370D3*
X2372055Y3809055D3*
X2342528Y807087D3*
X2116150Y3562992D3*
X2047252Y2992126D3*
X2322843Y2303150D3*
Y2165354D3*
X2076780Y2096457D3*
X2027567Y1250000D3*
X1978354Y1003937D3*
X748039Y1141732D3*
X974417Y836614D3*
X708669Y2175197D3*
X541346Y3129921D3*
Y3415354D3*
X925205Y3513780D3*
X944890Y3415354D3*
X1210638Y3730315D3*
X1417331D3*
X974417Y3641732D3*
X1663394Y1250000D3*
Y1781496D3*
X915362Y2814961D3*
X994102Y2736220D3*
X2411425Y3809055D3*
X2332685D3*
X1072843Y2568898D3*
X1387803Y2381890D3*
X2352370Y1919291D3*
X1427173Y2559055D3*
X2145677Y3740157D3*
X1998039Y3474409D3*
X1899614Y1427165D3*
X1860244Y1387795D3*
X1624024Y1515748D3*
X1505913Y1919291D3*
X698827Y1505906D3*
X1938984Y3474409D3*
X2057094D3*
X2106307Y3503937D3*
X1437016Y1013780D3*
X1545283Y1535433D3*
X418560Y4086647D2*
D18*
X2494843D1*
X418560Y4061778D2*
X2494843D1*
X418560Y4036909D2*
X2494843D1*
X418560Y4012041D2*
X2494843D1*
X418560Y3987172D2*
X2494843D1*
X418560Y3962303D2*
X2494843D1*
X418560Y3937434D2*
X2494843D1*
X418560Y3912566D2*
X2494843D1*
X418560Y3887697D2*
X2494843D1*
X418560Y3862828D2*
X2169158D1*
X2200928D2*
X2494843D1*
X418560Y3837959D2*
X2008128D1*
X2229330D2*
X2494843D1*
X418560Y3813091D2*
X538886D1*
X1755892D2*
X1985915D1*
X2233098D2*
X2494843D1*
X418560Y3788222D2*
X532301D1*
X1780760D2*
X1982812D1*
X2234551D2*
X2494843D1*
X418560Y3763353D2*
X540375D1*
X1805627D2*
X1982812D1*
X2259419D2*
X2494843D1*
X418560Y3738484D2*
X1073632D1*
X1131094D2*
X1162948D1*
X1465015D2*
X1696492D1*
X1830495D2*
X1982812D1*
X2284287D2*
X2494843D1*
X418560Y3713615D2*
X991026D1*
X1148965D2*
X1165352D1*
X1462611D2*
X1721359D1*
X1855363D2*
X1982812D1*
X2185659D2*
X2212452D1*
X2309154D2*
X2494843D1*
X418560Y3688747D2*
X985106D1*
X1149180D2*
X1188605D1*
X1232665D2*
X1395298D1*
X1439358D2*
X1746227D1*
X1879567D2*
X1991298D1*
X2180599D2*
X2237320D1*
X2352305D2*
X2494843D1*
X418560Y3663878D2*
X993879D1*
X1423856D2*
X1771095D1*
X1888610D2*
X2009258D1*
X2180599D2*
X2262188D1*
X2369583D2*
X2494843D1*
X418560Y3639009D2*
X998544D1*
X1448723D2*
X1792446D1*
X1888663D2*
X2021907D1*
X2178069D2*
X2276165D1*
X2369512D2*
X2494843D1*
X418560Y3614140D2*
X558138D1*
X603292D2*
X636885D1*
X682022D2*
X715615D1*
X760770D2*
X794363D1*
X839518D2*
X998544D1*
X1462036D2*
X1483340D1*
X1528494D2*
X1562087D1*
X1607224D2*
X1640817D1*
X1685972D2*
X1719565D1*
X1764702D2*
X1792446D1*
X1888663D2*
X2010676D1*
X2156593D2*
X2293730D1*
X2351946D2*
X2494843D1*
X418560Y3589272D2*
X535333D1*
X862322D2*
X998544D1*
X1888663D2*
X1985808D1*
X2156306D2*
X2494843D1*
X418560Y3564403D2*
X533072D1*
X892752D2*
X986451D1*
X1888663D2*
X1960940D1*
X2164559D2*
X2494843D1*
X418560Y3539534D2*
X545793D1*
X904324D2*
X987115D1*
X1777064D2*
X1792446D1*
X1888663D2*
X1936072D1*
X2158136D2*
X2494843D1*
X418560Y3514665D2*
X545793D1*
X900700D2*
X1005918D1*
X1777064D2*
X1792446D1*
X1888663D2*
X1911420D1*
X2106337D2*
X2494843D1*
X418560Y3489797D2*
X545793D1*
X891227D2*
X1037927D1*
X1777064D2*
X1792446D1*
X2102874D2*
X2494843D1*
X418560Y3464928D2*
X545793D1*
X891227D2*
X1037927D1*
X1777064D2*
X1792446D1*
X2104525D2*
X2494843D1*
X418560Y3440059D2*
X545793D1*
X891227D2*
X1037927D1*
X1777064D2*
X1792446D1*
X2090081D2*
X2201508D1*
X2267026D2*
X2494843D1*
X418560Y3415190D2*
X545793D1*
X891227D2*
X1037927D1*
X1777064D2*
X1797003D1*
X2281649D2*
X2494843D1*
X418560Y3390322D2*
X545793D1*
X891227D2*
X958318D1*
X990518D2*
X1037927D1*
X1777064D2*
X1818283D1*
X2282367D2*
X2494843D1*
X418560Y3365453D2*
X545793D1*
X891227D2*
X930113D1*
X1018723D2*
X1037927D1*
X1777064D2*
X1843150D1*
X2281129D2*
X2494843D1*
X418560Y3340584D2*
X545793D1*
X891227D2*
X926363D1*
X1022473D2*
X1037927D1*
X1777064D2*
X1868359D1*
X2265519D2*
X2494843D1*
X418560Y3315715D2*
X545793D1*
X891227D2*
X937792D1*
X1011044D2*
X1037927D1*
X1777064D2*
X2494843D1*
X418560Y3290846D2*
X545793D1*
X891227D2*
X939497D1*
X1009339D2*
X1028525D1*
X1777064D2*
X2494843D1*
X418560Y3265978D2*
X545793D1*
X891227D2*
X924336D1*
X1777064D2*
X2494843D1*
X418560Y3241109D2*
X545793D1*
X996152D2*
X1017742D1*
X1777064D2*
X2494843D1*
X418560Y3216240D2*
X541254D1*
X971284D2*
X1008161D1*
X1777064D2*
X2494843D1*
X418560Y3191371D2*
X532355D1*
X946417D2*
X1005344D1*
X1777064D2*
X2494843D1*
X418560Y3166503D2*
X538168D1*
X940442D2*
X1018029D1*
X1383360D2*
X1431630D1*
X1777064D2*
X2494843D1*
X418560Y3141634D2*
X545793D1*
X940442D2*
X1018245D1*
X1383360D2*
X1431630D1*
X1777064D2*
X2494843D1*
X418560Y3116765D2*
X545793D1*
X940442D2*
X1018245D1*
X1383360D2*
X1431630D1*
X1777064D2*
X1957244D1*
X2019138D2*
X2494843D1*
X418560Y3091896D2*
X545793D1*
X940442D2*
X1018245D1*
X1383360D2*
X1431630D1*
X1789175D2*
X1941150D1*
X2035232D2*
X2494843D1*
X418560Y3067028D2*
X545793D1*
X940442D2*
X1018245D1*
X1383360D2*
X1431630D1*
X1788475D2*
X1941850D1*
X2034533D2*
X2494843D1*
X418560Y3042159D2*
X545793D1*
X940442D2*
X1018245D1*
X1383360D2*
X1431630D1*
X1777064D2*
X1953279D1*
X2023122D2*
X2494843D1*
X418560Y3017290D2*
X545793D1*
X940442D2*
X1018245D1*
X1383360D2*
X1431630D1*
X1777064D2*
X1942406D1*
X2033994D2*
X2494843D1*
X418560Y2992421D2*
X545793D1*
X940442D2*
X1018245D1*
X1383360D2*
X1431630D1*
X1777064D2*
X1940773D1*
X2035627D2*
X2048408D1*
X2183883D2*
X2494843D1*
X418560Y2967552D2*
X545793D1*
X940442D2*
X1018245D1*
X1383360D2*
X1431630D1*
X1777064D2*
X1848515D1*
X2208750D2*
X2494843D1*
X418560Y2942684D2*
X545793D1*
X940442D2*
X1018245D1*
X1383360D2*
X1431630D1*
X1777064D2*
X1841338D1*
X2233636D2*
X2494843D1*
X418560Y2917815D2*
X545793D1*
X951674D2*
X1018245D1*
X1383360D2*
X1431630D1*
X1777064D2*
X1848820D1*
X2109872D2*
X2122419D1*
X2258504D2*
X2494843D1*
X418560Y2892946D2*
X545793D1*
X952714D2*
X1013903D1*
X1383360D2*
X1431630D1*
X1777064D2*
X1880721D1*
X2133663D2*
X2147287D1*
X2283372D2*
X2494843D1*
X418560Y2868077D2*
X545793D1*
X937194D2*
X989035D1*
X1383360D2*
X1431630D1*
X1777064D2*
X1888526D1*
X1969762D2*
X2059980D1*
X2152628D2*
X2172154D1*
X2308239D2*
X2494843D1*
X418560Y2843209D2*
X545793D1*
X891227D2*
X964149D1*
X1060851D2*
X1077292D1*
X1383360D2*
X1431630D1*
X1777064D2*
X2059245D1*
X2153363D2*
X2197040D1*
X2333107D2*
X2494843D1*
X418560Y2818340D2*
X545793D1*
X891227D2*
X939281D1*
X1035983D2*
X1077292D1*
X1383360D2*
X1431630D1*
X1777064D2*
X2051494D1*
X2140570D2*
X2221908D1*
X2357975D2*
X2494843D1*
X418560Y2793471D2*
X545793D1*
X891227D2*
X914414D1*
X1011116D2*
X1077292D1*
X1383360D2*
X1431630D1*
X1777064D2*
X2026626D1*
X2123328D2*
X2246776D1*
X2382843D2*
X2494843D1*
X418560Y2768602D2*
X545793D1*
X986248D2*
X1077292D1*
X1383360D2*
X1431630D1*
X1777064D2*
X2001758D1*
X2098460D2*
X2271643D1*
X2407710D2*
X2494843D1*
X418560Y2743734D2*
X545793D1*
X961380D2*
X1077292D1*
X1383360D2*
X1431630D1*
X1777064D2*
X1976891D1*
X2073593D2*
X2296511D1*
X2432578D2*
X2494843D1*
X418560Y2718865D2*
X545793D1*
X950543D2*
X1077292D1*
X1383360D2*
X1431630D1*
X1777064D2*
X1952023D1*
X2048725D2*
X2321379D1*
X2457446D2*
X2494843D1*
X418560Y2693996D2*
X545793D1*
X927201D2*
X1077292D1*
X1383360D2*
X1431630D1*
X1777064D2*
X1927155D1*
X2023857D2*
X2346247D1*
X2482314D2*
X2494843D1*
X418560Y2669127D2*
X545793D1*
X952068D2*
X1077292D1*
X1383360D2*
X1431630D1*
X1777064D2*
X1902287D1*
X1998989D2*
X2371114D1*
X418560Y2644259D2*
X545793D1*
X976936D2*
X1077292D1*
X1383360D2*
X1431630D1*
X1777064D2*
X1877420D1*
X1974122D2*
X2372962D1*
X418560Y2619390D2*
X545793D1*
X1001804D2*
X1077292D1*
X1383360D2*
X1431630D1*
X1777064D2*
X1852534D1*
X1949236D2*
X2382561D1*
X418560Y2594521D2*
X545793D1*
X1026672D2*
X1077292D1*
X1383360D2*
X1431630D1*
X1777064D2*
X1820723D1*
X1924368D2*
X2321594D1*
X2402830D2*
X2425712D1*
X418560Y2569652D2*
X547103D1*
X1051539D2*
X1077292D1*
X1383360D2*
X1431630D1*
X1899501D2*
X2313789D1*
X2410635D2*
X2425712D1*
X418560Y2544783D2*
X566319D1*
X1383360D2*
X1431630D1*
X1878921D2*
X2289747D1*
X418560Y2519915D2*
X591187D1*
X1383360D2*
X1431630D1*
X1934667D2*
X2265238D1*
X2361581D2*
X2403392D1*
X418560Y2495046D2*
X616055D1*
X1383360D2*
X1431630D1*
X1962764D2*
X2258402D1*
X2336713D2*
X2417961D1*
X418560Y2470177D2*
X640922D1*
X1383360D2*
X1431630D1*
X1987632D2*
X2258402D1*
X2328245D2*
X2494843D1*
X418560Y2445308D2*
X665790D1*
X1383360D2*
X1431630D1*
X2012500D2*
X2258402D1*
X2328245D2*
X2494843D1*
X418560Y2420440D2*
X690658D1*
X1383360D2*
X1431630D1*
X2331654D2*
X2494843D1*
X418560Y2395571D2*
X715544D1*
X1383360D2*
X1431630D1*
X2341576D2*
X2494843D1*
X418560Y2370702D2*
X732804D1*
X1383360D2*
X1407014D1*
X2336642D2*
X2494843D1*
X418560Y2345833D2*
X732804D1*
X2062756D2*
X2289262D1*
X2297379D2*
X2494843D1*
X418560Y2320965D2*
X732804D1*
X2087623D2*
X2494843D1*
X418560Y2296096D2*
X732804D1*
X1973906D2*
X2015789D1*
X2109136D2*
X2272594D1*
X2314035D2*
X2494843D1*
X418560Y2271227D2*
X732804D1*
X1973906D2*
X2040675D1*
X2111702D2*
X2248265D1*
X2338364D2*
X2494843D1*
X418560Y2246358D2*
X732804D1*
X1973906D2*
X2041141D1*
X2341109D2*
X2494843D1*
X418560Y2221490D2*
X727798D1*
X1973906D2*
X2028887D1*
X2328317D2*
X2494843D1*
X418560Y2196621D2*
X719329D1*
X1973906D2*
X2032009D1*
X2274508D2*
X2494843D1*
X418560Y2171752D2*
X725555D1*
X1973906D2*
X2057666D1*
X2095895D2*
X2494843D1*
X418560Y2146883D2*
X778287D1*
X1973906D2*
X2494843D1*
X418560Y2122014D2*
X823681D1*
X1973906D2*
X2494843D1*
X418560Y2097146D2*
X798795D1*
X1973906D2*
X2494843D1*
X418560Y2072277D2*
X773927D1*
X1973906D2*
X2494843D1*
X418560Y2047408D2*
X730184D1*
X1973906D2*
X2494843D1*
X418560Y2022539D2*
X719545D1*
X1973906D2*
X2494843D1*
X418560Y1997671D2*
X723905D1*
X1973906D2*
X2494843D1*
X418560Y1972802D2*
X713821D1*
X1973906D2*
X2494843D1*
X418560Y1947933D2*
X703271D1*
X1973906D2*
X2494843D1*
X418560Y1923064D2*
X703271D1*
X1973906D2*
X2494843D1*
X418560Y1898196D2*
X703271D1*
X1769384D2*
X1785951D1*
X1973906D2*
X2494843D1*
X418560Y1873327D2*
X703271D1*
X1744517D2*
X1785951D1*
X1973906D2*
X2494843D1*
X418560Y1848458D2*
X703271D1*
X1719649D2*
X1785951D1*
X1973906D2*
X2494843D1*
X418560Y1823589D2*
X703271D1*
X1694781D2*
X1785951D1*
X1973906D2*
X2494843D1*
X418560Y1798720D2*
X703271D1*
X1669913D2*
X1785951D1*
X1973906D2*
X2494843D1*
X418560Y1773852D2*
X703271D1*
X1659722D2*
X1785951D1*
X1973906D2*
X2494843D1*
X418560Y1748983D2*
X703271D1*
X1671941D2*
X1785951D1*
X1973906D2*
X2494843D1*
X418560Y1724114D2*
X703271D1*
X1668765D2*
X1785951D1*
X1973906D2*
X2494843D1*
X418560Y1699245D2*
X703271D1*
X1658951D2*
X1785951D1*
X1973906D2*
X2494843D1*
X418560Y1674377D2*
X703271D1*
X1658951D2*
X1785951D1*
X1973906D2*
X2494843D1*
X418560Y1649508D2*
X703271D1*
X1658951D2*
X1785951D1*
X1973906D2*
X2494843D1*
X418560Y1624639D2*
X703271D1*
X1658951D2*
X1785951D1*
X1973906D2*
X2494843D1*
X418560Y1599770D2*
X703271D1*
X1658951D2*
X1785951D1*
X1973906D2*
X2494843D1*
X418560Y1574902D2*
X703271D1*
X1658951D2*
X1785951D1*
X1973906D2*
X2494843D1*
X418560Y1550033D2*
X703271D1*
X1658951D2*
X1785951D1*
X1973906D2*
X2494843D1*
X418560Y1525164D2*
X703271D1*
X1671474D2*
X1785951D1*
X1973906D2*
X2494843D1*
X418560Y1500295D2*
X703271D1*
X1669770D2*
X1785951D1*
X1973906D2*
X2494843D1*
X418560Y1475427D2*
X703271D1*
X1658951D2*
X1785951D1*
X1973906D2*
X2494843D1*
X418560Y1450558D2*
X703271D1*
X1658951D2*
X1785951D1*
X1973906D2*
X2494843D1*
X418560Y1425689D2*
X703271D1*
X1741628D2*
X1785951D1*
X1973906D2*
X2494843D1*
X418560Y1400820D2*
X703271D1*
X1973906D2*
X2494843D1*
X418560Y1375951D2*
X703271D1*
X1973906D2*
X2494843D1*
X418560Y1351083D2*
X703271D1*
X1973906D2*
X2494843D1*
X418560Y1326214D2*
X703271D1*
X1973906D2*
X2494843D1*
X418560Y1301345D2*
X703271D1*
X1973906D2*
X2494843D1*
X418560Y1276476D2*
X703271D1*
X1973906D2*
X2494843D1*
X418560Y1251608D2*
X703271D1*
X826366D2*
X865396D1*
X1973906D2*
X2494843D1*
X418560Y1226739D2*
X702536D1*
X793550D2*
X887052D1*
X1973906D2*
X2494843D1*
X418560Y1201870D2*
X700454D1*
X795613D2*
X890551D1*
X1973906D2*
X2494843D1*
X418560Y1177001D2*
X714270D1*
X781816D2*
X917733D1*
X1973906D2*
X2494843D1*
X418560Y1152133D2*
X939497D1*
X1973906D2*
X2494843D1*
X418560Y1127264D2*
X939497D1*
X1973906D2*
X2494843D1*
X418560Y1102395D2*
X908959D1*
X1973906D2*
X2494843D1*
X418560Y1077526D2*
X888990D1*
X1973906D2*
X2494843D1*
X418560Y1052657D2*
X887806D1*
X1760467D2*
X1781878D1*
X1973906D2*
X2494843D1*
X418560Y1027789D2*
X903056D1*
X1973906D2*
X2494843D1*
X418560Y1002920D2*
X1023484D1*
X1710732D2*
X1733093D1*
X1973906D2*
X2494843D1*
X418560Y978051D2*
X998598D1*
X1685864D2*
X1741078D1*
X1973906D2*
X2494843D1*
X418560Y953182D2*
X973730D1*
X1660996D2*
X1825316D1*
X1973906D2*
X2494843D1*
X418560Y928314D2*
X948863D1*
X1045565D2*
X1145723D1*
X1636129D2*
X1825316D1*
X1973906D2*
X2494843D1*
X418560Y903445D2*
X923995D1*
X1020697D2*
X1120855D1*
X1611261D2*
X1791405D1*
X2007817D2*
X2494843D1*
X418560Y878576D2*
X884361D1*
X995829D2*
X1022156D1*
X1064476D2*
X1081203D1*
X1586375D2*
X1782362D1*
X2016860D2*
X2494843D1*
X418560Y853707D2*
X860390D1*
X970961D2*
X998185D1*
X1561507D2*
X1788050D1*
X2011172D2*
X2494843D1*
X418560Y828839D2*
X857753D1*
X953288D2*
X995548D1*
X1536640D2*
X2494843D1*
X418560Y803970D2*
X870725D1*
X940316D2*
X1008520D1*
X1511772D2*
X2494843D1*
X418560Y779101D2*
X1042628D1*
X1486904D2*
X2494843D1*
X823894Y1371940D2*
X814733Y1371451D1*
X809986Y1372165D1*
X809988Y1319526D1*
X812837Y1317771D1*
X820015Y1311870D1*
X823946Y1307008D1*
X823886Y1309055D1*
Y1371921D1*
X1380863Y2348309D2*
X1385355Y2349010D1*
X1387703Y2348897D1*
X1434120Y2395317D1*
X1434122Y3173116D1*
X1424969Y3172632D1*
X1415780Y3174014D1*
X1407058Y3177219D1*
X1399159Y3182113D1*
X1392407Y3188497D1*
X1387078Y3196110D1*
X1383391Y3204639D1*
X1381787Y3212342D1*
X1381004Y3212693D1*
X1380856Y3212715D1*
X1380854Y2348550D1*
X950529Y2727095D2*
X947771Y2718222D1*
X943283Y2710085D1*
X937249Y2703018D1*
X929916Y2697311D1*
X924196Y2694486D1*
X957161Y2661532D1*
X1073811Y2544882D1*
X1077287Y2549507D1*
X1079787Y2551896D1*
X1079791Y2865373D1*
X1076645Y2861509D1*
X1056940Y2841790D1*
X951441Y2736291D1*
X950529Y2727095D1*
X1656440Y1154259D2*
X1659110Y1151680D1*
X1662261Y1147074D1*
X1670348Y1155167D1*
X1670343Y1365109D1*
X1667997Y1367631D1*
X1662669Y1375244D1*
X1658981Y1383773D1*
X1657087Y1392870D1*
X1657062Y1402163D1*
X1658908Y1411270D1*
X1662550Y1419819D1*
X1667838Y1427460D1*
X1674556Y1433880D1*
X1682429Y1438816D1*
X1691135Y1442066D1*
X1700316Y1443498D1*
X1709598Y1443052D1*
X1718599Y1440746D1*
X1726953Y1436676D1*
X1734316Y1431008D1*
X1740388Y1423973D1*
X1744919Y1415861D1*
X1747724Y1407002D1*
X1748689Y1397638D1*
X1747878Y1389555D1*
X1753297Y1394509D1*
X1761169Y1399446D1*
X1769875Y1402696D1*
X1779056Y1404128D1*
X1788338Y1403682D1*
X1788452Y1403652D1*
X1788453Y1919761D1*
X1649221Y1780527D1*
X1656457Y1774641D1*
X1662338Y1767447D1*
X1666651Y1759216D1*
X1669218Y1750285D1*
X1669949Y1742126D1*
X1669033Y1733001D1*
X1666275Y1724127D1*
X1661787Y1715991D1*
X1656442Y1709731D1*
X1656445Y1548284D1*
X1657979Y1546670D1*
X1663508Y1539202D1*
X1667421Y1530774D1*
X1669557Y1521730D1*
X1669949Y1515748D1*
X1669033Y1506623D1*
X1666275Y1497749D1*
X1661787Y1489613D1*
X1656442Y1483353D1*
X1656445Y1154570D1*
X2177087Y3643545D2*
X2173587Y3635076D1*
X2168603Y3628649D1*
X2141315Y3601371D1*
X2148323Y3595764D1*
X2154261Y3588617D1*
X2158639Y3580421D1*
X2161278Y3571511D1*
X2162075Y3562992D1*
X2161159Y3553867D1*
X2158401Y3544993D1*
X2153913Y3536857D1*
X2147879Y3529790D1*
X2140546Y3524083D1*
X2132214Y3519968D1*
X2123224Y3517615D1*
X2113945Y3517120D1*
X2107296Y3518120D1*
X2092651Y3503485D1*
X2094718Y3500745D1*
X2099250Y3492632D1*
X2102055Y3483774D1*
X2103020Y3474409D1*
X2102104Y3465284D1*
X2099346Y3456411D1*
X2094858Y3448274D1*
X2088824Y3441207D1*
X2081491Y3435500D1*
X2073159Y3431385D1*
X2064169Y3429032D1*
X2054890Y3428537D1*
X2045701Y3429920D1*
X2036979Y3433124D1*
X2029080Y3438018D1*
X2027689Y3439334D1*
X2022436Y3435500D1*
X2014104Y3431385D1*
X2005114Y3429032D1*
X1995835Y3428537D1*
X1986646Y3429920D1*
X1977924Y3433124D1*
X1970025Y3438018D1*
X1968634Y3439334D1*
X1963380Y3435500D1*
X1955049Y3431385D1*
X1946059Y3429032D1*
X1936780Y3428537D1*
X1927591Y3429920D1*
X1918869Y3433124D1*
X1910970Y3438018D1*
X1904218Y3444403D1*
X1898889Y3452015D1*
X1895202Y3460545D1*
X1893307Y3469642D1*
X1893283Y3478934D1*
X1895129Y3488041D1*
X1898771Y3496590D1*
X1904059Y3504231D1*
X1910777Y3510651D1*
X1911307Y3510984D1*
X1911637Y3511506D1*
X1916078Y3517039D1*
X2031954Y3632904D1*
X2025186Y3638230D1*
X2019191Y3645329D1*
X2014747Y3653490D1*
X2012036Y3662378D1*
X2011202Y3671296D1*
X1994799Y3687705D1*
X1989304Y3695028D1*
X1986075Y3703604D1*
X1985303Y3710656D1*
Y3799213D1*
X1986596Y3808277D1*
X1990377Y3816624D1*
X1994813Y3822152D1*
X2014484Y3841823D1*
X2021807Y3847318D1*
X2030384Y3850547D1*
X2037436Y3851319D1*
X2152844Y3851321D1*
X2156840Y3855139D1*
X2164713Y3860076D1*
X2173418Y3863326D1*
X2182599Y3864758D1*
X2191881Y3864312D1*
X2200883Y3862006D1*
X2209236Y3857936D1*
X2216600Y3852268D1*
X2222671Y3845233D1*
X2227202Y3837120D1*
X2230008Y3828262D1*
X2230972Y3818898D1*
X2230057Y3809772D1*
X2227298Y3800899D1*
X2224480Y3795790D1*
X2322771Y3697496D1*
X2329676Y3696989D1*
X2338678Y3694683D1*
X2347032Y3690613D1*
X2354395Y3684945D1*
X2360466Y3677910D1*
X2364998Y3669798D1*
X2367803Y3660939D1*
X2368768Y3651575D1*
X2367852Y3642450D1*
X2365094Y3633576D1*
X2360606Y3625439D1*
X2354572Y3618373D1*
X2347239Y3612665D1*
X2338907Y3608551D1*
X2329917Y3606198D1*
X2320638Y3605703D1*
X2311449Y3607085D1*
X2302727Y3610289D1*
X2294828Y3615184D1*
X2288076Y3621568D1*
X2282747Y3629181D1*
X2279060Y3637710D1*
X2277165Y3646807D1*
X2277153Y3651408D1*
X2191497Y3737069D1*
X2190687Y3731032D1*
X2187928Y3722159D1*
X2183440Y3714022D1*
X2178096Y3707763D1*
X2178099Y3651593D1*
X2177087Y3643545D1*
X2244075Y2182146D2*
X2109175Y2182145D1*
X2108509Y2181365D1*
X2101176Y2175657D1*
X2092844Y2171543D1*
X2083854Y2169190D1*
X2074575Y2168695D1*
X2065386Y2170077D1*
X2056664Y2173282D1*
X2048765Y2178176D1*
X2042013Y2184560D1*
X2036684Y2192173D1*
X2032997Y2200702D1*
X2031102Y2209799D1*
X2031078Y2219092D1*
X2032924Y2228199D1*
X2036566Y2236748D1*
X2041854Y2244389D1*
X2044354Y2246777D1*
X2044358Y2270035D1*
X1983285Y2331115D1*
X1981236Y2324521D1*
X1976747Y2316384D1*
X1971403Y2310125D1*
Y921588D1*
X1975346Y921398D1*
X1984347Y919093D1*
X1992701Y915023D1*
X2000064Y909354D1*
X2006136Y902320D1*
X2010667Y894207D1*
X2013472Y885348D1*
X2014437Y875984D1*
X2013521Y866859D1*
X2010763Y857985D1*
X2006275Y849849D1*
X2000241Y842782D1*
X1992908Y837075D1*
X1984576Y832960D1*
X1975587Y830607D1*
X1966308Y830112D1*
X1957119Y831495D1*
X1948396Y834699D1*
X1940497Y839593D1*
X1934095Y845647D1*
X1933907Y845784D1*
X1931343Y842782D1*
X1924010Y837075D1*
X1915679Y832960D1*
X1906689Y830607D1*
X1897410Y830112D1*
X1888221Y831495D1*
X1879499Y834699D1*
X1871600Y839593D1*
X1865197Y845647D1*
X1862446Y842782D1*
X1855113Y837075D1*
X1846781Y832960D1*
X1837791Y830607D1*
X1828512Y830112D1*
X1819323Y831495D1*
X1810601Y834699D1*
X1802702Y839593D1*
X1795950Y845977D1*
X1790621Y853590D1*
X1786934Y862120D1*
X1785039Y871217D1*
X1785015Y880509D1*
X1786861Y889616D1*
X1790503Y898165D1*
X1795791Y905806D1*
X1802509Y912226D1*
X1810382Y917162D1*
X1819087Y920413D1*
X1827829Y921776D1*
X1827823Y1004398D1*
X1827429Y1004011D1*
X1826513Y994812D1*
X1823755Y985938D1*
X1819267Y977802D1*
X1813233Y970735D1*
X1805900Y965027D1*
X1797568Y960913D1*
X1788579Y958560D1*
X1779300Y958065D1*
X1770111Y959447D1*
X1761388Y962652D1*
X1753489Y967546D1*
X1746737Y973930D1*
X1741409Y981543D1*
X1737722Y990072D1*
X1735827Y999170D1*
X1735802Y1008462D1*
X1737649Y1017569D1*
X1741290Y1026118D1*
X1746579Y1033759D1*
X1753297Y1040179D1*
X1761169Y1045115D1*
X1769875Y1048365D1*
X1779056Y1049797D1*
X1781404Y1049684D1*
X1788453Y1056736D1*
Y1083139D1*
X1475688Y770380D1*
X1625307Y770374D1*
X2497356D1*
X2497350Y1042662D1*
Y4111522D1*
X2316966Y4111516D1*
X416046D1*
X416051Y3839228D1*
Y770368D1*
X587250Y770374D1*
X1053861D1*
X1032169Y792067D1*
X1031922Y792125D1*
X1023199Y795329D1*
X1015300Y800223D1*
X1008548Y806607D1*
X1003220Y814220D1*
X999533Y822750D1*
X997638Y831847D1*
X997613Y841139D1*
X999460Y850246D1*
X1003101Y858795D1*
X1008390Y866436D1*
X1015108Y872856D1*
X1022980Y877792D1*
X1031686Y881043D1*
X1040867Y882474D1*
X1050149Y882028D1*
X1059151Y879723D1*
X1067504Y875653D1*
X1072689Y871662D1*
X1072949Y871696D1*
X1074163Y872856D1*
X1082035Y877792D1*
X1090741Y881043D1*
X1099922Y882474D1*
X1102270Y882361D1*
X1161889Y941984D1*
X1134765Y941987D1*
X1134099Y941207D1*
X1126766Y935500D1*
X1118434Y931385D1*
X1109445Y929032D1*
X1100166Y928537D1*
X1090977Y929920D1*
X1082254Y933124D1*
X1074356Y938018D1*
X1067604Y944403D1*
X1064122Y949376D1*
X1018279Y903523D1*
X951445Y836689D1*
X950529Y827489D1*
X947771Y818615D1*
X943283Y810479D1*
X937249Y803412D1*
X929916Y797705D1*
X921584Y793590D1*
X912595Y791237D1*
X903315Y790742D1*
X894126Y792125D1*
X885404Y795329D1*
X877505Y800223D1*
X870753Y806607D1*
X865424Y814220D1*
X861737Y822750D1*
X859843Y831847D1*
X859818Y841139D1*
X861664Y850246D1*
X865306Y858795D1*
X870594Y866436D1*
X877312Y872856D1*
X885185Y877792D1*
X893890Y881043D1*
X903072Y882474D1*
X905419Y882361D1*
X1041619Y1018556D1*
X1033042Y1021707D1*
X1025143Y1026601D1*
X1023752Y1027917D1*
X1023476Y1027956D1*
X1018499Y1024083D1*
X1010167Y1019968D1*
X1001177Y1017615D1*
X991898Y1017120D1*
X982709Y1018503D1*
X973987Y1021707D1*
X966088Y1026601D1*
X964697Y1027917D1*
X964420Y1027956D1*
X959443Y1024083D1*
X951112Y1019968D1*
X942122Y1017615D1*
X932843Y1017120D1*
X923654Y1018503D1*
X914932Y1021707D1*
X907033Y1026601D1*
X900281Y1032985D1*
X894952Y1040598D1*
X891265Y1049128D1*
X889370Y1058225D1*
X889346Y1067517D1*
X891192Y1076624D1*
X894834Y1085173D1*
X900122Y1092814D1*
X906840Y1099234D1*
X914713Y1104170D1*
X923418Y1107421D1*
X932599Y1108852D1*
X934947Y1108739D1*
X941996Y1115791D1*
Y1175078D1*
X932843Y1174600D1*
X923654Y1175983D1*
X914932Y1179187D1*
X907033Y1184081D1*
X900281Y1190466D1*
X894952Y1198078D1*
X891265Y1206608D1*
X889370Y1215705D1*
X889346Y1224997D1*
X890216Y1229293D1*
X833453Y1286058D1*
X832700Y1286836D1*
X833335Y1279528D1*
X832419Y1270402D1*
X829661Y1261529D1*
X825173Y1253392D1*
X819139Y1246325D1*
X811806Y1240618D1*
X803474Y1236504D1*
X794484Y1234151D1*
X787697Y1233788D1*
X789272Y1230853D1*
X792499Y1222139D1*
X793906Y1212954D1*
X793965Y1210630D1*
X793049Y1201505D1*
X790291Y1192631D1*
X785803Y1184494D1*
X779769Y1177428D1*
X772436Y1171720D1*
X764104Y1167606D1*
X755114Y1165253D1*
X745835Y1164758D1*
X736646Y1166140D1*
X727924Y1169345D1*
X720025Y1174239D1*
X713273Y1180623D1*
X707944Y1188236D1*
X704257Y1196765D1*
X702362Y1205862D1*
X702338Y1215155D1*
X704184Y1224262D1*
X705774Y1227994D1*
X705775Y1948819D1*
X707068Y1957883D1*
X710849Y1966231D1*
X715286Y1971759D1*
X732245Y1988728D1*
X727629Y1995322D1*
X723942Y2003852D1*
X722047Y2012949D1*
X722023Y2022241D1*
X723869Y2031348D1*
X727511Y2039897D1*
X732799Y2047538D1*
X739517Y2053958D1*
X747390Y2058895D1*
X756095Y2062145D1*
X765277Y2063576D1*
X767624Y2063464D1*
X833727Y2129570D1*
X833728Y2132458D1*
X831615Y2131680D1*
X829863Y2131128D1*
X828090Y2130646D1*
X818894Y2129313D1*
X809617Y2129859D1*
X800641Y2132260D1*
X792331Y2136420D1*
X785029Y2142167D1*
X779033Y2149266D1*
X778499Y2150246D1*
X774799Y2149505D1*
X765520Y2149010D1*
X756331Y2150392D1*
X747609Y2153596D1*
X739710Y2158491D1*
X732958Y2164875D1*
X727629Y2172488D1*
X723942Y2181017D1*
X722047Y2190114D1*
X722023Y2199407D1*
X723869Y2208514D1*
X727511Y2217063D1*
X732799Y2224704D1*
X735299Y2227092D1*
X735303Y2378308D1*
X557791Y2555815D1*
X552296Y2563138D1*
X549067Y2571714D1*
X548295Y2578767D1*
X548291Y3156756D1*
X545950Y3158970D1*
X540621Y3166582D1*
X536934Y3175112D1*
X535039Y3184209D1*
X535015Y3193501D1*
X536861Y3202608D1*
X540503Y3211157D1*
X545791Y3218798D1*
X548291Y3221187D1*
X548295Y3540316D1*
X545950Y3542828D1*
X540621Y3550441D1*
X536934Y3558970D1*
X535039Y3568067D1*
X535015Y3577360D1*
X536861Y3586467D1*
X540503Y3595016D1*
X545791Y3602656D1*
X552509Y3609076D1*
X560382Y3614013D1*
X569087Y3617263D1*
X578269Y3618695D1*
X587550Y3618249D1*
X596552Y3615943D1*
X604906Y3611873D1*
X612269Y3606205D1*
X618340Y3599170D1*
X619964Y3596263D1*
X624531Y3602656D1*
X631249Y3609076D1*
X639122Y3614013D1*
X647827Y3617263D1*
X657009Y3618695D1*
X666291Y3618249D1*
X675292Y3615943D1*
X683646Y3611873D1*
X691009Y3606205D1*
X697081Y3599170D1*
X698705Y3596263D1*
X703271Y3602656D1*
X709989Y3609076D1*
X717862Y3614013D1*
X726568Y3617263D1*
X735749Y3618695D1*
X745031Y3618249D1*
X754033Y3615943D1*
X762386Y3611873D1*
X769749Y3606205D1*
X775821Y3599170D1*
X777445Y3596263D1*
X782012Y3602656D1*
X788730Y3609076D1*
X796602Y3614013D1*
X805308Y3617263D1*
X814489Y3618695D1*
X823771Y3618249D1*
X832773Y3615943D1*
X841126Y3611873D1*
X848489Y3606205D1*
X854561Y3599170D1*
X859092Y3591057D1*
X861897Y3582199D1*
X862230Y3579013D1*
X863141Y3578878D1*
X872143Y3576573D1*
X880496Y3572503D1*
X887860Y3566835D1*
X893931Y3559800D1*
X898462Y3551687D1*
X901267Y3542829D1*
X902232Y3533465D1*
X901317Y3524339D1*
X898558Y3515466D1*
X894070Y3507329D1*
X888726Y3501070D1*
X888728Y3234381D1*
X893229Y3234836D1*
X895577Y3234723D1*
X941994Y3281143D1*
X941996Y3313924D1*
X939651Y3316450D1*
X934322Y3324063D1*
X930635Y3332592D1*
X928740Y3341689D1*
X928716Y3350982D1*
X930562Y3360089D1*
X934204Y3368638D1*
X939492Y3376278D1*
X946210Y3382698D1*
X954083Y3387635D1*
X962788Y3390885D1*
X971969Y3392317D1*
X981251Y3391871D1*
X990253Y3389565D1*
X998607Y3385495D1*
X1005970Y3379827D1*
X1012041Y3372792D1*
X1016572Y3364680D1*
X1019378Y3355821D1*
X1020343Y3346457D1*
X1019427Y3337331D1*
X1016669Y3328458D1*
X1012181Y3320321D1*
X1006836Y3314062D1*
X1006839Y3267736D1*
X1006231Y3261470D1*
X1003216Y3252825D1*
X997905Y3245367D1*
X977790Y3225238D1*
X941602Y3189051D1*
X940687Y3179851D1*
X937942Y3171021D1*
X937941Y2936063D1*
X943144Y2929879D1*
X947675Y2921766D1*
X950480Y2912907D1*
X951445Y2903543D1*
X950529Y2894418D1*
X947771Y2885545D1*
X943283Y2877408D1*
X937249Y2870341D1*
X929916Y2864634D1*
X921584Y2860519D1*
X912595Y2858166D1*
X903315Y2857671D1*
X894126Y2859054D1*
X888735Y2861034D1*
X888725Y2778774D1*
X895320Y2780999D1*
X904542Y2782135D1*
X905510Y2782058D1*
X1020735Y2897286D1*
X1020736Y3166299D1*
X1018391Y3168812D1*
X1013062Y3176425D1*
X1009375Y3184954D1*
X1007480Y3194051D1*
X1007456Y3203344D1*
X1009302Y3212451D1*
X1012944Y3221000D1*
X1018232Y3228641D1*
X1023789Y3233951D1*
X1022905Y3235480D1*
X1019218Y3244009D1*
X1017323Y3253107D1*
X1017298Y3262399D1*
X1019145Y3271506D1*
X1022786Y3280055D1*
X1028075Y3287696D1*
X1034793Y3294116D1*
X1040428Y3297649D1*
X1040421Y3451429D1*
Y3507758D1*
X1031268Y3507277D1*
X1022079Y3508660D1*
X1013357Y3511864D1*
X1005458Y3516759D1*
X998706Y3523143D1*
X993377Y3530755D1*
X989690Y3539285D1*
X987795Y3548382D1*
X987771Y3557674D1*
X989617Y3566782D1*
X993259Y3575331D1*
X998547Y3582971D1*
X1001047Y3585360D1*
X1001051Y3658425D1*
X998706Y3660938D1*
X993377Y3668551D1*
X989690Y3677080D1*
X987795Y3686177D1*
X987771Y3695470D1*
X989617Y3704577D1*
X993259Y3713126D1*
X998547Y3720767D1*
X1005265Y3727187D1*
X1013138Y3732123D1*
X1021843Y3735373D1*
X1031025Y3736805D1*
X1040306Y3736359D1*
X1049308Y3734054D1*
X1057662Y3729983D1*
X1063608Y3725406D1*
X1063835Y3725393D1*
X1067445Y3730609D1*
X1074163Y3737029D1*
X1082035Y3741965D1*
X1086839Y3743759D1*
X586089Y3743760D1*
X578512Y3743498D1*
X569323Y3744881D1*
X560601Y3748085D1*
X552702Y3752979D1*
X545950Y3759363D1*
X540621Y3766976D1*
X536934Y3775505D1*
X535039Y3784603D1*
X535015Y3793895D1*
X536861Y3803002D1*
X540503Y3811551D1*
X545791Y3819192D1*
X552509Y3825612D1*
X560382Y3830548D1*
X569087Y3833798D1*
X578269Y3835230D1*
X583462Y3834980D1*
X1712581D1*
X1715374Y3834896D1*
X1724426Y3833422D1*
X1732999Y3830167D1*
X1740749Y3825263D1*
X1744858Y3821621D1*
X1872797Y3693682D1*
X1874708Y3691652D1*
X1880066Y3684210D1*
X1883827Y3675845D1*
X1885839Y3666898D1*
X1886169Y3661417D1*
Y3575980D1*
X1886484Y3572835D1*
X1886169Y3569689D1*
Y3453923D1*
X1918509Y3421593D1*
X2191238Y3421595D1*
X2194046Y3427693D1*
X2199334Y3435334D1*
X2206052Y3441754D1*
X2213925Y3446690D1*
X2222631Y3449940D1*
X2231812Y3451372D1*
X2241094Y3450926D1*
X2250096Y3448620D1*
X2258449Y3444550D1*
X2265812Y3438882D1*
X2271884Y3431847D1*
X2276415Y3423735D1*
X2279220Y3414876D1*
X2280185Y3405512D1*
X2279869Y3402366D1*
X2279870Y3376010D1*
X2279833Y3374138D1*
X2278542Y3365059D1*
X2275462Y3356421D1*
X2270715Y3348574D1*
X2264495Y3341835D1*
X2257052Y3336477D1*
X2248688Y3332716D1*
X2239740Y3330704D1*
X2234260Y3330374D1*
X1899640D1*
X1896846Y3330458D1*
X1887795Y3331932D1*
X1879221Y3335187D1*
X1871472Y3340091D1*
X1867363Y3343733D1*
X1808325Y3402771D1*
X1806410Y3404804D1*
X1801052Y3412247D1*
X1797291Y3420611D1*
X1795279Y3429559D1*
X1794949Y3435039D1*
X1794950Y3567738D1*
X1794882Y3568067D1*
X1794857Y3577360D1*
X1794949Y3577813D1*
Y3642526D1*
X1693709Y3743764D1*
X1461251Y3743760D1*
X1462291Y3739679D1*
X1463256Y3730315D1*
X1462340Y3721190D1*
X1459582Y3712316D1*
X1455094Y3704180D1*
X1449060Y3697113D1*
X1441727Y3691405D1*
X1433395Y3687291D1*
X1424406Y3684938D1*
X1415126Y3684443D1*
X1405938Y3685825D1*
X1397215Y3689030D1*
X1389316Y3693924D1*
X1385116Y3697895D1*
X1243164Y3697894D1*
X1242367Y3697113D1*
X1235034Y3691405D1*
X1226702Y3687291D1*
X1217713Y3684938D1*
X1208433Y3684443D1*
X1199245Y3685825D1*
X1190522Y3689030D1*
X1182623Y3693924D1*
X1175871Y3700308D1*
X1170543Y3707921D1*
X1166855Y3716450D1*
X1164961Y3725548D1*
X1164936Y3734840D1*
X1166745Y3743760D1*
X1118491Y3743757D1*
X1126559Y3739826D1*
X1133923Y3734158D1*
X1139994Y3727123D1*
X1144525Y3719010D1*
X1147330Y3710151D1*
X1148295Y3700787D1*
X1147380Y3691662D1*
X1144936Y3683803D1*
X1149837Y3677910D1*
X1154368Y3669798D1*
X1156524Y3662989D1*
X1168013Y3674486D1*
X1172874Y3678488D1*
X1181119Y3682469D1*
X1190148Y3683986D1*
X1218273Y3683996D1*
X1387783D1*
X1394050Y3683389D1*
X1402695Y3680374D1*
X1410152Y3675062D1*
X1430282Y3654947D1*
X1450084Y3635145D1*
X1454086Y3630283D1*
X1458067Y3622038D1*
X1459585Y3613009D1*
X1459595Y3584884D1*
X1459594Y3578623D1*
X1460366Y3578743D1*
X1462058Y3586467D1*
X1465700Y3595016D1*
X1470988Y3602656D1*
X1477706Y3609076D1*
X1485579Y3614013D1*
X1494284Y3617263D1*
X1503466Y3618695D1*
X1512747Y3618249D1*
X1521749Y3615943D1*
X1530103Y3611873D1*
X1537466Y3606205D1*
X1543537Y3599170D1*
X1545161Y3596263D1*
X1549728Y3602656D1*
X1556446Y3609076D1*
X1564319Y3614013D1*
X1573024Y3617263D1*
X1582206Y3618695D1*
X1591487Y3618249D1*
X1600489Y3615943D1*
X1608843Y3611873D1*
X1616206Y3606205D1*
X1622277Y3599170D1*
X1623901Y3596263D1*
X1628468Y3602656D1*
X1635186Y3609076D1*
X1643059Y3614013D1*
X1651764Y3617263D1*
X1660946Y3618695D1*
X1670228Y3618249D1*
X1679229Y3615943D1*
X1687583Y3611873D1*
X1694946Y3606205D1*
X1701018Y3599170D1*
X1702642Y3596263D1*
X1707208Y3602656D1*
X1713926Y3609076D1*
X1721799Y3614013D1*
X1730505Y3617263D1*
X1739686Y3618695D1*
X1748968Y3618249D1*
X1757970Y3615943D1*
X1766323Y3611873D1*
X1773686Y3606205D1*
X1779758Y3599170D1*
X1784289Y3591057D1*
X1787094Y3582199D1*
X1788059Y3572835D1*
X1787143Y3563709D1*
X1784385Y3554836D1*
X1779897Y3546699D1*
X1774552Y3540440D1*
X1774558Y3113069D1*
X1779758Y3107044D1*
X1784289Y3098932D1*
X1787094Y3090073D1*
X1788059Y3080709D1*
X1787143Y3071583D1*
X1784385Y3062710D1*
X1779897Y3054573D1*
X1774552Y3048314D1*
X1774555Y2538895D1*
X1784795Y2549141D1*
X1785015Y2553737D1*
X1786861Y2562845D1*
X1790503Y2571394D1*
X1795791Y2579034D1*
X1802509Y2585454D1*
X1810382Y2590391D1*
X1819087Y2593641D1*
X1828269Y2595073D1*
X1830616Y2594960D1*
X2066716Y2831063D1*
X2066212Y2831937D1*
X2062525Y2840466D1*
X2060630Y2849563D1*
X2060605Y2858856D1*
X2062452Y2867963D1*
X2066094Y2876512D1*
X2071382Y2884153D1*
X2078100Y2890572D1*
X2085973Y2895509D1*
X2094678Y2898759D1*
X2103859Y2900191D1*
X2113141Y2899745D1*
X2122143Y2897439D1*
X2130496Y2893369D1*
X2137860Y2887701D1*
X2143931Y2880666D1*
X2148462Y2872554D1*
X2151267Y2863695D1*
X2152232Y2854331D1*
X2151317Y2845205D1*
X2148558Y2836332D1*
X2144070Y2828195D1*
X2138584Y2821770D1*
X2137436Y2815739D1*
X2133655Y2807391D1*
X2129213Y2801859D1*
X1876642Y2549287D1*
X1875726Y2540087D1*
X1872968Y2531214D1*
X1868480Y2523077D1*
X1868050Y2522573D1*
X1919299Y2522579D1*
X1928363Y2521286D1*
X1936711Y2517505D1*
X1942243Y2513065D1*
X2031154Y2424154D1*
X2260795D1*
X2260894Y2424268D1*
Y2499978D1*
X2261501Y2506247D1*
X2264516Y2514892D1*
X2269828Y2522349D1*
X2289123Y2541658D1*
X2316522Y2569058D1*
X2316511Y2573422D1*
X2318357Y2582530D1*
X2321999Y2591079D1*
X2327287Y2598719D1*
X2334005Y2605139D1*
X2341878Y2610076D1*
X2350583Y2613326D1*
X2359765Y2614758D1*
X2369046Y2614312D1*
X2378048Y2612006D1*
X2386402Y2607936D1*
X2393765Y2602268D1*
X2399837Y2595233D1*
X2404368Y2587120D1*
X2407173Y2578262D1*
X2408138Y2568898D1*
X2407222Y2559772D1*
X2404464Y2550899D1*
X2399976Y2542762D1*
X2393942Y2535696D1*
X2386609Y2529988D1*
X2378277Y2525874D1*
X2369287Y2523521D1*
X2362319Y2523149D1*
X2325737Y2486571D1*
X2325739Y2424093D1*
X2330939Y2418068D1*
X2335470Y2409955D1*
X2338275Y2401096D1*
X2339240Y2391732D1*
X2338324Y2382607D1*
X2335566Y2373734D1*
X2331078Y2365597D1*
X2325044Y2358530D1*
X2317711Y2352823D1*
X2309379Y2348708D1*
X2300390Y2346355D1*
X2291111Y2345860D1*
X2281922Y2347243D1*
X2273199Y2350447D1*
X2265300Y2355341D1*
X2261100Y2359313D1*
X2046782Y2359311D1*
X2099632Y2306462D1*
X2103692Y2301543D1*
X2107674Y2293299D1*
X2109191Y2284270D1*
X2109201Y2256480D1*
Y2247087D1*
X2109301Y2246988D1*
X2230680D1*
X2249003Y2265319D1*
X2249460Y2267569D1*
X2253101Y2276118D1*
X2258390Y2283759D1*
X2265108Y2290179D1*
X2272980Y2295115D1*
X2281686Y2298365D1*
X2290867Y2299797D1*
X2300149Y2299351D1*
X2309151Y2297046D1*
X2317504Y2292976D1*
X2324867Y2287307D1*
X2330939Y2280273D1*
X2335470Y2272160D1*
X2338275Y2263301D1*
X2339240Y2253937D1*
X2338324Y2244812D1*
X2335566Y2235938D1*
X2331078Y2227802D1*
X2325044Y2220735D1*
X2317711Y2215027D1*
X2309379Y2210913D1*
X2300390Y2208560D1*
X2291111Y2208065D1*
X2284461Y2209065D1*
X2267028Y2191642D1*
X2259704Y2186147D1*
X2251128Y2182917D1*
X2244075Y2182146D1*
X2066911Y2890807D2*
X1974776Y2890805D1*
X1974151Y2884576D1*
X1971393Y2875702D1*
X1966905Y2867565D1*
X1960871Y2860499D1*
X1953538Y2854791D1*
X1945206Y2850677D1*
X1936217Y2848324D1*
X1926937Y2847829D1*
X1917749Y2849211D1*
X1909026Y2852415D1*
X1901127Y2857310D1*
X1894375Y2863694D1*
X1889047Y2871307D1*
X1885359Y2879836D1*
X1883465Y2888933D1*
X1883442Y2897418D1*
X1878378Y2898424D1*
X1869656Y2901628D1*
X1861757Y2906522D1*
X1855005Y2912907D1*
X1849676Y2920519D1*
X1845989Y2929049D1*
X1844095Y2938146D1*
X1844070Y2947438D1*
X1845916Y2956545D1*
X1849558Y2965094D1*
X1854846Y2972735D1*
X1861564Y2979155D1*
X1869437Y2984091D1*
X1878142Y2987342D1*
X1887324Y2988773D1*
X1896605Y2988327D1*
X1905607Y2986022D1*
X1907345Y2985175D1*
X1945678Y2985180D1*
X1944414Y2988104D1*
X1942520Y2997201D1*
X1942495Y3006493D1*
X1944341Y3015600D1*
X1947983Y3024149D1*
X1953271Y3031790D1*
X1955771Y3034179D1*
X1955776Y3048176D1*
X1953430Y3050702D1*
X1948102Y3058315D1*
X1944414Y3066844D1*
X1942520Y3075941D1*
X1942495Y3085234D1*
X1944341Y3094341D1*
X1947983Y3102890D1*
X1953271Y3110530D1*
X1959989Y3116950D1*
X1967862Y3121887D1*
X1976568Y3125137D1*
X1985749Y3126569D1*
X1995031Y3126123D1*
X2004033Y3123817D1*
X2012386Y3119747D1*
X2019749Y3114079D1*
X2025821Y3107044D1*
X2030352Y3098932D1*
X2033157Y3090073D1*
X2034122Y3080709D1*
X2033206Y3071583D1*
X2030448Y3062710D1*
X2025960Y3054573D1*
X2020615Y3048314D1*
X2020618Y3034501D1*
X2025821Y3028304D1*
X2030352Y3020191D1*
X2033157Y3011333D1*
X2034122Y3001969D1*
X2033206Y2992843D1*
X2030823Y2985174D1*
X2043673Y2985177D1*
X2063682Y3005194D1*
X2068543Y3009196D1*
X2076788Y3013177D1*
X2085817Y3014695D1*
X2114837Y3014705D1*
X2145655D1*
X2151924Y3014097D1*
X2160569Y3011082D1*
X2168026Y3005771D1*
X2188156Y2985656D1*
X2483548Y2690263D1*
X2487551Y2685401D1*
X2491532Y2677157D1*
X2493049Y2668128D1*
X2493059Y2640338D1*
X2493057Y2547413D1*
X2495756Y2538892D1*
X2496720Y2529528D1*
X2495805Y2520402D1*
X2493047Y2511529D1*
X2488559Y2503392D1*
X2482524Y2496325D1*
X2475191Y2490618D1*
X2466860Y2486504D1*
X2457870Y2484151D1*
X2448591Y2483655D1*
X2439402Y2485038D1*
X2430680Y2488242D1*
X2422781Y2493137D1*
X2416029Y2499521D1*
X2410700Y2507133D1*
X2407013Y2515663D1*
X2405118Y2524760D1*
X2405094Y2534052D1*
X2406940Y2543159D1*
X2410582Y2551708D1*
X2415870Y2559349D1*
X2422588Y2565769D1*
X2428223Y2569303D1*
X2428225Y2602255D1*
X2419063Y2601766D1*
X2409875Y2603148D1*
X2401152Y2606352D1*
X2393253Y2611247D1*
X2386501Y2617631D1*
X2381172Y2625244D1*
X2377485Y2633773D1*
X2375591Y2642870D1*
X2375566Y2652163D1*
X2377412Y2661270D1*
X2378625Y2664117D1*
X2122403Y2920337D1*
X2109889Y2920335D1*
X2089862Y2900303D1*
X2082539Y2894808D1*
X2073963Y2891579D1*
X2066911Y2890807D1*
M02*
