G04 DipTrace 4.3.0.5*
G04 BottomSilk.gbr*
%MOIN*%
G04 #@! TF.FileFunction,Legend,Bot*
G04 #@! TF.Part,Single*
%FSLAX26Y26*%
G04*
G70*
G90*
G75*
G01*
G04 BotSilk*
%LPD*%
G36*
X1341826Y4019972D2*
X1322040Y4015026D1*
X1287414Y4000186D1*
X1250315Y3982874D1*
X1198377Y3958141D1*
X1047509Y3883944D1*
X879328Y3799853D1*
X874382Y3794907D1*
X869435Y3785014D1*
Y3765228D1*
X874382Y3757808D1*
X884275Y3750388D1*
X889221Y3747915D1*
X1430863Y3745442D1*
X1957664D1*
X1970031Y3747915D1*
X1977450Y3752862D1*
X1979924Y3755335D1*
X1984870Y3762755D1*
Y3785014D1*
X1982397Y3789960D1*
X1972504Y3799853D1*
X1843895Y3864158D1*
X1693027Y3938355D1*
X1556998Y4005133D1*
X1539685Y4012553D1*
X1532266Y4015026D1*
X1500113Y4024919D1*
X1487747Y4027392D1*
X1470434Y4029865D1*
X1450648Y4032339D1*
X1406130D1*
X1371505Y4027392D1*
X1359138Y4024919D1*
X1349245Y4022446D1*
X1341826Y4019972D1*
X1411077D1*
X1422618Y4022446D1*
X1434160D1*
X1445702Y4019972D1*
X1465488Y4017499D1*
X1495167Y4012553D1*
X1514953Y4007606D1*
X1529792Y4002660D1*
X1534739Y4000186D1*
X1547105Y3995240D1*
X1566891Y3985347D1*
X1772171Y3883944D1*
X1898306Y3822113D1*
X1905726Y3819639D1*
X1965084Y3789960D1*
X1972504Y3782541D1*
Y3780067D1*
X1974977Y3777594D1*
Y3770174D1*
X1967557Y3762755D1*
X1962611Y3760281D1*
X1606463Y3757808D1*
X1250315D1*
X894168Y3760281D1*
X884275Y3765228D1*
Y3767701D1*
X881801Y3770174D1*
Y3785014D1*
X889221Y3792434D1*
X909007Y3802327D1*
X916427Y3804800D1*
X1042562Y3866631D1*
X1158805Y3923516D1*
X1302254Y3992767D1*
X1307200Y3995240D1*
X1344299Y4007606D1*
X1383871Y4017499D1*
X1411077Y4019972D1*
X1341826D1*
G37*
G36*
X1230529Y2466772D2*
X1228056Y2464299D1*
X1220636Y2449460D1*
X1210743Y2434620D1*
X1200850Y2422254D1*
X1188484Y2407414D1*
Y2404941D1*
X1129126Y2345583D1*
X1124180Y2343110D1*
X1094501Y2315904D1*
X1059875Y2281279D1*
X1049982Y2268912D1*
X1035143Y2249126D1*
X1030196Y2241707D1*
X1027723Y2236760D1*
X1022776Y2229341D1*
X1000517Y2184822D1*
X993098Y2162563D1*
X990624Y2152670D1*
X988151Y2145250D1*
X978258Y2095785D1*
X973312Y2066106D1*
X970838Y2053740D1*
X965892Y2046320D1*
X953526Y2031481D1*
X941159Y2019114D1*
X936213Y2016641D1*
X927969Y2014168D1*
X919724D1*
X911480Y2016641D1*
X886748Y2029007D1*
X881801Y2033954D1*
X859542Y2048793D1*
X849649Y2056213D1*
X834810Y2066106D1*
X824917Y2073526D1*
X817497Y2078472D1*
X777925Y2098258D1*
X763085Y2103205D1*
X750719Y2105678D1*
X708674D1*
X686415Y2100732D1*
X678995Y2098258D1*
X659209Y2088365D1*
X649316Y2080946D1*
X641896Y2075999D1*
X639423Y2073526D1*
X624583Y2056213D1*
X617164Y2046320D1*
X607271Y2031481D1*
X592431Y2001802D1*
X585012Y1979542D1*
X582538Y1974596D1*
Y1927604D1*
X587485Y1897925D1*
X589958Y1888032D1*
X592431Y1883086D1*
X597378Y1868246D1*
X599851Y1863300D1*
X602324Y1855880D1*
X604797Y1850933D1*
X609744Y1843514D1*
X619637Y1823728D1*
X634476Y1801469D1*
X636950Y1796522D1*
X664155Y1769316D1*
X671575Y1764370D1*
X681468Y1756950D1*
X693834Y1749530D1*
X701254Y1744584D1*
X711147Y1739637D1*
Y1742111D1*
X706201Y1749530D1*
X703727Y1756950D1*
X701254Y1766843D1*
X698781Y1769316D1*
Y1791576D1*
X701254Y1794049D1*
X706201Y1808888D1*
Y1811361D1*
X721040Y1826201D1*
X725987Y1828674D1*
X728460Y1831147D1*
X758139Y1845987D1*
X765559Y1848460D1*
X775452Y1853407D1*
Y1855880D1*
X772978Y1860826D1*
X770505Y1868246D1*
X768032Y1873193D1*
X765559Y1883086D1*
X763085Y1885559D1*
X758139Y1883086D1*
X743299Y1873193D1*
X739177Y1870719D1*
X735055D1*
X730933Y1873193D1*
X725987Y1875666D1*
X723054Y1878446D1*
X723513Y1880612D1*
X721040Y1888032D1*
X718567Y1897925D1*
X716094Y1900398D1*
Y1912765D1*
X721040Y1917711D1*
X725987Y1920184D1*
X733406Y1922658D1*
X738353Y1925131D1*
X748246Y1927604D1*
X765559Y1930077D1*
X768032Y1935024D1*
X770505Y1944917D1*
X775452Y1952337D1*
Y1954810D1*
X790291Y1969649D1*
X805131Y1977069D1*
X807604Y1979542D1*
X822443Y1986962D1*
X837283Y1989435D1*
X845527Y1991909D1*
X853771D1*
X862015Y1989435D1*
X874382Y1986962D1*
X889221Y1982016D1*
X899114Y1977069D1*
X926320Y1967176D1*
X938686Y1962230D1*
X951052D1*
X960945Y1964703D1*
X980731Y1974596D1*
X985678D1*
X990624Y1972123D1*
Y1969649D1*
X993098Y1962230D1*
X995571Y1957283D1*
X1002991Y1947390D1*
X1022776Y1922658D1*
X1025250Y1920184D1*
X1030196Y1917711D1*
X1035143D1*
X1049982Y1930077D1*
X1057402Y1937497D1*
X1062348Y1939970D1*
X1068119Y1942444D1*
X1073890D1*
X1079661Y1939970D1*
X1084608Y1935024D1*
Y1932551D1*
X1087081Y1930077D1*
X1213217Y1927604D1*
X1220636Y1925131D1*
X1223110Y1922658D1*
Y1833621D1*
X1312147D1*
Y1920184D1*
X1317093Y1925131D1*
X1322040Y1927604D1*
X1343474Y1930077D1*
X1364909D1*
X1386344Y1927604D1*
X1391291Y1925131D1*
X1396237Y1920184D1*
Y1912765D1*
X1393764Y1910291D1*
Y1848460D1*
X1438282D1*
X1440756Y1853407D1*
X1443229Y1860826D1*
X1445702Y1870719D1*
X1448175Y1883086D1*
Y1897925D1*
X1445702Y1900398D1*
Y1907818D1*
X1448175Y1910291D1*
X1450648Y1920184D1*
Y1944917D1*
X1448175Y1957283D1*
X1443229Y1972123D1*
X1438282Y1982016D1*
X1430863Y2004275D1*
X1428389Y2014168D1*
X1425916Y2016641D1*
Y2041374D1*
X1428389Y2043847D1*
X1430863Y2056213D1*
X1435809Y2071053D1*
X1438282Y2075999D1*
X1440756Y2083419D1*
X1443229Y2088365D1*
X1448175Y2095785D1*
X1450648Y2100732D1*
X1465488Y2118044D1*
Y2120518D1*
X1480327Y2135357D1*
X1485274Y2137830D1*
X1505060Y2152670D1*
X1522373Y2162563D1*
X1554525Y2179876D1*
X1566891Y2187295D1*
X1574311Y2192242D1*
X1589150Y2204608D1*
X1631196Y2244180D1*
X1633669Y2246653D1*
X1663348Y2281279D1*
X1668294Y2288698D1*
X1690554Y2318377D1*
X1700447Y2333217D1*
X1702920Y2338163D1*
X1707866Y2345583D1*
X1712813Y2355476D1*
X1713294Y2357229D1*
X1715286Y2360423D1*
X1720233Y2362896D1*
X1722080Y2364484D1*
X1723361Y2364340D1*
X1725179Y2362896D1*
X1737545Y2360423D1*
X1744965Y2357949D1*
X1749912Y2355476D1*
X1752385Y2353003D1*
X1759805Y2348056D1*
X1772171Y2338163D1*
X1777117Y2335690D1*
X1799377Y2313431D1*
Y2310958D1*
X1804323Y2303538D1*
X1811743Y2288698D1*
X1814216Y2281279D1*
X1816689Y2276332D1*
X1819163Y2268912D1*
X1821636Y2266439D1*
Y2261493D1*
X1819163Y2259019D1*
X1816689Y2254073D1*
X1811743Y2246653D1*
X1809270Y2241707D1*
X1804323Y2234287D1*
X1799377Y2219448D1*
X1796903Y2209555D1*
X1794430Y2197188D1*
Y2192242D1*
X1796903Y2187295D1*
X1799377Y2184822D1*
X1809270D1*
X1829056Y2189769D1*
X1844719Y2192242D1*
X1860383D1*
X1876047Y2189769D1*
X1885940Y2184822D1*
X1890887Y2179876D1*
X1895833Y2177402D1*
X1910673Y2162563D1*
Y2160090D1*
X1923039Y2145250D1*
X1932932Y2130411D1*
X1940352Y2120518D1*
X1950245Y2105678D1*
X1957664Y2095785D1*
X1967557Y2080946D1*
X1970031Y2075999D1*
X1974977Y2068579D1*
X1984870Y2048793D1*
X1987343Y2041374D1*
X1989817Y2036427D1*
X1992290Y2026534D1*
X1994763Y2019114D1*
X1997236Y2016641D1*
X2002183Y2014168D1*
X2009603Y2006748D1*
Y2004275D1*
X2012076Y1999328D1*
X2024442Y1986962D1*
X2031862Y1984489D1*
X2041755D1*
X2051648Y1986962D1*
X2059068Y1989435D1*
X2065663Y1991909D1*
X2072258D1*
X2078854Y1989435D1*
X2086273Y1986962D1*
X2091220Y1982016D1*
Y1979542D1*
X2096166Y1969649D1*
X2101113Y1962230D1*
X2108533Y1954810D1*
X2115952Y1949863D1*
X2128319Y1947390D1*
X2143158Y1939970D1*
X2145631Y1937497D1*
X2153051Y1932551D1*
X2157998Y1930077D1*
X2165417Y1927604D1*
X2170364Y1925131D1*
X2172837Y1922658D1*
X2182730D1*
X2195096Y1927604D1*
X2200043Y1930077D1*
X2217356Y1939970D1*
X2224775Y1944917D1*
X2227249Y1947390D1*
X2237142Y1959756D1*
X2244561Y1969649D1*
X2251981Y1984489D1*
X2254454Y1994382D1*
X2251981Y1999328D1*
X2249508Y2001802D1*
X2244561Y2004275D1*
X2217356Y1999328D1*
X2206638Y1996855D1*
X2195921D1*
X2185203Y1999328D1*
X2170364Y2001802D1*
X2155524Y2006748D1*
X2150578Y2009221D1*
X2143158Y2011695D1*
X2138212Y2014168D1*
X2135738Y2016641D1*
X2128319Y2021588D1*
X2118426Y2029007D1*
X2088747Y2048793D1*
X2076380Y2056213D1*
X2054121Y2071053D1*
X2041755Y2080946D1*
X2026915Y2093312D1*
X2021969Y2095785D1*
X2007129Y2110625D1*
Y2113098D1*
X1999710Y2122991D1*
X1979924Y2152670D1*
X1970031Y2172456D1*
X1965084Y2187295D1*
X1962611Y2192242D1*
X1960138Y2199662D1*
X1957664Y2204608D1*
X1955191Y2212028D1*
X1952718Y2226867D1*
X1950245Y2239233D1*
X1947771Y2241707D1*
Y2251600D1*
X1952718Y2254073D1*
X1960138Y2256546D1*
X1994763Y2273859D1*
X2004656Y2283752D1*
X2009603Y2293645D1*
Y2298591D1*
X2007129Y2315904D1*
X2002183Y2355476D1*
X1999710Y2377735D1*
X1997236Y2412361D1*
X1994763Y2414834D1*
Y2429674D1*
X1997236Y2432147D1*
X1999710Y2456879D1*
X2002183Y2474192D1*
Y2489032D1*
X1997236Y2498925D1*
X1992290Y2506344D1*
X1987343Y2516237D1*
X1967557Y2545916D1*
X1965084Y2548390D1*
X1955191Y2553336D1*
X1930459D1*
X1915619Y2548390D1*
X1903253Y2543443D1*
X1890887Y2536023D1*
X1888413Y2533550D1*
X1873574Y2528604D1*
X1861208Y2526130D1*
X1846368Y2523657D1*
X1837300Y2521184D1*
X1828231D1*
X1819163Y2523657D1*
X1816229Y2526438D1*
X1816993Y2528089D1*
X1819163Y2531077D1*
X1821636Y2565702D1*
Y2568176D1*
X1819163Y2597855D1*
X1816689Y2607748D1*
X1814216Y2615167D1*
X1806796Y2630007D1*
X1801850Y2637427D1*
X1799377Y2642373D1*
X1791957Y2652266D1*
X1754858Y2689365D1*
X1749912Y2691838D1*
X1735072Y2706677D1*
Y2709151D1*
X1730126Y2716570D1*
X1725179Y2731410D1*
X1722706Y2763562D1*
X1720233Y2773455D1*
X1715286Y2788295D1*
X1707866Y2803134D1*
X1702920Y2810554D1*
X1700447Y2815500D1*
X1690554Y2830340D1*
X1675714Y2850126D1*
X1660875Y2872385D1*
X1616356Y2924323D1*
X1606463Y2936690D1*
X1591624Y2956476D1*
X1571838Y2986155D1*
X1566891Y2996048D1*
X1564418Y3005941D1*
X1561945Y3008414D1*
Y3018307D1*
X1564418Y3020780D1*
X1566891Y3025727D1*
X1574311Y3035620D1*
X1576158Y3037208D1*
X1577440Y3037063D1*
X1579229Y3035545D1*
X1581731Y3033146D1*
Y3025727D1*
X1579257Y3023253D1*
Y3018307D1*
X1584204Y3008414D1*
X1594097Y2996048D1*
X1596570Y2993574D1*
X1606463Y2986155D1*
X1616356Y2981208D1*
X1631196Y2978735D1*
X1646035Y2971315D1*
X1648027Y2968122D1*
X1648508Y2966369D1*
X1650982Y2958949D1*
X1658401Y2949056D1*
X1663348Y2944109D1*
X1673241Y2936690D1*
X1680661Y2931743D1*
X1685607Y2929270D1*
X1700447Y2914430D1*
Y2909484D1*
X1695500Y2907011D1*
Y2902064D1*
X1705393Y2882278D1*
X1707866Y2879805D1*
X1730126Y2872385D1*
X1762278Y2864965D1*
X1791957D1*
X1799377Y2867439D1*
X1806796Y2872385D1*
X1814216Y2879805D1*
Y2894644D1*
X1811283Y2897425D1*
X1812047Y2899077D1*
X1814216Y2902064D1*
X1826582Y2926797D1*
Y2944109D1*
X1824109Y2951529D1*
X1821636Y2956476D1*
X1819163Y2963895D1*
X1816689Y2968842D1*
X1814216Y2976262D1*
X1809270Y2986155D1*
X1806796Y2993574D1*
X1804323Y2998521D1*
X1801850Y3005941D1*
X1799377Y3010887D1*
X1796903Y3018307D1*
X1794430Y3023253D1*
X1791957Y3030673D1*
X1789484Y3035620D1*
X1787010Y3043039D1*
X1784537Y3047986D1*
X1782064Y3055406D1*
X1777117Y3065299D1*
X1774644Y3072718D1*
X1772171Y3077665D1*
X1769698Y3085084D1*
X1767224Y3090031D1*
X1764751Y3097451D1*
X1762278Y3102397D1*
X1759805Y3109817D1*
X1757331Y3114763D1*
X1754858Y3122183D1*
X1744965Y3141969D1*
X1737545Y3151862D1*
X1727652Y3166702D1*
X1725179Y3169175D1*
Y3174121D1*
X1727652Y3176595D1*
X1737545Y3181541D1*
X1744965Y3186488D1*
X1749912Y3191434D1*
X1752385Y3196381D1*
Y3201327D1*
X1742492Y3196381D1*
X1726003Y3186488D1*
X1721881D1*
X1717759Y3188961D1*
X1715286Y3191434D1*
Y3201327D1*
X1717759Y3203800D1*
X1722706Y3206274D1*
X1735072Y3213693D1*
X1740019Y3216167D1*
X1749912Y3226060D1*
X1754858Y3233479D1*
X1757331Y3238426D1*
X1759805Y3250792D1*
Y3275525D1*
X1757331Y3280471D1*
X1752385Y3282944D1*
X1747438D1*
X1735072Y3270578D1*
Y3268105D1*
X1700447Y3233479D1*
X1695500Y3231006D1*
X1693027Y3228533D1*
X1687256Y3226060D1*
X1681485D1*
X1675714Y3228533D1*
X1670768Y3233479D1*
Y3245846D1*
X1673241Y3248319D1*
X1678187Y3268105D1*
X1683134Y3277998D1*
X1683615Y3279751D1*
X1685607Y3282944D1*
X1690554Y3285418D1*
X1697973Y3292837D1*
X1730126Y3329936D1*
X1735072Y3337356D1*
X1742492Y3352195D1*
X1749912Y3362088D1*
Y3364562D1*
X1774644Y3389294D1*
X1779591Y3391767D1*
X1789484Y3401660D1*
X1799377Y3414027D1*
X1806796Y3428866D1*
X1816689Y3443706D1*
Y3446179D1*
X1834002Y3463492D1*
X1838949Y3465965D1*
X1858735Y3485751D1*
X1863681Y3493171D1*
X1866154Y3498117D1*
X1871101Y3512956D1*
X1873574Y3517903D1*
Y3520376D1*
X1883467Y3530269D1*
X1893360Y3535216D1*
X1900780Y3540162D1*
X1918092Y3557475D1*
X1927985Y3569841D1*
X1930459Y3574788D1*
X1932932Y3582207D1*
X1934169Y3584681D1*
X1935518Y3586934D1*
X1937902Y3589574D1*
X1940352Y3592100D1*
X1965084Y3616833D1*
X1974977Y3631672D1*
X1979924Y3641565D1*
Y3644039D1*
X1984870Y3648985D1*
X1989817Y3651458D1*
X1994763Y3656405D1*
X2004656Y3671244D1*
X2007129Y3678664D1*
X2012076Y3686084D1*
X2019496Y3695977D1*
Y3705870D1*
X2017022D1*
X2009603Y3703397D1*
X2007129Y3700923D1*
Y3698450D1*
X1997236Y3688557D1*
X1992290Y3686084D1*
X1950245Y3648985D1*
X1940352Y3641565D1*
X1927985Y3629199D1*
X1923039Y3621779D1*
X1921802Y3619306D1*
X1920346Y3616720D1*
X1918074Y3614352D1*
X1913146Y3609413D1*
X1903253Y3604467D1*
X1893360Y3597047D1*
X1868627Y3572314D1*
X1863681Y3562421D1*
X1856261Y3552528D1*
X1831529Y3537689D1*
X1814216Y3527796D1*
X1809270Y3522849D1*
X1799377Y3510483D1*
X1794430Y3503063D1*
X1791957Y3498117D1*
X1789484Y3490697D1*
Y3488224D1*
X1779591Y3478331D1*
X1769698Y3473385D1*
X1759805Y3470911D1*
X1754858Y3468438D1*
X1744965Y3461018D1*
X1727652Y3443706D1*
X1720233Y3433813D1*
X1712813Y3418973D1*
Y3416500D1*
X1707866Y3411553D1*
X1702920Y3409080D1*
X1693027Y3406607D1*
X1685607Y3404134D1*
X1675714Y3396714D1*
X1668294Y3391767D1*
X1663348Y3386821D1*
X1653455Y3374455D1*
X1638615Y3352195D1*
X1636142Y3347249D1*
Y3344776D1*
X1631196Y3339829D1*
X1627570Y3340080D1*
X1626249Y3342302D1*
X1621303Y3344776D1*
X1608936D1*
X1603990Y3342302D1*
X1601367Y3339616D1*
X1600087Y3340018D1*
X1599043Y3342302D1*
X1596570Y3344776D1*
X1589150Y3347249D1*
X1579257D1*
X1576242Y3344668D1*
X1573374Y3344985D1*
X1571031Y3347848D1*
X1571838Y3349722D1*
X1569364Y3352195D1*
X1564418Y3354669D1*
X1502587Y3362088D1*
X1492694D1*
X1477854Y3359615D1*
X1470434Y3357142D1*
X1467961Y3354669D1*
X1467061Y3351628D1*
X1464429Y3349521D1*
X1462191Y3349916D1*
X1460541Y3352195D1*
X1443229D1*
X1418496Y3347249D1*
X1373978Y3332409D1*
X1371505Y3329936D1*
X1370692Y3326936D1*
X1369031Y3324990D1*
X1356665Y3322516D1*
X1349245Y3320043D1*
X1344299Y3317570D1*
X1339352Y3312623D1*
X1341826Y3305204D1*
X1344299Y3302730D1*
Y3297784D1*
X1341283Y3295203D1*
X1338424Y3295523D1*
X1336879Y3297784D1*
X1331933Y3307677D1*
X1329459Y3310150D1*
X1326986D1*
X1319566Y3302730D1*
X1307200Y3287891D1*
Y3280471D1*
X1309192Y3277278D1*
X1309673Y3275525D1*
X1306376Y3273051D1*
X1303078D1*
X1299780Y3275525D1*
X1294834D1*
X1289887Y3270578D1*
X1277521Y3255739D1*
Y3245846D1*
X1282468Y3238426D1*
X1283704Y3235953D1*
X1284755Y3233244D1*
X1284854Y3230921D1*
X1284304Y3228079D1*
X1282324Y3225832D1*
X1281042Y3226248D1*
X1279994Y3228533D1*
X1275048Y3238426D1*
X1272575Y3240899D1*
X1265155D1*
X1255262Y3231006D1*
X1245369Y3216167D1*
X1235476Y3196381D1*
X1233003Y3186488D1*
X1228056Y3171648D1*
X1223110Y3151862D1*
X1220636Y3139496D1*
Y3134549D1*
X1225583Y3127130D1*
X1228056Y3122183D1*
X1229927Y3118857D1*
X1229612Y3116596D1*
X1227015Y3114568D1*
X1224753Y3114959D1*
X1223110Y3117237D1*
X1213217D1*
Y3107344D1*
X1215690Y3102397D1*
X1218163Y3092504D1*
X1220034Y3089178D1*
X1219719Y3086917D1*
X1217122Y3084889D1*
X1214858Y3085277D1*
X1212394Y3088166D1*
X1213217Y3090031D1*
X1208270Y3094977D1*
X1205797D1*
X1203324Y3092504D1*
X1200850Y3085084D1*
X1198377Y3080138D1*
X1195904Y3065299D1*
Y3040566D1*
X1198377Y3033146D1*
X1200850Y3023253D1*
X1203324Y3018307D1*
X1205797Y3010887D1*
X1208270Y3005941D1*
X1210743Y3003467D1*
Y2998521D1*
X1208121Y2995835D1*
X1206840Y2996236D1*
X1205797Y2998521D1*
X1200850Y3008414D1*
X1195904Y3015834D1*
X1193431Y3018307D1*
X1190957D1*
X1188484Y3015834D1*
Y2936690D1*
X1190957Y2916904D1*
X1193431Y2907011D1*
X1195904Y2899591D1*
X1205789Y2879793D1*
X1206660Y2875865D1*
X1205023Y2874716D1*
X1203324Y2874858D1*
X1198377Y2879805D1*
X1195904D1*
Y2874858D1*
X1205797D1*
X1207644Y2876447D1*
X1208865Y2876194D1*
X1209659Y2873742D1*
X1208218Y2872175D1*
X1206803Y2872584D1*
X1205797Y2874858D1*
X1195904D1*
Y2864965D1*
X1205797Y2825393D1*
X1215690Y2795714D1*
X1223110Y2780875D1*
X1250315Y2753669D1*
X1255262Y2751196D1*
X1267628Y2748723D1*
X1277521Y2743776D1*
X1279513Y2740583D1*
X1279994Y2738830D1*
X1282468Y2733883D1*
X1284941Y2726463D1*
X1287414Y2711624D1*
X1289887Y2679472D1*
X1291758Y2676145D1*
X1291511Y2673917D1*
X1289887Y2672052D1*
X1287414Y2649793D1*
X1284941Y2632480D1*
X1279994Y2602801D1*
X1272575Y2573122D1*
X1257735Y2528604D1*
X1255262Y2523657D1*
X1252789Y2516237D1*
X1250315Y2511291D1*
X1247842Y2503871D1*
X1242896Y2493978D1*
X1240422Y2486558D1*
X1235476Y2479139D1*
X1230529Y2469246D1*
Y2466772D1*
X1903253D1*
X1908199Y2469246D1*
X1913146D1*
X1918092Y2466772D1*
X1925512Y2464299D1*
X1930459Y2461826D1*
X1932932Y2459353D1*
X1942825Y2451933D1*
X1945298Y2449460D1*
X1947716Y2446865D1*
X1949756Y2443776D1*
X1950245Y2442040D1*
X1952718Y2437093D1*
X1957664Y2422254D1*
X1960138Y2419781D1*
Y2397521D1*
X1957664Y2395048D1*
X1955191Y2380209D1*
X1952718Y2372789D1*
X1950245Y2367842D1*
X1947771Y2360423D1*
X1945298Y2355476D1*
X1937878Y2333217D1*
X1935405Y2320851D1*
X1932932Y2310958D1*
X1927985Y2301065D1*
X1925512Y2293645D1*
X1924265Y2291165D1*
X1922829Y2288582D1*
X1920413Y2286006D1*
X1919140Y2286413D1*
X1918092Y2288698D1*
X1913146Y2291172D1*
X1908199Y2296118D1*
Y2298591D1*
X1905726Y2303538D1*
X1898306Y2308484D1*
X1888413Y2313431D1*
X1880994Y2320851D1*
Y2323324D1*
X1876047Y2333217D1*
X1873574Y2345583D1*
X1871101Y2355476D1*
X1863681Y2377735D1*
X1858735Y2387628D1*
X1853788Y2407414D1*
X1851315Y2409888D1*
Y2429674D1*
X1853788Y2432147D1*
X1858735Y2439567D1*
X1866154Y2446986D1*
X1871101Y2449460D1*
X1888413Y2459353D1*
X1903253Y2466772D1*
X1230529D1*
G37*
G36*
X1576784Y1727271D2*
X1596570Y1722325D1*
X1628722Y1719851D1*
X1631196D1*
X1658401Y1722325D1*
X1668294Y1724798D1*
X1672416Y1727271D1*
X1676539D1*
X1680661Y1724798D1*
X1742492D1*
X1744965Y1732218D1*
X1752385Y1747057D1*
X1754858Y1754477D1*
X1769698Y1784156D1*
X1772171Y1791576D1*
X1787010Y1821254D1*
X1789484Y1828674D1*
X1801850Y1853407D1*
X1802362Y1855085D1*
X1804603Y1857130D1*
X1806615Y1857011D1*
X1808726Y1854949D1*
X1811743Y1845987D1*
X1831529Y1806415D1*
X1834002Y1798995D1*
X1851315Y1764370D1*
X1853788Y1756950D1*
X1866154Y1732218D1*
X1868627Y1724798D1*
X2024442D1*
X2021969Y1727271D1*
Y1910291D1*
X2023816Y1911880D1*
X2025098Y1911735D1*
X2026915Y1910291D1*
X2029389Y1900398D1*
X2031862Y1897925D1*
X2058243Y1900398D1*
X2084625D1*
X2111006Y1897925D1*
Y1828674D1*
X2085449Y1826201D1*
X2059892D1*
X2034335Y1828674D1*
Y1823728D1*
X2036808Y1808888D1*
X2041755D1*
X2064839Y1811361D1*
X2087922D1*
X2111006Y1808888D1*
Y1732218D1*
X2108533Y1729744D1*
Y1724798D1*
X2160471D1*
X2157998Y1727271D1*
Y1912765D1*
X2160471Y1915238D1*
X1970031D1*
Y1910291D1*
X1972504Y1907818D1*
Y1744584D1*
X1943649Y1742111D1*
X1914795D1*
X1885940Y1744584D1*
Y1747057D1*
X1861208Y1796522D1*
X1856261Y1803942D1*
X1831529Y1853407D1*
X1826582Y1860826D1*
X1801850Y1910291D1*
X1796903Y1917711D1*
X1791957Y1927604D1*
X1789484Y1930077D1*
X1779591Y1910291D1*
X1774644Y1902872D1*
X1740019Y1833621D1*
X1735072Y1826201D1*
X1702920Y1761897D1*
X1697973Y1754477D1*
X1693027Y1744584D1*
X1692399Y1741666D1*
X1690409Y1739409D1*
X1689128Y1739826D1*
X1688080Y1742111D1*
Y1749530D1*
X1685607Y1756950D1*
X1675714Y1749530D1*
X1673241Y1747057D1*
X1663348Y1742111D1*
X1655928Y1739637D1*
X1638615Y1737164D1*
X1632020Y1734691D1*
X1625425D1*
X1618829Y1737164D1*
X1606463Y1739637D1*
X1599043Y1742111D1*
X1589150Y1752004D1*
Y1754477D1*
X1586677Y1766843D1*
X1583744Y1769624D1*
X1584508Y1771275D1*
X1586677Y1774263D1*
Y1779209D1*
X1589150Y1781683D1*
X1594097Y1784156D1*
X1601517Y1791576D1*
X1611410Y1796522D1*
X1618829Y1798995D1*
X1636142Y1806415D1*
X1648508Y1811361D1*
X1658401Y1816308D1*
X1670768Y1823728D1*
X1678187Y1831147D1*
X1683134Y1838567D1*
X1688080Y1848460D1*
X1690554Y1855880D1*
Y1873193D1*
X1688080Y1883086D1*
X1683134Y1892979D1*
X1673241Y1902872D1*
X1658401Y1910291D1*
X1636142Y1917711D1*
X1584204D1*
X1554525Y1907818D1*
Y1905345D1*
X1556998Y1897925D1*
X1559471Y1888032D1*
X1564418D1*
X1566891Y1890505D1*
X1581731Y1897925D1*
X1591624Y1900398D1*
X1608936Y1902872D1*
X1610784Y1904460D1*
X1612065Y1904316D1*
X1613883Y1902872D1*
X1628722Y1900398D1*
X1638615Y1895452D1*
X1646035Y1888032D1*
Y1880612D1*
X1648508Y1878139D1*
Y1873193D1*
X1646035Y1870719D1*
X1641089Y1860826D1*
X1633669Y1853407D1*
X1608936Y1841040D1*
X1594097Y1836094D1*
X1576784Y1828674D1*
X1561945Y1821254D1*
X1552052Y1813835D1*
X1544632Y1803942D1*
X1539685Y1794049D1*
Y1769316D1*
X1542159Y1759423D1*
X1547105Y1749530D1*
X1556998Y1737164D1*
X1564418Y1732218D1*
X1569364Y1729744D1*
X1576784Y1727271D1*
X1678187D1*
X1680034Y1728859D1*
X1681256Y1728607D1*
X1682049Y1726155D1*
X1680608Y1724588D1*
X1679194Y1724997D1*
X1678187Y1727271D1*
X1576784D1*
G37*
G36*
X1069768Y1927604D2*
X1064822Y1925131D1*
X1047509Y1910291D1*
X1032669Y1897925D1*
X998044Y1868246D1*
X983205Y1855880D1*
X965892Y1841040D1*
X951052Y1828674D1*
X933740Y1813835D1*
X911480Y1794049D1*
X908858Y1791362D1*
X907577Y1791764D1*
X906534Y1794049D1*
Y1912765D1*
X909007Y1915238D1*
X881801D1*
Y1910291D1*
X884275Y1714905D1*
X891694Y1719851D1*
X1010410Y1818781D1*
X1027723Y1833621D1*
X1042562Y1848460D1*
X1042966Y1850373D1*
X1044483Y1852400D1*
X1045702Y1852342D1*
X1047509Y1850933D1*
Y1732218D1*
X1045036Y1729744D1*
Y1724798D1*
X1069768D1*
Y1912765D1*
X1071615Y1914353D1*
X1072897Y1914209D1*
X1074715Y1912765D1*
Y1905345D1*
X1077188Y1895452D1*
X1079661Y1897925D1*
X1105218Y1900398D1*
X1130775D1*
X1156332Y1897925D1*
Y1828674D1*
X1082134Y1826201D1*
Y1821254D1*
X1084608Y1811361D1*
X1087081Y1808888D1*
X1089554D1*
X1111813Y1811361D1*
X1134073D1*
X1156332Y1808888D1*
Y1727271D1*
X1153859Y1724798D1*
X1208270D1*
Y1727271D1*
X1205797Y1729744D1*
Y1910291D1*
X1208270Y1912765D1*
Y1915238D1*
X1069768Y1917711D1*
Y1927604D1*
G37*
G36*
X760612Y1917711D2*
X750719Y1915238D1*
X743299Y1912765D1*
X730933Y1907818D1*
X733406Y1897925D1*
X735880Y1890505D1*
X738353Y1888032D1*
X740826D1*
X743299Y1890505D1*
X758139Y1897925D1*
X765559Y1900398D1*
X782871Y1902872D1*
X785519Y1904348D1*
X787666Y1904190D1*
X790291Y1902872D1*
X805131Y1900398D1*
X815024Y1895452D1*
Y1892979D1*
X822443Y1885559D1*
Y1868246D1*
X819970Y1865773D1*
Y1863300D1*
X810077Y1853407D1*
X785345Y1841040D1*
X763085Y1833621D1*
X738353Y1821254D1*
X721040Y1803942D1*
X716094Y1794049D1*
Y1766843D1*
X718567Y1759423D1*
X723513Y1749530D1*
X738353Y1734691D1*
X745773Y1729744D1*
X753192Y1727271D1*
X772978Y1722325D1*
X807604Y1719851D1*
X810077D1*
X834810Y1722325D1*
X854596Y1727271D1*
X864489Y1732218D1*
X866962Y1734691D1*
Y1739637D1*
X864489Y1752004D1*
X862015Y1754477D1*
X859542D1*
X854596Y1749530D1*
X844703Y1744584D1*
X822443Y1737164D1*
X813375Y1734691D1*
X804306D1*
X795238Y1737164D1*
X782871Y1739637D1*
X775452Y1742111D1*
X765559Y1752004D1*
Y1756950D1*
X763085Y1759423D1*
Y1776736D1*
X775452Y1789102D1*
X800184Y1801469D1*
X807604Y1803942D1*
X824917Y1811361D1*
X834810Y1816308D1*
X849649Y1826201D1*
X859542Y1838567D1*
X864489Y1845987D1*
X866962Y1853407D1*
Y1875666D1*
X864489Y1883086D1*
X859542Y1892979D1*
X849649Y1902872D1*
X834810Y1910291D1*
X812550Y1917711D1*
X760612D1*
G37*
G36*
X1326986Y1915238D2*
Y1724798D1*
X1381398D1*
X1378924Y1727271D1*
Y1813835D1*
X1411077Y1816308D1*
X1443229D1*
X1475381Y1813835D1*
Y1724798D1*
X1527319D1*
X1524846Y1727271D1*
Y1912765D1*
X1527319Y1915238D1*
X1475381D1*
Y1836094D1*
X1443229Y1833621D1*
X1411077D1*
X1378924Y1836094D1*
Y1912765D1*
X1381398Y1915238D1*
X1326986D1*
G37*
G36*
X1220636Y1818781D2*
Y1791576D1*
X1233003Y1789102D1*
X1279994Y1786629D1*
X1314620D1*
Y1818781D1*
X1220636D1*
G37*
G36*
X834810Y1801469D2*
X824917Y1796522D1*
X810077Y1791576D1*
X797711Y1786629D1*
X787818Y1781683D1*
X780398Y1774263D1*
X777925Y1769316D1*
Y1764370D1*
X780398Y1756950D1*
X782871Y1754477D1*
X787818Y1752004D1*
X827390D1*
X834810Y1754477D1*
X839756Y1756950D1*
X847176Y1764370D1*
X857069Y1769316D1*
X866962Y1771790D1*
Y1786629D1*
X864489Y1789102D1*
X852122Y1796522D1*
X847176Y1798995D1*
X839756Y1801469D1*
X834810D1*
G37*
G36*
X1393764D2*
Y1732218D1*
X1395000Y1729744D1*
X1396051Y1727036D1*
X1396203Y1724763D1*
X1396237Y1717378D1*
X1393764Y1714905D1*
X1388817Y1712432D1*
X1364909Y1709958D1*
X1341001D1*
X1317093Y1712432D1*
X1309673Y1719851D1*
Y1727271D1*
X1312147Y1729744D1*
Y1769316D1*
X1307200Y1771790D1*
X1262682Y1774263D1*
X1225583D1*
X1223110Y1771790D1*
Y1729744D1*
X1225583Y1727271D1*
Y1719851D1*
X1218163Y1712432D1*
X1173645Y1709958D1*
X1153859Y1690172D1*
X1143966Y1677806D1*
X1141492Y1672860D1*
Y1660493D1*
X1143966Y1655547D1*
X1148912Y1648127D1*
X1153859Y1638234D1*
X1158805Y1630814D1*
X1166225Y1615975D1*
X1171171Y1608555D1*
X1178591Y1593716D1*
X1183538Y1586296D1*
X1190957Y1571456D1*
X1195904Y1564037D1*
X1200850Y1554144D1*
X1205797Y1546724D1*
X1213217Y1531884D1*
X1218163Y1524465D1*
X1225583Y1509625D1*
X1230529Y1502205D1*
X1237949Y1487366D1*
X1242896Y1472526D1*
X1245369Y1467580D1*
X1250315Y1447794D1*
X1252789Y1440374D1*
X1255262Y1435428D1*
X1265155Y1425535D1*
X1270101Y1423061D1*
X1277521Y1420588D1*
X1287414Y1418115D1*
X1294834Y1410695D1*
Y1408222D1*
X1297307Y1405749D1*
Y1395856D1*
X1294834Y1393382D1*
Y1378543D1*
X1299780Y1371123D1*
X1312147Y1358757D1*
X1322040Y1353811D1*
X1336879D1*
X1351719Y1358757D1*
X1359138D1*
X1366558Y1356284D1*
X1386344Y1353811D1*
X1398710D1*
X1408603Y1356284D1*
X1413550Y1361230D1*
Y1373597D1*
X1411077Y1378543D1*
X1401184Y1388436D1*
X1393764Y1393382D1*
X1366558Y1408222D1*
X1336879Y1428008D1*
X1331933Y1430481D1*
X1329459Y1432954D1*
Y1440374D1*
X1331933Y1442847D1*
Y1447794D1*
X1329459Y1455214D1*
X1309673Y1477473D1*
X1299780Y1489839D1*
X1294834Y1497259D1*
X1292361Y1502205D1*
X1287414Y1509625D1*
X1272575Y1539304D1*
X1267628Y1546724D1*
X1247842Y1586296D1*
X1245369Y1588769D1*
Y1598662D1*
X1247842Y1601135D1*
X1250315Y1608555D1*
X1252789Y1613502D1*
X1262682Y1643181D1*
X1270101Y1672860D1*
X1275048Y1687699D1*
X1279994Y1697592D1*
X1284941Y1705012D1*
X1287414Y1709958D1*
X1292361Y1717378D1*
Y1719851D1*
X1297307Y1724798D1*
X1299611Y1723976D1*
X1302254Y1722325D1*
Y1714905D1*
X1299780Y1712432D1*
X1297307Y1707485D1*
X1294834Y1700065D1*
X1289887Y1690172D1*
X1284941Y1675333D1*
X1282468Y1670386D1*
X1277521Y1662967D1*
X1275048Y1658020D1*
Y1645654D1*
X1277521Y1638234D1*
X1279994Y1633288D1*
X1282468Y1625868D1*
X1334406Y1571456D1*
X1344299Y1556617D1*
X1359138Y1536831D1*
X1373978Y1519518D1*
X1423443Y1467580D1*
X1435809Y1452740D1*
X1453122Y1432954D1*
X1467961Y1413168D1*
X1472908Y1408222D1*
X1480327Y1403275D1*
X1500113Y1390909D1*
X1505060Y1388436D1*
X1512480Y1381016D1*
Y1378543D1*
X1514953Y1373597D1*
X1517426Y1366177D1*
X1519899Y1361230D1*
X1522373Y1331551D1*
X1527319Y1324132D1*
X1529792Y1304346D1*
X1532266Y1299399D1*
X1534739Y1296926D1*
X1539685Y1294453D1*
X1576784Y1291979D1*
X1584204D1*
X1594097Y1294453D1*
X1638615Y1304346D1*
X1648508Y1306819D1*
X1663348Y1311765D1*
X1673241Y1316712D1*
Y1321658D1*
X1670768Y1329078D1*
X1665821Y1338971D1*
X1660875Y1346391D1*
X1650982Y1358757D1*
X1638615Y1368650D1*
X1631196Y1373597D1*
X1618829Y1378543D1*
X1603990Y1383490D1*
X1594097Y1385963D1*
X1574311Y1388436D1*
X1569364Y1390909D1*
X1554525Y1405749D1*
X1556998Y1408222D1*
Y1432954D1*
X1554525Y1440374D1*
X1552052Y1445321D1*
X1537212Y1460160D1*
X1529792Y1465107D1*
X1519899Y1472526D1*
X1512480Y1477473D1*
X1490220Y1497259D1*
X1485274Y1499732D1*
X1465488Y1519518D1*
Y1521991D1*
X1450648Y1539304D1*
X1440756Y1551670D1*
X1435809Y1559090D1*
X1433336Y1564037D1*
X1428389Y1571456D1*
X1411077Y1606082D1*
X1408603Y1615975D1*
X1406130Y1628341D1*
X1401184Y1638234D1*
X1398710Y1640707D1*
Y1645654D1*
X1401184Y1648127D1*
X1406130Y1660493D1*
X1413550Y1670386D1*
X1416023Y1675333D1*
X1418496Y1682753D1*
X1420970Y1727271D1*
Y1756950D1*
X1418496Y1759423D1*
Y1798995D1*
X1420970Y1801469D1*
X1393764D1*
G37*
G36*
X913954Y1719851D2*
X904061Y1709958D1*
X899114Y1707485D1*
X894168Y1702539D1*
X884275Y1697592D1*
X879328D1*
X874382Y1700065D1*
X869435Y1705012D1*
Y1707485D1*
X866962Y1717378D1*
X864489D1*
X859542Y1714905D1*
X849649Y1712432D1*
X832336Y1709958D1*
X812550Y1707485D1*
X792764D1*
X772978Y1709958D1*
X758139Y1712432D1*
X765559Y1702539D1*
X768032Y1697592D1*
X770505Y1687699D1*
X772978Y1685226D1*
Y1672860D1*
X770505Y1670386D1*
X765559Y1655547D1*
X760612Y1648127D1*
Y1645654D1*
X755666Y1640707D1*
X735880Y1630814D1*
X718567Y1628341D1*
X654262Y1625868D1*
X644369Y1620921D1*
X629530Y1606082D1*
X619637Y1586296D1*
X617164Y1576403D1*
Y1546724D1*
X619637Y1536831D1*
X624583Y1521991D1*
X627057Y1517045D1*
X629530Y1509625D1*
X634476Y1499732D1*
X641896Y1489839D1*
X659209Y1472526D1*
X671575Y1462633D1*
X678995Y1457687D1*
X688888Y1452740D1*
X713620Y1442847D1*
X735880Y1435428D1*
X760612Y1432954D1*
X795238D1*
X787818Y1440374D1*
X772978Y1447794D1*
X765559Y1455214D1*
Y1457687D1*
X755666Y1470053D1*
X750719Y1479946D1*
X745773Y1494786D1*
X743299Y1497259D1*
Y1509625D1*
X745773Y1512098D1*
Y1517045D1*
X753192Y1524465D1*
X758139Y1526938D1*
X768032Y1529411D1*
X824917Y1531884D1*
X844703Y1536831D1*
X864489Y1546724D1*
X871908Y1551670D1*
X886748Y1564037D1*
X896641Y1573930D1*
X904061Y1583823D1*
X913954Y1598662D1*
X923847Y1618448D1*
X926320Y1625868D1*
X928793Y1635761D1*
X931266Y1650600D1*
Y1677806D1*
X928793Y1687699D1*
X926320Y1695119D1*
X923847Y1700065D1*
X921373Y1707485D1*
X916427Y1717378D1*
X913954Y1719851D1*
G37*
G36*
X614690Y935832D2*
X634476Y925939D1*
X636950Y923465D1*
X674048Y901206D1*
X681468Y896260D1*
X691361Y888840D1*
X698781Y883893D1*
X703727Y891313D1*
Y898733D1*
X698781Y908626D1*
X688888Y920992D1*
X659209Y950671D1*
X654262Y953144D1*
X641896Y965510D1*
X644544Y966987D1*
X646691Y966828D1*
X654262Y963037D1*
X691361Y950671D1*
X716094Y943251D1*
X733406Y938305D1*
X743299Y935832D1*
X775452Y933358D1*
X1435809D1*
X2170364Y935832D1*
X2237142Y938305D1*
X2303919D1*
X2370697Y935832D1*
X2410269Y933358D1*
X2415215Y935832D1*
Y945725D1*
X2175310D1*
X1411077Y943251D1*
X1209095Y940778D1*
X1007113D1*
X805131Y943251D1*
X775452Y948198D1*
X755666Y953144D1*
X711147Y967984D1*
X706201Y970457D1*
X693834Y975403D1*
X644369Y997663D1*
X636950Y1000136D1*
X602324Y1017449D1*
X599851Y1019922D1*
X530600Y1059494D1*
X523180D1*
X518234Y1057021D1*
X513287Y1052074D1*
X503394Y1037235D1*
X500921Y1029815D1*
X503394Y1022395D1*
X505868Y1019922D1*
X515761Y1012502D1*
X533073Y1005082D1*
X545440Y1000136D1*
X552859Y997663D1*
X587485Y980350D1*
X594905Y972930D1*
X607271Y963037D1*
X622110Y950671D1*
X627057Y948198D1*
X634476Y940778D1*
X631461Y938197D1*
X628601Y938517D1*
X627057Y940778D1*
X604797Y953144D1*
X594905Y958091D1*
X567699Y970457D1*
X560279Y972930D1*
X523180Y982823D1*
X508341D1*
Y970457D1*
X530600Y948198D1*
X535547Y945725D1*
X545440Y935832D1*
X542424Y933250D1*
X539564Y933570D1*
X538020Y935832D1*
X533073Y938305D1*
X520707Y943251D1*
X491028D1*
X488012Y940670D1*
X485153Y940990D1*
X483608Y943251D1*
X473715D1*
X478662Y938305D1*
X500921Y933358D1*
X545440D1*
X547287Y934947D1*
X548508Y934694D1*
X549302Y932242D1*
X547860Y930675D1*
X546446Y931084D1*
X545440Y933358D1*
X500921D1*
X533073Y928412D1*
X540493Y925939D1*
X545440Y923465D1*
X552859Y920992D1*
X567699Y913572D1*
X570172Y911099D1*
X585012Y901206D1*
X594905Y896260D1*
X604797Y893786D1*
X614690D1*
Y903679D1*
X612217Y908626D1*
X602324Y920992D1*
X589958Y933358D1*
X575119Y945725D1*
X570172Y948198D1*
X565226Y953144D1*
X567873Y954621D1*
X570020Y954462D1*
X572645Y953144D1*
X592431Y945725D1*
X609744Y938305D1*
X632003D1*
X634651Y939781D1*
X636701Y939401D1*
X637848Y936705D1*
X636189Y935703D1*
X633555Y936042D1*
X632003Y938305D1*
X609744D1*
X614690Y935832D1*
X636950D1*
X638797Y937420D1*
X640018Y937167D1*
X640812Y934716D1*
X639371Y933148D1*
X637956Y933557D1*
X636950Y935832D1*
X614690D1*
G37*
G36*
X936213Y1022395D2*
Y965510D1*
X943633D1*
Y1005082D1*
X945480Y1006671D1*
X946730Y1006464D1*
X948138Y1004418D1*
X948579Y1002609D1*
X951052Y995189D1*
X955999Y985296D1*
X958472Y977877D1*
X960945Y972930D1*
X963419Y965510D1*
X968365D1*
X970838Y972930D1*
X973312Y977877D1*
X978258Y992716D1*
X980731Y997663D1*
X983205Y1005082D1*
X983608Y1006995D1*
X985125Y1009023D1*
X986344Y1008964D1*
X988151Y1007556D1*
Y965510D1*
X993098D1*
Y1022395D1*
X983205D1*
X978258Y1012502D1*
X973312Y997663D1*
X970838Y992716D1*
X968365Y985296D1*
Y980350D1*
X965743Y977664D1*
X964468Y978060D1*
X962880Y980783D1*
X963419Y982823D1*
X960945Y987770D1*
X955999Y1002609D1*
X953526Y1007556D1*
X948579Y1022395D1*
X936213D1*
G37*
G36*
X1010410D2*
Y1014975D1*
X1032669Y1012502D1*
Y1000136D1*
X1010410Y997663D1*
Y990243D1*
X1032669Y987770D1*
Y975403D1*
X1010410Y972930D1*
Y965510D1*
X1040089D1*
Y1022395D1*
X1010410D1*
G37*
G36*
X1057402D2*
Y1014975D1*
X1067295Y1012502D1*
Y965510D1*
X1072241D1*
Y1012502D1*
X1084608Y1014975D1*
Y1022395D1*
X1057402D1*
G37*
G36*
X1114287D2*
X1106867Y1019922D1*
X1101920Y1014975D1*
X1099447Y1010029D1*
X1106867D1*
X1107348Y1011782D1*
X1109340Y1014975D1*
X1112638Y1017449D1*
X1115936D1*
X1119233Y1014975D1*
X1121226Y1011782D1*
X1121614Y1009924D1*
X1121690Y1007539D1*
X1121706Y1002609D1*
X1116760Y1000136D1*
X1109340Y997663D1*
X1104394Y995189D1*
X1099447Y990243D1*
Y972930D1*
X1101920Y970457D1*
X1106867Y967984D1*
X1114287Y965510D1*
X1116760D1*
X1124180Y967984D1*
X1129126Y972930D1*
X1131599Y980350D1*
X1124180D1*
Y977877D1*
X1119233Y972930D1*
X1115936Y970457D1*
X1112638D1*
X1109340Y972930D1*
X1104394Y977877D1*
Y985296D1*
X1106867Y987770D1*
X1111813Y990243D1*
X1119233Y992716D1*
X1124180Y995189D1*
X1126653Y997663D1*
X1129126Y1002609D1*
Y1010029D1*
X1126653Y1014975D1*
X1121706Y1019922D1*
X1116760Y1022395D1*
X1114287D1*
G37*
G36*
X1141492D2*
X1143485Y1019202D1*
X1143966Y1017449D1*
X1156332Y992716D1*
X1158805Y965510D1*
X1166225D1*
X1168698Y992716D1*
X1178591Y1012502D1*
X1181064Y1019922D1*
Y1022395D1*
X1176118D1*
X1164978Y1000130D1*
X1163542Y997547D1*
X1161126Y994971D1*
X1159858Y995372D1*
X1158265Y998097D1*
X1158805Y1000136D1*
X1156332Y1007556D1*
X1153859Y1012502D1*
X1151385Y1019922D1*
X1148912Y1022395D1*
X1141492D1*
G37*
G36*
X1210743D2*
X1203324Y1019922D1*
X1198377Y1014975D1*
X1195904Y1010029D1*
X1203324D1*
X1205797Y1012502D1*
X1208312Y1014863D1*
X1210925Y1016429D1*
X1213066Y1016287D1*
X1220636Y1012502D1*
Y1005082D1*
X1218163Y1002609D1*
X1213217Y1000136D1*
X1205797Y997663D1*
X1200850Y995189D1*
X1198377Y992716D1*
X1195904Y987770D1*
Y980350D1*
X1198377Y972930D1*
X1203324Y967984D1*
X1210743Y965510D1*
X1215690D1*
X1225583Y970457D1*
X1228056Y975403D1*
Y980350D1*
X1223110D1*
X1215690Y972930D1*
X1212674Y970349D1*
X1209815Y970669D1*
X1208270Y972930D1*
X1203324Y975403D1*
Y985296D1*
X1205797Y987770D1*
X1220636Y995189D1*
X1225583Y1000136D1*
X1228056Y1007556D1*
Y1010029D1*
X1225583Y1014975D1*
X1220636Y1019922D1*
X1213217Y1022395D1*
X1210743D1*
G37*
G36*
X1262682D2*
X1270101Y1014975D1*
Y1012502D1*
X1279994Y1000136D1*
X1282468Y992716D1*
Y990243D1*
X1275048Y982823D1*
X1270101Y975403D1*
X1262682Y965510D1*
X1270101D1*
X1277521Y972930D1*
X1282468Y980350D1*
X1289887Y990243D1*
X1290291Y992156D1*
X1291808Y994183D1*
X1293027Y994125D1*
X1294834Y992716D1*
Y965510D1*
X1299780D1*
Y1022395D1*
X1294834D1*
Y997663D1*
X1292211Y994976D1*
X1290931Y995378D1*
X1289887Y997663D1*
X1287414Y1002609D1*
X1279994Y1012502D1*
X1270101Y1022395D1*
X1262682D1*
G37*
G36*
X1322040Y1012502D2*
Y997663D1*
X1324513Y992716D1*
X1329459Y990243D1*
X1334406Y985296D1*
Y982823D1*
X1329459Y977877D1*
X1324513Y970457D1*
X1322040Y965510D1*
X1329459D1*
X1331933Y967984D1*
X1341826Y982823D1*
X1343072Y985280D1*
X1344411Y987565D1*
X1346167Y989318D1*
X1347431Y989202D1*
X1349245Y987770D1*
Y965510D1*
X1356665D1*
Y1022395D1*
X1336879D1*
X1329459Y1019922D1*
X1322040Y1012502D1*
X1331933D1*
X1337703Y1014975D1*
X1343474D1*
X1349245Y1012502D1*
Y995189D1*
X1343474Y992716D1*
X1337703D1*
X1331933Y995189D1*
X1326986Y1000136D1*
Y1005082D1*
X1329459Y1007556D1*
X1331933Y1012502D1*
X1322040D1*
G37*
G36*
X1381398Y1014975D2*
Y1012502D1*
X1373978Y1005082D1*
Y985296D1*
X1376451Y980350D1*
X1381398Y972930D1*
X1391291Y967984D1*
X1398710Y965510D1*
X1403657D1*
X1413550Y967984D1*
X1418496Y970457D1*
X1425916Y977877D1*
X1428389Y982823D1*
X1430863Y990243D1*
Y997663D1*
X1428389Y1005082D1*
X1425916Y1010029D1*
X1420970Y1014975D1*
X1413550Y1019922D1*
X1403657Y1022395D1*
X1398710D1*
X1391291Y1019922D1*
X1381398Y1014975D1*
X1391291D1*
X1397061Y1017449D1*
X1402832D1*
X1408603Y1014975D1*
X1416023Y1012502D1*
X1418015Y1009309D1*
X1418496Y1007556D1*
X1423443Y1002609D1*
Y985296D1*
X1418496Y980350D1*
X1417683Y977349D1*
X1416023Y975403D1*
X1408603Y972930D1*
X1404481Y970457D1*
X1400359D1*
X1396237Y972930D1*
X1388817Y975403D1*
X1385884Y978184D1*
X1386344Y980350D1*
X1381398Y987770D1*
X1378924Y990243D1*
Y1000136D1*
X1381398Y1002609D1*
X1391291Y1014975D1*
X1381398D1*
G37*
G36*
X1440756Y1022395D2*
Y1017449D1*
X1443229Y1007556D1*
X1445702Y1000136D1*
X1448175Y990243D1*
X1450648Y982823D1*
X1453122Y972930D1*
X1455595Y965510D1*
X1460541D1*
X1463015Y970457D1*
X1470434Y1000136D1*
X1472282Y1001724D1*
X1473563Y1001580D1*
X1475381Y1000136D1*
Y992716D1*
X1480327Y977877D1*
X1482801Y967984D1*
X1485274Y965510D1*
X1490220D1*
X1492694Y975403D1*
X1495167Y982823D1*
X1497640Y992716D1*
X1500113Y1000136D1*
X1502587Y1010029D1*
X1505060Y1017449D1*
Y1022395D1*
X1497640D1*
X1495167Y1014975D1*
X1492694Y1005082D1*
X1490220Y992716D1*
Y985296D1*
X1487598Y982610D1*
X1486317Y983012D1*
X1485274Y985296D1*
X1482801Y992716D1*
X1475381Y1022395D1*
X1470434D1*
X1467961Y1019922D1*
X1465488Y1007556D1*
X1460541Y987770D1*
Y982823D1*
X1457919Y980137D1*
X1456638Y980539D1*
X1455595Y982823D1*
Y990243D1*
X1453122Y997663D1*
X1448175Y1017449D1*
X1445702Y1022395D1*
X1440756D1*
G37*
G36*
X1519899D2*
Y1014975D1*
X1532266Y1012502D1*
Y965510D1*
X1537212D1*
Y1012502D1*
X1547105Y1014975D1*
Y1022395D1*
X1519899D1*
G37*
G36*
X1561945D2*
Y1014975D1*
X1586677Y1012502D1*
Y1000136D1*
X1561945Y997663D1*
Y990243D1*
X1586677Y987770D1*
Y975403D1*
X1561945Y972930D1*
Y965510D1*
X1591624D1*
Y1022395D1*
X1561945D1*
G37*
G36*
X1608936D2*
Y965510D1*
X1613883D1*
X1616356Y967984D1*
X1626249Y982823D1*
X1628722Y987770D1*
X1638615Y1002609D1*
X1639862Y1005066D1*
X1641201Y1007351D1*
X1642957Y1009104D1*
X1644220Y1008988D1*
X1646035Y1007556D1*
Y965510D1*
X1650982D1*
Y1022395D1*
X1643562D1*
X1638615Y1017449D1*
X1636142Y1012502D1*
X1631196Y1005082D1*
X1628722Y1000136D1*
X1623776Y992716D1*
X1618829Y982823D1*
X1618201Y979905D1*
X1616212Y977649D1*
X1614931Y978065D1*
X1613883Y980350D1*
Y1022395D1*
X1608936D1*
G37*
G36*
X1690554Y1012502D2*
X1688080Y1010029D1*
Y1000136D1*
X1690554Y995189D1*
X1695500Y990243D1*
X1700447Y987770D1*
X1702439Y984576D1*
X1702920Y982823D1*
X1695500Y975403D1*
X1688080Y965510D1*
X1695500D1*
X1702920Y972930D1*
X1710340Y982823D1*
X1711586Y985280D1*
X1712925Y987565D1*
X1714681Y989318D1*
X1715945Y989202D1*
X1717759Y987770D1*
Y965510D1*
X1725179D1*
Y1022395D1*
X1702920D1*
X1695500Y1019922D1*
X1690554Y1014975D1*
Y1012502D1*
X1697973D1*
X1704569Y1014975D1*
X1711164D1*
X1717759Y1012502D1*
Y995189D1*
X1711988Y992716D1*
X1706218D1*
X1700447Y995189D1*
X1695500Y1000136D1*
Y1005082D1*
X1695558Y1007494D1*
X1695997Y1009289D1*
X1697973Y1012502D1*
X1690554D1*
G37*
G36*
X1737545Y1022395D2*
Y1014975D1*
X1762278Y1012502D1*
Y1000136D1*
X1737545Y997663D1*
Y990243D1*
X1762278Y987770D1*
Y975403D1*
X1737545Y972930D1*
Y965510D1*
X1767224D1*
Y1022395D1*
X1737545D1*
G37*
G36*
X1784537D2*
Y1014975D1*
X1794430Y1012502D1*
Y965510D1*
X1801850D1*
Y1012502D1*
X1811743Y1014975D1*
Y1022395D1*
X1784537D1*
G37*
G36*
X1829056D2*
Y982823D1*
X1831529Y975403D1*
X1838949Y967984D1*
X1843895Y965510D1*
X1851315D1*
X1858735Y967984D1*
X1863681Y972930D1*
X1866154Y980350D1*
Y1022395D1*
X1858735D1*
Y977877D1*
X1853788Y972930D1*
X1850490Y970457D1*
X1847193D1*
X1843895Y972930D1*
X1838949Y975403D1*
X1836475Y977877D1*
Y1022395D1*
X1829056D1*
G37*
G36*
X1883467Y1012502D2*
Y997663D1*
X1890887Y990243D1*
X1910673Y987770D1*
Y965510D1*
X1915619D1*
Y1022395D1*
X1898306D1*
X1890887Y1019922D1*
X1883467Y1012502D1*
X1890887D1*
X1897482Y1014975D1*
X1904077D1*
X1910673Y1012502D1*
Y995189D1*
X1906551Y992716D1*
X1902429D1*
X1898306Y995189D1*
X1890887Y997663D1*
X1888413Y1000136D1*
Y1010029D1*
X1890887Y1012502D1*
X1883467D1*
G37*
G36*
X1930459Y1022395D2*
Y965510D1*
X1937878D1*
Y1012502D1*
X1939726Y1014091D1*
X1941007Y1013946D1*
X1942825Y1012502D1*
Y1007556D1*
X1945298Y1000136D1*
X1947771Y995189D1*
X1952718Y980350D1*
X1955191Y975403D1*
X1957664Y967984D1*
X1960138Y965510D1*
X1962611D1*
X1967557Y975403D1*
X1970031Y982823D1*
X1974977Y992716D1*
X1977450Y1000136D1*
X1979924Y1005082D1*
Y1010029D1*
X1981771Y1011617D1*
X1983052Y1011473D1*
X1984870Y1010029D1*
Y965510D1*
X1989817D1*
Y1022395D1*
X1979924D1*
X1977450Y1019922D1*
X1972504Y1005082D1*
X1970031Y1000136D1*
X1965084Y985296D1*
Y980350D1*
X1962462Y977664D1*
X1961181Y978065D1*
X1960138Y980350D1*
X1957664Y987770D1*
X1955191Y992716D1*
X1952718Y1000136D1*
X1950245Y1005082D1*
X1947771Y1012502D1*
X1942825Y1022395D1*
X1930459D1*
G37*
G36*
X2014549Y1014975D2*
X2009603Y1010029D1*
X2004656Y1000136D1*
Y990243D1*
X2007129Y982823D1*
X2009603Y977877D1*
X2017022Y970457D1*
X2021969Y967984D1*
X2029389Y965510D1*
X2036808D1*
X2044228Y967984D1*
X2049175Y970457D1*
X2059068Y980350D1*
X2061541Y985296D1*
Y1002609D1*
X2059068Y1007556D1*
X2049175Y1017449D1*
X2044228Y1019922D1*
X2036808Y1022395D1*
X2031862D1*
X2021969Y1019922D1*
X2017022Y1017449D1*
X2014549Y1014975D1*
X2024442D1*
X2029389Y1017449D1*
X2034335D1*
X2039282Y1014975D1*
X2046701Y1012502D1*
X2054121Y1005082D1*
Y1000136D1*
X2056594Y997663D1*
Y990243D1*
X2054121Y987770D1*
Y982823D1*
X2046701Y975403D1*
X2039282Y972930D1*
X2035984Y970457D1*
X2032686D1*
X2029389Y972930D1*
X2021969Y975403D1*
X2012076Y985296D1*
Y1002609D1*
X2014549Y1005082D1*
X2015030Y1006836D1*
X2017022Y1010029D1*
X2021969Y1012502D1*
X2024442Y1014975D1*
X2014549D1*
G37*
G36*
X2101113Y1022395D2*
X2093693Y1019922D1*
X2088747Y1017449D1*
X2083800Y1012502D1*
Y1010029D1*
X2091220D1*
X2093693Y1012502D1*
X2098640Y1014975D1*
X2104411Y1017449D1*
X2110181D1*
X2115952Y1014975D1*
X2125845Y1005082D1*
Y1000136D1*
X2128319Y997663D1*
Y990243D1*
X2125845Y987770D1*
Y982823D1*
X2118426Y975403D1*
X2113479Y972930D1*
X2109357Y970457D1*
X2105235D1*
X2101113Y972930D1*
X2093693Y977877D1*
X2083800D1*
Y975403D1*
X2088747Y970457D1*
X2093693Y967984D1*
X2103586Y965510D1*
X2108533D1*
X2118426Y967984D1*
X2125845Y972930D1*
X2130792Y980350D1*
X2133265Y985296D1*
Y1002609D1*
X2130792Y1007556D1*
X2125845Y1014975D1*
X2118426Y1019922D1*
X2108533Y1022395D1*
X2101113D1*
G37*
G36*
X2148105D2*
X2150578Y1019922D1*
Y1014975D1*
X2160471Y995189D1*
X2162944Y987770D1*
X2165417Y965510D1*
X2170364D1*
X2172837Y990243D1*
X2187677Y1019922D1*
Y1022395D1*
X2180257D1*
X2177784Y1017449D1*
X2175310Y1010029D1*
X2172837Y1005082D1*
X2170364Y997663D1*
X2167741Y994976D1*
X2166467Y995373D1*
X2164878Y998096D1*
X2165417Y1000136D1*
X2157998Y1014975D1*
X2155524Y1022395D1*
X2148105D1*
G37*
G36*
X2204989D2*
Y975403D1*
X2185203Y972930D1*
Y965510D1*
X2209936D1*
Y1022395D1*
X2204989D1*
G37*
G36*
X2227249D2*
Y965510D1*
X2232195D1*
Y1022395D1*
X2227249D1*
G37*
G36*
X2247035D2*
Y965510D1*
X2254454D1*
Y1007556D1*
X2256301Y1009144D1*
X2257583Y1009000D1*
X2259401Y1007556D1*
Y1002609D1*
X2261874Y997663D1*
X2266821Y982823D1*
X2269294Y977877D1*
X2271767Y970457D1*
X2274240Y965510D1*
X2276714D1*
X2279187Y967984D1*
X2281660Y972930D1*
X2284133Y980350D1*
X2286607Y985296D1*
X2289080Y992716D1*
X2294026Y1002609D1*
Y1007556D1*
X2295873Y1009144D1*
X2297155Y1009000D1*
X2298973Y1007556D1*
Y965510D1*
X2306392D1*
Y1022395D1*
X2294026D1*
X2291553Y1017449D1*
X2286607Y1002609D1*
X2284133Y997663D1*
X2279187Y982823D1*
X2278559Y979905D1*
X2276569Y977649D1*
X2275294Y978060D1*
X2273700Y980784D1*
X2274240Y982823D1*
X2266821Y1005082D1*
X2264347Y1010029D1*
X2261874Y1017449D1*
X2259401Y1022395D1*
X2247035D1*
G37*
G36*
X2318759Y1007556D2*
Y965510D1*
X2326178D1*
Y972930D1*
X2335247Y975403D1*
X2344316D1*
X2353384Y972930D1*
X2355377Y969737D1*
X2355857Y967984D1*
X2358331Y965510D1*
X2365750D1*
X2350911Y987770D1*
X2348438Y992716D1*
X2328652Y1022395D1*
X2318759D1*
Y1007556D1*
X2326178D1*
X2328026Y1009144D1*
X2329276Y1008937D1*
X2330684Y1006892D1*
X2331125Y1005082D1*
X2341018Y990243D1*
X2343491Y985296D1*
X2348438Y980350D1*
X2341018Y977877D1*
X2333598D1*
X2326178Y980350D1*
Y1007556D1*
X2318759D1*
G37*
G36*
X2365750Y1022395D2*
Y1014975D1*
X2385536Y1012502D1*
Y1000136D1*
X2365750Y997663D1*
Y990243D1*
X2385536Y987770D1*
Y965510D1*
X2392956D1*
Y1022395D1*
X2365750D1*
G37*
M02*
