G04 DipTrace 4.3.0.5*
G04 BottomSilk.gbr*
%MOIN*%
G04 #@! TF.FileFunction,Legend,Bot*
G04 #@! TF.Part,Single*
%FSLAX26Y26*%
G04*
G70*
G90*
G75*
G01*
G04 BotSilk*
%LPD*%
G36*
X1343075Y4021641D2*
X1323289Y4016695D1*
X1288664Y4001855D1*
X1251565Y3984543D1*
X1199627Y3959810D1*
X1048759Y3885613D1*
X880578Y3801522D1*
X875631Y3796576D1*
X870685Y3786683D1*
Y3766897D1*
X875631Y3759477D1*
X885524Y3752057D1*
X890471Y3749584D1*
X1432112Y3747111D1*
X1958914D1*
X1971281Y3749584D1*
X1978700Y3754531D1*
X1981174Y3757004D1*
X1986120Y3764424D1*
Y3786683D1*
X1983647Y3791629D1*
X1973754Y3801522D1*
X1845145Y3865827D1*
X1694277Y3940024D1*
X1558248Y4006802D1*
X1540935Y4014222D1*
X1533516Y4016695D1*
X1501363Y4026588D1*
X1488997Y4029061D1*
X1471684Y4031534D1*
X1451898Y4034008D1*
X1407380D1*
X1372754Y4029061D1*
X1360388Y4026588D1*
X1350495Y4024115D1*
X1343075Y4021641D1*
X1412326D1*
X1423868Y4024115D1*
X1435410D1*
X1446952Y4021641D1*
X1466738Y4019168D1*
X1496417Y4014222D1*
X1516203Y4009275D1*
X1531042Y4004329D1*
X1535989Y4001855D1*
X1548355Y3996909D1*
X1568141Y3987016D1*
X1773421Y3885613D1*
X1899556Y3823781D1*
X1906976Y3821308D1*
X1966334Y3791629D1*
X1973754Y3784210D1*
Y3781736D1*
X1976227Y3779263D1*
Y3771843D1*
X1968807Y3764424D1*
X1963861Y3761950D1*
X1607713Y3759477D1*
X1251565D1*
X895417Y3761950D1*
X885524Y3766897D1*
Y3769370D1*
X883051Y3771843D1*
Y3786683D1*
X890471Y3794103D1*
X910257Y3803996D1*
X917677Y3806469D1*
X1043812Y3868300D1*
X1160055Y3925185D1*
X1303503Y3994436D1*
X1308450Y3996909D1*
X1345549Y4009275D1*
X1385121Y4019168D1*
X1412326Y4021641D1*
X1343075D1*
G37*
G36*
X1231779Y2468441D2*
X1229306Y2465968D1*
X1221886Y2451129D1*
X1211993Y2436289D1*
X1202100Y2423923D1*
X1189734Y2409083D1*
Y2406610D1*
X1130376Y2347252D1*
X1125430Y2344779D1*
X1095751Y2317573D1*
X1061125Y2282948D1*
X1051232Y2270581D1*
X1036393Y2250795D1*
X1031446Y2243376D1*
X1028973Y2238429D1*
X1024026Y2231009D1*
X1001767Y2186491D1*
X994347Y2164232D1*
X991874Y2154339D1*
X989401Y2146919D1*
X979508Y2097454D1*
X974561Y2067775D1*
X972088Y2055409D1*
X967142Y2047989D1*
X954775Y2033150D1*
X942409Y2020783D1*
X937463Y2018310D1*
X929219Y2015837D1*
X920974D1*
X912730Y2018310D1*
X887998Y2030676D1*
X883051Y2035623D1*
X860792Y2050462D1*
X850899Y2057882D1*
X836059Y2067775D1*
X826167Y2075195D1*
X818747Y2080141D1*
X779175Y2099927D1*
X764335Y2104874D1*
X751969Y2107347D1*
X709924D1*
X687665Y2102401D1*
X680245Y2099927D1*
X660459Y2090034D1*
X650566Y2082615D1*
X643146Y2077668D1*
X640673Y2075195D1*
X625833Y2057882D1*
X618414Y2047989D1*
X608521Y2033150D1*
X593681Y2003471D1*
X586261Y1981211D1*
X583788Y1976265D1*
Y1929273D1*
X588735Y1899594D1*
X591208Y1889701D1*
X593681Y1884755D1*
X598628Y1869915D1*
X601101Y1864969D1*
X603574Y1857549D1*
X606047Y1852602D1*
X610994Y1845183D1*
X620887Y1825397D1*
X635726Y1803137D1*
X638200Y1798191D1*
X665405Y1770985D1*
X672825Y1766039D1*
X682718Y1758619D1*
X695084Y1751199D1*
X702504Y1746253D1*
X712397Y1741306D1*
Y1743779D1*
X707451Y1751199D1*
X704977Y1758619D1*
X702504Y1768512D1*
X700031Y1770985D1*
Y1793244D1*
X702504Y1795718D1*
X707451Y1810557D1*
Y1813030D1*
X722290Y1827870D1*
X727237Y1830343D1*
X729710Y1832816D1*
X759389Y1847656D1*
X766809Y1850129D1*
X776702Y1855076D1*
Y1857549D1*
X774228Y1862495D1*
X771755Y1869915D1*
X769282Y1874862D1*
X766809Y1884755D1*
X764335Y1887228D1*
X759389Y1884755D1*
X744549Y1874862D1*
X740427Y1872388D1*
X736305D1*
X732183Y1874862D1*
X727237Y1877335D1*
X724303Y1880115D1*
X724763Y1882281D1*
X722290Y1889701D1*
X719817Y1899594D1*
X717344Y1902067D1*
Y1914434D1*
X722290Y1919380D1*
X727237Y1921853D1*
X734656Y1924327D1*
X739603Y1926800D1*
X749496Y1929273D1*
X766809Y1931746D1*
X769282Y1936693D1*
X771755Y1946586D1*
X776702Y1954006D1*
Y1956479D1*
X791541Y1971318D1*
X806381Y1978738D1*
X808854Y1981211D1*
X823693Y1988631D1*
X838533Y1991104D1*
X846777Y1993578D1*
X855021D1*
X863265Y1991104D1*
X875631Y1988631D1*
X890471Y1983685D1*
X900364Y1978738D1*
X927570Y1968845D1*
X939936Y1963899D1*
X952302D1*
X962195Y1966372D1*
X981981Y1976265D1*
X986928D1*
X991874Y1973792D1*
Y1971318D1*
X994347Y1963899D1*
X996821Y1958952D1*
X1004240Y1949059D1*
X1024026Y1924327D1*
X1026500Y1921853D1*
X1031446Y1919380D1*
X1036393D1*
X1051232Y1931746D1*
X1058652Y1939166D1*
X1063598Y1941639D1*
X1069369Y1944113D1*
X1075140D1*
X1080911Y1941639D1*
X1085858Y1936693D1*
Y1934220D1*
X1088331Y1931746D1*
X1214467Y1929273D1*
X1221886Y1926800D1*
X1224360Y1924327D1*
Y1835290D1*
X1313396D1*
Y1921853D1*
X1318343Y1926800D1*
X1323289Y1929273D1*
X1344724Y1931746D1*
X1366159D1*
X1387594Y1929273D1*
X1392540Y1926800D1*
X1397487Y1921853D1*
Y1914434D1*
X1395014Y1911960D1*
Y1850129D1*
X1439532D1*
X1442005Y1855076D1*
X1444479Y1862495D1*
X1446952Y1872388D1*
X1449425Y1884755D1*
Y1899594D1*
X1446952Y1902067D1*
Y1909487D1*
X1449425Y1911960D1*
X1451898Y1921853D1*
Y1946586D1*
X1449425Y1958952D1*
X1444479Y1973792D1*
X1439532Y1983685D1*
X1432112Y2005944D1*
X1429639Y2015837D1*
X1427166Y2018310D1*
Y2043043D1*
X1429639Y2045516D1*
X1432112Y2057882D1*
X1437059Y2072722D1*
X1439532Y2077668D1*
X1442005Y2085088D1*
X1444479Y2090034D1*
X1449425Y2097454D1*
X1451898Y2102401D1*
X1466738Y2119713D1*
Y2122186D1*
X1481577Y2137026D1*
X1486524Y2139499D1*
X1506310Y2154339D1*
X1523623Y2164232D1*
X1555775Y2181544D1*
X1568141Y2188964D1*
X1575561Y2193911D1*
X1590400Y2206277D1*
X1632446Y2245849D1*
X1634919Y2248322D1*
X1664598Y2282948D1*
X1669544Y2290367D1*
X1691803Y2320046D1*
X1701696Y2334886D1*
X1704170Y2339832D1*
X1709116Y2347252D1*
X1714063Y2357145D1*
X1714544Y2358898D1*
X1716536Y2362092D1*
X1721482Y2364565D1*
X1723330Y2366153D1*
X1724611Y2366009D1*
X1726429Y2364565D1*
X1738795Y2362092D1*
X1746215Y2359618D1*
X1751161Y2357145D1*
X1753635Y2354672D1*
X1761054Y2349725D1*
X1773421Y2339832D1*
X1778367Y2337359D1*
X1800626Y2315100D1*
Y2312627D1*
X1805573Y2305207D1*
X1812993Y2290367D1*
X1815466Y2282948D1*
X1817939Y2278001D1*
X1820412Y2270581D1*
X1822886Y2268108D1*
Y2263162D1*
X1820412Y2260688D1*
X1817939Y2255742D1*
X1812993Y2248322D1*
X1810519Y2243376D1*
X1805573Y2235956D1*
X1800626Y2221116D1*
X1798153Y2211223D1*
X1795680Y2198857D1*
Y2193911D1*
X1798153Y2188964D1*
X1800626Y2186491D1*
X1810519D1*
X1830305Y2191437D1*
X1845969Y2193911D1*
X1861633D1*
X1877297Y2191437D1*
X1887190Y2186491D1*
X1892137Y2181544D1*
X1897083Y2179071D1*
X1911923Y2164232D1*
Y2161758D1*
X1924289Y2146919D1*
X1934182Y2132079D1*
X1941602Y2122186D1*
X1951495Y2107347D1*
X1958914Y2097454D1*
X1968807Y2082615D1*
X1971281Y2077668D1*
X1976227Y2070248D1*
X1986120Y2050462D1*
X1988593Y2043043D1*
X1991067Y2038096D1*
X1993540Y2028203D1*
X1996013Y2020783D1*
X1998486Y2018310D1*
X2003433Y2015837D1*
X2010853Y2008417D1*
Y2005944D1*
X2013326Y2000997D1*
X2025692Y1988631D1*
X2033112Y1986158D1*
X2043005D1*
X2052898Y1988631D1*
X2060318Y1991104D1*
X2066913Y1993578D1*
X2073508D1*
X2080104Y1991104D1*
X2087523Y1988631D1*
X2092470Y1983685D1*
Y1981211D1*
X2097416Y1971318D1*
X2102363Y1963899D1*
X2109782Y1956479D1*
X2117202Y1951532D1*
X2129568Y1949059D1*
X2144408Y1941639D1*
X2146881Y1939166D1*
X2154301Y1934220D1*
X2159247Y1931746D1*
X2166667Y1929273D1*
X2171614Y1926800D1*
X2174087Y1924327D1*
X2183980D1*
X2196346Y1929273D1*
X2201293Y1931746D1*
X2218605Y1941639D1*
X2226025Y1946586D1*
X2228498Y1949059D1*
X2238391Y1961425D1*
X2245811Y1971318D1*
X2253231Y1986158D1*
X2255704Y1996051D1*
X2253231Y2000997D1*
X2250758Y2003471D1*
X2245811Y2005944D1*
X2218605Y2000997D1*
X2207888Y1998524D1*
X2197171D1*
X2186453Y2000997D1*
X2171614Y2003471D1*
X2156774Y2008417D1*
X2151828Y2010890D1*
X2144408Y2013364D1*
X2139461Y2015837D1*
X2136988Y2018310D1*
X2129568Y2023257D1*
X2119675Y2030676D1*
X2089997Y2050462D1*
X2077630Y2057882D1*
X2055371Y2072722D1*
X2043005Y2082615D1*
X2028165Y2094981D1*
X2023219Y2097454D1*
X2008379Y2112294D1*
Y2114767D1*
X2000960Y2124660D1*
X1981174Y2154339D1*
X1971281Y2174125D1*
X1966334Y2188964D1*
X1963861Y2193911D1*
X1961388Y2201330D1*
X1958914Y2206277D1*
X1956441Y2213697D1*
X1953968Y2228536D1*
X1951495Y2240902D1*
X1949021Y2243376D1*
Y2253269D1*
X1953968Y2255742D1*
X1961388Y2258215D1*
X1996013Y2275528D1*
X2005906Y2285421D1*
X2010853Y2295314D1*
Y2300260D1*
X2008379Y2317573D1*
X2003433Y2357145D1*
X2000960Y2379404D1*
X1998486Y2414030D1*
X1996013Y2416503D1*
Y2431343D1*
X1998486Y2433816D1*
X2000960Y2458548D1*
X2003433Y2475861D1*
Y2490701D1*
X1998486Y2500594D1*
X1993540Y2508013D1*
X1988593Y2517906D1*
X1968807Y2547585D1*
X1966334Y2550058D1*
X1956441Y2555005D1*
X1931709D1*
X1916869Y2550058D1*
X1904503Y2545112D1*
X1892137Y2537692D1*
X1889663Y2535219D1*
X1874824Y2530273D1*
X1862458Y2527799D1*
X1847618Y2525326D1*
X1838550Y2522853D1*
X1829481D1*
X1820412Y2525326D1*
X1817479Y2528107D1*
X1818243Y2529758D1*
X1820412Y2532746D1*
X1822886Y2567371D1*
Y2569844D1*
X1820412Y2599523D1*
X1817939Y2609416D1*
X1815466Y2616836D1*
X1808046Y2631676D1*
X1803100Y2639095D1*
X1800626Y2644042D1*
X1793207Y2653935D1*
X1756108Y2691034D1*
X1751161Y2693507D1*
X1736322Y2708346D1*
Y2710820D1*
X1731375Y2718239D1*
X1726429Y2733079D1*
X1723956Y2765231D1*
X1721482Y2775124D1*
X1716536Y2789964D1*
X1709116Y2804803D1*
X1704170Y2812223D1*
X1701696Y2817169D1*
X1691803Y2832009D1*
X1676964Y2851795D1*
X1662125Y2874054D1*
X1617606Y2925992D1*
X1607713Y2938359D1*
X1592874Y2958145D1*
X1573088Y2987823D1*
X1568141Y2997716D1*
X1565668Y3007609D1*
X1563195Y3010083D1*
Y3019976D1*
X1565668Y3022449D1*
X1568141Y3027395D1*
X1575561Y3037288D1*
X1577408Y3038877D1*
X1578690Y3038732D1*
X1580479Y3037214D1*
X1582981Y3034815D1*
Y3027395D1*
X1580507Y3024922D1*
Y3019976D1*
X1585454Y3010083D1*
X1595347Y2997716D1*
X1597820Y2995243D1*
X1607713Y2987823D1*
X1617606Y2982877D1*
X1632446Y2980404D1*
X1647285Y2972984D1*
X1649277Y2969791D1*
X1649758Y2968037D1*
X1652232Y2960618D1*
X1659651Y2950725D1*
X1664598Y2945778D1*
X1674491Y2938359D1*
X1681910Y2933412D1*
X1686857Y2930939D1*
X1701696Y2916099D1*
Y2911153D1*
X1696750Y2908680D1*
Y2903733D1*
X1706643Y2883947D1*
X1709116Y2881474D1*
X1731375Y2874054D1*
X1763528Y2866634D1*
X1793207D1*
X1800626Y2869108D1*
X1808046Y2874054D1*
X1815466Y2881474D1*
Y2896313D1*
X1812533Y2899094D1*
X1813297Y2900745D1*
X1815466Y2903733D1*
X1827832Y2928466D1*
Y2945778D1*
X1825359Y2953198D1*
X1822886Y2958145D1*
X1820412Y2965564D1*
X1817939Y2970511D1*
X1815466Y2977930D1*
X1810519Y2987823D1*
X1808046Y2995243D1*
X1805573Y3000190D1*
X1803100Y3007609D1*
X1800626Y3012556D1*
X1798153Y3019976D1*
X1795680Y3024922D1*
X1793207Y3032342D1*
X1790733Y3037288D1*
X1788260Y3044708D1*
X1785787Y3049655D1*
X1783314Y3057074D1*
X1778367Y3066967D1*
X1775894Y3074387D1*
X1773421Y3079334D1*
X1770947Y3086753D1*
X1768474Y3091700D1*
X1766001Y3099120D1*
X1763528Y3104066D1*
X1761054Y3111486D1*
X1758581Y3116432D1*
X1756108Y3123852D1*
X1746215Y3143638D1*
X1738795Y3153531D1*
X1728902Y3168371D1*
X1726429Y3170844D1*
Y3175790D1*
X1728902Y3178264D1*
X1738795Y3183210D1*
X1746215Y3188157D1*
X1751161Y3193103D1*
X1753635Y3198050D1*
Y3202996D1*
X1743742Y3198050D1*
X1727253Y3188157D1*
X1723131D1*
X1719009Y3190630D1*
X1716536Y3193103D1*
Y3202996D1*
X1719009Y3205469D1*
X1723956Y3207943D1*
X1736322Y3215362D1*
X1741268Y3217836D1*
X1751161Y3227729D1*
X1756108Y3235148D1*
X1758581Y3240095D1*
X1761054Y3252461D1*
Y3277194D1*
X1758581Y3282140D1*
X1753635Y3284613D1*
X1748688D1*
X1736322Y3272247D1*
Y3269774D1*
X1701696Y3235148D1*
X1696750Y3232675D1*
X1694277Y3230202D1*
X1688506Y3227729D1*
X1682735D1*
X1676964Y3230202D1*
X1672018Y3235148D1*
Y3247515D1*
X1674491Y3249988D1*
X1679437Y3269774D1*
X1684384Y3279667D1*
X1684865Y3281420D1*
X1686857Y3284613D1*
X1691803Y3287087D1*
X1699223Y3294506D1*
X1731375Y3331605D1*
X1736322Y3339025D1*
X1743742Y3353864D1*
X1751161Y3363757D1*
Y3366231D1*
X1775894Y3390963D1*
X1780840Y3393436D1*
X1790733Y3403329D1*
X1800626Y3415695D1*
X1808046Y3430535D1*
X1817939Y3445374D1*
Y3447848D1*
X1835252Y3465160D1*
X1840198Y3467634D1*
X1859984Y3487420D1*
X1864931Y3494839D1*
X1867404Y3499786D1*
X1872351Y3514625D1*
X1874824Y3519572D1*
Y3522045D1*
X1884717Y3531938D1*
X1894610Y3536885D1*
X1902030Y3541831D1*
X1919342Y3559144D1*
X1929235Y3571510D1*
X1931709Y3576457D1*
X1934182Y3583876D1*
X1935418Y3586350D1*
X1936768Y3588603D1*
X1939151Y3591243D1*
X1941602Y3593769D1*
X1966334Y3618502D1*
X1976227Y3633341D1*
X1981174Y3643234D1*
Y3645708D1*
X1986120Y3650654D1*
X1991067Y3653127D1*
X1996013Y3658074D1*
X2005906Y3672913D1*
X2008379Y3680333D1*
X2013326Y3687753D1*
X2020746Y3697646D1*
Y3707539D1*
X2018272D1*
X2010853Y3705066D1*
X2008379Y3702592D1*
Y3700119D1*
X1998486Y3690226D1*
X1993540Y3687753D1*
X1951495Y3650654D1*
X1941602Y3643234D1*
X1929235Y3630868D1*
X1924289Y3623448D1*
X1923052Y3620975D1*
X1921595Y3618389D1*
X1919324Y3616021D1*
X1914396Y3611082D1*
X1904503Y3606136D1*
X1894610Y3598716D1*
X1869877Y3573983D1*
X1864931Y3564090D1*
X1857511Y3554197D1*
X1832779Y3539358D1*
X1815466Y3529465D1*
X1810519Y3524518D1*
X1800626Y3512152D1*
X1795680Y3504732D1*
X1793207Y3499786D1*
X1790733Y3492366D1*
Y3489893D1*
X1780840Y3480000D1*
X1770947Y3475053D1*
X1761054Y3472580D1*
X1756108Y3470107D1*
X1746215Y3462687D1*
X1728902Y3445374D1*
X1721482Y3435481D1*
X1714063Y3420642D1*
Y3418169D1*
X1709116Y3413222D1*
X1704170Y3410749D1*
X1694277Y3408276D1*
X1686857Y3405802D1*
X1676964Y3398383D1*
X1669544Y3393436D1*
X1664598Y3388490D1*
X1654705Y3376124D1*
X1639865Y3353864D1*
X1637392Y3348918D1*
Y3346445D1*
X1632446Y3341498D1*
X1628820Y3341749D1*
X1627499Y3343971D1*
X1622553Y3346445D1*
X1610186D1*
X1605240Y3343971D1*
X1602617Y3341285D1*
X1601337Y3341687D1*
X1600293Y3343971D1*
X1597820Y3346445D1*
X1590400Y3348918D1*
X1580507D1*
X1577492Y3346337D1*
X1574624Y3346654D1*
X1572281Y3349517D1*
X1573088Y3351391D1*
X1570614Y3353864D1*
X1565668Y3356338D1*
X1503837Y3363757D1*
X1493944D1*
X1479104Y3361284D1*
X1471684Y3358811D1*
X1469211Y3356338D1*
X1468311Y3353296D1*
X1465679Y3351190D1*
X1463441Y3351585D1*
X1461791Y3353864D1*
X1444479D1*
X1419746Y3348918D1*
X1375228Y3334078D1*
X1372754Y3331605D1*
X1371941Y3328604D1*
X1370281Y3326659D1*
X1357915Y3324185D1*
X1350495Y3321712D1*
X1345549Y3319239D1*
X1340602Y3314292D1*
X1343075Y3306873D1*
X1345549Y3304399D1*
Y3299453D1*
X1342533Y3296872D1*
X1339674Y3297192D1*
X1338129Y3299453D1*
X1333182Y3309346D1*
X1330709Y3311819D1*
X1328236D1*
X1320816Y3304399D1*
X1308450Y3289560D1*
Y3282140D1*
X1310442Y3278947D1*
X1310923Y3277194D1*
X1307626Y3274720D1*
X1304328D1*
X1301030Y3277194D1*
X1296084D1*
X1291137Y3272247D1*
X1278771Y3257408D1*
Y3247515D1*
X1283717Y3240095D1*
X1284954Y3237622D1*
X1286005Y3234913D1*
X1286104Y3232590D1*
X1285554Y3229748D1*
X1283574Y3227501D1*
X1282292Y3227917D1*
X1281244Y3230202D1*
X1276298Y3240095D1*
X1273824Y3242568D1*
X1266405D1*
X1256512Y3232675D1*
X1246619Y3217836D1*
X1236726Y3198050D1*
X1234253Y3188157D1*
X1229306Y3173317D1*
X1224360Y3153531D1*
X1221886Y3141165D1*
Y3136218D1*
X1226833Y3128799D1*
X1229306Y3123852D1*
X1231177Y3120526D1*
X1230862Y3118265D1*
X1228265Y3116237D1*
X1226003Y3116628D1*
X1224360Y3118906D1*
X1214467D1*
Y3109013D1*
X1216940Y3104066D1*
X1219413Y3094173D1*
X1221284Y3090847D1*
X1220969Y3088586D1*
X1218372Y3086558D1*
X1216108Y3086946D1*
X1213644Y3089835D1*
X1214467Y3091700D1*
X1209520Y3096646D1*
X1207047D1*
X1204574Y3094173D1*
X1202100Y3086753D1*
X1199627Y3081807D1*
X1197154Y3066967D1*
Y3042235D1*
X1199627Y3034815D1*
X1202100Y3024922D1*
X1204574Y3019976D1*
X1207047Y3012556D1*
X1209520Y3007609D1*
X1211993Y3005136D1*
Y3000190D1*
X1209371Y2997503D1*
X1208090Y2997905D1*
X1207047Y3000190D1*
X1202100Y3010083D1*
X1197154Y3017502D1*
X1194681Y3019976D1*
X1192207D1*
X1189734Y3017502D1*
Y2938359D1*
X1192207Y2918573D1*
X1194681Y2908680D1*
X1197154Y2901260D1*
X1207039Y2881462D1*
X1207910Y2877534D1*
X1206273Y2876385D1*
X1204574Y2876527D1*
X1199627Y2881474D1*
X1197154D1*
Y2876527D1*
X1207047D1*
X1208894Y2878116D1*
X1210115Y2877863D1*
X1210909Y2875411D1*
X1209468Y2873844D1*
X1208053Y2874253D1*
X1207047Y2876527D1*
X1197154D1*
Y2866634D1*
X1207047Y2827062D1*
X1216940Y2797383D1*
X1224360Y2782544D1*
X1251565Y2755338D1*
X1256512Y2752865D1*
X1268878Y2750392D1*
X1278771Y2745445D1*
X1280763Y2742252D1*
X1281244Y2740499D1*
X1283717Y2735552D1*
X1286191Y2728132D1*
X1288664Y2713293D1*
X1291137Y2681141D1*
X1293008Y2677814D1*
X1292761Y2675586D1*
X1291137Y2673721D1*
X1288664Y2651462D1*
X1286191Y2634149D1*
X1281244Y2604470D1*
X1273824Y2574791D1*
X1258985Y2530273D1*
X1256512Y2525326D1*
X1254039Y2517906D1*
X1251565Y2512960D1*
X1249092Y2505540D1*
X1244146Y2495647D1*
X1241672Y2488227D1*
X1236726Y2480808D1*
X1231779Y2470915D1*
Y2468441D1*
X1904503D1*
X1909449Y2470915D1*
X1914396D1*
X1919342Y2468441D1*
X1926762Y2465968D1*
X1931709Y2463495D1*
X1934182Y2461022D1*
X1944075Y2453602D1*
X1946548Y2451129D1*
X1948966Y2448534D1*
X1951006Y2445445D1*
X1951495Y2443709D1*
X1953968Y2438762D1*
X1958914Y2423923D1*
X1961388Y2421450D1*
Y2399190D1*
X1958914Y2396717D1*
X1956441Y2381878D1*
X1953968Y2374458D1*
X1951495Y2369511D1*
X1949021Y2362092D1*
X1946548Y2357145D1*
X1939128Y2334886D1*
X1936655Y2322520D1*
X1934182Y2312627D1*
X1929235Y2302734D1*
X1926762Y2295314D1*
X1925515Y2292834D1*
X1924079Y2290251D1*
X1921663Y2287675D1*
X1920389Y2288082D1*
X1919342Y2290367D1*
X1914396Y2292841D1*
X1909449Y2297787D1*
Y2300260D1*
X1906976Y2305207D1*
X1899556Y2310153D1*
X1889663Y2315100D1*
X1882244Y2322520D1*
Y2324993D1*
X1877297Y2334886D1*
X1874824Y2347252D1*
X1872351Y2357145D1*
X1864931Y2379404D1*
X1859984Y2389297D1*
X1855038Y2409083D1*
X1852565Y2411557D1*
Y2431343D1*
X1855038Y2433816D1*
X1859984Y2441236D1*
X1867404Y2448655D1*
X1872351Y2451129D1*
X1889663Y2461022D1*
X1904503Y2468441D1*
X1231779D1*
G37*
G36*
X1578034Y1728940D2*
X1597820Y1723993D1*
X1629972Y1721520D1*
X1632446D1*
X1659651Y1723993D1*
X1669544Y1726467D1*
X1673666Y1728940D1*
X1677788D1*
X1681910Y1726467D1*
X1743742D1*
X1746215Y1733886D1*
X1753635Y1748726D1*
X1756108Y1756146D1*
X1770947Y1785825D1*
X1773421Y1793244D1*
X1788260Y1822923D1*
X1790733Y1830343D1*
X1803100Y1855076D1*
X1803612Y1856754D1*
X1805853Y1858799D1*
X1807865Y1858680D1*
X1809976Y1856618D1*
X1812993Y1847656D1*
X1832779Y1808084D1*
X1835252Y1800664D1*
X1852565Y1766039D1*
X1855038Y1758619D1*
X1867404Y1733886D1*
X1869877Y1726467D1*
X2025692D1*
X2023219Y1728940D1*
Y1911960D1*
X2025066Y1913549D1*
X2026348Y1913404D1*
X2028165Y1911960D1*
X2030639Y1902067D1*
X2033112Y1899594D1*
X2059493Y1902067D1*
X2085874D1*
X2112256Y1899594D1*
Y1830343D1*
X2086699Y1827870D1*
X2061142D1*
X2035585Y1830343D1*
Y1825397D1*
X2038058Y1810557D1*
X2043005D1*
X2066088Y1813030D1*
X2089172D1*
X2112256Y1810557D1*
Y1733886D1*
X2109782Y1731413D1*
Y1726467D1*
X2161721D1*
X2159247Y1728940D1*
Y1914434D1*
X2161721Y1916907D1*
X1971281D1*
Y1911960D1*
X1973754Y1909487D1*
Y1746253D1*
X1944899Y1743779D1*
X1916045D1*
X1887190Y1746253D1*
Y1748726D1*
X1862458Y1798191D1*
X1857511Y1805611D1*
X1832779Y1855076D1*
X1827832Y1862495D1*
X1803100Y1911960D1*
X1798153Y1919380D1*
X1793207Y1929273D1*
X1790733Y1931746D1*
X1780840Y1911960D1*
X1775894Y1904541D1*
X1741268Y1835290D1*
X1736322Y1827870D1*
X1704170Y1763565D1*
X1699223Y1756146D1*
X1694277Y1746253D1*
X1693649Y1743335D1*
X1691659Y1741078D1*
X1690378Y1741495D1*
X1689330Y1743779D1*
Y1751199D1*
X1686857Y1758619D1*
X1676964Y1751199D1*
X1674491Y1748726D1*
X1664598Y1743779D1*
X1657178Y1741306D1*
X1639865Y1738833D1*
X1633270Y1736360D1*
X1626675D1*
X1620079Y1738833D1*
X1607713Y1741306D1*
X1600293Y1743779D1*
X1590400Y1753672D1*
Y1756146D1*
X1587927Y1768512D1*
X1584994Y1771292D1*
X1585758Y1772944D1*
X1587927Y1775932D1*
Y1780878D1*
X1590400Y1783351D1*
X1595347Y1785825D1*
X1602767Y1793244D1*
X1612660Y1798191D1*
X1620079Y1800664D1*
X1637392Y1808084D1*
X1649758Y1813030D1*
X1659651Y1817977D1*
X1672018Y1825397D1*
X1679437Y1832816D1*
X1684384Y1840236D1*
X1689330Y1850129D1*
X1691803Y1857549D1*
Y1874862D1*
X1689330Y1884755D1*
X1684384Y1894648D1*
X1674491Y1904541D1*
X1659651Y1911960D1*
X1637392Y1919380D1*
X1585454D1*
X1555775Y1909487D1*
Y1907014D1*
X1558248Y1899594D1*
X1560721Y1889701D1*
X1565668D1*
X1568141Y1892174D1*
X1582981Y1899594D1*
X1592874Y1902067D1*
X1610186Y1904541D1*
X1612033Y1906129D1*
X1613315Y1905984D1*
X1615133Y1904541D1*
X1629972Y1902067D1*
X1639865Y1897121D1*
X1647285Y1889701D1*
Y1882281D1*
X1649758Y1879808D1*
Y1874862D1*
X1647285Y1872388D1*
X1642339Y1862495D1*
X1634919Y1855076D1*
X1610186Y1842709D1*
X1595347Y1837763D1*
X1578034Y1830343D1*
X1563195Y1822923D1*
X1553302Y1815504D1*
X1545882Y1805611D1*
X1540935Y1795718D1*
Y1770985D1*
X1543409Y1761092D1*
X1548355Y1751199D1*
X1558248Y1738833D1*
X1565668Y1733886D1*
X1570614Y1731413D1*
X1578034Y1728940D1*
X1679437D1*
X1681284Y1730528D1*
X1682506Y1730276D1*
X1683299Y1727824D1*
X1681858Y1726257D1*
X1680444Y1726666D1*
X1679437Y1728940D1*
X1578034D1*
G37*
G36*
X1071018Y1929273D2*
X1066072Y1926800D1*
X1048759Y1911960D1*
X1033919Y1899594D1*
X999294Y1869915D1*
X984454Y1857549D1*
X967142Y1842709D1*
X952302Y1830343D1*
X934989Y1815504D1*
X912730Y1795718D1*
X910108Y1793031D1*
X908827Y1793433D1*
X907784Y1795718D1*
Y1914434D1*
X910257Y1916907D1*
X883051D1*
Y1911960D1*
X885524Y1716574D1*
X892944Y1721520D1*
X1011660Y1820450D1*
X1028973Y1835290D1*
X1043812Y1850129D1*
X1044216Y1852042D1*
X1045733Y1854069D1*
X1046952Y1854011D1*
X1048759Y1852602D1*
Y1733886D1*
X1046286Y1731413D1*
Y1726467D1*
X1071018D1*
Y1914434D1*
X1072865Y1916022D1*
X1074147Y1915877D1*
X1075965Y1914434D1*
Y1907014D1*
X1078438Y1897121D1*
X1080911Y1899594D1*
X1106468Y1902067D1*
X1132025D1*
X1157582Y1899594D1*
Y1830343D1*
X1083384Y1827870D1*
Y1822923D1*
X1085858Y1813030D1*
X1088331Y1810557D1*
X1090804D1*
X1113063Y1813030D1*
X1135323D1*
X1157582Y1810557D1*
Y1728940D1*
X1155109Y1726467D1*
X1209520D1*
Y1728940D1*
X1207047Y1731413D1*
Y1911960D1*
X1209520Y1914434D1*
Y1916907D1*
X1071018Y1919380D1*
Y1929273D1*
G37*
G36*
X761862Y1919380D2*
X751969Y1916907D1*
X744549Y1914434D1*
X732183Y1909487D1*
X734656Y1899594D1*
X737130Y1892174D1*
X739603Y1889701D1*
X742076D1*
X744549Y1892174D1*
X759389Y1899594D1*
X766809Y1902067D1*
X784121Y1904541D1*
X786769Y1906017D1*
X788916Y1905859D1*
X791541Y1904541D1*
X806381Y1902067D1*
X816274Y1897121D1*
Y1894648D1*
X823693Y1887228D1*
Y1869915D1*
X821220Y1867442D1*
Y1864969D1*
X811327Y1855076D1*
X786595Y1842709D1*
X764335Y1835290D1*
X739603Y1822923D1*
X722290Y1805611D1*
X717344Y1795718D1*
Y1768512D1*
X719817Y1761092D1*
X724763Y1751199D1*
X739603Y1736360D1*
X747023Y1731413D1*
X754442Y1728940D1*
X774228Y1723993D1*
X808854Y1721520D1*
X811327D1*
X836059Y1723993D1*
X855845Y1728940D1*
X865738Y1733886D1*
X868212Y1736360D1*
Y1741306D1*
X865738Y1753672D1*
X863265Y1756146D1*
X860792D1*
X855845Y1751199D1*
X845952Y1746253D1*
X823693Y1738833D1*
X814625Y1736360D1*
X805556D1*
X796488Y1738833D1*
X784121Y1741306D1*
X776702Y1743779D1*
X766809Y1753672D1*
Y1758619D1*
X764335Y1761092D1*
Y1778405D1*
X776702Y1790771D1*
X801434Y1803137D1*
X808854Y1805611D1*
X826167Y1813030D1*
X836059Y1817977D1*
X850899Y1827870D1*
X860792Y1840236D1*
X865738Y1847656D1*
X868212Y1855076D1*
Y1877335D1*
X865738Y1884755D1*
X860792Y1894648D1*
X850899Y1904541D1*
X836059Y1911960D1*
X813800Y1919380D1*
X761862D1*
G37*
G36*
X1328236Y1916907D2*
Y1726467D1*
X1382647D1*
X1380174Y1728940D1*
Y1815504D1*
X1412326Y1817977D1*
X1444479D1*
X1476631Y1815504D1*
Y1726467D1*
X1528569D1*
X1526096Y1728940D1*
Y1914434D1*
X1528569Y1916907D1*
X1476631D1*
Y1837763D1*
X1444479Y1835290D1*
X1412326D1*
X1380174Y1837763D1*
Y1914434D1*
X1382647Y1916907D1*
X1328236D1*
G37*
G36*
X1221886Y1820450D2*
Y1793244D1*
X1234253Y1790771D1*
X1281244Y1788298D1*
X1315870D1*
Y1820450D1*
X1221886D1*
G37*
G36*
X836059Y1803137D2*
X826167Y1798191D1*
X811327Y1793244D1*
X798961Y1788298D1*
X789068Y1783351D1*
X781648Y1775932D1*
X779175Y1770985D1*
Y1766039D1*
X781648Y1758619D1*
X784121Y1756146D1*
X789068Y1753672D1*
X828640D1*
X836059Y1756146D1*
X841006Y1758619D1*
X848426Y1766039D1*
X858319Y1770985D1*
X868212Y1773458D1*
Y1788298D1*
X865738Y1790771D1*
X853372Y1798191D1*
X848426Y1800664D1*
X841006Y1803137D1*
X836059D1*
G37*
G36*
X1395014D2*
Y1733886D1*
X1396250Y1731413D1*
X1397301Y1728705D1*
X1397453Y1726432D1*
X1397487Y1719047D1*
X1395014Y1716574D1*
X1390067Y1714100D1*
X1366159Y1711627D1*
X1342251D1*
X1318343Y1714100D1*
X1310923Y1721520D1*
Y1728940D1*
X1313396Y1731413D1*
Y1770985D1*
X1308450Y1773458D1*
X1263931Y1775932D1*
X1226833D1*
X1224360Y1773458D1*
Y1731413D1*
X1226833Y1728940D1*
Y1721520D1*
X1219413Y1714100D1*
X1174895Y1711627D1*
X1155109Y1691841D1*
X1145216Y1679475D1*
X1142742Y1674529D1*
Y1662162D1*
X1145216Y1657216D1*
X1150162Y1649796D1*
X1155109Y1639903D1*
X1160055Y1632483D1*
X1167475Y1617644D1*
X1172421Y1610224D1*
X1179841Y1595385D1*
X1184788Y1587965D1*
X1192207Y1573125D1*
X1197154Y1565706D1*
X1202100Y1555813D1*
X1207047Y1548393D1*
X1214467Y1533553D1*
X1219413Y1526134D1*
X1226833Y1511294D1*
X1231779Y1503874D1*
X1239199Y1489035D1*
X1244146Y1474195D1*
X1246619Y1469249D1*
X1251565Y1449463D1*
X1254039Y1442043D1*
X1256512Y1437097D1*
X1266405Y1427204D1*
X1271351Y1424730D1*
X1278771Y1422257D1*
X1288664Y1419784D1*
X1296084Y1412364D1*
Y1409891D1*
X1298557Y1407418D1*
Y1397525D1*
X1296084Y1395051D1*
Y1380212D1*
X1301030Y1372792D1*
X1313396Y1360426D1*
X1323289Y1355479D1*
X1338129D1*
X1352968Y1360426D1*
X1360388D1*
X1367808Y1357953D1*
X1387594Y1355479D1*
X1399960D1*
X1409853Y1357953D1*
X1414800Y1362899D1*
Y1375265D1*
X1412326Y1380212D1*
X1402433Y1390105D1*
X1395014Y1395051D1*
X1367808Y1409891D1*
X1338129Y1429677D1*
X1333182Y1432150D1*
X1330709Y1434623D1*
Y1442043D1*
X1333182Y1444516D1*
Y1449463D1*
X1330709Y1456883D1*
X1310923Y1479142D1*
X1301030Y1491508D1*
X1296084Y1498928D1*
X1293610Y1503874D1*
X1288664Y1511294D1*
X1273824Y1540973D1*
X1268878Y1548393D1*
X1249092Y1587965D1*
X1246619Y1590438D1*
Y1600331D1*
X1249092Y1602804D1*
X1251565Y1610224D1*
X1254039Y1615171D1*
X1263931Y1644850D1*
X1271351Y1674529D1*
X1276298Y1689368D1*
X1281244Y1699261D1*
X1286191Y1706681D1*
X1288664Y1711627D1*
X1293610Y1719047D1*
Y1721520D1*
X1298557Y1726467D1*
X1300861Y1725645D1*
X1303503Y1723993D1*
Y1716574D1*
X1301030Y1714100D1*
X1298557Y1709154D1*
X1296084Y1701734D1*
X1291137Y1691841D1*
X1286191Y1677002D1*
X1283717Y1672055D1*
X1278771Y1664636D1*
X1276298Y1659689D1*
Y1647323D1*
X1278771Y1639903D1*
X1281244Y1634957D1*
X1283717Y1627537D1*
X1335656Y1573125D1*
X1345549Y1558286D1*
X1360388Y1538500D1*
X1375228Y1521187D1*
X1424693Y1469249D1*
X1437059Y1454409D1*
X1454372Y1434623D1*
X1469211Y1414837D1*
X1474158Y1409891D1*
X1481577Y1404944D1*
X1501363Y1392578D1*
X1506310Y1390105D1*
X1513730Y1382685D1*
Y1380212D1*
X1516203Y1375265D1*
X1518676Y1367846D1*
X1521149Y1362899D1*
X1523623Y1333220D1*
X1528569Y1325800D1*
X1531042Y1306014D1*
X1533516Y1301068D1*
X1535989Y1298595D1*
X1540935Y1296121D1*
X1578034Y1293648D1*
X1585454D1*
X1595347Y1296121D1*
X1639865Y1306014D1*
X1649758Y1308488D1*
X1664598Y1313434D1*
X1674491Y1318381D1*
Y1323327D1*
X1672018Y1330747D1*
X1667071Y1340640D1*
X1662125Y1348060D1*
X1652232Y1360426D1*
X1639865Y1370319D1*
X1632446Y1375265D1*
X1620079Y1380212D1*
X1605240Y1385158D1*
X1595347Y1387632D1*
X1575561Y1390105D1*
X1570614Y1392578D1*
X1555775Y1407418D1*
X1558248Y1409891D1*
Y1434623D1*
X1555775Y1442043D1*
X1553302Y1446990D1*
X1538462Y1461829D1*
X1531042Y1466776D1*
X1521149Y1474195D1*
X1513730Y1479142D1*
X1491470Y1498928D1*
X1486524Y1501401D1*
X1466738Y1521187D1*
Y1523660D1*
X1451898Y1540973D1*
X1442005Y1553339D1*
X1437059Y1560759D1*
X1434586Y1565706D1*
X1429639Y1573125D1*
X1412326Y1607751D1*
X1409853Y1617644D1*
X1407380Y1630010D1*
X1402433Y1639903D1*
X1399960Y1642376D1*
Y1647323D1*
X1402433Y1649796D1*
X1407380Y1662162D1*
X1414800Y1672055D1*
X1417273Y1677002D1*
X1419746Y1684422D1*
X1422219Y1728940D1*
Y1758619D1*
X1419746Y1761092D1*
Y1800664D1*
X1422219Y1803137D1*
X1395014D1*
G37*
G36*
X915203Y1721520D2*
X905310Y1711627D1*
X900364Y1709154D1*
X895417Y1704207D1*
X885524Y1699261D1*
X880578D1*
X875631Y1701734D1*
X870685Y1706681D1*
Y1709154D1*
X868212Y1719047D1*
X865738D1*
X860792Y1716574D1*
X850899Y1714100D1*
X833586Y1711627D1*
X813800Y1709154D1*
X794014D1*
X774228Y1711627D1*
X759389Y1714100D1*
X766809Y1704207D1*
X769282Y1699261D1*
X771755Y1689368D1*
X774228Y1686895D1*
Y1674529D1*
X771755Y1672055D1*
X766809Y1657216D1*
X761862Y1649796D1*
Y1647323D1*
X756916Y1642376D1*
X737130Y1632483D1*
X719817Y1630010D1*
X655512Y1627537D1*
X645619Y1622590D1*
X630780Y1607751D1*
X620887Y1587965D1*
X618414Y1578072D1*
Y1548393D1*
X620887Y1538500D1*
X625833Y1523660D1*
X628307Y1518714D1*
X630780Y1511294D1*
X635726Y1501401D1*
X643146Y1491508D1*
X660459Y1474195D1*
X672825Y1464302D1*
X680245Y1459356D1*
X690138Y1454409D1*
X714870Y1444516D1*
X737130Y1437097D1*
X761862Y1434623D1*
X796488D1*
X789068Y1442043D1*
X774228Y1449463D1*
X766809Y1456883D1*
Y1459356D1*
X756916Y1471722D1*
X751969Y1481615D1*
X747023Y1496455D1*
X744549Y1498928D1*
Y1511294D1*
X747023Y1513767D1*
Y1518714D1*
X754442Y1526134D1*
X759389Y1528607D1*
X769282Y1531080D1*
X826167Y1533553D1*
X845952Y1538500D1*
X865738Y1548393D1*
X873158Y1553339D1*
X887998Y1565706D1*
X897891Y1575599D1*
X905310Y1585492D1*
X915203Y1600331D1*
X925096Y1620117D1*
X927570Y1627537D1*
X930043Y1637430D1*
X932516Y1652269D1*
Y1679475D1*
X930043Y1689368D1*
X927570Y1696788D1*
X925096Y1701734D1*
X922623Y1709154D1*
X917677Y1719047D1*
X915203Y1721520D1*
G37*
G36*
X615940Y937500D2*
X635726Y927607D1*
X638200Y925134D1*
X675298Y902875D1*
X682718Y897928D1*
X692611Y890509D1*
X700031Y885562D1*
X704977Y892982D1*
Y900402D1*
X700031Y910295D1*
X690138Y922661D1*
X660459Y952340D1*
X655512Y954813D1*
X643146Y967179D1*
X645794Y968656D1*
X647941Y968497D1*
X655512Y964706D1*
X692611Y952340D1*
X717344Y944920D1*
X734656Y939974D1*
X744549Y937500D1*
X776702Y935027D1*
X1437059D1*
X2171614Y937500D1*
X2238391Y939974D1*
X2305169D1*
X2371947Y937500D1*
X2411519Y935027D1*
X2416465Y937500D1*
Y947393D1*
X2176560D1*
X1412326Y944920D1*
X1210344Y942447D1*
X1008362D1*
X806381Y944920D1*
X776702Y949867D1*
X756916Y954813D1*
X712397Y969653D1*
X707451Y972126D1*
X695084Y977072D1*
X645619Y999332D1*
X638200Y1001805D1*
X603574Y1019118D1*
X601101Y1021591D1*
X531850Y1061163D1*
X524430D1*
X519484Y1058690D1*
X514537Y1053743D1*
X504644Y1038904D1*
X502171Y1031484D1*
X504644Y1024064D1*
X507117Y1021591D1*
X517010Y1014171D1*
X534323Y1006751D1*
X546689Y1001805D1*
X554109Y999332D1*
X588735Y982019D1*
X596154Y974599D1*
X608521Y964706D1*
X623360Y952340D1*
X628307Y949867D1*
X635726Y942447D1*
X632711Y939866D1*
X629851Y940186D1*
X628307Y942447D1*
X606047Y954813D1*
X596154Y959760D1*
X568949Y972126D1*
X561529Y974599D1*
X524430Y984492D1*
X509591D1*
Y972126D1*
X531850Y949867D1*
X536796Y947393D1*
X546689Y937500D1*
X543674Y934919D1*
X540814Y935239D1*
X539270Y937500D1*
X534323Y939974D1*
X521957Y944920D1*
X492278D1*
X489262Y942339D1*
X486403Y942659D1*
X484858Y944920D1*
X474965D1*
X479912Y939974D1*
X502171Y935027D1*
X546689D1*
X548537Y936616D1*
X549758Y936363D1*
X550551Y933911D1*
X549110Y932344D1*
X547696Y932753D1*
X546689Y935027D1*
X502171D1*
X534323Y930081D1*
X541743Y927607D1*
X546689Y925134D1*
X554109Y922661D1*
X568949Y915241D1*
X571422Y912768D1*
X586261Y902875D1*
X596154Y897928D1*
X606047Y895455D1*
X615940D1*
Y905348D1*
X613467Y910295D1*
X603574Y922661D1*
X591208Y935027D1*
X576368Y947393D1*
X571422Y949867D1*
X566475Y954813D1*
X569123Y956290D1*
X571270Y956131D1*
X573895Y954813D1*
X593681Y947393D1*
X610994Y939974D1*
X633253D1*
X635901Y941450D1*
X637951Y941070D1*
X639098Y938374D1*
X637439Y937372D1*
X634805Y937711D1*
X633253Y939974D1*
X610994D1*
X615940Y937500D1*
X638200D1*
X640047Y939089D1*
X641268Y938836D1*
X642062Y936385D1*
X640621Y934817D1*
X639206Y935226D1*
X638200Y937500D1*
X615940D1*
G37*
G36*
X937463Y1024064D2*
Y967179D1*
X944882D1*
Y1006751D1*
X946730Y1008340D1*
X947980Y1008133D1*
X949388Y1006087D1*
X949829Y1004278D1*
X952302Y996858D1*
X957249Y986965D1*
X959722Y979546D1*
X962195Y974599D1*
X964668Y967179D1*
X969615D1*
X972088Y974599D1*
X974561Y979546D1*
X979508Y994385D1*
X981981Y999332D1*
X984454Y1006751D1*
X984858Y1008664D1*
X986375Y1010692D1*
X987594Y1010633D1*
X989401Y1009225D1*
Y967179D1*
X994347D1*
Y1024064D1*
X984454D1*
X979508Y1014171D1*
X974561Y999332D1*
X972088Y994385D1*
X969615Y986965D1*
Y982019D1*
X966992Y979333D1*
X965718Y979729D1*
X964130Y982452D1*
X964668Y984492D1*
X962195Y989439D1*
X957249Y1004278D1*
X954775Y1009225D1*
X949829Y1024064D1*
X937463D1*
G37*
G36*
X1011660D2*
Y1016644D1*
X1033919Y1014171D1*
Y1001805D1*
X1011660Y999332D1*
Y991912D1*
X1033919Y989439D1*
Y977072D1*
X1011660Y974599D1*
Y967179D1*
X1041339D1*
Y1024064D1*
X1011660D1*
G37*
G36*
X1058652D2*
Y1016644D1*
X1068545Y1014171D1*
Y967179D1*
X1073491D1*
Y1014171D1*
X1085858Y1016644D1*
Y1024064D1*
X1058652D1*
G37*
G36*
X1115537D2*
X1108117Y1021591D1*
X1103170Y1016644D1*
X1100697Y1011698D1*
X1108117D1*
X1108598Y1013451D1*
X1110590Y1016644D1*
X1113888Y1019118D1*
X1117185D1*
X1120483Y1016644D1*
X1122475Y1013451D1*
X1122864Y1011593D1*
X1122940Y1009208D1*
X1122956Y1004278D1*
X1118010Y1001805D1*
X1110590Y999332D1*
X1105644Y996858D1*
X1100697Y991912D1*
Y974599D1*
X1103170Y972126D1*
X1108117Y969653D1*
X1115537Y967179D1*
X1118010D1*
X1125430Y969653D1*
X1130376Y974599D1*
X1132849Y982019D1*
X1125430D1*
Y979546D1*
X1120483Y974599D1*
X1117185Y972126D1*
X1113888D1*
X1110590Y974599D1*
X1105644Y979546D1*
Y986965D1*
X1108117Y989439D1*
X1113063Y991912D1*
X1120483Y994385D1*
X1125430Y996858D1*
X1127903Y999332D1*
X1130376Y1004278D1*
Y1011698D1*
X1127903Y1016644D1*
X1122956Y1021591D1*
X1118010Y1024064D1*
X1115537D1*
G37*
G36*
X1142742D2*
X1144735Y1020871D1*
X1145216Y1019118D1*
X1157582Y994385D1*
X1160055Y967179D1*
X1167475D1*
X1169948Y994385D1*
X1179841Y1014171D1*
X1182314Y1021591D1*
Y1024064D1*
X1177368D1*
X1166228Y1001799D1*
X1164792Y999216D1*
X1162376Y996639D1*
X1161108Y997041D1*
X1159515Y999766D1*
X1160055Y1001805D1*
X1157582Y1009225D1*
X1155109Y1014171D1*
X1152635Y1021591D1*
X1150162Y1024064D1*
X1142742D1*
G37*
G36*
X1211993D2*
X1204574Y1021591D1*
X1199627Y1016644D1*
X1197154Y1011698D1*
X1204574D1*
X1207047Y1014171D1*
X1209562Y1016532D1*
X1212175Y1018098D1*
X1214315Y1017956D1*
X1221886Y1014171D1*
Y1006751D1*
X1219413Y1004278D1*
X1214467Y1001805D1*
X1207047Y999332D1*
X1202100Y996858D1*
X1199627Y994385D1*
X1197154Y989439D1*
Y982019D1*
X1199627Y974599D1*
X1204574Y969653D1*
X1211993Y967179D1*
X1216940D1*
X1226833Y972126D1*
X1229306Y977072D1*
Y982019D1*
X1224360D1*
X1216940Y974599D1*
X1213924Y972018D1*
X1211065Y972338D1*
X1209520Y974599D1*
X1204574Y977072D1*
Y986965D1*
X1207047Y989439D1*
X1221886Y996858D1*
X1226833Y1001805D1*
X1229306Y1009225D1*
Y1011698D1*
X1226833Y1016644D1*
X1221886Y1021591D1*
X1214467Y1024064D1*
X1211993D1*
G37*
G36*
X1263931D2*
X1271351Y1016644D1*
Y1014171D1*
X1281244Y1001805D1*
X1283717Y994385D1*
Y991912D1*
X1276298Y984492D1*
X1271351Y977072D1*
X1263931Y967179D1*
X1271351D1*
X1278771Y974599D1*
X1283717Y982019D1*
X1291137Y991912D1*
X1291541Y993825D1*
X1293058Y995852D1*
X1294277Y995794D1*
X1296084Y994385D1*
Y967179D1*
X1301030D1*
Y1024064D1*
X1296084D1*
Y999332D1*
X1293461Y996645D1*
X1292181Y997047D1*
X1291137Y999332D1*
X1288664Y1004278D1*
X1281244Y1014171D1*
X1271351Y1024064D1*
X1263931D1*
G37*
G36*
X1323289Y1014171D2*
Y999332D1*
X1325763Y994385D1*
X1330709Y991912D1*
X1335656Y986965D1*
Y984492D1*
X1330709Y979546D1*
X1325763Y972126D1*
X1323289Y967179D1*
X1330709D1*
X1333182Y969653D1*
X1343075Y984492D1*
X1344322Y986949D1*
X1345661Y989234D1*
X1347417Y990987D1*
X1348680Y990871D1*
X1350495Y989439D1*
Y967179D1*
X1357915D1*
Y1024064D1*
X1338129D1*
X1330709Y1021591D1*
X1323289Y1014171D1*
X1333182D1*
X1338953Y1016644D1*
X1344724D1*
X1350495Y1014171D1*
Y996858D1*
X1344724Y994385D1*
X1338953D1*
X1333182Y996858D1*
X1328236Y1001805D1*
Y1006751D1*
X1330709Y1009225D1*
X1333182Y1014171D1*
X1323289D1*
G37*
G36*
X1382647Y1016644D2*
Y1014171D1*
X1375228Y1006751D1*
Y986965D1*
X1377701Y982019D1*
X1382647Y974599D1*
X1392540Y969653D1*
X1399960Y967179D1*
X1404907D1*
X1414800Y969653D1*
X1419746Y972126D1*
X1427166Y979546D1*
X1429639Y984492D1*
X1432112Y991912D1*
Y999332D1*
X1429639Y1006751D1*
X1427166Y1011698D1*
X1422219Y1016644D1*
X1414800Y1021591D1*
X1404907Y1024064D1*
X1399960D1*
X1392540Y1021591D1*
X1382647Y1016644D1*
X1392540D1*
X1398311Y1019118D1*
X1404082D1*
X1409853Y1016644D1*
X1417273Y1014171D1*
X1419265Y1010978D1*
X1419746Y1009225D1*
X1424693Y1004278D1*
Y986965D1*
X1419746Y982019D1*
X1418933Y979018D1*
X1417273Y977072D1*
X1409853Y974599D1*
X1405731Y972126D1*
X1401609D1*
X1397487Y974599D1*
X1390067Y977072D1*
X1387134Y979853D1*
X1387594Y982019D1*
X1382647Y989439D1*
X1380174Y991912D1*
Y1001805D1*
X1382647Y1004278D1*
X1392540Y1016644D1*
X1382647D1*
G37*
G36*
X1442005Y1024064D2*
Y1019118D1*
X1444479Y1009225D1*
X1446952Y1001805D1*
X1449425Y991912D1*
X1451898Y984492D1*
X1454372Y974599D1*
X1456845Y967179D1*
X1461791D1*
X1464265Y972126D1*
X1471684Y1001805D1*
X1473531Y1003393D1*
X1474813Y1003249D1*
X1476631Y1001805D1*
Y994385D1*
X1481577Y979546D1*
X1484051Y969653D1*
X1486524Y967179D1*
X1491470D1*
X1493944Y977072D1*
X1496417Y984492D1*
X1498890Y994385D1*
X1501363Y1001805D1*
X1503837Y1011698D1*
X1506310Y1019118D1*
Y1024064D1*
X1498890D1*
X1496417Y1016644D1*
X1493944Y1006751D1*
X1491470Y994385D1*
Y986965D1*
X1488848Y984279D1*
X1487567Y984681D1*
X1486524Y986965D1*
X1484051Y994385D1*
X1476631Y1024064D1*
X1471684D1*
X1469211Y1021591D1*
X1466738Y1009225D1*
X1461791Y989439D1*
Y984492D1*
X1459169Y981806D1*
X1457888Y982208D1*
X1456845Y984492D1*
Y991912D1*
X1454372Y999332D1*
X1449425Y1019118D1*
X1446952Y1024064D1*
X1442005D1*
G37*
G36*
X1521149D2*
Y1016644D1*
X1533516Y1014171D1*
Y967179D1*
X1538462D1*
Y1014171D1*
X1548355Y1016644D1*
Y1024064D1*
X1521149D1*
G37*
G36*
X1563195D2*
Y1016644D1*
X1587927Y1014171D1*
Y1001805D1*
X1563195Y999332D1*
Y991912D1*
X1587927Y989439D1*
Y977072D1*
X1563195Y974599D1*
Y967179D1*
X1592874D1*
Y1024064D1*
X1563195D1*
G37*
G36*
X1610186D2*
Y967179D1*
X1615133D1*
X1617606Y969653D1*
X1627499Y984492D1*
X1629972Y989439D1*
X1639865Y1004278D1*
X1641112Y1006735D1*
X1642451Y1009020D1*
X1644207Y1010773D1*
X1645470Y1010657D1*
X1647285Y1009225D1*
Y967179D1*
X1652232D1*
Y1024064D1*
X1644812D1*
X1639865Y1019118D1*
X1637392Y1014171D1*
X1632446Y1006751D1*
X1629972Y1001805D1*
X1625026Y994385D1*
X1620079Y984492D1*
X1619451Y981574D1*
X1617462Y979318D1*
X1616181Y979734D1*
X1615133Y982019D1*
Y1024064D1*
X1610186D1*
G37*
G36*
X1691803Y1014171D2*
X1689330Y1011698D1*
Y1001805D1*
X1691803Y996858D1*
X1696750Y991912D1*
X1701696Y989439D1*
X1703689Y986245D1*
X1704170Y984492D1*
X1696750Y977072D1*
X1689330Y967179D1*
X1696750D1*
X1704170Y974599D1*
X1711589Y984492D1*
X1712836Y986949D1*
X1714175Y989234D1*
X1715931Y990987D1*
X1717194Y990871D1*
X1719009Y989439D1*
Y967179D1*
X1726429D1*
Y1024064D1*
X1704170D1*
X1696750Y1021591D1*
X1691803Y1016644D1*
Y1014171D1*
X1699223D1*
X1705819Y1016644D1*
X1712414D1*
X1719009Y1014171D1*
Y996858D1*
X1713238Y994385D1*
X1707467D1*
X1701696Y996858D1*
X1696750Y1001805D1*
Y1006751D1*
X1696807Y1009163D1*
X1697247Y1010958D1*
X1699223Y1014171D1*
X1691803D1*
G37*
G36*
X1738795Y1024064D2*
Y1016644D1*
X1763528Y1014171D1*
Y1001805D1*
X1738795Y999332D1*
Y991912D1*
X1763528Y989439D1*
Y977072D1*
X1738795Y974599D1*
Y967179D1*
X1768474D1*
Y1024064D1*
X1738795D1*
G37*
G36*
X1785787D2*
Y1016644D1*
X1795680Y1014171D1*
Y967179D1*
X1803100D1*
Y1014171D1*
X1812993Y1016644D1*
Y1024064D1*
X1785787D1*
G37*
G36*
X1830305D2*
Y984492D1*
X1832779Y977072D1*
X1840198Y969653D1*
X1845145Y967179D1*
X1852565D1*
X1859984Y969653D1*
X1864931Y974599D1*
X1867404Y982019D1*
Y1024064D1*
X1859984D1*
Y979546D1*
X1855038Y974599D1*
X1851740Y972126D1*
X1848443D1*
X1845145Y974599D1*
X1840198Y977072D1*
X1837725Y979546D1*
Y1024064D1*
X1830305D1*
G37*
G36*
X1884717Y1014171D2*
Y999332D1*
X1892137Y991912D1*
X1911923Y989439D1*
Y967179D1*
X1916869D1*
Y1024064D1*
X1899556D1*
X1892137Y1021591D1*
X1884717Y1014171D1*
X1892137D1*
X1898732Y1016644D1*
X1905327D1*
X1911923Y1014171D1*
Y996858D1*
X1907801Y994385D1*
X1903678D1*
X1899556Y996858D1*
X1892137Y999332D1*
X1889663Y1001805D1*
Y1011698D1*
X1892137Y1014171D1*
X1884717D1*
G37*
G36*
X1931709Y1024064D2*
Y967179D1*
X1939128D1*
Y1014171D1*
X1940975Y1015759D1*
X1942257Y1015615D1*
X1944075Y1014171D1*
Y1009225D1*
X1946548Y1001805D1*
X1949021Y996858D1*
X1953968Y982019D1*
X1956441Y977072D1*
X1958914Y969653D1*
X1961388Y967179D1*
X1963861D1*
X1968807Y977072D1*
X1971281Y984492D1*
X1976227Y994385D1*
X1978700Y1001805D1*
X1981174Y1006751D1*
Y1011698D1*
X1983021Y1013286D1*
X1984302Y1013142D1*
X1986120Y1011698D1*
Y967179D1*
X1991067D1*
Y1024064D1*
X1981174D1*
X1978700Y1021591D1*
X1973754Y1006751D1*
X1971281Y1001805D1*
X1966334Y986965D1*
Y982019D1*
X1963712Y979333D1*
X1962431Y979734D1*
X1961388Y982019D1*
X1958914Y989439D1*
X1956441Y994385D1*
X1953968Y1001805D1*
X1951495Y1006751D1*
X1949021Y1014171D1*
X1944075Y1024064D1*
X1931709D1*
G37*
G36*
X2015799Y1016644D2*
X2010853Y1011698D1*
X2005906Y1001805D1*
Y991912D1*
X2008379Y984492D1*
X2010853Y979546D1*
X2018272Y972126D1*
X2023219Y969653D1*
X2030639Y967179D1*
X2038058D1*
X2045478Y969653D1*
X2050425Y972126D1*
X2060318Y982019D1*
X2062791Y986965D1*
Y1004278D1*
X2060318Y1009225D1*
X2050425Y1019118D1*
X2045478Y1021591D1*
X2038058Y1024064D1*
X2033112D1*
X2023219Y1021591D1*
X2018272Y1019118D1*
X2015799Y1016644D1*
X2025692D1*
X2030639Y1019118D1*
X2035585D1*
X2040532Y1016644D1*
X2047951Y1014171D1*
X2055371Y1006751D1*
Y1001805D1*
X2057844Y999332D1*
Y991912D1*
X2055371Y989439D1*
Y984492D1*
X2047951Y977072D1*
X2040532Y974599D1*
X2037234Y972126D1*
X2033936D1*
X2030639Y974599D1*
X2023219Y977072D1*
X2013326Y986965D1*
Y1004278D1*
X2015799Y1006751D1*
X2016280Y1008505D1*
X2018272Y1011698D1*
X2023219Y1014171D1*
X2025692Y1016644D1*
X2015799D1*
G37*
G36*
X2102363Y1024064D2*
X2094943Y1021591D1*
X2089997Y1019118D1*
X2085050Y1014171D1*
Y1011698D1*
X2092470D1*
X2094943Y1014171D1*
X2099890Y1016644D1*
X2105660Y1019118D1*
X2111431D1*
X2117202Y1016644D1*
X2127095Y1006751D1*
Y1001805D1*
X2129568Y999332D1*
Y991912D1*
X2127095Y989439D1*
Y984492D1*
X2119675Y977072D1*
X2114729Y974599D1*
X2110607Y972126D1*
X2106485D1*
X2102363Y974599D1*
X2094943Y979546D1*
X2085050D1*
Y977072D1*
X2089997Y972126D1*
X2094943Y969653D1*
X2104836Y967179D1*
X2109782D1*
X2119675Y969653D1*
X2127095Y974599D1*
X2132042Y982019D1*
X2134515Y986965D1*
Y1004278D1*
X2132042Y1009225D1*
X2127095Y1016644D1*
X2119675Y1021591D1*
X2109782Y1024064D1*
X2102363D1*
G37*
G36*
X2149354D2*
X2151828Y1021591D1*
Y1016644D1*
X2161721Y996858D1*
X2164194Y989439D1*
X2166667Y967179D1*
X2171614D1*
X2174087Y991912D1*
X2188926Y1021591D1*
Y1024064D1*
X2181507D1*
X2179033Y1019118D1*
X2176560Y1011698D1*
X2174087Y1006751D1*
X2171614Y999332D1*
X2168991Y996645D1*
X2167717Y997042D1*
X2166128Y999765D1*
X2166667Y1001805D1*
X2159247Y1016644D1*
X2156774Y1024064D1*
X2149354D1*
G37*
G36*
X2206239D2*
Y977072D1*
X2186453Y974599D1*
Y967179D1*
X2211186D1*
Y1024064D1*
X2206239D1*
G37*
G36*
X2228498D2*
Y967179D1*
X2233445D1*
Y1024064D1*
X2228498D1*
G37*
G36*
X2248284D2*
Y967179D1*
X2255704D1*
Y1009225D1*
X2257551Y1010813D1*
X2258833Y1010669D1*
X2260651Y1009225D1*
Y1004278D1*
X2263124Y999332D1*
X2268070Y984492D1*
X2270544Y979546D1*
X2273017Y972126D1*
X2275490Y967179D1*
X2277963D1*
X2280437Y969653D1*
X2282910Y974599D1*
X2285383Y982019D1*
X2287856Y986965D1*
X2290330Y994385D1*
X2295276Y1004278D1*
Y1009225D1*
X2297123Y1010813D1*
X2298405Y1010669D1*
X2300223Y1009225D1*
Y967179D1*
X2307642D1*
Y1024064D1*
X2295276D1*
X2292803Y1019118D1*
X2287856Y1004278D1*
X2285383Y999332D1*
X2280437Y984492D1*
X2279809Y981574D1*
X2277819Y979318D1*
X2276544Y979729D1*
X2274950Y982453D1*
X2275490Y984492D1*
X2268070Y1006751D1*
X2265597Y1011698D1*
X2263124Y1019118D1*
X2260651Y1024064D1*
X2248284D1*
G37*
G36*
X2320009Y1009225D2*
Y967179D1*
X2327428D1*
Y974599D1*
X2336497Y977072D1*
X2345566D1*
X2354634Y974599D1*
X2356626Y971406D1*
X2357107Y969653D1*
X2359581Y967179D1*
X2367000D1*
X2352161Y989439D1*
X2349688Y994385D1*
X2329902Y1024064D1*
X2320009D1*
Y1009225D1*
X2327428D1*
X2329275Y1010813D1*
X2330526Y1010606D1*
X2331934Y1008561D1*
X2332375Y1006751D1*
X2342268Y991912D1*
X2344741Y986965D1*
X2349688Y982019D1*
X2342268Y979546D1*
X2334848D1*
X2327428Y982019D1*
Y1009225D1*
X2320009D1*
G37*
G36*
X2367000Y1024064D2*
Y1016644D1*
X2386786Y1014171D1*
Y1001805D1*
X2367000Y999332D1*
Y991912D1*
X2386786Y989439D1*
Y967179D1*
X2394206D1*
Y1024064D1*
X2367000D1*
G37*
M02*
