G04 DipTrace 4.3.0.5*
G04 BottomSilk.gbr*
%MOIN*%
G04 #@! TF.FileFunction,Legend,Bot*
G04 #@! TF.Part,Single*
%FSLAX26Y26*%
G04*
G70*
G90*
G75*
G01*
G04 BotSilk*
%LPD*%
G36*
X1342389Y4020580D2*
X1322603Y4015633D1*
X1287978Y4000794D1*
X1250879Y3983481D1*
X1198941Y3958749D1*
X1048073Y3884551D1*
X879892Y3800461D1*
X874945Y3795514D1*
X869999Y3785621D1*
Y3765835D1*
X874945Y3758416D1*
X884838Y3750996D1*
X889785Y3748523D1*
X1431426Y3746049D1*
X1958228D1*
X1970594Y3748523D1*
X1978014Y3753469D1*
X1980487Y3755942D1*
X1985434Y3763362D1*
Y3785621D1*
X1982961Y3790568D1*
X1973068Y3800461D1*
X1844459Y3864765D1*
X1693591Y3938963D1*
X1557562Y4005740D1*
X1540249Y4013160D1*
X1532829Y4015633D1*
X1500677Y4025526D1*
X1488311Y4028000D1*
X1470998Y4030473D1*
X1451212Y4032946D1*
X1406694D1*
X1372068Y4028000D1*
X1359702Y4025526D1*
X1349809Y4023053D1*
X1342389Y4020580D1*
X1411640D1*
X1423182Y4023053D1*
X1434724D1*
X1446266Y4020580D1*
X1466052Y4018107D1*
X1495731Y4013160D1*
X1515517Y4008214D1*
X1530356Y4003267D1*
X1535303Y4000794D1*
X1547669Y3995847D1*
X1567455Y3985954D1*
X1772735Y3884551D1*
X1898870Y3822720D1*
X1906290Y3820247D1*
X1965648Y3790568D1*
X1973068Y3783148D1*
Y3780675D1*
X1975541Y3778201D1*
Y3770782D1*
X1968121Y3763362D1*
X1963175Y3760889D1*
X1607027Y3758416D1*
X1250879D1*
X894731Y3760889D1*
X884838Y3765835D1*
Y3768308D1*
X882365Y3770782D1*
Y3785621D1*
X889785Y3793041D1*
X909571Y3802934D1*
X916991Y3805407D1*
X1043126Y3867238D1*
X1159369Y3924123D1*
X1302817Y3993374D1*
X1307764Y3995847D1*
X1344863Y4008214D1*
X1384435Y4018107D1*
X1411640Y4020580D1*
X1342389D1*
G37*
G36*
X1231093Y2467380D2*
X1228620Y2464907D1*
X1221200Y2450067D1*
X1211307Y2435228D1*
X1201414Y2422861D1*
X1189048Y2408022D1*
Y2405549D1*
X1129690Y2346191D1*
X1124743Y2343717D1*
X1095064Y2316512D1*
X1060439Y2281886D1*
X1050546Y2269520D1*
X1035706Y2249734D1*
X1030760Y2242314D1*
X1028287Y2237368D1*
X1023340Y2229948D1*
X1001081Y2185429D1*
X993661Y2163170D1*
X991188Y2153277D1*
X988715Y2145857D1*
X978822Y2096392D1*
X973875Y2066714D1*
X971402Y2054347D1*
X966456Y2046928D1*
X954089Y2032088D1*
X941723Y2019722D1*
X936777Y2017249D1*
X928532Y2014775D1*
X920288D1*
X912044Y2017249D1*
X887312Y2029615D1*
X882365Y2034561D1*
X860106Y2049401D1*
X850213Y2056821D1*
X835373Y2066714D1*
X825480Y2074133D1*
X818061Y2079080D1*
X778489Y2098866D1*
X763649Y2103812D1*
X751283Y2106285D1*
X709238D1*
X686978Y2101339D1*
X679559Y2098866D1*
X659773Y2088973D1*
X649880Y2081553D1*
X642460Y2076606D1*
X639987Y2074133D1*
X625147Y2056821D1*
X617727Y2046928D1*
X607834Y2032088D1*
X592995Y2002409D1*
X585575Y1980150D1*
X583102Y1975203D1*
Y1928212D1*
X588048Y1898533D1*
X590522Y1888640D1*
X592995Y1883693D1*
X597941Y1868854D1*
X600415Y1863907D1*
X602888Y1856487D1*
X605361Y1851541D1*
X610308Y1844121D1*
X620201Y1824335D1*
X635040Y1802076D1*
X637513Y1797129D1*
X664719Y1769924D1*
X672139Y1764977D1*
X682032Y1757557D1*
X694398Y1750138D1*
X701818Y1745191D1*
X711711Y1740245D1*
Y1742718D1*
X706764Y1750138D1*
X704291Y1757557D1*
X701818Y1767450D1*
X699345Y1769924D1*
Y1792183D1*
X701818Y1794656D1*
X706764Y1809496D1*
Y1811969D1*
X721604Y1826808D1*
X726550Y1829282D1*
X729024Y1831755D1*
X758703Y1846594D1*
X766122Y1849068D1*
X776015Y1854014D1*
Y1856487D1*
X773542Y1861434D1*
X771069Y1868854D1*
X768596Y1873800D1*
X766122Y1883693D1*
X763649Y1886166D1*
X758703Y1883693D1*
X743863Y1873800D1*
X739741Y1871327D1*
X735619D1*
X731497Y1873800D1*
X726550Y1876273D1*
X723617Y1879054D1*
X724077Y1881220D1*
X721604Y1888640D1*
X719131Y1898533D1*
X716657Y1901006D1*
Y1913372D1*
X721604Y1918319D1*
X726550Y1920792D1*
X733970Y1923265D1*
X738917Y1925738D1*
X748810Y1928212D1*
X766122Y1930685D1*
X768596Y1935631D1*
X771069Y1945524D1*
X776015Y1952944D1*
Y1955417D1*
X790855Y1970257D1*
X805694Y1977677D1*
X808168Y1980150D1*
X823007Y1987570D1*
X837847Y1990043D1*
X846091Y1992516D1*
X854335D1*
X862579Y1990043D1*
X874945Y1987570D1*
X889785Y1982623D1*
X899678Y1977677D1*
X926884Y1967784D1*
X939250Y1962837D1*
X951616D1*
X961509Y1965310D1*
X981295Y1975203D1*
X986241D1*
X991188Y1972730D1*
Y1970257D1*
X993661Y1962837D1*
X996134Y1957891D1*
X1003554Y1947998D1*
X1023340Y1923265D1*
X1025813Y1920792D1*
X1030760Y1918319D1*
X1035706D1*
X1050546Y1930685D1*
X1057966Y1938105D1*
X1062912Y1940578D1*
X1068683Y1943051D1*
X1074454D1*
X1080225Y1940578D1*
X1085171Y1935631D1*
Y1933158D1*
X1087645Y1930685D1*
X1213780Y1928212D1*
X1221200Y1925738D1*
X1223673Y1923265D1*
Y1834228D1*
X1312710D1*
Y1920792D1*
X1317657Y1925738D1*
X1322603Y1928212D1*
X1344038Y1930685D1*
X1365473D1*
X1386908Y1928212D1*
X1391854Y1925738D1*
X1396801Y1920792D1*
Y1913372D1*
X1394328Y1910899D1*
Y1849068D1*
X1438846D1*
X1441319Y1854014D1*
X1443792Y1861434D1*
X1446266Y1871327D1*
X1448739Y1883693D1*
Y1898533D1*
X1446266Y1901006D1*
Y1908426D1*
X1448739Y1910899D1*
X1451212Y1920792D1*
Y1945524D1*
X1448739Y1957891D1*
X1443792Y1972730D1*
X1438846Y1982623D1*
X1431426Y2004882D1*
X1428953Y2014775D1*
X1426480Y2017249D1*
Y2041981D1*
X1428953Y2044454D1*
X1431426Y2056821D1*
X1436373Y2071660D1*
X1438846Y2076606D1*
X1441319Y2084026D1*
X1443792Y2088973D1*
X1448739Y2096392D1*
X1451212Y2101339D1*
X1466052Y2118652D1*
Y2121125D1*
X1480891Y2135964D1*
X1485838Y2138438D1*
X1505624Y2153277D1*
X1522936Y2163170D1*
X1555089Y2180483D1*
X1567455Y2187903D1*
X1574875Y2192849D1*
X1589714Y2205215D1*
X1631759Y2244787D1*
X1634233Y2247261D1*
X1663912Y2281886D1*
X1668858Y2289306D1*
X1691117Y2318985D1*
X1701010Y2333824D1*
X1703484Y2338771D1*
X1708430Y2346191D1*
X1713377Y2356084D1*
X1713857Y2357837D1*
X1715850Y2361030D1*
X1720796Y2363503D1*
X1722643Y2365092D1*
X1723925Y2364947D1*
X1725743Y2363503D1*
X1738109Y2361030D1*
X1745529Y2358557D1*
X1750475Y2356084D1*
X1752949Y2353610D1*
X1760368Y2348664D1*
X1772735Y2338771D1*
X1777681Y2336298D1*
X1799940Y2314038D1*
Y2311565D1*
X1804887Y2304145D1*
X1812307Y2289306D1*
X1814780Y2281886D1*
X1817253Y2276940D1*
X1819726Y2269520D1*
X1822200Y2267047D1*
Y2262100D1*
X1819726Y2259627D1*
X1817253Y2254680D1*
X1812307Y2247261D1*
X1809833Y2242314D1*
X1804887Y2234894D1*
X1799940Y2220055D1*
X1797467Y2210162D1*
X1794994Y2197796D1*
Y2192849D1*
X1797467Y2187903D1*
X1799940Y2185429D1*
X1809833D1*
X1829619Y2190376D1*
X1845283Y2192849D1*
X1860947D1*
X1876611Y2190376D1*
X1886504Y2185429D1*
X1891450Y2180483D1*
X1896397Y2178010D1*
X1911236Y2163170D1*
Y2160697D1*
X1923603Y2145857D1*
X1933496Y2131018D1*
X1940915Y2121125D1*
X1950808Y2106285D1*
X1958228Y2096392D1*
X1968121Y2081553D1*
X1970594Y2076606D1*
X1975541Y2069187D1*
X1985434Y2049401D1*
X1987907Y2041981D1*
X1990380Y2037035D1*
X1992854Y2027142D1*
X1995327Y2019722D1*
X1997800Y2017249D1*
X2002747Y2014775D1*
X2010166Y2007356D1*
Y2004882D1*
X2012640Y1999936D1*
X2025006Y1987570D1*
X2032426Y1985096D1*
X2042319D1*
X2052212Y1987570D1*
X2059631Y1990043D1*
X2066227Y1992516D1*
X2072822D1*
X2079417Y1990043D1*
X2086837Y1987570D1*
X2091784Y1982623D1*
Y1980150D1*
X2096730Y1970257D1*
X2101677Y1962837D1*
X2109096Y1955417D1*
X2116516Y1950471D1*
X2128882Y1947998D1*
X2143722Y1940578D1*
X2146195Y1938105D1*
X2153615Y1933158D1*
X2158561Y1930685D1*
X2165981Y1928212D1*
X2170928Y1925738D1*
X2173401Y1923265D1*
X2183294D1*
X2195660Y1928212D1*
X2200607Y1930685D1*
X2217919Y1940578D1*
X2225339Y1945524D1*
X2227812Y1947998D1*
X2237705Y1960364D1*
X2245125Y1970257D1*
X2252545Y1985096D1*
X2255018Y1994989D1*
X2252545Y1999936D1*
X2250071Y2002409D1*
X2245125Y2004882D1*
X2217919Y1999936D1*
X2207202Y1997463D1*
X2196484D1*
X2185767Y1999936D1*
X2170928Y2002409D1*
X2156088Y2007356D1*
X2151142Y2009829D1*
X2143722Y2012302D1*
X2138775Y2014775D1*
X2136302Y2017249D1*
X2128882Y2022195D1*
X2118989Y2029615D1*
X2089310Y2049401D1*
X2076944Y2056821D1*
X2054685Y2071660D1*
X2042319Y2081553D1*
X2027479Y2093919D1*
X2022533Y2096392D1*
X2007693Y2111232D1*
Y2113705D1*
X2000273Y2123598D1*
X1980487Y2153277D1*
X1970594Y2173063D1*
X1965648Y2187903D1*
X1963175Y2192849D1*
X1960701Y2200269D1*
X1958228Y2205215D1*
X1955755Y2212635D1*
X1953282Y2227475D1*
X1950808Y2239841D1*
X1948335Y2242314D1*
Y2252207D1*
X1953282Y2254680D1*
X1960701Y2257154D1*
X1995327Y2274466D1*
X2005220Y2284359D1*
X2010166Y2294252D1*
Y2299199D1*
X2007693Y2316512D1*
X2002747Y2356084D1*
X2000273Y2378343D1*
X1997800Y2412968D1*
X1995327Y2415442D1*
Y2430281D1*
X1997800Y2432754D1*
X2000273Y2457487D1*
X2002747Y2474800D1*
Y2489639D1*
X1997800Y2499532D1*
X1992854Y2506952D1*
X1987907Y2516845D1*
X1968121Y2546524D1*
X1965648Y2548997D1*
X1955755Y2553943D1*
X1931022D1*
X1916183Y2548997D1*
X1903817Y2544050D1*
X1891450Y2536631D1*
X1888977Y2534157D1*
X1874138Y2529211D1*
X1861771Y2526738D1*
X1846932Y2524264D1*
X1837863Y2521791D1*
X1828795D1*
X1819726Y2524264D1*
X1816793Y2527045D1*
X1817557Y2528697D1*
X1819726Y2531684D1*
X1822200Y2566310D1*
Y2568783D1*
X1819726Y2598462D1*
X1817253Y2608355D1*
X1814780Y2615775D1*
X1807360Y2630614D1*
X1802414Y2638034D1*
X1799940Y2642980D1*
X1792521Y2652873D1*
X1755422Y2689972D1*
X1750475Y2692445D1*
X1735636Y2707285D1*
Y2709758D1*
X1730689Y2717178D1*
X1725743Y2732017D1*
X1723270Y2764170D1*
X1720796Y2774063D1*
X1715850Y2788902D1*
X1708430Y2803742D1*
X1703484Y2811161D1*
X1701010Y2816108D1*
X1691117Y2830947D1*
X1676278Y2850733D1*
X1661438Y2872993D1*
X1616920Y2924931D1*
X1607027Y2937297D1*
X1592187Y2957083D1*
X1572401Y2986762D1*
X1567455Y2996655D1*
X1564982Y3006548D1*
X1562508Y3009021D1*
Y3018914D1*
X1564982Y3021387D1*
X1567455Y3026334D1*
X1574875Y3036227D1*
X1576722Y3037815D1*
X1578003Y3037671D1*
X1579793Y3036153D1*
X1582294Y3033754D1*
Y3026334D1*
X1579821Y3023861D1*
Y3018914D1*
X1584768Y3009021D1*
X1594661Y2996655D1*
X1597134Y2994182D1*
X1607027Y2986762D1*
X1616920Y2981815D1*
X1631759Y2979342D1*
X1646599Y2971922D1*
X1648591Y2968729D1*
X1649072Y2966976D1*
X1651545Y2959556D1*
X1658965Y2949663D1*
X1663912Y2944717D1*
X1673805Y2937297D1*
X1681224Y2932350D1*
X1686171Y2929877D1*
X1701010Y2915038D1*
Y2910091D1*
X1696064Y2907618D1*
Y2902672D1*
X1705957Y2882886D1*
X1708430Y2880412D1*
X1730689Y2872993D1*
X1762842Y2865573D1*
X1792521D1*
X1799940Y2868046D1*
X1807360Y2872993D1*
X1814780Y2880412D1*
Y2895252D1*
X1811847Y2898032D1*
X1812611Y2899684D1*
X1814780Y2902672D1*
X1827146Y2927404D1*
Y2944717D1*
X1824673Y2952136D1*
X1822200Y2957083D1*
X1819726Y2964503D1*
X1817253Y2969449D1*
X1814780Y2976869D1*
X1809833Y2986762D1*
X1807360Y2994182D1*
X1804887Y2999128D1*
X1802414Y3006548D1*
X1799940Y3011494D1*
X1797467Y3018914D1*
X1794994Y3023861D1*
X1792521Y3031280D1*
X1790047Y3036227D1*
X1787574Y3043647D1*
X1785101Y3048593D1*
X1782628Y3056013D1*
X1777681Y3065906D1*
X1775208Y3073326D1*
X1772735Y3078272D1*
X1770261Y3085692D1*
X1767788Y3090638D1*
X1765315Y3098058D1*
X1762842Y3103005D1*
X1760368Y3110424D1*
X1757895Y3115371D1*
X1755422Y3122791D1*
X1745529Y3142577D1*
X1738109Y3152470D1*
X1728216Y3167309D1*
X1725743Y3169782D1*
Y3174729D1*
X1728216Y3177202D1*
X1738109Y3182149D1*
X1745529Y3187095D1*
X1750475Y3192042D1*
X1752949Y3196988D1*
Y3201935D1*
X1743056Y3196988D1*
X1726567Y3187095D1*
X1722445D1*
X1718323Y3189568D1*
X1715850Y3192042D1*
Y3201935D1*
X1718323Y3204408D1*
X1723270Y3206881D1*
X1735636Y3214301D1*
X1740582Y3216774D1*
X1750475Y3226667D1*
X1755422Y3234087D1*
X1757895Y3239033D1*
X1760368Y3251400D1*
Y3276132D1*
X1757895Y3281079D1*
X1752949Y3283552D1*
X1748002D1*
X1735636Y3271186D1*
Y3268712D1*
X1701010Y3234087D1*
X1696064Y3231614D1*
X1693591Y3229140D1*
X1687820Y3226667D1*
X1682049D1*
X1676278Y3229140D1*
X1671331Y3234087D1*
Y3246453D1*
X1673805Y3248926D1*
X1678751Y3268712D1*
X1683698Y3278605D1*
X1684178Y3280359D1*
X1686171Y3283552D1*
X1691117Y3286025D1*
X1698537Y3293445D1*
X1730689Y3330544D1*
X1735636Y3337963D1*
X1743056Y3352803D1*
X1750475Y3362696D1*
Y3365169D1*
X1775208Y3389901D1*
X1780154Y3392375D1*
X1790047Y3402268D1*
X1799940Y3414634D1*
X1807360Y3429473D1*
X1817253Y3444313D1*
Y3446786D1*
X1834566Y3464099D1*
X1839512Y3466572D1*
X1859298Y3486358D1*
X1864245Y3493778D1*
X1866718Y3498724D1*
X1871664Y3513564D1*
X1874138Y3518510D1*
Y3520984D1*
X1884031Y3530877D1*
X1893924Y3535823D1*
X1901343Y3540770D1*
X1918656Y3558082D1*
X1928549Y3570449D1*
X1931022Y3575395D1*
X1933496Y3582815D1*
X1934732Y3585288D1*
X1936082Y3587541D1*
X1938465Y3590181D1*
X1940915Y3592708D1*
X1965648Y3617440D1*
X1975541Y3632280D1*
X1980487Y3642173D1*
Y3644646D1*
X1985434Y3649593D1*
X1990380Y3652066D1*
X1995327Y3657012D1*
X2005220Y3671852D1*
X2007693Y3679272D1*
X2012640Y3686691D1*
X2020059Y3696584D1*
Y3706477D1*
X2017586D1*
X2010166Y3704004D1*
X2007693Y3701531D1*
Y3699058D1*
X1997800Y3689165D1*
X1992854Y3686691D1*
X1950808Y3649593D1*
X1940915Y3642173D1*
X1928549Y3629807D1*
X1923603Y3622387D1*
X1922366Y3619914D1*
X1920909Y3617328D1*
X1918638Y3614959D1*
X1913710Y3610021D1*
X1903817Y3605074D1*
X1893924Y3597654D1*
X1869191Y3572922D1*
X1864245Y3563029D1*
X1856825Y3553136D1*
X1832092Y3538296D1*
X1814780Y3528403D1*
X1809833Y3523457D1*
X1799940Y3511091D1*
X1794994Y3503671D1*
X1792521Y3498724D1*
X1790047Y3491305D1*
Y3488831D1*
X1780154Y3478938D1*
X1770261Y3473992D1*
X1760368Y3471519D1*
X1755422Y3469045D1*
X1745529Y3461626D1*
X1728216Y3444313D1*
X1720796Y3434420D1*
X1713377Y3419580D1*
Y3417107D1*
X1708430Y3412161D1*
X1703484Y3409687D1*
X1693591Y3407214D1*
X1686171Y3404741D1*
X1676278Y3397321D1*
X1668858Y3392375D1*
X1663912Y3387428D1*
X1654019Y3375062D1*
X1639179Y3352803D1*
X1636706Y3347856D1*
Y3345383D1*
X1631759Y3340437D1*
X1628134Y3340687D1*
X1626813Y3342910D1*
X1621866Y3345383D1*
X1609500D1*
X1604554Y3342910D1*
X1601931Y3340223D1*
X1600651Y3340625D1*
X1599607Y3342910D1*
X1597134Y3345383D1*
X1589714Y3347856D1*
X1579821D1*
X1576805Y3345275D1*
X1573938Y3345592D1*
X1571594Y3348456D1*
X1572401Y3350329D1*
X1569928Y3352803D1*
X1564982Y3355276D1*
X1503150Y3362696D1*
X1493257D1*
X1478418Y3360222D1*
X1470998Y3357749D1*
X1468525Y3355276D1*
X1467625Y3352235D1*
X1464993Y3350128D1*
X1462755Y3350524D1*
X1461105Y3352803D1*
X1443792D1*
X1419060Y3347856D1*
X1374542Y3333017D1*
X1372068Y3330544D1*
X1371255Y3327543D1*
X1369595Y3325597D1*
X1357229Y3323124D1*
X1349809Y3320651D1*
X1344863Y3318177D1*
X1339916Y3313231D1*
X1342389Y3305811D1*
X1344863Y3303338D1*
Y3298391D1*
X1341847Y3295810D1*
X1338987Y3296130D1*
X1337443Y3298391D1*
X1332496Y3308284D1*
X1330023Y3310758D1*
X1327550D1*
X1320130Y3303338D1*
X1307764Y3288498D1*
Y3281079D1*
X1309756Y3277885D1*
X1310237Y3276132D1*
X1306939Y3273659D1*
X1303642D1*
X1300344Y3276132D1*
X1295398D1*
X1290451Y3271186D1*
X1278085Y3256346D1*
Y3246453D1*
X1283031Y3239033D1*
X1284268Y3236560D1*
X1285318Y3233852D1*
X1285418Y3231528D1*
X1284868Y3228686D1*
X1282887Y3226439D1*
X1281606Y3226856D1*
X1280558Y3229140D1*
X1275612Y3239033D1*
X1273138Y3241507D1*
X1265719D1*
X1255826Y3231614D1*
X1245933Y3216774D1*
X1236040Y3196988D1*
X1233566Y3187095D1*
X1228620Y3172256D1*
X1223673Y3152470D1*
X1221200Y3140103D1*
Y3135157D1*
X1226147Y3127737D1*
X1228620Y3122791D1*
X1230491Y3119464D1*
X1230176Y3117203D1*
X1227579Y3115176D1*
X1225316Y3115566D1*
X1223673Y3117844D1*
X1213780D1*
Y3107951D1*
X1216254Y3103005D1*
X1218727Y3093112D1*
X1220598Y3089785D1*
X1220283Y3087524D1*
X1217686Y3085497D1*
X1215422Y3085884D1*
X1212958Y3088773D1*
X1213780Y3090638D1*
X1208834Y3095585D1*
X1206361D1*
X1203887Y3093112D1*
X1201414Y3085692D1*
X1198941Y3080745D1*
X1196468Y3065906D1*
Y3041173D1*
X1198941Y3033754D1*
X1201414Y3023861D1*
X1203887Y3018914D1*
X1206361Y3011494D1*
X1208834Y3006548D1*
X1211307Y3004075D1*
Y2999128D1*
X1208685Y2996442D1*
X1207404Y2996844D1*
X1206361Y2999128D1*
X1201414Y3009021D1*
X1196468Y3016441D1*
X1193994Y3018914D1*
X1191521D1*
X1189048Y3016441D1*
Y2937297D1*
X1191521Y2917511D1*
X1193994Y2907618D1*
X1196468Y2900198D1*
X1206353Y2880400D1*
X1207224Y2876473D1*
X1205586Y2875323D1*
X1203887Y2875466D1*
X1198941Y2880412D1*
X1196468D1*
Y2875466D1*
X1206361D1*
X1208208Y2877054D1*
X1209429Y2876801D1*
X1210223Y2874350D1*
X1208782Y2872782D1*
X1207367Y2873191D1*
X1206361Y2875466D1*
X1196468D1*
Y2865573D1*
X1206361Y2826001D1*
X1216254Y2796322D1*
X1223673Y2781482D1*
X1250879Y2754277D1*
X1255826Y2751803D1*
X1268192Y2749330D1*
X1278085Y2744384D1*
X1280077Y2741190D1*
X1280558Y2739437D1*
X1283031Y2734491D1*
X1285505Y2727071D1*
X1287978Y2712231D1*
X1290451Y2680079D1*
X1292322Y2676753D1*
X1292075Y2674525D1*
X1290451Y2672659D1*
X1287978Y2650400D1*
X1285505Y2633087D1*
X1280558Y2603408D1*
X1273138Y2573729D1*
X1258299Y2529211D1*
X1255826Y2524264D1*
X1253352Y2516845D1*
X1250879Y2511898D1*
X1248406Y2504478D1*
X1243459Y2494586D1*
X1240986Y2487166D1*
X1236040Y2479746D1*
X1231093Y2469853D1*
Y2467380D1*
X1903817D1*
X1908763Y2469853D1*
X1913710D1*
X1918656Y2467380D1*
X1926076Y2464907D1*
X1931022Y2462433D1*
X1933496Y2459960D1*
X1943389Y2452540D1*
X1945862Y2450067D1*
X1948280Y2447473D1*
X1950320Y2444384D1*
X1950808Y2442647D1*
X1953282Y2437701D1*
X1958228Y2422861D1*
X1960701Y2420388D1*
Y2398129D1*
X1958228Y2395656D1*
X1955755Y2380816D1*
X1953282Y2373396D1*
X1950808Y2368450D1*
X1948335Y2361030D1*
X1945862Y2356084D1*
X1938442Y2333824D1*
X1935969Y2321458D1*
X1933496Y2311565D1*
X1928549Y2301672D1*
X1926076Y2294252D1*
X1924829Y2291773D1*
X1923393Y2289190D1*
X1920977Y2286614D1*
X1919703Y2287021D1*
X1918656Y2289306D1*
X1913710Y2291779D1*
X1908763Y2296726D1*
Y2299199D1*
X1906290Y2304145D1*
X1898870Y2309092D1*
X1888977Y2314038D1*
X1881557Y2321458D1*
Y2323931D1*
X1876611Y2333824D1*
X1874138Y2346191D1*
X1871664Y2356084D1*
X1864245Y2378343D1*
X1859298Y2388236D1*
X1854352Y2408022D1*
X1851878Y2410495D1*
Y2430281D1*
X1854352Y2432754D1*
X1859298Y2440174D1*
X1866718Y2447594D1*
X1871664Y2450067D1*
X1888977Y2459960D1*
X1903817Y2467380D1*
X1231093D1*
G37*
G36*
X1577348Y1727878D2*
X1597134Y1722932D1*
X1629286Y1720459D1*
X1631759D1*
X1658965Y1722932D1*
X1668858Y1725405D1*
X1672980Y1727878D1*
X1677102D1*
X1681224Y1725405D1*
X1743056D1*
X1745529Y1732825D1*
X1752949Y1747664D1*
X1755422Y1755084D1*
X1770261Y1784763D1*
X1772735Y1792183D1*
X1787574Y1821862D1*
X1790047Y1829282D1*
X1802414Y1854014D1*
X1802926Y1855692D1*
X1805167Y1857737D1*
X1807179Y1857618D1*
X1809290Y1855557D1*
X1812307Y1846594D1*
X1832092Y1807022D1*
X1834566Y1799603D1*
X1851878Y1764977D1*
X1854352Y1757557D1*
X1866718Y1732825D1*
X1869191Y1725405D1*
X2025006D1*
X2022533Y1727878D1*
Y1910899D1*
X2024380Y1912487D1*
X2025661Y1912343D1*
X2027479Y1910899D1*
X2029952Y1901006D1*
X2032426Y1898533D1*
X2058807Y1901006D1*
X2085188D1*
X2111570Y1898533D1*
Y1829282D1*
X2086013Y1826808D1*
X2060456D1*
X2034899Y1829282D1*
Y1824335D1*
X2037372Y1809496D1*
X2042319D1*
X2065402Y1811969D1*
X2088486D1*
X2111570Y1809496D1*
Y1732825D1*
X2109096Y1730352D1*
Y1725405D1*
X2161035D1*
X2158561Y1727878D1*
Y1913372D1*
X2161035Y1915845D1*
X1970594D1*
Y1910899D1*
X1973068Y1908426D1*
Y1745191D1*
X1944213Y1742718D1*
X1915359D1*
X1886504Y1745191D1*
Y1747664D1*
X1861771Y1797129D1*
X1856825Y1804549D1*
X1832092Y1854014D1*
X1827146Y1861434D1*
X1802414Y1910899D1*
X1797467Y1918319D1*
X1792521Y1928212D1*
X1790047Y1930685D1*
X1780154Y1910899D1*
X1775208Y1903479D1*
X1740582Y1834228D1*
X1735636Y1826808D1*
X1703484Y1762504D1*
X1698537Y1755084D1*
X1693591Y1745191D1*
X1692963Y1742273D1*
X1690973Y1740017D1*
X1689692Y1740433D1*
X1688644Y1742718D1*
Y1750138D1*
X1686171Y1757557D1*
X1676278Y1750138D1*
X1673805Y1747664D1*
X1663912Y1742718D1*
X1656492Y1740245D1*
X1639179Y1737771D1*
X1632584Y1735298D1*
X1625988D1*
X1619393Y1737771D1*
X1607027Y1740245D1*
X1599607Y1742718D1*
X1589714Y1752611D1*
Y1755084D1*
X1587241Y1767450D1*
X1584308Y1770231D1*
X1585072Y1771883D1*
X1587241Y1774870D1*
Y1779817D1*
X1589714Y1782290D1*
X1594661Y1784763D1*
X1602080Y1792183D1*
X1611973Y1797129D1*
X1619393Y1799603D1*
X1636706Y1807022D1*
X1649072Y1811969D1*
X1658965Y1816915D1*
X1671331Y1824335D1*
X1678751Y1831755D1*
X1683698Y1839175D1*
X1688644Y1849068D1*
X1691117Y1856487D1*
Y1873800D1*
X1688644Y1883693D1*
X1683698Y1893586D1*
X1673805Y1903479D1*
X1658965Y1910899D1*
X1636706Y1918319D1*
X1584768D1*
X1555089Y1908426D1*
Y1905952D1*
X1557562Y1898533D1*
X1560035Y1888640D1*
X1564982D1*
X1567455Y1891113D1*
X1582294Y1898533D1*
X1592187Y1901006D1*
X1609500Y1903479D1*
X1611347Y1905067D1*
X1612629Y1904923D1*
X1614447Y1903479D1*
X1629286Y1901006D1*
X1639179Y1896059D1*
X1646599Y1888640D1*
Y1881220D1*
X1649072Y1878747D1*
Y1873800D1*
X1646599Y1871327D1*
X1641652Y1861434D1*
X1634233Y1854014D1*
X1609500Y1841648D1*
X1594661Y1836701D1*
X1577348Y1829282D1*
X1562508Y1821862D1*
X1552615Y1814442D1*
X1545196Y1804549D1*
X1540249Y1794656D1*
Y1769924D1*
X1542722Y1760031D1*
X1547669Y1750138D1*
X1557562Y1737771D1*
X1564982Y1732825D1*
X1569928Y1730352D1*
X1577348Y1727878D1*
X1678751D1*
X1680598Y1729467D1*
X1681820Y1729214D1*
X1682613Y1726763D1*
X1681172Y1725195D1*
X1679757Y1725604D1*
X1678751Y1727878D1*
X1577348D1*
G37*
G36*
X1070332Y1928212D2*
X1065385Y1925738D1*
X1048073Y1910899D1*
X1033233Y1898533D1*
X998608Y1868854D1*
X983768Y1856487D1*
X966456Y1841648D1*
X951616Y1829282D1*
X934303Y1814442D1*
X912044Y1794656D1*
X909422Y1791970D1*
X908141Y1792372D1*
X907098Y1794656D1*
Y1913372D1*
X909571Y1915845D1*
X882365D1*
Y1910899D1*
X884838Y1715512D1*
X892258Y1720459D1*
X1010974Y1819389D1*
X1028287Y1834228D1*
X1043126Y1849068D1*
X1043530Y1850981D1*
X1045047Y1853008D1*
X1046266Y1852950D1*
X1048073Y1851541D1*
Y1732825D1*
X1045599Y1730352D1*
Y1725405D1*
X1070332D1*
Y1913372D1*
X1072179Y1914960D1*
X1073461Y1914816D1*
X1075278Y1913372D1*
Y1905952D1*
X1077752Y1896059D1*
X1080225Y1898533D1*
X1105782Y1901006D1*
X1131339D1*
X1156896Y1898533D1*
Y1829282D1*
X1082698Y1826808D1*
Y1821862D1*
X1085171Y1811969D1*
X1087645Y1809496D1*
X1090118D1*
X1112377Y1811969D1*
X1134636D1*
X1156896Y1809496D1*
Y1727878D1*
X1154422Y1725405D1*
X1208834D1*
Y1727878D1*
X1206361Y1730352D1*
Y1910899D1*
X1208834Y1913372D1*
Y1915845D1*
X1070332Y1918319D1*
Y1928212D1*
G37*
G36*
X761176Y1918319D2*
X751283Y1915845D1*
X743863Y1913372D1*
X731497Y1908426D1*
X733970Y1898533D1*
X736443Y1891113D1*
X738917Y1888640D1*
X741390D1*
X743863Y1891113D1*
X758703Y1898533D1*
X766122Y1901006D1*
X783435Y1903479D1*
X786083Y1904956D1*
X788230Y1904797D1*
X790855Y1903479D1*
X805694Y1901006D1*
X815587Y1896059D1*
Y1893586D1*
X823007Y1886166D1*
Y1868854D1*
X820534Y1866380D1*
Y1863907D1*
X810641Y1854014D1*
X785908Y1841648D1*
X763649Y1834228D1*
X738917Y1821862D1*
X721604Y1804549D1*
X716657Y1794656D1*
Y1767450D1*
X719131Y1760031D1*
X724077Y1750138D1*
X738917Y1735298D1*
X746336Y1730352D1*
X753756Y1727878D1*
X773542Y1722932D1*
X808168Y1720459D1*
X810641D1*
X835373Y1722932D1*
X855159Y1727878D1*
X865052Y1732825D1*
X867526Y1735298D1*
Y1740245D1*
X865052Y1752611D1*
X862579Y1755084D1*
X860106D1*
X855159Y1750138D1*
X845266Y1745191D1*
X823007Y1737771D1*
X813939Y1735298D1*
X804870D1*
X795801Y1737771D1*
X783435Y1740245D1*
X776015Y1742718D1*
X766122Y1752611D1*
Y1757557D1*
X763649Y1760031D1*
Y1777343D1*
X776015Y1789710D1*
X800748Y1802076D1*
X808168Y1804549D1*
X825480Y1811969D1*
X835373Y1816915D1*
X850213Y1826808D1*
X860106Y1839175D1*
X865052Y1846594D1*
X867526Y1854014D1*
Y1876273D1*
X865052Y1883693D1*
X860106Y1893586D1*
X850213Y1903479D1*
X835373Y1910899D1*
X813114Y1918319D1*
X761176D1*
G37*
G36*
X1327550Y1915845D2*
Y1725405D1*
X1381961D1*
X1379488Y1727878D1*
Y1814442D1*
X1411640Y1816915D1*
X1443792D1*
X1475945Y1814442D1*
Y1725405D1*
X1527883D1*
X1525410Y1727878D1*
Y1913372D1*
X1527883Y1915845D1*
X1475945D1*
Y1836701D1*
X1443792Y1834228D1*
X1411640D1*
X1379488Y1836701D1*
Y1913372D1*
X1381961Y1915845D1*
X1327550D1*
G37*
G36*
X1221200Y1819389D2*
Y1792183D1*
X1233566Y1789710D1*
X1280558Y1787236D1*
X1315184D1*
Y1819389D1*
X1221200D1*
G37*
G36*
X835373Y1802076D2*
X825480Y1797129D1*
X810641Y1792183D1*
X798275Y1787236D1*
X788382Y1782290D1*
X780962Y1774870D1*
X778489Y1769924D1*
Y1764977D1*
X780962Y1757557D1*
X783435Y1755084D1*
X788382Y1752611D1*
X827954D1*
X835373Y1755084D1*
X840320Y1757557D1*
X847740Y1764977D1*
X857633Y1769924D1*
X867526Y1772397D1*
Y1787236D1*
X865052Y1789710D1*
X852686Y1797129D1*
X847740Y1799603D1*
X840320Y1802076D1*
X835373D1*
G37*
G36*
X1394328D2*
Y1732825D1*
X1395564Y1730352D1*
X1396615Y1727643D1*
X1396767Y1725370D1*
X1396801Y1717985D1*
X1394328Y1715512D1*
X1389381Y1713039D1*
X1365473Y1710566D1*
X1341565D1*
X1317657Y1713039D1*
X1310237Y1720459D1*
Y1727878D1*
X1312710Y1730352D1*
Y1769924D1*
X1307764Y1772397D1*
X1263245Y1774870D1*
X1226147D1*
X1223673Y1772397D1*
Y1730352D1*
X1226147Y1727878D1*
Y1720459D1*
X1218727Y1713039D1*
X1174208Y1710566D1*
X1154422Y1690780D1*
X1144529Y1678413D1*
X1142056Y1673467D1*
Y1661101D1*
X1144529Y1656154D1*
X1149476Y1648735D1*
X1154422Y1638842D1*
X1159369Y1631422D1*
X1166789Y1616582D1*
X1171735Y1609163D1*
X1179155Y1594323D1*
X1184101Y1586903D1*
X1191521Y1572064D1*
X1196468Y1564644D1*
X1201414Y1554751D1*
X1206361Y1547331D1*
X1213780Y1532492D1*
X1218727Y1525072D1*
X1226147Y1510233D1*
X1231093Y1502813D1*
X1238513Y1487973D1*
X1243459Y1473134D1*
X1245933Y1468187D1*
X1250879Y1448401D1*
X1253352Y1440982D1*
X1255826Y1436035D1*
X1265719Y1426142D1*
X1270665Y1423669D1*
X1278085Y1421196D1*
X1287978Y1418722D1*
X1295398Y1411303D1*
Y1408829D1*
X1297871Y1406356D1*
Y1396463D1*
X1295398Y1393990D1*
Y1379150D1*
X1300344Y1371731D1*
X1312710Y1359364D1*
X1322603Y1354418D1*
X1337443D1*
X1352282Y1359364D1*
X1359702D1*
X1367122Y1356891D1*
X1386908Y1354418D1*
X1399274D1*
X1409167Y1356891D1*
X1414113Y1361838D1*
Y1374204D1*
X1411640Y1379150D1*
X1401747Y1389043D1*
X1394328Y1393990D1*
X1367122Y1408829D1*
X1337443Y1428615D1*
X1332496Y1431089D1*
X1330023Y1433562D1*
Y1440982D1*
X1332496Y1443455D1*
Y1448401D1*
X1330023Y1455821D1*
X1310237Y1478080D1*
X1300344Y1490447D1*
X1295398Y1497866D1*
X1292924Y1502813D1*
X1287978Y1510233D1*
X1273138Y1539912D1*
X1268192Y1547331D1*
X1248406Y1586903D1*
X1245933Y1589377D1*
Y1599270D1*
X1248406Y1601743D1*
X1250879Y1609163D1*
X1253352Y1614109D1*
X1263245Y1643788D1*
X1270665Y1673467D1*
X1275612Y1688306D1*
X1280558Y1698199D1*
X1285505Y1705619D1*
X1287978Y1710566D1*
X1292924Y1717985D1*
Y1720459D1*
X1297871Y1725405D1*
X1300175Y1724583D1*
X1302817Y1722932D1*
Y1715512D1*
X1300344Y1713039D1*
X1297871Y1708092D1*
X1295398Y1700673D1*
X1290451Y1690780D1*
X1285505Y1675940D1*
X1283031Y1670994D1*
X1278085Y1663574D1*
X1275612Y1658627D1*
Y1646261D1*
X1278085Y1638842D1*
X1280558Y1633895D1*
X1283031Y1626475D1*
X1334970Y1572064D1*
X1344863Y1557224D1*
X1359702Y1537438D1*
X1374542Y1520126D1*
X1424006Y1468187D1*
X1436373Y1453348D1*
X1453685Y1433562D1*
X1468525Y1413776D1*
X1473471Y1408829D1*
X1480891Y1403883D1*
X1500677Y1391517D1*
X1505624Y1389043D1*
X1513043Y1381624D1*
Y1379150D1*
X1515517Y1374204D1*
X1517990Y1366784D1*
X1520463Y1361838D1*
X1522936Y1332159D1*
X1527883Y1324739D1*
X1530356Y1304953D1*
X1532829Y1300006D1*
X1535303Y1297533D1*
X1540249Y1295060D1*
X1577348Y1292587D1*
X1584768D1*
X1594661Y1295060D1*
X1639179Y1304953D1*
X1649072Y1307426D1*
X1663912Y1312373D1*
X1673805Y1317319D1*
Y1322266D1*
X1671331Y1329685D1*
X1666385Y1339578D1*
X1661438Y1346998D1*
X1651545Y1359364D1*
X1639179Y1369257D1*
X1631759Y1374204D1*
X1619393Y1379150D1*
X1604554Y1384097D1*
X1594661Y1386570D1*
X1574875Y1389043D1*
X1569928Y1391517D1*
X1555089Y1406356D1*
X1557562Y1408829D1*
Y1433562D1*
X1555089Y1440982D1*
X1552615Y1445928D1*
X1537776Y1460768D1*
X1530356Y1465714D1*
X1520463Y1473134D1*
X1513043Y1478080D1*
X1490784Y1497866D1*
X1485838Y1500340D1*
X1466052Y1520126D1*
Y1522599D1*
X1451212Y1539912D1*
X1441319Y1552278D1*
X1436373Y1559698D1*
X1433899Y1564644D1*
X1428953Y1572064D1*
X1411640Y1606689D1*
X1409167Y1616582D1*
X1406694Y1628949D1*
X1401747Y1638842D1*
X1399274Y1641315D1*
Y1646261D1*
X1401747Y1648735D1*
X1406694Y1661101D1*
X1414113Y1670994D1*
X1416587Y1675940D1*
X1419060Y1683360D1*
X1421533Y1727878D1*
Y1757557D1*
X1419060Y1760031D1*
Y1799603D1*
X1421533Y1802076D1*
X1394328D1*
G37*
G36*
X914517Y1720459D2*
X904624Y1710566D1*
X899678Y1708092D1*
X894731Y1703146D1*
X884838Y1698199D1*
X879892D1*
X874945Y1700673D1*
X869999Y1705619D1*
Y1708092D1*
X867526Y1717985D1*
X865052D1*
X860106Y1715512D1*
X850213Y1713039D1*
X832900Y1710566D1*
X813114Y1708092D1*
X793328D1*
X773542Y1710566D1*
X758703Y1713039D1*
X766122Y1703146D1*
X768596Y1698199D1*
X771069Y1688306D1*
X773542Y1685833D1*
Y1673467D1*
X771069Y1670994D1*
X766122Y1656154D1*
X761176Y1648735D1*
Y1646261D1*
X756229Y1641315D1*
X736443Y1631422D1*
X719131Y1628949D1*
X654826Y1626475D1*
X644933Y1621529D1*
X630094Y1606689D1*
X620201Y1586903D1*
X617727Y1577010D1*
Y1547331D1*
X620201Y1537438D1*
X625147Y1522599D1*
X627620Y1517652D1*
X630094Y1510233D1*
X635040Y1500340D1*
X642460Y1490447D1*
X659773Y1473134D1*
X672139Y1463241D1*
X679559Y1458294D1*
X689452Y1453348D1*
X714184Y1443455D1*
X736443Y1436035D1*
X761176Y1433562D1*
X795801D1*
X788382Y1440982D1*
X773542Y1448401D1*
X766122Y1455821D1*
Y1458294D1*
X756229Y1470661D1*
X751283Y1480554D1*
X746336Y1495393D1*
X743863Y1497866D1*
Y1510233D1*
X746336Y1512706D1*
Y1517652D1*
X753756Y1525072D1*
X758703Y1527545D1*
X768596Y1530019D1*
X825480Y1532492D1*
X845266Y1537438D1*
X865052Y1547331D1*
X872472Y1552278D1*
X887312Y1564644D1*
X897205Y1574537D1*
X904624Y1584430D1*
X914517Y1599270D1*
X924410Y1619056D1*
X926884Y1626475D1*
X929357Y1636368D1*
X931830Y1651208D1*
Y1678413D1*
X929357Y1688306D1*
X926884Y1695726D1*
X924410Y1700673D1*
X921937Y1708092D1*
X916991Y1717985D1*
X914517Y1720459D1*
G37*
G36*
X615254Y936439D2*
X635040Y926546D1*
X637513Y924073D1*
X674612Y901813D1*
X682032Y896867D1*
X691925Y889447D1*
X699345Y884501D1*
X704291Y891920D1*
Y899340D1*
X699345Y909233D1*
X689452Y921599D1*
X659773Y951278D1*
X654826Y953752D1*
X642460Y966118D1*
X645107Y967595D1*
X647255Y967436D1*
X654826Y963645D1*
X691925Y951278D1*
X716657Y943859D1*
X733970Y938912D1*
X743863Y936439D1*
X776015Y933966D1*
X1436373D1*
X2170928Y936439D1*
X2237705Y938912D1*
X2304483D1*
X2371261Y936439D1*
X2410833Y933966D1*
X2415779Y936439D1*
Y946332D1*
X2175874D1*
X1411640Y943859D1*
X1209658Y941385D1*
X1007676D1*
X805694Y943859D1*
X776015Y948805D1*
X756229Y953752D1*
X711711Y968591D1*
X706764Y971064D1*
X694398Y976011D1*
X644933Y998270D1*
X637513Y1000743D1*
X602888Y1018056D1*
X600415Y1020529D1*
X531164Y1060101D1*
X523744D1*
X518798Y1057628D1*
X513851Y1052682D1*
X503958Y1037842D1*
X501485Y1030422D1*
X503958Y1023003D1*
X506431Y1020529D1*
X516324Y1013110D1*
X533637Y1005690D1*
X546003Y1000743D1*
X553423Y998270D1*
X588048Y980957D1*
X595468Y973538D1*
X607834Y963645D1*
X622674Y951278D1*
X627620Y948805D1*
X635040Y941385D1*
X632025Y938804D1*
X629165Y939124D1*
X627620Y941385D1*
X605361Y953752D1*
X595468Y958698D1*
X568262Y971064D1*
X560843Y973538D1*
X523744Y983431D1*
X508905D1*
Y971064D1*
X531164Y948805D1*
X536110Y946332D1*
X546003Y936439D1*
X542988Y933858D1*
X540128Y934178D1*
X538584Y936439D1*
X533637Y938912D1*
X521271Y943859D1*
X491592D1*
X488576Y941278D1*
X485717Y941597D1*
X484172Y943859D1*
X474279D1*
X479226Y938912D1*
X501485Y933966D1*
X546003D1*
X547850Y935554D1*
X549072Y935301D1*
X549865Y932850D1*
X548424Y931282D1*
X547010Y931691D1*
X546003Y933966D1*
X501485D1*
X533637Y929019D1*
X541057Y926546D1*
X546003Y924073D1*
X553423Y921599D1*
X568262Y914180D1*
X570736Y911706D1*
X585575Y901813D1*
X595468Y896867D1*
X605361Y894394D1*
X615254D1*
Y904287D1*
X612781Y909233D1*
X602888Y921599D1*
X590522Y933966D1*
X575682Y946332D1*
X570736Y948805D1*
X565789Y953752D1*
X568437Y955228D1*
X570584Y955070D1*
X573209Y953752D1*
X592995Y946332D1*
X610308Y938912D1*
X632567D1*
X635214Y940389D1*
X637264Y940008D1*
X638412Y937312D1*
X636753Y936310D1*
X634119Y936650D1*
X632567Y938912D1*
X610308D1*
X615254Y936439D1*
X637513D1*
X639361Y938027D1*
X640582Y937775D1*
X641375Y935323D1*
X639934Y933755D1*
X638520Y934165D1*
X637513Y936439D1*
X615254D1*
G37*
G36*
X936777Y1023003D2*
Y966118D1*
X944196D1*
Y1005690D1*
X946043Y1007278D1*
X947294Y1007071D1*
X948702Y1005026D1*
X949143Y1003217D1*
X951616Y995797D1*
X956563Y985904D1*
X959036Y978484D1*
X961509Y973538D1*
X963982Y966118D1*
X968929D1*
X971402Y973538D1*
X973875Y978484D1*
X978822Y993324D1*
X981295Y998270D1*
X983768Y1005690D1*
X984172Y1007603D1*
X985689Y1009630D1*
X986908Y1009572D1*
X988715Y1008163D1*
Y966118D1*
X993661D1*
Y1023003D1*
X983768D1*
X978822Y1013110D1*
X973875Y998270D1*
X971402Y993324D1*
X968929Y985904D1*
Y980957D1*
X966306Y978271D1*
X965032Y978668D1*
X963443Y981391D1*
X963982Y983431D1*
X961509Y988377D1*
X956563Y1003217D1*
X954089Y1008163D1*
X949143Y1023003D1*
X936777D1*
G37*
G36*
X1010974D2*
Y1015583D1*
X1033233Y1013110D1*
Y1000743D1*
X1010974Y998270D1*
Y990850D1*
X1033233Y988377D1*
Y976011D1*
X1010974Y973538D1*
Y966118D1*
X1040653D1*
Y1023003D1*
X1010974D1*
G37*
G36*
X1057966D2*
Y1015583D1*
X1067859Y1013110D1*
Y966118D1*
X1072805D1*
Y1013110D1*
X1085171Y1015583D1*
Y1023003D1*
X1057966D1*
G37*
G36*
X1114850D2*
X1107431Y1020529D1*
X1102484Y1015583D1*
X1100011Y1010636D1*
X1107431D1*
X1107912Y1012390D1*
X1109904Y1015583D1*
X1113202Y1018056D1*
X1116499D1*
X1119797Y1015583D1*
X1121789Y1012390D1*
X1122178Y1010531D1*
X1122254Y1008146D1*
X1122270Y1003217D1*
X1117324Y1000743D1*
X1109904Y998270D1*
X1104957Y995797D1*
X1100011Y990850D1*
Y973538D1*
X1102484Y971064D1*
X1107431Y968591D1*
X1114850Y966118D1*
X1117324D1*
X1124743Y968591D1*
X1129690Y973538D1*
X1132163Y980957D1*
X1124743D1*
Y978484D1*
X1119797Y973538D1*
X1116499Y971064D1*
X1113202D1*
X1109904Y973538D1*
X1104957Y978484D1*
Y985904D1*
X1107431Y988377D1*
X1112377Y990850D1*
X1119797Y993324D1*
X1124743Y995797D1*
X1127217Y998270D1*
X1129690Y1003217D1*
Y1010636D1*
X1127217Y1015583D1*
X1122270Y1020529D1*
X1117324Y1023003D1*
X1114850D1*
G37*
G36*
X1142056D2*
X1144049Y1019809D1*
X1144529Y1018056D1*
X1156896Y993324D1*
X1159369Y966118D1*
X1166789D1*
X1169262Y993324D1*
X1179155Y1013110D1*
X1181628Y1020529D1*
Y1023003D1*
X1176682D1*
X1165542Y1000737D1*
X1164106Y998154D1*
X1161690Y995578D1*
X1160422Y995980D1*
X1158829Y998704D1*
X1159369Y1000743D1*
X1156896Y1008163D1*
X1154422Y1013110D1*
X1151949Y1020529D1*
X1149476Y1023003D1*
X1142056D1*
G37*
G36*
X1211307D2*
X1203887Y1020529D1*
X1198941Y1015583D1*
X1196468Y1010636D1*
X1203887D1*
X1206361Y1013110D1*
X1208876Y1015470D1*
X1211489Y1017036D1*
X1213629Y1016895D1*
X1221200Y1013110D1*
Y1005690D1*
X1218727Y1003217D1*
X1213780Y1000743D1*
X1206361Y998270D1*
X1201414Y995797D1*
X1198941Y993324D1*
X1196468Y988377D1*
Y980957D1*
X1198941Y973538D1*
X1203887Y968591D1*
X1211307Y966118D1*
X1216254D1*
X1226147Y971064D1*
X1228620Y976011D1*
Y980957D1*
X1223673D1*
X1216254Y973538D1*
X1213238Y970957D1*
X1210378Y971276D1*
X1208834Y973538D1*
X1203887Y976011D1*
Y985904D1*
X1206361Y988377D1*
X1221200Y995797D1*
X1226147Y1000743D1*
X1228620Y1008163D1*
Y1010636D1*
X1226147Y1015583D1*
X1221200Y1020529D1*
X1213780Y1023003D1*
X1211307D1*
G37*
G36*
X1263245D2*
X1270665Y1015583D1*
Y1013110D1*
X1280558Y1000743D1*
X1283031Y993324D1*
Y990850D1*
X1275612Y983431D1*
X1270665Y976011D1*
X1263245Y966118D1*
X1270665D1*
X1278085Y973538D1*
X1283031Y980957D1*
X1290451Y990850D1*
X1290855Y992763D1*
X1292372Y994791D1*
X1293591Y994732D1*
X1295398Y993324D1*
Y966118D1*
X1300344D1*
Y1023003D1*
X1295398D1*
Y998270D1*
X1292775Y995584D1*
X1291495Y995986D1*
X1290451Y998270D1*
X1287978Y1003217D1*
X1280558Y1013110D1*
X1270665Y1023003D1*
X1263245D1*
G37*
G36*
X1322603Y1013110D2*
Y998270D1*
X1325077Y993324D1*
X1330023Y990850D1*
X1334970Y985904D1*
Y983431D1*
X1330023Y978484D1*
X1325077Y971064D1*
X1322603Y966118D1*
X1330023D1*
X1332496Y968591D1*
X1342389Y983431D1*
X1343636Y985888D1*
X1344975Y988172D1*
X1346731Y989925D1*
X1347994Y989810D1*
X1349809Y988377D1*
Y966118D1*
X1357229D1*
Y1023003D1*
X1337443D1*
X1330023Y1020529D1*
X1322603Y1013110D1*
X1332496D1*
X1338267Y1015583D1*
X1344038D1*
X1349809Y1013110D1*
Y995797D1*
X1344038Y993324D1*
X1338267D1*
X1332496Y995797D1*
X1327550Y1000743D1*
Y1005690D1*
X1330023Y1008163D1*
X1332496Y1013110D1*
X1322603D1*
G37*
G36*
X1381961Y1015583D2*
Y1013110D1*
X1374542Y1005690D1*
Y985904D1*
X1377015Y980957D1*
X1381961Y973538D1*
X1391854Y968591D1*
X1399274Y966118D1*
X1404221D1*
X1414113Y968591D1*
X1419060Y971064D1*
X1426480Y978484D1*
X1428953Y983431D1*
X1431426Y990850D1*
Y998270D1*
X1428953Y1005690D1*
X1426480Y1010636D1*
X1421533Y1015583D1*
X1414113Y1020529D1*
X1404221Y1023003D1*
X1399274D1*
X1391854Y1020529D1*
X1381961Y1015583D1*
X1391854D1*
X1397625Y1018056D1*
X1403396D1*
X1409167Y1015583D1*
X1416587Y1013110D1*
X1418579Y1009916D1*
X1419060Y1008163D1*
X1424006Y1003217D1*
Y985904D1*
X1419060Y980957D1*
X1418247Y977957D1*
X1416587Y976011D1*
X1409167Y973538D1*
X1405045Y971064D1*
X1400923D1*
X1396801Y973538D1*
X1389381Y976011D1*
X1386448Y978791D1*
X1386908Y980957D1*
X1381961Y988377D1*
X1379488Y990850D1*
Y1000743D1*
X1381961Y1003217D1*
X1391854Y1015583D1*
X1381961D1*
G37*
G36*
X1441319Y1023003D2*
Y1018056D1*
X1443792Y1008163D1*
X1446266Y1000743D1*
X1448739Y990850D1*
X1451212Y983431D1*
X1453685Y973538D1*
X1456159Y966118D1*
X1461105D1*
X1463578Y971064D1*
X1470998Y1000743D1*
X1472845Y1002332D1*
X1474127Y1002187D1*
X1475945Y1000743D1*
Y993324D1*
X1480891Y978484D1*
X1483364Y968591D1*
X1485838Y966118D1*
X1490784D1*
X1493257Y976011D1*
X1495731Y983431D1*
X1498204Y993324D1*
X1500677Y1000743D1*
X1503150Y1010636D1*
X1505624Y1018056D1*
Y1023003D1*
X1498204D1*
X1495731Y1015583D1*
X1493257Y1005690D1*
X1490784Y993324D1*
Y985904D1*
X1488162Y983218D1*
X1486881Y983619D1*
X1485838Y985904D1*
X1483364Y993324D1*
X1475945Y1023003D1*
X1470998D1*
X1468525Y1020529D1*
X1466052Y1008163D1*
X1461105Y988377D1*
Y983431D1*
X1458483Y980744D1*
X1457202Y981146D1*
X1456159Y983431D1*
Y990850D1*
X1453685Y998270D1*
X1448739Y1018056D1*
X1446266Y1023003D1*
X1441319D1*
G37*
G36*
X1520463D2*
Y1015583D1*
X1532829Y1013110D1*
Y966118D1*
X1537776D1*
Y1013110D1*
X1547669Y1015583D1*
Y1023003D1*
X1520463D1*
G37*
G36*
X1562508D2*
Y1015583D1*
X1587241Y1013110D1*
Y1000743D1*
X1562508Y998270D1*
Y990850D1*
X1587241Y988377D1*
Y976011D1*
X1562508Y973538D1*
Y966118D1*
X1592187D1*
Y1023003D1*
X1562508D1*
G37*
G36*
X1609500D2*
Y966118D1*
X1614447D1*
X1616920Y968591D1*
X1626813Y983431D1*
X1629286Y988377D1*
X1639179Y1003217D1*
X1640425Y1005674D1*
X1641765Y1007958D1*
X1643521Y1009711D1*
X1644784Y1009596D1*
X1646599Y1008163D1*
Y966118D1*
X1651545D1*
Y1023003D1*
X1644126D1*
X1639179Y1018056D1*
X1636706Y1013110D1*
X1631759Y1005690D1*
X1629286Y1000743D1*
X1624340Y993324D1*
X1619393Y983431D1*
X1618765Y980513D1*
X1616776Y978256D1*
X1615495Y978673D1*
X1614447Y980957D1*
Y1023003D1*
X1609500D1*
G37*
G36*
X1691117Y1013110D2*
X1688644Y1010636D1*
Y1000743D1*
X1691117Y995797D1*
X1696064Y990850D1*
X1701010Y988377D1*
X1703003Y985184D1*
X1703484Y983431D1*
X1696064Y976011D1*
X1688644Y966118D1*
X1696064D1*
X1703484Y973538D1*
X1710903Y983431D1*
X1712150Y985888D1*
X1713489Y988172D1*
X1715245Y989925D1*
X1716508Y989810D1*
X1718323Y988377D1*
Y966118D1*
X1725743D1*
Y1023003D1*
X1703484D1*
X1696064Y1020529D1*
X1691117Y1015583D1*
Y1013110D1*
X1698537D1*
X1705132Y1015583D1*
X1711728D1*
X1718323Y1013110D1*
Y995797D1*
X1712552Y993324D1*
X1706781D1*
X1701010Y995797D1*
X1696064Y1000743D1*
Y1005690D1*
X1696121Y1008101D1*
X1696561Y1009897D1*
X1698537Y1013110D1*
X1691117D1*
G37*
G36*
X1738109Y1023003D2*
Y1015583D1*
X1762842Y1013110D1*
Y1000743D1*
X1738109Y998270D1*
Y990850D1*
X1762842Y988377D1*
Y976011D1*
X1738109Y973538D1*
Y966118D1*
X1767788D1*
Y1023003D1*
X1738109D1*
G37*
G36*
X1785101D2*
Y1015583D1*
X1794994Y1013110D1*
Y966118D1*
X1802414D1*
Y1013110D1*
X1812307Y1015583D1*
Y1023003D1*
X1785101D1*
G37*
G36*
X1829619D2*
Y983431D1*
X1832092Y976011D1*
X1839512Y968591D1*
X1844459Y966118D1*
X1851878D1*
X1859298Y968591D1*
X1864245Y973538D1*
X1866718Y980957D1*
Y1023003D1*
X1859298D1*
Y978484D1*
X1854352Y973538D1*
X1851054Y971064D1*
X1847756D1*
X1844459Y973538D1*
X1839512Y976011D1*
X1837039Y978484D1*
Y1023003D1*
X1829619D1*
G37*
G36*
X1884031Y1013110D2*
Y998270D1*
X1891450Y990850D1*
X1911236Y988377D1*
Y966118D1*
X1916183D1*
Y1023003D1*
X1898870D1*
X1891450Y1020529D1*
X1884031Y1013110D1*
X1891450D1*
X1898046Y1015583D1*
X1904641D1*
X1911236Y1013110D1*
Y995797D1*
X1907114Y993324D1*
X1902992D1*
X1898870Y995797D1*
X1891450Y998270D1*
X1888977Y1000743D1*
Y1010636D1*
X1891450Y1013110D1*
X1884031D1*
G37*
G36*
X1931022Y1023003D2*
Y966118D1*
X1938442D1*
Y1013110D1*
X1940289Y1014698D1*
X1941571Y1014553D1*
X1943389Y1013110D1*
Y1008163D1*
X1945862Y1000743D1*
X1948335Y995797D1*
X1953282Y980957D1*
X1955755Y976011D1*
X1958228Y968591D1*
X1960701Y966118D1*
X1963175D1*
X1968121Y976011D1*
X1970594Y983431D1*
X1975541Y993324D1*
X1978014Y1000743D1*
X1980487Y1005690D1*
Y1010636D1*
X1982335Y1012225D1*
X1983616Y1012080D1*
X1985434Y1010636D1*
Y966118D1*
X1990380D1*
Y1023003D1*
X1980487D1*
X1978014Y1020529D1*
X1973068Y1005690D1*
X1970594Y1000743D1*
X1965648Y985904D1*
Y980957D1*
X1963025Y978271D1*
X1961745Y978673D1*
X1960701Y980957D1*
X1958228Y988377D1*
X1955755Y993324D1*
X1953282Y1000743D1*
X1950808Y1005690D1*
X1948335Y1013110D1*
X1943389Y1023003D1*
X1931022D1*
G37*
G36*
X2015113Y1015583D2*
X2010166Y1010636D1*
X2005220Y1000743D1*
Y990850D1*
X2007693Y983431D1*
X2010166Y978484D1*
X2017586Y971064D1*
X2022533Y968591D1*
X2029952Y966118D1*
X2037372D1*
X2044792Y968591D1*
X2049738Y971064D1*
X2059631Y980957D1*
X2062105Y985904D1*
Y1003217D1*
X2059631Y1008163D1*
X2049738Y1018056D1*
X2044792Y1020529D1*
X2037372Y1023003D1*
X2032426D1*
X2022533Y1020529D1*
X2017586Y1018056D1*
X2015113Y1015583D1*
X2025006D1*
X2029952Y1018056D1*
X2034899D1*
X2039845Y1015583D1*
X2047265Y1013110D1*
X2054685Y1005690D1*
Y1000743D1*
X2057158Y998270D1*
Y990850D1*
X2054685Y988377D1*
Y983431D1*
X2047265Y976011D1*
X2039845Y973538D1*
X2036548Y971064D1*
X2033250D1*
X2029952Y973538D1*
X2022533Y976011D1*
X2012640Y985904D1*
Y1003217D1*
X2015113Y1005690D1*
X2015594Y1007443D1*
X2017586Y1010636D1*
X2022533Y1013110D1*
X2025006Y1015583D1*
X2015113D1*
G37*
G36*
X2101677Y1023003D2*
X2094257Y1020529D1*
X2089310Y1018056D1*
X2084364Y1013110D1*
Y1010636D1*
X2091784D1*
X2094257Y1013110D1*
X2099203Y1015583D1*
X2104974Y1018056D1*
X2110745D1*
X2116516Y1015583D1*
X2126409Y1005690D1*
Y1000743D1*
X2128882Y998270D1*
Y990850D1*
X2126409Y988377D1*
Y983431D1*
X2118989Y976011D1*
X2114043Y973538D1*
X2109921Y971064D1*
X2105799D1*
X2101677Y973538D1*
X2094257Y978484D1*
X2084364D1*
Y976011D1*
X2089310Y971064D1*
X2094257Y968591D1*
X2104150Y966118D1*
X2109096D1*
X2118989Y968591D1*
X2126409Y973538D1*
X2131356Y980957D1*
X2133829Y985904D1*
Y1003217D1*
X2131356Y1008163D1*
X2126409Y1015583D1*
X2118989Y1020529D1*
X2109096Y1023003D1*
X2101677D1*
G37*
G36*
X2148668D2*
X2151142Y1020529D1*
Y1015583D1*
X2161035Y995797D1*
X2163508Y988377D1*
X2165981Y966118D1*
X2170928D1*
X2173401Y990850D1*
X2188240Y1020529D1*
Y1023003D1*
X2180821D1*
X2178347Y1018056D1*
X2175874Y1010636D1*
X2173401Y1005690D1*
X2170928Y998270D1*
X2168305Y995584D1*
X2167031Y995980D1*
X2165442Y998703D1*
X2165981Y1000743D1*
X2158561Y1015583D1*
X2156088Y1023003D1*
X2148668D1*
G37*
G36*
X2205553D2*
Y976011D1*
X2185767Y973538D1*
Y966118D1*
X2210500D1*
Y1023003D1*
X2205553D1*
G37*
G36*
X2227812D2*
Y966118D1*
X2232759D1*
Y1023003D1*
X2227812D1*
G37*
G36*
X2247598D2*
Y966118D1*
X2255018D1*
Y1008163D1*
X2256865Y1009751D1*
X2258147Y1009607D1*
X2259964Y1008163D1*
Y1003217D1*
X2262438Y998270D1*
X2267384Y983431D1*
X2269857Y978484D1*
X2272331Y971064D1*
X2274804Y966118D1*
X2277277D1*
X2279750Y968591D1*
X2282224Y973538D1*
X2284697Y980957D1*
X2287170Y985904D1*
X2289643Y993324D1*
X2294590Y1003217D1*
Y1008163D1*
X2296437Y1009751D1*
X2297719Y1009607D1*
X2299536Y1008163D1*
Y966118D1*
X2306956D1*
Y1023003D1*
X2294590D1*
X2292117Y1018056D1*
X2287170Y1003217D1*
X2284697Y998270D1*
X2279750Y983431D1*
X2279123Y980513D1*
X2277133Y978256D1*
X2275858Y978667D1*
X2274264Y981391D1*
X2274804Y983431D1*
X2267384Y1005690D1*
X2264911Y1010636D1*
X2262438Y1018056D1*
X2259964Y1023003D1*
X2247598D1*
G37*
G36*
X2319322Y1008163D2*
Y966118D1*
X2326742D1*
Y973538D1*
X2335811Y976011D1*
X2344879D1*
X2353948Y973538D1*
X2355940Y970344D1*
X2356421Y968591D1*
X2358894Y966118D1*
X2366314D1*
X2351475Y988377D1*
X2349001Y993324D1*
X2329215Y1023003D1*
X2319322D1*
Y1008163D1*
X2326742D1*
X2328589Y1009751D1*
X2329840Y1009544D1*
X2331248Y1007499D1*
X2331689Y1005690D1*
X2341582Y990850D1*
X2344055Y985904D1*
X2349001Y980957D1*
X2341582Y978484D1*
X2334162D1*
X2326742Y980957D1*
Y1008163D1*
X2319322D1*
G37*
G36*
X2366314Y1023003D2*
Y1015583D1*
X2386100Y1013110D1*
Y1000743D1*
X2366314Y998270D1*
Y990850D1*
X2386100Y988377D1*
Y966118D1*
X2393520D1*
Y1023003D1*
X2366314D1*
G37*
M02*
