M48
INCH
T01C0.0191
%
T01
X+008661Y+020177
X+008169Y+019882
X+007677Y+020177
X+009055Y+019685
X+008957Y+019094
X+009350Y+018701
X+009744Y+018307
X+010138Y+017913
X+010531Y+014469
X+010925Y+013976
X+012894Y+013976
X+013287Y+013287
X+012500Y+012303
X+012106Y+011909
X+011713Y+011516
X+011319Y+011220
X+012008Y+010630
X+011516Y+010236
X+011024Y+009744
X+010531Y+010630
X+009941Y+010630
X+009350Y+010630
X+009350Y+012205
X+007874Y+012795
X+007480Y+012106
X+007480Y+011417
X+008169Y+014173
X+006988Y+015059
X+007087Y+021752
X+007677Y+021949
X+008169Y+021752
X+011417Y+023917
X+011909Y+024213
X+012303Y+023819
X+012697Y+023425
X+013091Y+023031
X+013484Y+022638
X+013878Y+023031
X+014272Y+022638
X+013878Y+023819
X+014272Y+025591
X+011122Y+025197
X+010728Y+025689
X+009941Y+027362
X+009055Y+027362
X+009154Y+028150
X+009055Y+029035
X+008465Y+026673
X+008957Y+031890
X+010531Y+031988
X+011024Y+032087
X+010630Y+032579
X+009744Y+033465
X+009449Y+034154
X+009252Y+035138
X+008563Y+035335
X+008169Y+035728
X+007776Y+035335
X+007382Y+035728
X+006988Y+035335
X+006594Y+035728
X+006201Y+035335
X+005807Y+035728
X+005413Y+034154
X+006594Y+032283
X+007382Y+032579
X+005807Y+031890
X+005413Y+031299
X+010335Y+035531
X+009744Y+036417
X+010335Y+036909
X+011024Y+037008
X+011122Y+036516
X+011516Y+036122
X+011909Y+035728
X+012303Y+035335
X+012697Y+035728
X+013091Y+035335
X+013484Y+035728
X+014665Y+035335
X+015059Y+035728
X+015453Y+035335
X+015846Y+035728
X+016240Y+035335
X+016634Y+035728
X+017028Y+035335
X+017421Y+035728
X+018307Y+035728
X+019390Y+034744
X+019980Y+034744
X+020571Y+034744
X+021063Y+035039
X+021161Y+035630
X+020571Y+036713
X+021358Y+037402
X+021752Y+038189
X+020571Y+037795
X+023130Y+038091
X+023524Y+038091
X+023917Y+038091
X+023228Y+036516
X+022343Y+034055
X+019882Y+030807
X+019882Y+030020
X+020472Y+029921
X+021063Y+028543
X+019291Y+028937
X+018898Y+029429
X+017421Y+030807
X+014272Y+032185
X+013878Y+032579
X+014173Y+037303
X+012106Y+037303
X+006004Y+037894
X+018307Y+025492
X+018307Y+024902
X+018209Y+024016
X+018602Y+023720
X+018996Y+024016
X+019390Y+023425
X+020276Y+024902
X+020276Y+026280
X+021654Y+026280
X+021654Y+024902
X+022933Y+023917
X+023228Y+023031
X+022933Y+022539
X+023228Y+021654
X+023524Y+019193
X+020768Y+020965
X+020768Y+022146
X+017421Y+023425
X+016240Y+020374
X+016634Y+019685
X+015846Y+019587
X+015453Y+019980
X+015059Y+019193
X+014370Y+018602
X+016240Y+017421
X+016634Y+017815
X+016240Y+015157
X+015453Y+015354
X+014961Y+013484
X+016634Y+012500
X+017421Y+013189
X+017815Y+013583
X+018602Y+013878
X+018996Y+014272
X+017028Y+013976
X+016240Y+011220
X+017815Y+010039
X+018307Y+008760
X+018996Y+008760
X+019685Y+008760
X+020768Y+010039
X+020276Y+012500
X+023425Y+008071
X+014370Y+008957
X+014370Y+010138
X+013189Y+008366
X+012500Y+008366
X+011024Y+008366
X+010433Y+008366
X+009744Y+008366
X+009055Y+008366
X+023622Y+025689
X+024508Y+025295
X+024213Y+026476
T00
M30
