G04 DipTrace 4.3.0.5*
G04 TopSilk.gbr*
%MOIN*%
G04 #@! TF.FileFunction,Legend,Top*
G04 #@! TF.Part,Single*
%ADD10C,0.004724*%
%ADD18C,0.003937*%
%ADD44C,0.00772*%
%ADD45C,0.019685*%
%ADD46C,0.015439*%
%ADD47C,0.016983*%
%ADD48C,0.009264*%
%ADD49C,0.013123*%
%ADD50C,0.012351*%
%FSLAX26Y26*%
G04*
G70*
G90*
G75*
G01*
G04 TopSilk*
%LPD*%
G36*
X1870079Y2268504D2*
X1871364Y2268420D1*
X1872626Y2268169D1*
X1873845Y2267755D1*
X1875000Y2267185D1*
X1876071Y2266470D1*
X1877039Y2265621D1*
X1877887Y2264653D1*
X1878603Y2263583D1*
X1879172Y2262428D1*
X1879586Y2261209D1*
X1879837Y2259946D1*
X1879921Y2258661D1*
X1879837Y2257377D1*
X1879586Y2256114D1*
X1879172Y2254895D1*
X1878603Y2253740D1*
X1877887Y2252670D1*
X1877039Y2251702D1*
X1876071Y2250853D1*
X1875000Y2250138D1*
X1873845Y2249568D1*
X1872626Y2249154D1*
X1871364Y2248903D1*
X1870079Y2248819D1*
D1*
X1868794Y2248903D1*
X1867531Y2249154D1*
X1866312Y2249568D1*
X1865158Y2250138D1*
X1864087Y2250853D1*
X1863119Y2251702D1*
X1862270Y2252670D1*
X1861555Y2253740D1*
X1860986Y2254895D1*
X1860572Y2256114D1*
X1860321Y2257377D1*
X1860236Y2258661D1*
X1860321Y2259946D1*
X1860572Y2261209D1*
X1860986Y2262428D1*
X1861555Y2263583D1*
X1862270Y2264653D1*
X1863119Y2265621D1*
X1864087Y2266470D1*
X1865158Y2267185D1*
X1866312Y2267755D1*
X1867531Y2268169D1*
X1868794Y2268420D1*
X1870079Y2268504D1*
D1*
G37*
X1950787Y2049016D2*
D10*
Y2079528D1*
X1789370Y2049016D2*
Y2079528D1*
X1950787Y1436024D2*
Y1342913D1*
X1789370Y1436024D2*
Y1342913D1*
X1950787D2*
X1926378D1*
X1813780D2*
X1789370D1*
Y2049016D2*
G03X1789370Y1436024I80708J-306496D01*
G01*
X1950787D2*
G03X1950787Y2049016I-80710J306496D01*
G01*
X1454724Y1711811D2*
Y1693701D1*
X1419291Y1711811D2*
Y1693701D1*
X799606Y2777559D2*
X755512D1*
X799606Y2852362D2*
X755512D1*
X799606Y2875984D2*
X755512D1*
X799606Y2950787D2*
X755512D1*
X757087Y2718504D2*
X738976D1*
X757087Y2753937D2*
X738976D1*
X1031495Y2659843D2*
X1031497Y2615749D1*
X956692Y2659842D2*
X956693Y2615747D1*
X885039Y2590551D2*
X866929D1*
X885039Y2625984D2*
X866929D1*
X1606299Y2438583D2*
Y2482677D1*
X1681102Y2438583D2*
Y2482677D1*
X1547244Y2481102D2*
Y2499213D1*
X1582677Y2481102D2*
Y2499213D1*
X2275591Y2185826D2*
X2275590Y2203937D1*
X2311024Y2185827D2*
X2311023Y2203937D1*
X1772441Y2507874D2*
X1790551D1*
X1772441Y2472441D2*
X1790551D1*
X2275591Y2323622D2*
X2275590Y2341732D1*
X2311024Y2323622D2*
X2311023Y2341733D1*
X1772441Y2557087D2*
X1790551D1*
X1772441Y2521654D2*
X1790551D1*
X2059055Y2146457D2*
Y2164567D1*
X2094488Y2146457D2*
Y2164567D1*
X2124016Y2902756D2*
Y2884646D1*
X2088583Y2902756D2*
Y2884646D1*
X1281496Y3376772D2*
Y3394882D1*
X1316929Y3376772D2*
Y3394882D1*
X956693Y3376772D2*
Y3394882D1*
X992126Y3376772D2*
Y3394882D1*
X622047Y3376772D2*
Y3394882D1*
X657480Y3376772D2*
Y3394882D1*
X2254724Y3482283D2*
X2272834Y3482284D1*
X2254725Y3446850D2*
X2272835Y3446851D1*
X1582677Y1012992D2*
Y994882D1*
X1547244Y1012992D2*
Y994882D1*
X907480Y3553937D2*
Y3572047D1*
X942914Y3553937D2*
X942913Y3572048D1*
X956693Y1526378D2*
Y1544488D1*
X992126Y1526378D2*
Y1544489D1*
X1652756Y1049213D2*
X1660630D1*
Y978346D1*
X1652756D1*
X1614961Y1049213D2*
X1607087D1*
Y978346D1*
X1614961D1*
G36*
X1633858Y1093307D2*
X1635143Y1093223D1*
X1636406Y1092972D1*
X1637625Y1092558D1*
X1638780Y1091988D1*
X1639850Y1091273D1*
X1640818Y1090424D1*
X1641667Y1089456D1*
X1642382Y1088386D1*
X1642952Y1087231D1*
X1643365Y1086012D1*
X1643617Y1084749D1*
X1643701Y1083465D1*
X1643617Y1082180D1*
X1643365Y1080917D1*
X1642952Y1079698D1*
X1642382Y1078543D1*
X1641667Y1077473D1*
X1640818Y1076505D1*
X1639850Y1075656D1*
X1638780Y1074941D1*
X1637625Y1074371D1*
X1636406Y1073957D1*
X1635143Y1073706D1*
X1633858Y1073622D1*
D1*
X1632574Y1073706D1*
X1631311Y1073957D1*
X1630092Y1074371D1*
X1628937Y1074941D1*
X1627867Y1075656D1*
X1626899Y1076505D1*
X1626050Y1077473D1*
X1625334Y1078543D1*
X1624765Y1079698D1*
X1624351Y1080917D1*
X1624100Y1082180D1*
X1624016Y1083465D1*
X1624100Y1084749D1*
X1624351Y1086012D1*
X1624765Y1087231D1*
X1625334Y1088386D1*
X1626050Y1089456D1*
X1626899Y1090424D1*
X1627867Y1091273D1*
X1628937Y1091988D1*
X1630092Y1092558D1*
X1631311Y1092972D1*
X1632574Y1093223D1*
X1633858Y1093307D1*
D1*
G37*
X1647637Y2223621D2*
D10*
Y2231495D1*
X1718503Y2231497D1*
Y2223623D1*
X1647638Y2185826D2*
X1647639Y2177952D1*
X1718505Y2177954D1*
X1718504Y2185828D1*
G36*
X1603543Y2204722D2*
X1603627Y2206007D1*
X1603879Y2207270D1*
X1604292Y2208489D1*
X1604862Y2209644D1*
X1605577Y2210714D1*
X1606426Y2211682D1*
X1607394Y2212531D1*
X1608464Y2213246D1*
X1609619Y2213816D1*
X1610838Y2214230D1*
X1612101Y2214481D1*
X1613386Y2214565D1*
X1614670Y2214481D1*
X1615933Y2214230D1*
X1617152Y2213816D1*
X1618307Y2213247D1*
X1619377Y2212531D1*
X1620345Y2211683D1*
X1621194Y2210715D1*
X1621910Y2209644D1*
X1622479Y2208489D1*
X1622893Y2207270D1*
X1623144Y2206008D1*
X1623228Y2204723D1*
D1*
X1623144Y2203438D1*
X1622893Y2202175D1*
X1622479Y2200956D1*
X1621910Y2199802D1*
X1621195Y2198731D1*
X1620346Y2197763D1*
X1619378Y2196914D1*
X1618307Y2196199D1*
X1617153Y2195629D1*
X1615934Y2195216D1*
X1614671Y2194964D1*
X1613386Y2194880D1*
X1612101Y2194964D1*
X1610839Y2195215D1*
X1609620Y2195629D1*
X1608465Y2196199D1*
X1607394Y2196914D1*
X1606426Y2197763D1*
X1605577Y2198731D1*
X1604862Y2199801D1*
X1604293Y2200956D1*
X1603879Y2202175D1*
X1603628Y2203438D1*
X1603543Y2204722D1*
D1*
G37*
X1135826Y1593700D2*
D10*
Y1601574D1*
X1206692Y1601577D1*
Y1593703D1*
X1135828Y1555904D2*
Y1548030D1*
X1206694Y1548033D1*
Y1555907D1*
G36*
X1091732Y1574800D2*
X1091816Y1576085D1*
X1092068Y1577347D1*
X1092481Y1578567D1*
X1093051Y1579721D1*
X1093766Y1580792D1*
X1094615Y1581760D1*
X1095583Y1582609D1*
X1096653Y1583324D1*
X1097808Y1583894D1*
X1099027Y1584308D1*
X1100290Y1584559D1*
X1101574Y1584643D1*
X1102859Y1584559D1*
X1104122Y1584308D1*
X1105341Y1583894D1*
X1106496Y1583325D1*
X1107566Y1582609D1*
X1108534Y1581761D1*
X1109383Y1580793D1*
X1110098Y1579722D1*
X1110668Y1578567D1*
X1111082Y1577348D1*
X1111333Y1576086D1*
X1111417Y1574801D1*
D1*
X1111333Y1573516D1*
X1111082Y1572253D1*
X1110668Y1571034D1*
X1110099Y1569880D1*
X1109384Y1568809D1*
X1108535Y1567841D1*
X1107567Y1566992D1*
X1106496Y1566277D1*
X1105342Y1565707D1*
X1104123Y1565293D1*
X1102860Y1565042D1*
X1101575Y1564958D1*
X1100291Y1565042D1*
X1099028Y1565293D1*
X1097809Y1565707D1*
X1096654Y1566276D1*
X1095583Y1566992D1*
X1094615Y1567840D1*
X1093766Y1568808D1*
X1093051Y1569879D1*
X1092482Y1571034D1*
X1092068Y1572253D1*
X1091817Y1573515D1*
X1091732Y1574800D1*
D1*
G37*
X2258268Y780315D2*
D18*
X2229922D1*
X2258267Y833859D2*
X2229921Y833858D1*
X2300001Y783859D2*
X2299999Y830316D1*
X393701Y4133858D2*
D10*
Y3848425D1*
X2519685D1*
Y4133858D1*
X393701D1*
X1449816Y750463D2*
G03X1514454Y815932I2939J61741D01*
G01*
G36*
X1541732Y1112205D2*
X1541648Y1110920D1*
X1541397Y1109657D1*
X1540983Y1108438D1*
X1540414Y1107283D1*
X1539699Y1106213D1*
X1538850Y1105245D1*
X1537882Y1104396D1*
X1536811Y1103681D1*
X1535657Y1103111D1*
X1534437Y1102698D1*
X1533175Y1102446D1*
X1531890Y1102362D1*
X1530605Y1102446D1*
X1529343Y1102698D1*
X1528123Y1103111D1*
X1526969Y1103681D1*
X1525898Y1104396D1*
X1524930Y1105245D1*
X1524081Y1106213D1*
X1523366Y1107283D1*
X1522797Y1108438D1*
X1522383Y1109657D1*
X1522132Y1110920D1*
X1522047Y1112205D1*
D1*
X1522132Y1113489D1*
X1522383Y1114752D1*
X1522797Y1115971D1*
X1523366Y1117126D1*
X1524081Y1118196D1*
X1524930Y1119164D1*
X1525898Y1120013D1*
X1526969Y1120729D1*
X1528123Y1121298D1*
X1529343Y1121712D1*
X1530605Y1121963D1*
X1531890Y1122047D1*
X1533175Y1121963D1*
X1534437Y1121712D1*
X1535657Y1121298D1*
X1536811Y1120729D1*
X1537882Y1120013D1*
X1538850Y1119164D1*
X1539699Y1118196D1*
X1540414Y1117126D1*
X1540983Y1115971D1*
X1541397Y1114752D1*
X1541648Y1113489D1*
X1541732Y1112205D1*
D1*
G37*
X690227Y815144D2*
D10*
G03X755696Y750507I61741J-2939D01*
G01*
X754908Y1473946D2*
G03X690271Y1408478I-2939J-61741D01*
G01*
X1449816Y750394D2*
X755709D1*
X689961Y815144D2*
Y1408465D1*
X754908Y1474016D2*
X1435040D1*
X1514961Y1394094D1*
X1514764D2*
Y815945D1*
X881498Y874803D2*
X815748D1*
Y941340D1*
Y1283070D2*
Y1304331D1*
X737008Y1383071D1*
X783465Y1429528D1*
X862205Y1349606D1*
X881498D1*
X1323227Y1340409D2*
X1379676Y1283070D1*
X1388977Y941340D2*
Y920079D1*
X1467717Y841339D1*
X1421260Y794882D1*
X1342520Y874803D1*
X1323227D1*
X2073623Y775591D2*
X1735432D1*
G36*
X1764764Y954724D2*
X1764680Y953440D1*
X1764428Y952177D1*
X1764015Y950958D1*
X1763445Y949803D1*
X1762730Y948733D1*
X1761881Y947765D1*
X1760913Y946916D1*
X1759843Y946201D1*
X1758688Y945631D1*
X1757469Y945217D1*
X1756206Y944966D1*
X1754921Y944882D1*
X1753637Y944966D1*
X1752374Y945217D1*
X1751155Y945631D1*
X1750000Y946201D1*
X1748930Y946916D1*
X1747962Y947765D1*
X1747113Y948733D1*
X1746397Y949803D1*
X1745828Y950958D1*
X1745414Y952177D1*
X1745163Y953440D1*
X1745079Y954724D1*
D1*
X1745163Y956009D1*
X1745414Y957272D1*
X1745828Y958491D1*
X1746397Y959646D1*
X1747113Y960716D1*
X1747962Y961684D1*
X1748930Y962533D1*
X1750000Y963248D1*
X1751155Y963818D1*
X1752374Y964232D1*
X1753637Y964483D1*
X1754921Y964567D1*
X1756206Y964483D1*
X1757469Y964232D1*
X1758688Y963818D1*
X1759843Y963248D1*
X1760913Y962533D1*
X1761881Y961684D1*
X1762730Y960716D1*
X1763445Y959646D1*
X1764015Y958491D1*
X1764428Y957272D1*
X1764680Y956009D1*
X1764764Y954724D1*
D1*
G37*
X1692913Y879133D2*
D10*
Y935039D1*
X1762600D1*
X2046455D2*
X2116142D1*
Y879133D1*
X2191734Y3246063D2*
X1853542D1*
G36*
X1882874Y3425197D2*
X1882790Y3423912D1*
X1882539Y3422649D1*
X1882125Y3421430D1*
X1881555Y3420276D1*
X1880840Y3419205D1*
X1879991Y3418237D1*
X1879023Y3417388D1*
X1877953Y3416673D1*
X1876798Y3416104D1*
X1875579Y3415690D1*
X1874316Y3415439D1*
X1873031Y3415354D1*
X1871747Y3415439D1*
X1870484Y3415690D1*
X1869265Y3416104D1*
X1868110Y3416673D1*
X1867040Y3417388D1*
X1866072Y3418237D1*
X1865223Y3419205D1*
X1864508Y3420276D1*
X1863938Y3421430D1*
X1863524Y3422649D1*
X1863273Y3423912D1*
X1863189Y3425197D1*
D1*
X1863273Y3426482D1*
X1863524Y3427744D1*
X1863938Y3428963D1*
X1864508Y3430118D1*
X1865223Y3431189D1*
X1866072Y3432157D1*
X1867040Y3433005D1*
X1868110Y3433721D1*
X1869265Y3434290D1*
X1870484Y3434704D1*
X1871747Y3434955D1*
X1873031Y3435039D1*
X1874316Y3434955D1*
X1875579Y3434704D1*
X1876798Y3434290D1*
X1877953Y3433721D1*
X1879023Y3433005D1*
X1879991Y3432157D1*
X1880840Y3431189D1*
X1881555Y3430118D1*
X1882125Y3428963D1*
X1882539Y3427744D1*
X1882790Y3426482D1*
X1882874Y3425197D1*
D1*
G37*
X1811024Y3349605D2*
D10*
Y3405512D1*
X1880710D1*
X2164566D2*
X2234252D1*
Y3349605D1*
X1272441Y1498819D2*
Y1472441D1*
X1325984D1*
X1272441Y1532677D2*
Y1559055D1*
X1325984D1*
G36*
X1343307Y1455906D2*
X1342022Y1455990D1*
X1340760Y1456241D1*
X1339541Y1456655D1*
X1338386Y1457224D1*
X1337315Y1457939D1*
X1336347Y1458788D1*
X1335498Y1459756D1*
X1334783Y1460827D1*
X1334214Y1461981D1*
X1333800Y1463201D1*
X1333549Y1464463D1*
X1333465Y1465748D1*
X1333549Y1467033D1*
X1333800Y1468295D1*
X1334214Y1469515D1*
X1334783Y1470669D1*
X1335498Y1471740D1*
X1336347Y1472708D1*
X1337315Y1473557D1*
X1338386Y1474272D1*
X1339541Y1474841D1*
X1340760Y1475255D1*
X1342022Y1475506D1*
X1343307Y1475591D1*
D1*
X1344592Y1475506D1*
X1345855Y1475255D1*
X1347074Y1474841D1*
X1348228Y1474272D1*
X1349299Y1473557D1*
X1350267Y1472708D1*
X1351116Y1471740D1*
X1351831Y1470669D1*
X1352400Y1469515D1*
X1352814Y1468295D1*
X1353065Y1467033D1*
X1353150Y1465748D1*
X1353065Y1464463D1*
X1352814Y1463201D1*
X1352400Y1461981D1*
X1351831Y1460827D1*
X1351116Y1459756D1*
X1350267Y1458788D1*
X1349299Y1457939D1*
X1348228Y1457224D1*
X1347074Y1456655D1*
X1345855Y1456241D1*
X1344592Y1455990D1*
X1343307Y1455906D1*
D1*
G37*
X1571654Y2187008D2*
D10*
X1558268D1*
X1571653Y2222441D2*
X1558267D1*
X2168504Y1129921D2*
X2181890D1*
X2168504Y1094488D2*
X2181890D1*
X2168504Y1188976D2*
X2181890D1*
X2168504Y1153543D2*
X2181890D1*
X2168504Y1248031D2*
X2181890D1*
X2168504Y1212598D2*
X2181890D1*
X992126Y3569686D2*
Y3556300D1*
X956693Y3569684D2*
Y3556298D1*
X1848425Y3628741D2*
Y3615355D1*
X1812992Y3628740D2*
Y3615354D1*
X1410629Y1513779D2*
X1424015Y1513780D1*
X1410630Y1478346D2*
X1424016Y1478347D1*
X1187796Y1488189D2*
X1174410D1*
X1187795Y1523622D2*
X1174409D1*
X1051181Y1542126D2*
Y1528741D1*
X1015748Y1542126D2*
Y1528740D1*
X2187008Y898819D2*
Y912204D1*
X2222441Y898819D2*
Y912205D1*
G36*
X1923228Y2704724D2*
X1923296Y2705752D1*
X1923497Y2706762D1*
X1923828Y2707738D1*
X1924283Y2708661D1*
X1924855Y2709518D1*
X1925535Y2710292D1*
X1926309Y2710971D1*
X1927165Y2711544D1*
X1928089Y2711999D1*
X1929064Y2712330D1*
X1930075Y2712531D1*
X1931102Y2712598D1*
X1932130Y2712531D1*
X1933140Y2712330D1*
X1934116Y2711999D1*
X1935039Y2711544D1*
X1935896Y2710971D1*
X1936670Y2710292D1*
X1937349Y2709518D1*
X1937921Y2708661D1*
X1938377Y2707738D1*
X1938708Y2706762D1*
X1938909Y2705752D1*
X1938976Y2704724D1*
D1*
X1938909Y2703697D1*
X1938708Y2702686D1*
X1938377Y2701711D1*
X1937921Y2700787D1*
X1937349Y2699931D1*
X1936670Y2699157D1*
X1935896Y2698478D1*
X1935039Y2697905D1*
X1934116Y2697450D1*
X1933140Y2697119D1*
X1932130Y2696918D1*
X1931102Y2696850D1*
X1930075Y2696918D1*
X1929064Y2697119D1*
X1928089Y2697450D1*
X1927165Y2697905D1*
X1926309Y2698478D1*
X1925535Y2699157D1*
X1924855Y2699931D1*
X1924283Y2700787D1*
X1923828Y2701711D1*
X1923497Y2702686D1*
X1923296Y2703697D1*
X1923228Y2704724D1*
D1*
G37*
X1388583Y1720472D2*
D10*
X1391732D1*
Y2059055D1*
X1388583D1*
X698031Y1720472D2*
X694882D1*
Y2059055D1*
X698031D1*
G36*
X1405906Y2135039D2*
X1405821Y2133755D1*
X1405570Y2132492D1*
X1405156Y2131273D1*
X1404587Y2130118D1*
X1403872Y2129048D1*
X1403023Y2128080D1*
X1402055Y2127231D1*
X1400984Y2126515D1*
X1399830Y2125946D1*
X1398610Y2125532D1*
X1397348Y2125281D1*
X1396063Y2125197D1*
X1394778Y2125281D1*
X1393516Y2125532D1*
X1392296Y2125946D1*
X1391142Y2126515D1*
X1390071Y2127231D1*
X1389103Y2128080D1*
X1388254Y2129048D1*
X1387539Y2130118D1*
X1386970Y2131273D1*
X1386556Y2132492D1*
X1386305Y2133755D1*
X1386220Y2135039D1*
D1*
X1386305Y2136324D1*
X1386556Y2137587D1*
X1386970Y2138806D1*
X1387539Y2139961D1*
X1388254Y2141031D1*
X1389103Y2141999D1*
X1390071Y2142848D1*
X1391142Y2143563D1*
X1392296Y2144133D1*
X1393516Y2144547D1*
X1394778Y2144798D1*
X1396063Y2144882D1*
X1397348Y2144798D1*
X1398610Y2144547D1*
X1399830Y2144133D1*
X1400984Y2143563D1*
X1402055Y2142848D1*
X1403023Y2141999D1*
X1403872Y2141031D1*
X1404587Y2139961D1*
X1405156Y2138806D1*
X1405570Y2137587D1*
X1405821Y2136324D1*
X1405906Y2135039D1*
D1*
G37*
X898031Y2338583D2*
D10*
X958661D1*
Y2484252D1*
X944094D1*
X755512Y2338583D2*
X694882D1*
Y2484252D1*
X709449D1*
G36*
X961417Y2555512D2*
X961333Y2554227D1*
X961082Y2552964D1*
X960668Y2551745D1*
X960099Y2550591D1*
X959383Y2549520D1*
X958535Y2548552D1*
X957567Y2547703D1*
X956496Y2546988D1*
X955341Y2546419D1*
X954122Y2546005D1*
X952860Y2545753D1*
X951575Y2545669D1*
X950290Y2545753D1*
X949027Y2546005D1*
X947808Y2546419D1*
X946654Y2546988D1*
X945583Y2547703D1*
X944615Y2548552D1*
X943766Y2549520D1*
X943051Y2550591D1*
X942482Y2551745D1*
X942068Y2552964D1*
X941816Y2554227D1*
X941732Y2555512D1*
D1*
X941816Y2556797D1*
X942068Y2558059D1*
X942482Y2559278D1*
X943051Y2560433D1*
X943766Y2561504D1*
X944615Y2562472D1*
X945583Y2563320D1*
X946654Y2564036D1*
X947808Y2564605D1*
X949027Y2565019D1*
X950290Y2565270D1*
X951575Y2565354D1*
X952860Y2565270D1*
X954122Y2565019D1*
X955341Y2564605D1*
X956496Y2564036D1*
X957567Y2563320D1*
X958535Y2562472D1*
X959383Y2561504D1*
X960099Y2560433D1*
X960668Y2559278D1*
X961082Y2558059D1*
X961333Y2556797D1*
X961417Y2555512D1*
D1*
G37*
X1470472Y2529528D2*
D10*
X1403543D1*
X1470472Y2411417D2*
X1403543D1*
G36*
X1375197Y2544094D2*
X1376482Y2544010D1*
X1377744Y2543759D1*
X1378963Y2543345D1*
X1380118Y2542776D1*
X1381189Y2542061D1*
X1382157Y2541212D1*
X1383005Y2540244D1*
X1383721Y2539173D1*
X1384290Y2538019D1*
X1384704Y2536799D1*
X1384955Y2535537D1*
X1385039Y2534252D1*
X1384955Y2532967D1*
X1384704Y2531705D1*
X1384290Y2530485D1*
X1383721Y2529331D1*
X1383005Y2528260D1*
X1382157Y2527292D1*
X1381189Y2526443D1*
X1380118Y2525728D1*
X1378963Y2525159D1*
X1377744Y2524745D1*
X1376482Y2524494D1*
X1375197Y2524409D1*
D1*
X1373912Y2524494D1*
X1372649Y2524745D1*
X1371430Y2525159D1*
X1370276Y2525728D1*
X1369205Y2526443D1*
X1368237Y2527292D1*
X1367388Y2528260D1*
X1366673Y2529331D1*
X1366104Y2530485D1*
X1365690Y2531705D1*
X1365439Y2532967D1*
X1365354Y2534252D1*
X1365439Y2535537D1*
X1365690Y2536799D1*
X1366104Y2538019D1*
X1366673Y2539173D1*
X1367388Y2540244D1*
X1368237Y2541212D1*
X1369205Y2542061D1*
X1370276Y2542776D1*
X1371430Y2543345D1*
X1372649Y2543759D1*
X1373912Y2544010D1*
X1375197Y2544094D1*
D1*
G37*
X900000Y3161417D2*
D10*
X933071D1*
Y3374016D1*
X900000D1*
X714173Y3161417D2*
X681102D1*
Y3374016D1*
X714173D1*
G36*
X917323Y3422047D2*
X917239Y3420763D1*
X916987Y3419500D1*
X916574Y3418281D1*
X916004Y3417126D1*
X915289Y3416055D1*
X914440Y3415088D1*
X913472Y3414239D1*
X912402Y3413523D1*
X911247Y3412954D1*
X910028Y3412540D1*
X908765Y3412289D1*
X907480Y3412205D1*
X906196Y3412289D1*
X904933Y3412540D1*
X903714Y3412954D1*
X902559Y3413523D1*
X901489Y3414239D1*
X900521Y3415088D1*
X899672Y3416055D1*
X898956Y3417126D1*
X898387Y3418281D1*
X897973Y3419500D1*
X897722Y3420763D1*
X897638Y3422047D1*
D1*
X897722Y3423332D1*
X897973Y3424595D1*
X898387Y3425814D1*
X898956Y3426969D1*
X899672Y3428039D1*
X900521Y3429007D1*
X901489Y3429856D1*
X902559Y3430571D1*
X903714Y3431141D1*
X904933Y3431554D1*
X906196Y3431806D1*
X907480Y3431890D1*
X908765Y3431806D1*
X910028Y3431554D1*
X911247Y3431141D1*
X912402Y3430571D1*
X913472Y3429856D1*
X914440Y3429007D1*
X915289Y3428039D1*
X916004Y3426969D1*
X916574Y3425814D1*
X916987Y3424595D1*
X917239Y3423332D1*
X917323Y3422047D1*
D1*
G37*
X1224803Y3161417D2*
D10*
X1257874D1*
Y3374016D1*
X1224803D1*
X1038976Y3161417D2*
X1005906D1*
Y3374016D1*
X1038976D1*
G36*
X1242126Y3422047D2*
X1242042Y3420763D1*
X1241791Y3419500D1*
X1241377Y3418281D1*
X1240807Y3417126D1*
X1240092Y3416055D1*
X1239243Y3415088D1*
X1238275Y3414239D1*
X1237205Y3413523D1*
X1236050Y3412954D1*
X1234831Y3412540D1*
X1233568Y3412289D1*
X1232283Y3412205D1*
X1230999Y3412289D1*
X1229736Y3412540D1*
X1228517Y3412954D1*
X1227362Y3413523D1*
X1226292Y3414239D1*
X1225324Y3415088D1*
X1224475Y3416055D1*
X1223760Y3417126D1*
X1223190Y3418281D1*
X1222776Y3419500D1*
X1222525Y3420763D1*
X1222441Y3422047D1*
D1*
X1222525Y3423332D1*
X1222776Y3424595D1*
X1223190Y3425814D1*
X1223760Y3426969D1*
X1224475Y3428039D1*
X1225324Y3429007D1*
X1226292Y3429856D1*
X1227362Y3430571D1*
X1228517Y3431141D1*
X1229736Y3431554D1*
X1230999Y3431806D1*
X1232283Y3431890D1*
X1233568Y3431806D1*
X1234831Y3431554D1*
X1236050Y3431141D1*
X1237205Y3430571D1*
X1238275Y3429856D1*
X1239243Y3429007D1*
X1240092Y3428039D1*
X1240807Y3426969D1*
X1241377Y3425814D1*
X1241791Y3424595D1*
X1242042Y3423332D1*
X1242126Y3422047D1*
D1*
G37*
X1549606Y3161417D2*
D10*
X1582677D1*
Y3374016D1*
X1549606D1*
X1363780Y3161417D2*
X1330709D1*
Y3374016D1*
X1363780D1*
G36*
X1566929Y3422047D2*
X1566845Y3420763D1*
X1566594Y3419500D1*
X1566180Y3418281D1*
X1565610Y3417126D1*
X1564895Y3416055D1*
X1564046Y3415088D1*
X1563078Y3414239D1*
X1562008Y3413523D1*
X1560853Y3412954D1*
X1559634Y3412540D1*
X1558371Y3412289D1*
X1557087Y3412205D1*
X1555802Y3412289D1*
X1554539Y3412540D1*
X1553320Y3412954D1*
X1552165Y3413523D1*
X1551095Y3414239D1*
X1550127Y3415088D1*
X1549278Y3416055D1*
X1548563Y3417126D1*
X1547993Y3418281D1*
X1547579Y3419500D1*
X1547328Y3420763D1*
X1547244Y3422047D1*
D1*
X1547328Y3423332D1*
X1547579Y3424595D1*
X1547993Y3425814D1*
X1548563Y3426969D1*
X1549278Y3428039D1*
X1550127Y3429007D1*
X1551095Y3429856D1*
X1552165Y3430571D1*
X1553320Y3431141D1*
X1554539Y3431554D1*
X1555802Y3431806D1*
X1557087Y3431890D1*
X1558371Y3431806D1*
X1559634Y3431554D1*
X1560853Y3431141D1*
X1562008Y3430571D1*
X1563078Y3429856D1*
X1564046Y3429007D1*
X1564895Y3428039D1*
X1565610Y3426969D1*
X1566180Y3425814D1*
X1566594Y3424595D1*
X1566845Y3423332D1*
X1566929Y3422047D1*
D1*
G37*
X2029541Y3724407D2*
D10*
X2029546Y3519685D1*
X2163368Y3724410D2*
X2163372Y3519688D1*
X2029546Y3519685D2*
X2163372Y3519688D1*
X2029541Y3724407D2*
X2088569Y3724408D1*
X2104340D2*
X2163368Y3724410D1*
X2088569Y3724408D2*
G03X2104340Y3724408I7886J-12649D01*
G01*
X2322835Y3740157D2*
X2519685D1*
Y748031D1*
X2322835D1*
Y3740157D1*
X393701D2*
X590551D1*
Y748031D1*
X393701D1*
Y3740157D1*
X1476378Y1653543D2*
G02X1476378Y1653543I393701J0D01*
G01*
X1140882Y2954181D2*
D45*
X1084872D1*
Y2863749D1*
Y2911104D2*
X1119294D1*
X1180252Y2954181D2*
Y2863749D1*
X1271255Y2924037D2*
Y2863749D1*
Y2911104D2*
X1262699Y2919759D1*
X1254044Y2924037D1*
X1241210D1*
X1232555Y2919759D1*
X1223999Y2911104D1*
X1219622Y2898171D1*
Y2889615D1*
X1223999Y2876682D1*
X1232555Y2868127D1*
X1241210Y2863749D1*
X1254044D1*
X1262699Y2868127D1*
X1271255Y2876682D1*
X1357980Y2911104D2*
X1353702Y2919759D1*
X1340769Y2924037D1*
X1327836D1*
X1314903Y2919759D1*
X1310625Y2911104D1*
X1314903Y2902548D1*
X1323558Y2898171D1*
X1345047Y2893893D1*
X1353702Y2889615D1*
X1357980Y2880960D1*
Y2876682D1*
X1353702Y2868127D1*
X1340769Y2863749D1*
X1327836D1*
X1314903Y2868127D1*
X1310625Y2876682D1*
X1397350Y2954181D2*
Y2863749D1*
Y2906826D2*
X1410283Y2919759D1*
X1418938Y2924037D1*
X1431871D1*
X1440427Y2919759D1*
X1444705Y2906826D1*
Y2863749D1*
X1484075Y2908916D2*
X1533818D1*
X1629198Y2954181D2*
X1573188D1*
Y2863749D1*
Y2911104D2*
X1607610D1*
X1728856Y2954181D2*
Y2863749D1*
X1668568Y2954181D1*
Y2863749D1*
X1828514Y2941248D2*
X1819958Y2949903D1*
X1807025Y2954181D1*
X1789814D1*
X1776881Y2949903D1*
X1768226Y2941248D1*
Y2932692D1*
X1772603Y2924037D1*
X1776881Y2919759D1*
X1785437Y2915482D1*
X1811303Y2906826D1*
X1819958Y2902548D1*
X1824236Y2898171D1*
X1828514Y2889615D1*
Y2876682D1*
X1819958Y2868127D1*
X1807025Y2863749D1*
X1789814D1*
X1776881Y2868127D1*
X1768226Y2876682D1*
X2356752Y814806D2*
D46*
X2457232Y838793D1*
X2356752Y862670D1*
X2457232Y886546D1*
X2356752Y910533D1*
X2390245Y998781D2*
X2457232D1*
X2404615D2*
X2394999Y989275D1*
X2390245Y979658D1*
Y965399D1*
X2394999Y955782D1*
X2404615Y946275D1*
X2418986Y941412D1*
X2428492D1*
X2442862Y946275D1*
X2452368Y955782D1*
X2457232Y965399D1*
Y979658D1*
X2452368Y989275D1*
X2442862Y998781D1*
X2390245Y1034524D2*
X2457232Y1063153D1*
X2476355Y1053647D1*
X2485972Y1044030D1*
X2490725Y1034524D1*
Y1029660D1*
X2390245Y1091893D2*
X2457232Y1063153D1*
X2356752Y1122772D2*
X2457232Y1146759D1*
X2356752Y1170635D1*
X2457232Y1194512D1*
X2356752Y1218499D1*
X2390245Y1306747D2*
X2457232D1*
X2404615D2*
X2394999Y1297241D1*
X2390245Y1287624D1*
Y1273364D1*
X2394999Y1263747D1*
X2404615Y1254241D1*
X2418986Y1249377D1*
X2428492D1*
X2442862Y1254241D1*
X2452368Y1263747D1*
X2457232Y1273364D1*
Y1287624D1*
X2452368Y1297241D1*
X2442862Y1306747D1*
X2390245Y1342489D2*
X2457232Y1371119D1*
X2476355Y1361612D1*
X2485972Y1351995D1*
X2490725Y1342489D1*
Y1337625D1*
X2390245Y1399859D2*
X2457232Y1371119D1*
X2356752Y1430737D2*
X2457232Y1454724D1*
X2356752Y1478601D1*
X2457232Y1502477D1*
X2356752Y1526464D1*
X2390245Y1614713D2*
X2457232D1*
X2404615D2*
X2394999Y1605206D1*
X2390245Y1595589D1*
Y1581330D1*
X2394999Y1571713D1*
X2404615Y1562206D1*
X2418986Y1557343D1*
X2428492D1*
X2442862Y1562206D1*
X2452368Y1571713D1*
X2457232Y1581330D1*
Y1595589D1*
X2452368Y1605206D1*
X2442862Y1614713D1*
X2390245Y1650455D2*
X2457232Y1679084D1*
X2476355Y1669578D1*
X2485972Y1659961D1*
X2490725Y1650455D1*
Y1645591D1*
X2390245Y1707824D2*
X2457232Y1679084D1*
X1758547Y2316931D2*
D47*
Y2222210D1*
X1711247Y2269510D2*
X1805968D1*
X1864058Y3217839D2*
D48*
Y3171943D1*
X1861207Y3163321D1*
X1858288Y3160469D1*
X1852585Y3157551D1*
X1846814D1*
X1841111Y3160469D1*
X1838259Y3163321D1*
X1835340Y3171943D1*
Y3177647D1*
X1922778Y3209216D2*
X1917074Y3214987D1*
X1908452Y3217839D1*
X1896978D1*
X1888356Y3214987D1*
X1882586Y3209216D1*
Y3203513D1*
X1885504Y3197743D1*
X1888356Y3194891D1*
X1894060Y3192039D1*
X1911304Y3186269D1*
X1917074Y3183417D1*
X1919926Y3180498D1*
X1922778Y3174795D1*
Y3166173D1*
X1917074Y3160469D1*
X1908452Y3157551D1*
X1896978D1*
X1888356Y3160469D1*
X1882586Y3166173D1*
X1961401Y3217839D2*
Y3157551D1*
X1941305Y3217839D2*
X1981497D1*
X2058345Y3206298D2*
X2064115Y3209216D1*
X2072737Y3217772D1*
Y3157551D1*
X2094116Y3163321D2*
X2091264Y3160402D1*
X2094116Y3157551D1*
X2097034Y3160402D1*
X2094116Y3163321D1*
X2118480Y3203446D2*
Y3206298D1*
X2121332Y3212068D1*
X2124184Y3214920D1*
X2129954Y3217772D1*
X2141428D1*
X2147131Y3214920D1*
X2149983Y3212068D1*
X2152902Y3206298D1*
Y3200594D1*
X2149983Y3194824D1*
X2144280Y3186269D1*
X2115561Y3157551D1*
X2155753D1*
X2208702Y3217772D2*
X2180051D1*
X2177199Y3191972D1*
X2180051Y3194824D1*
X2188673Y3197743D1*
X2197228D1*
X2205851Y3194824D1*
X2211621Y3189120D1*
X2214473Y3180498D1*
Y3174795D1*
X2211621Y3166173D1*
X2205851Y3160402D1*
X2197228Y3157551D1*
X2188673D1*
X2180051Y3160402D1*
X2177199Y3163321D1*
X2174281Y3169024D1*
X1114270Y2809349D2*
D49*
Y2749061D1*
X1094174Y2809349D2*
X1134366D1*
X1192182Y2780631D2*
X1189330Y2786401D1*
X1180708Y2789253D1*
X1172086D1*
X1163464Y2786401D1*
X1160612Y2780631D1*
X1163464Y2774927D1*
X1169234Y2772009D1*
X1183560Y2769157D1*
X1189330Y2766305D1*
X1192182Y2760535D1*
Y2757683D1*
X1189330Y2751979D1*
X1180708Y2749061D1*
X1172086D1*
X1163464Y2751979D1*
X1160612Y2757683D1*
X1218429Y2789253D2*
Y2760535D1*
X1221281Y2751979D1*
X1227051Y2749061D1*
X1235673D1*
X1241377Y2751979D1*
X1249999Y2760535D1*
Y2789253D2*
Y2749061D1*
X1276246Y2789253D2*
Y2760535D1*
X1279098Y2751979D1*
X1284868Y2749061D1*
X1293490D1*
X1299194Y2751979D1*
X1307816Y2760535D1*
Y2789253D2*
Y2749061D1*
X1365632Y2780631D2*
X1362780Y2786401D1*
X1354158Y2789253D1*
X1345536D1*
X1336914Y2786401D1*
X1334062Y2780631D1*
X1336914Y2774927D1*
X1342684Y2772009D1*
X1357010Y2769157D1*
X1362780Y2766305D1*
X1365632Y2760535D1*
Y2757683D1*
X1362780Y2751979D1*
X1354158Y2749061D1*
X1345536D1*
X1336914Y2751979D1*
X1334062Y2757683D1*
X1391879Y2809349D2*
Y2749061D1*
Y2777779D2*
X1400501Y2786401D1*
X1406271Y2789253D1*
X1414893D1*
X1420597Y2786401D1*
X1423449Y2777779D1*
Y2749061D1*
X1449696Y2809349D2*
X1452548Y2806497D1*
X1455466Y2809349D1*
X1452548Y2812267D1*
X1449696Y2809349D1*
X1452548Y2789253D2*
Y2749061D1*
X1481713Y2789253D2*
Y2749061D1*
Y2777779D2*
X1490335Y2786401D1*
X1496105Y2789253D1*
X1504661D1*
X1510431Y2786401D1*
X1513283Y2777779D1*
Y2749061D1*
X1648614Y2795023D2*
X1645762Y2800727D1*
X1639992Y2806497D1*
X1634288Y2809349D1*
X1622814D1*
X1617044Y2806497D1*
X1611340Y2800727D1*
X1608422Y2795023D1*
X1605570Y2786401D1*
Y2772009D1*
X1608422Y2763453D1*
X1611340Y2757683D1*
X1617044Y2751979D1*
X1622814Y2749061D1*
X1634288D1*
X1639992Y2751979D1*
X1645762Y2757683D1*
X1648614Y2763453D1*
X1709283Y2789253D2*
Y2749061D1*
Y2780631D2*
X1703579Y2786401D1*
X1697809Y2789253D1*
X1689253D1*
X1683483Y2786401D1*
X1677779Y2780631D1*
X1674861Y2772009D1*
Y2766305D1*
X1677779Y2757683D1*
X1683483Y2751979D1*
X1689253Y2749061D1*
X1697809D1*
X1703579Y2751979D1*
X1709283Y2757683D1*
X1735529Y2789253D2*
Y2749061D1*
Y2772009D2*
X1738448Y2780631D1*
X1744151Y2786401D1*
X1749922Y2789253D1*
X1758544D1*
X1819212Y2809349D2*
Y2749061D1*
Y2780631D2*
X1813508Y2786401D1*
X1807738Y2789253D1*
X1799116D1*
X1793412Y2786401D1*
X1787642Y2780631D1*
X1784790Y2772009D1*
Y2766305D1*
X1787642Y2757683D1*
X1793412Y2751979D1*
X1799116Y2749061D1*
X1807738D1*
X1813508Y2751979D1*
X1819212Y2757683D1*
X1989824Y1256184D2*
D44*
Y1205944D1*
X2011380D1*
X2018565Y1208376D1*
X2020941Y1210752D1*
X2023318Y1215505D1*
Y1222690D1*
X2020941Y1227499D1*
X2018565Y1229875D1*
X2011380Y1232252D1*
X2018565Y1234684D1*
X2020941Y1237060D1*
X2023318Y1241814D1*
Y1246622D1*
X2020941Y1251375D1*
X2018565Y1253807D1*
X2011380Y1256184D1*
X1989824D1*
Y1232252D2*
X2011380D1*
X2038757Y1246567D2*
X2043565Y1248999D1*
X2050751Y1256128D1*
Y1205944D1*
X1510990Y1710104D2*
X1508614Y1714857D1*
X1503805Y1719665D1*
X1499052Y1722042D1*
X1489490D1*
X1484682Y1719665D1*
X1479929Y1714857D1*
X1477497Y1710104D1*
X1475120Y1702919D1*
Y1690925D1*
X1477497Y1683795D1*
X1479929Y1678987D1*
X1484682Y1674234D1*
X1489490Y1671802D1*
X1499052D1*
X1503805Y1674234D1*
X1508614Y1678987D1*
X1510990Y1683795D1*
X1526429Y1712425D2*
X1531238Y1714857D1*
X1538423Y1721987D1*
Y1671802D1*
X908234Y2831155D2*
X905857Y2835908D1*
X901049Y2840717D1*
X896296Y2843093D1*
X886734D1*
X881925Y2840717D1*
X877172Y2835908D1*
X874740Y2831155D1*
X872364Y2823970D1*
Y2811976D1*
X874740Y2804847D1*
X877172Y2800038D1*
X881925Y2795285D1*
X886734Y2792853D1*
X896296D1*
X901049Y2795285D1*
X905857Y2800038D1*
X908234Y2804847D1*
X926105Y2831100D2*
Y2833476D1*
X928481Y2838285D1*
X930858Y2840661D1*
X935666Y2843038D1*
X945228D1*
X949981Y2840661D1*
X952358Y2838285D1*
X954790Y2833476D1*
Y2828723D1*
X952358Y2823915D1*
X947605Y2816785D1*
X923673Y2792853D1*
X957166D1*
X908234Y2929580D2*
X905857Y2934333D1*
X901049Y2939142D1*
X896296Y2941518D1*
X886734D1*
X881925Y2939142D1*
X877172Y2934333D1*
X874740Y2929580D1*
X872364Y2922395D1*
Y2910402D1*
X874740Y2903272D1*
X877172Y2898463D1*
X881925Y2893710D1*
X886734Y2891278D1*
X896296D1*
X901049Y2893710D1*
X905857Y2898463D1*
X908234Y2903272D1*
X928481Y2941463D2*
X954734D1*
X940420Y2922340D1*
X947605D1*
X952358Y2919963D1*
X954734Y2917587D1*
X957166Y2910402D1*
Y2905648D1*
X954734Y2898463D1*
X949981Y2893655D1*
X942796Y2891278D1*
X935611D1*
X928481Y2893655D1*
X926105Y2896087D1*
X923673Y2900840D1*
X845225Y2740000D2*
X842849Y2744753D1*
X838040Y2749562D1*
X833287Y2751938D1*
X823725D1*
X818917Y2749562D1*
X814164Y2744753D1*
X811732Y2740000D1*
X809355Y2732815D1*
Y2720822D1*
X811732Y2713692D1*
X814164Y2708883D1*
X818917Y2704130D1*
X823725Y2701698D1*
X833287D1*
X838040Y2704130D1*
X842849Y2708883D1*
X845225Y2713692D1*
X884596Y2701698D2*
Y2751883D1*
X860665Y2718445D1*
X896534D1*
X1088165Y2653992D2*
X1085788Y2658745D1*
X1080980Y2663553D1*
X1076227Y2665930D1*
X1066665D1*
X1061857Y2663553D1*
X1057104Y2658744D1*
X1054672Y2653991D1*
X1052295Y2646806D1*
X1052296Y2634813D1*
X1054672Y2627683D1*
X1057104Y2622874D1*
X1061858Y2618121D1*
X1066666Y2615690D1*
X1076228D1*
X1080981Y2618122D1*
X1085789Y2622875D1*
X1088166Y2627684D1*
X1132289Y2665876D2*
X1108412Y2665875D1*
X1106036Y2644376D1*
X1108413Y2646752D1*
X1115598Y2649184D1*
X1122728D1*
X1129913Y2646753D1*
X1134721Y2642000D1*
X1137098Y2634815D1*
Y2630062D1*
X1134722Y2622876D1*
X1129914Y2618068D1*
X1122729Y2615691D1*
X1115599D1*
X1108414Y2618067D1*
X1106037Y2620499D1*
X1103605Y2625252D1*
X771687Y2624462D2*
X769311Y2629215D1*
X764502Y2634024D1*
X759749Y2636400D1*
X750187D1*
X745379Y2634024D1*
X740626Y2629215D1*
X738194Y2624462D1*
X735817Y2617277D1*
Y2605283D1*
X738194Y2598154D1*
X740626Y2593345D1*
X745379Y2588592D1*
X750187Y2586160D1*
X759749D1*
X764502Y2588592D1*
X769311Y2593345D1*
X771687Y2598154D1*
X815811Y2629215D2*
X813435Y2633968D1*
X806250Y2636345D1*
X801497D1*
X794312Y2633968D1*
X789503Y2626783D1*
X787126Y2614845D1*
Y2602907D1*
X789503Y2593345D1*
X794312Y2588537D1*
X801497Y2586160D1*
X803873D1*
X811003Y2588537D1*
X815811Y2593345D1*
X818188Y2600530D1*
Y2602907D1*
X815811Y2610092D1*
X811003Y2614845D1*
X803873Y2617222D1*
X801497D1*
X794312Y2614845D1*
X789503Y2610092D1*
X787126Y2602907D1*
X1637169Y2348871D2*
X1634793Y2353625D1*
X1629984Y2358433D1*
X1625231Y2360810D1*
X1615670D1*
X1610861Y2358433D1*
X1606108Y2353625D1*
X1603676Y2348871D1*
X1601300Y2341686D1*
Y2329693D1*
X1603676Y2322563D1*
X1606108Y2317755D1*
X1610861Y2313002D1*
X1615670Y2310570D1*
X1625231D1*
X1629984Y2313002D1*
X1634793Y2317755D1*
X1637169Y2322563D1*
X1662170Y2310570D2*
X1686102Y2360754D1*
X1652609D1*
X1546044Y2605379D2*
X1543667Y2610133D1*
X1538859Y2614941D1*
X1534105Y2617318D1*
X1524544D1*
X1519735Y2614941D1*
X1514982Y2610133D1*
X1512550Y2605379D1*
X1510174Y2598194D1*
Y2586201D1*
X1512550Y2579071D1*
X1514982Y2574263D1*
X1519735Y2569509D1*
X1524544Y2567078D1*
X1534105D1*
X1538859Y2569509D1*
X1543667Y2574263D1*
X1546044Y2579071D1*
X1573421Y2617262D2*
X1566291Y2614886D1*
X1563859Y2610133D1*
Y2605324D1*
X1566291Y2600571D1*
X1571044Y2598139D1*
X1580606Y2595762D1*
X1587791Y2593386D1*
X1592544Y2588577D1*
X1594921Y2583824D1*
Y2576639D1*
X1592544Y2571886D1*
X1590168Y2569454D1*
X1582983Y2567078D1*
X1573421D1*
X1566291Y2569454D1*
X1563859Y2571886D1*
X1561483Y2576639D1*
Y2583824D1*
X1563859Y2588577D1*
X1568668Y2593386D1*
X1575798Y2595762D1*
X1585359Y2598139D1*
X1590168Y2600571D1*
X1592544Y2605324D1*
Y2610133D1*
X1590168Y2614886D1*
X1582983Y2617262D1*
X1573421D1*
X2216495Y2211075D2*
X2214119Y2215828D1*
X2209310Y2220636D1*
X2204557Y2223013D1*
X2194995D1*
X2190187Y2220636D1*
X2185434Y2215827D1*
X2183002Y2211074D1*
X2180625Y2203889D1*
X2180626Y2191896D1*
X2183002Y2184766D1*
X2185434Y2179957D1*
X2190188Y2175204D1*
X2194996Y2172773D1*
X2204558D1*
X2209311Y2175205D1*
X2214119Y2179958D1*
X2216496Y2184766D1*
X2263051Y2206267D2*
X2260620Y2199082D1*
X2255867Y2194274D1*
X2248682Y2191897D1*
X2246305D1*
X2239120Y2194273D1*
X2234367Y2199082D1*
X2231935Y2206267D1*
Y2208643D1*
X2234366Y2215828D1*
X2239119Y2220582D1*
X2246304Y2222958D1*
X2248681D1*
X2255866Y2220582D1*
X2260619Y2215829D1*
X2263051Y2206267D1*
X2263052Y2194274D1*
X2260620Y2182335D1*
X2255867Y2175150D1*
X2248682Y2172774D1*
X2243929D1*
X2236744Y2175150D1*
X2234367Y2179958D1*
X1761248Y2440025D2*
X1758872Y2444778D1*
X1754063Y2449587D1*
X1749310Y2451963D1*
X1739749D1*
X1734940Y2449587D1*
X1730187Y2444778D1*
X1727755Y2440025D1*
X1725378Y2432840D1*
Y2420846D1*
X1727755Y2413717D1*
X1730187Y2408908D1*
X1734940Y2404155D1*
X1739749Y2401723D1*
X1749310D1*
X1754063Y2404155D1*
X1758872Y2408908D1*
X1761248Y2413717D1*
X1776688Y2442346D2*
X1781496Y2444778D1*
X1788681Y2451908D1*
Y2401723D1*
X1818490Y2451908D2*
X1811305Y2449531D1*
X1806497Y2442346D1*
X1804120Y2430408D1*
Y2423223D1*
X1806497Y2411285D1*
X1811305Y2404100D1*
X1818490Y2401723D1*
X1823244D1*
X1830429Y2404100D1*
X1835182Y2411285D1*
X1837614Y2423223D1*
Y2430408D1*
X1835182Y2442346D1*
X1830429Y2449531D1*
X1823244Y2451908D1*
X1818490D1*
X1835182Y2442346D2*
X1806497Y2411285D1*
X2202498Y2340025D2*
X2200121Y2344778D1*
X2195313Y2349586D1*
X2190560Y2351963D1*
X2180998Y2351962D1*
X2176190Y2349586D1*
X2171437Y2344777D1*
X2169005Y2340024D1*
X2166628Y2332839D1*
X2166629Y2320845D1*
X2169005Y2313716D1*
X2171437Y2308907D1*
X2176191Y2304154D1*
X2180999Y2301722D1*
X2190561Y2301723D1*
X2195314Y2304155D1*
X2200122Y2308908D1*
X2202499Y2313716D1*
X2217937Y2342346D2*
X2222746Y2344778D1*
X2229931Y2351908D1*
X2229932Y2301723D1*
X2245370Y2342347D2*
X2250179Y2344779D1*
X2257363Y2351909D1*
X2257364Y2301724D1*
X1761248Y2617190D2*
X1758872Y2621944D1*
X1754063Y2626752D1*
X1749310Y2629129D1*
X1739749D1*
X1734940Y2626752D1*
X1730187Y2621944D1*
X1727755Y2617190D1*
X1725378Y2610005D1*
Y2598012D1*
X1727755Y2590882D1*
X1730187Y2586074D1*
X1734940Y2581320D1*
X1739749Y2578889D1*
X1749310D1*
X1754063Y2581320D1*
X1758872Y2586074D1*
X1761248Y2590882D1*
X1776688Y2619512D2*
X1781496Y2621944D1*
X1788681Y2629073D1*
Y2578889D1*
X1806552Y2617135D2*
Y2619512D1*
X1808929Y2624320D1*
X1811305Y2626697D1*
X1816114Y2629073D1*
X1825675D1*
X1830429Y2626697D1*
X1832805Y2624320D1*
X1835237Y2619512D1*
Y2614759D1*
X1832805Y2609950D1*
X1828052Y2602820D1*
X1804120Y2578889D1*
X1837614D1*
X2023263Y2260289D2*
X2020886Y2265042D1*
X2016078Y2269850D1*
X2011325Y2272227D1*
X2001763D1*
X1996955Y2269850D1*
X1992201Y2265042D1*
X1989769Y2260289D1*
X1987393Y2253104D1*
Y2241110D1*
X1989769Y2233980D1*
X1992201Y2229172D1*
X1996955Y2224419D1*
X2001763Y2221987D1*
X2011325D1*
X2016078Y2224419D1*
X2020886Y2229172D1*
X2023263Y2233980D1*
X2038702Y2262610D2*
X2043510Y2265042D1*
X2050696Y2272172D1*
Y2221987D1*
X2070943Y2272172D2*
X2097196D1*
X2082881Y2253048D1*
X2090066D1*
X2094820Y2250672D1*
X2097196Y2248295D1*
X2099628Y2241110D1*
Y2236357D1*
X2097196Y2229172D1*
X2092443Y2224364D1*
X2085258Y2221987D1*
X2078073D1*
X2070943Y2224364D1*
X2068567Y2226795D1*
X2066135Y2231549D1*
X1989009Y2909895D2*
X1986632Y2914648D1*
X1981824Y2919457D1*
X1977071Y2921833D1*
X1967509D1*
X1962701Y2919457D1*
X1957947Y2914648D1*
X1955516Y2909895D1*
X1953139Y2902710D1*
Y2890717D1*
X1955516Y2883587D1*
X1957947Y2878778D1*
X1962701Y2874025D1*
X1967509Y2871593D1*
X1977071D1*
X1981824Y2874025D1*
X1986632Y2878778D1*
X1989009Y2883587D1*
X2004448Y2912216D2*
X2009257Y2914648D1*
X2016442Y2921778D1*
Y2871593D1*
X2055813D2*
Y2921778D1*
X2031881Y2888340D1*
X2067751D1*
X1278965Y3480761D2*
X1276588Y3485514D1*
X1271780Y3490323D1*
X1267027Y3492699D1*
X1257465D1*
X1252657Y3490323D1*
X1247903Y3485514D1*
X1245472Y3480761D1*
X1243095Y3473576D1*
Y3461583D1*
X1245472Y3454453D1*
X1247903Y3449644D1*
X1252657Y3444891D1*
X1257465Y3442459D1*
X1267027D1*
X1271780Y3444891D1*
X1276588Y3449644D1*
X1278965Y3454453D1*
X1294404Y3483083D2*
X1299213Y3485514D1*
X1306398Y3492644D1*
Y3442459D1*
X1350522Y3492644D2*
X1326645D1*
X1324269Y3471144D1*
X1326645Y3473521D1*
X1333830Y3475953D1*
X1340960D1*
X1348145Y3473521D1*
X1352954Y3468768D1*
X1355330Y3461583D1*
Y3456830D1*
X1352954Y3449644D1*
X1348145Y3444836D1*
X1340960Y3442459D1*
X1333830D1*
X1326645Y3444836D1*
X1324269Y3447268D1*
X1321837Y3452021D1*
X962649Y3480761D2*
X960273Y3485514D1*
X955464Y3490323D1*
X950711Y3492699D1*
X941149D1*
X936341Y3490323D1*
X931588Y3485514D1*
X929156Y3480761D1*
X926779Y3473576D1*
Y3461583D1*
X929156Y3454453D1*
X931588Y3449644D1*
X936341Y3444891D1*
X941149Y3442459D1*
X950711D1*
X955464Y3444891D1*
X960273Y3449644D1*
X962649Y3454453D1*
X978089Y3483083D2*
X982897Y3485514D1*
X990082Y3492644D1*
Y3442459D1*
X1034206Y3485514D2*
X1031830Y3490268D1*
X1024645Y3492644D1*
X1019891D1*
X1012706Y3490268D1*
X1007898Y3483083D1*
X1005521Y3471144D1*
Y3459206D1*
X1007898Y3449644D1*
X1012706Y3444836D1*
X1019891Y3442459D1*
X1022268D1*
X1029398Y3444836D1*
X1034206Y3449644D1*
X1036583Y3456830D1*
Y3459206D1*
X1034206Y3466391D1*
X1029398Y3471144D1*
X1022268Y3473521D1*
X1019891D1*
X1012706Y3471144D1*
X1007898Y3466391D1*
X1005521Y3459206D1*
X636630Y3480761D2*
X634254Y3485514D1*
X629445Y3490323D1*
X624692Y3492699D1*
X615130D1*
X610322Y3490323D1*
X605569Y3485514D1*
X603137Y3480761D1*
X600760Y3473576D1*
Y3461583D1*
X603137Y3454453D1*
X605569Y3449644D1*
X610322Y3444891D1*
X615130Y3442459D1*
X624692D1*
X629445Y3444891D1*
X634254Y3449644D1*
X636630Y3454453D1*
X652070Y3483083D2*
X656878Y3485514D1*
X664063Y3492644D1*
Y3442459D1*
X689064D2*
X712996Y3492644D1*
X679502D1*
X2237546Y3423957D2*
X2235169Y3428710D1*
X2230361Y3433519D1*
X2225608Y3435895D1*
X2216046D1*
X2211238Y3433518D1*
X2206485Y3428710D1*
X2204053Y3423956D1*
X2201677Y3416771D1*
Y3404778D1*
X2204054Y3397648D1*
X2206486Y3392840D1*
X2211239Y3388087D1*
X2216048Y3385655D1*
X2225609D1*
X2230362Y3388087D1*
X2235171Y3392840D1*
X2237547Y3397649D1*
X2252985Y3426279D2*
X2257794Y3428711D1*
X2264979Y3435841D1*
X2264980Y3385656D1*
X2292356Y3435842D2*
X2285226Y3433465D1*
X2282795Y3428712D1*
Y3423903D1*
X2285227Y3419150D1*
X2289980Y3416719D1*
X2299542Y3414342D1*
X2306727Y3411966D1*
X2311480Y3407158D1*
X2313857Y3402404D1*
Y3395219D1*
X2311481Y3390466D1*
X2309104Y3388034D1*
X2301919Y3385657D1*
X2292358D1*
X2285228Y3388034D1*
X2282796Y3390465D1*
X2280419Y3395218D1*
Y3402403D1*
X2282795Y3407157D1*
X2287604Y3411965D1*
X2294733Y3414342D1*
X2304295Y3416719D1*
X2309103Y3419151D1*
X2311480Y3423904D1*
Y3428713D1*
X2309103Y3433466D1*
X2301918Y3435842D1*
X2292356D1*
X1568157Y921706D2*
X1565781Y926459D1*
X1560972Y931268D1*
X1556219Y933644D1*
X1546657D1*
X1541849Y931268D1*
X1537096Y926459D1*
X1534664Y921706D1*
X1532287Y914521D1*
Y902528D1*
X1534664Y895398D1*
X1537096Y890589D1*
X1541849Y885836D1*
X1546657Y883404D1*
X1556219D1*
X1560972Y885836D1*
X1565781Y890589D1*
X1568157Y895398D1*
X1583596Y924027D2*
X1588405Y926459D1*
X1595590Y933589D1*
Y883404D1*
X1642146Y916898D2*
X1639714Y909713D1*
X1634961Y904904D1*
X1627776Y902528D1*
X1625399D1*
X1618214Y904904D1*
X1613461Y909713D1*
X1611029Y916898D1*
Y919274D1*
X1613461Y926459D1*
X1618214Y931212D1*
X1625399Y933589D1*
X1627776D1*
X1634961Y931212D1*
X1639714Y926459D1*
X1642146Y916898D1*
Y904904D1*
X1639714Y892966D1*
X1634961Y885781D1*
X1627776Y883404D1*
X1623023D1*
X1615838Y885781D1*
X1613461Y890589D1*
X793203Y3579188D2*
X790826Y3583941D1*
X786018Y3588749D1*
X781264Y3591126D1*
X771703D1*
X766894Y3588749D1*
X762141Y3583941D1*
X759710Y3579187D1*
X757333Y3572002D1*
Y3560009D1*
X759710Y3552879D1*
X762142Y3548071D1*
X766895Y3543318D1*
X771704Y3540886D1*
X781265D1*
X786018Y3543318D1*
X790827Y3548071D1*
X793203Y3552880D1*
X811074Y3579133D2*
Y3581510D1*
X813450Y3586318D1*
X815827Y3588695D1*
X820635Y3591071D1*
X830197Y3591072D1*
X834950Y3588695D1*
X837327Y3586319D1*
X839759Y3581510D1*
Y3576757D1*
X837327Y3571948D1*
X832574Y3564819D1*
X808643Y3540886D1*
X842136Y3540887D1*
X871945Y3591072D2*
X864760Y3588696D1*
X859951Y3581510D1*
X857575Y3569572D1*
Y3562387D1*
X859952Y3550449D1*
X864760Y3543264D1*
X871945Y3540888D1*
X876699D1*
X883884Y3543264D1*
X888637Y3550450D1*
X891068Y3562388D1*
Y3569573D1*
X888636Y3581511D1*
X883883Y3588696D1*
X876698Y3591072D1*
X871945D1*
X888636Y3581511D2*
X859952Y3550449D1*
X853165Y1551626D2*
X850789Y1556380D1*
X845980Y1561188D1*
X841227Y1563564D1*
X831665D1*
X826857Y1561188D1*
X822104Y1556379D1*
X819672Y1551626D1*
X817296Y1544441D1*
Y1532447D1*
X819673Y1525318D1*
X822104Y1520509D1*
X826858Y1515756D1*
X831666Y1513324D1*
X841228D1*
X845981Y1515756D1*
X850789Y1520510D1*
X853166Y1525318D1*
X871036Y1551572D2*
Y1553948D1*
X873413Y1558757D1*
X875790Y1561133D1*
X880598Y1563510D1*
X890160D1*
X894913Y1561134D1*
X897289Y1558757D1*
X899721Y1553949D1*
Y1549195D1*
X897290Y1544387D1*
X892537Y1537257D1*
X868605Y1513325D1*
X902099Y1513326D1*
X917537Y1553949D2*
X922346Y1556381D1*
X929530Y1563511D1*
X929531Y1513326D1*
X1682135Y1041912D2*
Y991672D1*
X1698882D1*
X1706067Y994104D1*
X1710876Y998857D1*
X1713252Y1003666D1*
X1715629Y1010795D1*
Y1022789D1*
X1713252Y1029974D1*
X1710876Y1034727D1*
X1706067Y1039535D1*
X1698882Y1041912D1*
X1682135D1*
X1731068Y1032295D2*
X1735876Y1034727D1*
X1743061Y1041857D1*
Y991672D1*
X1641857Y2155084D2*
X1641858Y2104844D1*
X1658605Y2104845D1*
X1665790Y2107277D1*
X1670598Y2112030D1*
X1672975Y2116839D1*
X1675351Y2123969D1*
Y2135962D1*
X1672974Y2143147D1*
X1670597Y2147900D1*
X1665789Y2152708D1*
X1658603Y2155085D1*
X1641857Y2155084D1*
X1693222Y2143092D2*
X1693221Y2145469D1*
X1695598Y2150277D1*
X1697974Y2152654D1*
X1702783Y2155031D1*
X1712344D1*
X1717098Y2152655D1*
X1719474Y2150278D1*
X1721906Y2145470D1*
Y2140717D1*
X1719475Y2135908D1*
X1714722Y2128778D1*
X1690791Y2104846D1*
X1724284Y2104847D1*
X1238900Y1621646D2*
X1238903Y1571406D1*
X1255649Y1571407D1*
X1262834Y1573839D1*
X1267643Y1578593D1*
X1270019Y1583401D1*
X1272395Y1590531D1*
Y1602525D1*
X1270018Y1609710D1*
X1267641Y1614463D1*
X1262832Y1619271D1*
X1255647Y1621647D1*
X1238900Y1621646D1*
X1292641Y1621594D2*
X1318895Y1621595D1*
X1304581Y1602471D1*
X1311766D1*
X1316519Y1600095D1*
X1318896Y1597718D1*
X1321328Y1590533D1*
Y1585780D1*
X1318896Y1578595D1*
X1314143Y1573786D1*
X1306959Y1571409D1*
X1299773D1*
X1292644Y1573785D1*
X1290267Y1576217D1*
X1287835Y1580970D1*
X2256315Y853268D2*
X2306555Y853269D1*
Y870016D1*
X2304123Y877201D1*
X2299370Y882009D1*
X2294561Y884386D1*
X2287431Y886762D1*
X2275438D1*
X2268253Y884385D1*
X2263500Y882009D1*
X2258691Y877200D1*
X2256315Y870015D1*
Y853268D1*
X2306554Y926134D2*
X2256369Y926133D1*
X2289808Y902202D1*
X2289807Y938072D1*
X488459Y3960038D2*
D50*
X496153Y3963929D1*
X507649Y3975337D1*
Y3895041D1*
X2405026D2*
Y3975337D1*
X2378223Y3921836D1*
X2418397D1*
X2438413Y3956236D2*
Y3960038D1*
X2441075Y3967732D1*
X2443736Y3971534D1*
X2449122Y3975337D1*
X2459831D1*
X2465155Y3971534D1*
X2467816Y3967732D1*
X2470540Y3960038D1*
Y3952433D1*
X2467816Y3944740D1*
X2462493Y3933332D1*
X2435689Y3895041D1*
X2473202D1*
X1449255Y3821623D2*
D44*
Y3783377D1*
X1446878Y3776192D1*
X1444446Y3773815D1*
X1439693Y3771383D1*
X1434885D1*
X1430131Y3773815D1*
X1427755Y3776192D1*
X1425323Y3783377D1*
Y3788130D1*
X1464694Y3812006D2*
X1469502Y3814438D1*
X1476687Y3821568D1*
Y3771383D1*
X1556219Y849184D2*
Y810937D1*
X1553842Y803752D1*
X1551410Y801376D1*
X1546657Y798944D1*
X1541849D1*
X1537096Y801376D1*
X1534719Y803752D1*
X1532287Y810937D1*
Y815690D1*
X1574090Y837190D2*
Y839567D1*
X1576467Y844375D1*
X1578843Y846752D1*
X1583652Y849128D1*
X1593213D1*
X1597966Y846752D1*
X1600343Y844375D1*
X1602775Y839567D1*
Y834814D1*
X1600343Y830005D1*
X1595590Y822875D1*
X1571658Y798944D1*
X1605151D1*
X2115695Y1005811D2*
Y967564D1*
X2113319Y960379D1*
X2110887Y958003D1*
X2106133Y955571D1*
X2101325D1*
X2096572Y958003D1*
X2094195Y960379D1*
X2091763Y967564D1*
Y972318D1*
X2135943Y1005756D2*
X2162196D1*
X2147881Y986632D1*
X2155066D1*
X2159819Y984256D1*
X2162196Y981879D1*
X2164628Y974694D1*
Y969941D1*
X2162196Y962756D1*
X2157443Y957948D1*
X2150258Y955571D1*
X2143073D1*
X2135943Y957948D1*
X2133566Y960379D1*
X2131134Y965133D1*
X1743201Y3416113D2*
Y3377866D1*
X1740824Y3370681D1*
X1738393Y3368305D1*
X1733639Y3365873D1*
X1728831D1*
X1724078Y3368305D1*
X1721701Y3370681D1*
X1719269Y3377866D1*
Y3382620D1*
X1782572Y3365873D2*
Y3416058D1*
X1758640Y3382620D1*
X1794510D1*
X1380507Y1588762D2*
X1375754Y1586441D1*
X1370945Y1581633D1*
X1368569Y1576824D1*
X1366137Y1569639D1*
Y1557701D1*
X1368569Y1550516D1*
X1370945Y1545763D1*
X1375754Y1540954D1*
X1380507Y1538578D1*
X1390068D1*
X1394877Y1540954D1*
X1399630Y1545763D1*
X1402007Y1550516D1*
X1404438Y1557701D1*
Y1569639D1*
X1402007Y1576824D1*
X1399630Y1581633D1*
X1394877Y1586441D1*
X1390068Y1588762D1*
X1380507D1*
X1387692Y1548139D2*
X1402007Y1533769D1*
X1419878Y1579146D2*
X1424686Y1581577D1*
X1431871Y1588707D1*
Y1538522D1*
X1534498Y2131154D2*
X1555998Y2131155D1*
X1563183Y2133587D1*
X1565615Y2135963D1*
X1567991Y2140717D1*
Y2145525D1*
X1565614Y2150278D1*
X1563182Y2152710D1*
X1555997Y2155086D1*
X1534497D1*
X1534498Y2104846D1*
X1551245Y2131155D2*
X1567992Y2104847D1*
X1583430Y2145470D2*
X1588239Y2147902D1*
X1595423Y2155032D1*
X1595425Y2104847D1*
X2232993Y1099291D2*
X2254493D1*
X2261678Y1101723D1*
X2264110Y1104100D1*
X2266486Y1108853D1*
Y1113661D1*
X2264110Y1118415D1*
X2261678Y1120846D1*
X2254493Y1123223D1*
X2232993D1*
Y1072983D1*
X2249740Y1099291D2*
X2266486Y1072983D1*
X2284358Y1111230D2*
Y1113606D1*
X2286734Y1118415D1*
X2289111Y1120791D1*
X2293919Y1123168D1*
X2303481D1*
X2308234Y1120791D1*
X2310611Y1118415D1*
X2313042Y1113606D1*
Y1108853D1*
X2310611Y1104045D1*
X2305857Y1096915D1*
X2281926Y1072983D1*
X2315419D1*
X2232993Y1175461D2*
X2254493D1*
X2261678Y1177893D1*
X2264110Y1180269D1*
X2266486Y1185022D1*
Y1189831D1*
X2264110Y1194584D1*
X2261678Y1197016D1*
X2254493Y1199392D1*
X2232993D1*
Y1149152D1*
X2249740Y1175461D2*
X2266486Y1149152D1*
X2286734Y1199337D2*
X2312987D1*
X2298672Y1180214D1*
X2305857D1*
X2310611Y1177837D1*
X2312987Y1175461D1*
X2315419Y1168276D1*
Y1163522D1*
X2312987Y1156337D1*
X2308234Y1151529D1*
X2301049Y1149152D1*
X2293864D1*
X2286734Y1151529D1*
X2284358Y1153961D1*
X2281926Y1158714D1*
X2231805Y1246929D2*
X2253305D1*
X2260490Y1249361D1*
X2262922Y1251738D1*
X2265298Y1256491D1*
Y1261299D1*
X2262922Y1266052D1*
X2260490Y1268484D1*
X2253305Y1270861D1*
X2231805D1*
Y1220621D1*
X2248551Y1246929D2*
X2265298Y1220621D1*
X2304669D2*
Y1270806D1*
X2280737Y1237368D1*
X2316607D1*
X1014507Y3567193D2*
X1036007Y3567194D1*
X1043192Y3569626D1*
X1045624Y3572003D1*
X1048000Y3576756D1*
Y3581565D1*
X1045623Y3586318D1*
X1043191Y3588750D1*
X1036006Y3591126D1*
X1014506Y3591125D1*
X1014508Y3540885D1*
X1031254Y3567194D2*
X1048002Y3540886D1*
X1092124Y3591073D2*
X1068247Y3591072D1*
X1065872Y3569572D1*
X1068248Y3571949D1*
X1075433Y3574381D1*
X1082563D1*
X1089748Y3571949D1*
X1094557Y3567196D1*
X1096934Y3560012D1*
Y3555258D1*
X1094557Y3548073D1*
X1089749Y3543265D1*
X1082564Y3540888D1*
X1075434Y3540887D1*
X1068249Y3543264D1*
X1065873Y3545695D1*
X1063441Y3550449D1*
X1790711Y3537664D2*
X1812211Y3537665D1*
X1819396Y3540097D1*
X1821828Y3542474D1*
X1824204Y3547227D1*
Y3552035D1*
X1821827Y3556788D1*
X1819396Y3559220D1*
X1812210Y3561597D1*
X1790711Y3561596D1*
X1790712Y3511356D1*
X1807458Y3537665D2*
X1824205Y3511357D1*
X1868328Y3554413D2*
X1865952Y3559166D1*
X1858766Y3561543D1*
X1854013Y3561542D1*
X1846828Y3559166D1*
X1842020Y3551980D1*
X1839644Y3540042D1*
Y3528104D1*
X1842021Y3518542D1*
X1846829Y3513734D1*
X1854015Y3511358D1*
X1856391D1*
X1863521Y3513735D1*
X1868329Y3518543D1*
X1870706Y3525728D1*
X1870705Y3528105D1*
X1868329Y3535290D1*
X1863520Y3540043D1*
X1856390Y3542419D1*
X1854014D1*
X1846829Y3540042D1*
X1842020Y3535289D1*
X1839644Y3528104D1*
X1475122Y1492991D2*
X1496622Y1492992D1*
X1503807Y1495424D1*
X1506238Y1497801D1*
X1508615Y1502554D1*
Y1507362D1*
X1506238Y1512115D1*
X1503806Y1514547D1*
X1496621Y1516924D1*
X1475121Y1516923D1*
X1475123Y1466683D1*
X1491868Y1492992D2*
X1508616Y1466684D1*
X1533617Y1466685D2*
X1557547Y1516870D1*
X1524054Y1516869D1*
X1139920Y1438635D2*
X1161419Y1438636D1*
X1168604Y1441068D1*
X1171036Y1443445D1*
X1173412Y1448198D1*
Y1453006D1*
X1171036Y1457759D1*
X1168604Y1460191D1*
X1161418Y1462567D1*
X1139919D1*
X1139920Y1412327D1*
X1156666Y1438636D2*
X1173414Y1412328D1*
X1200789Y1462514D2*
X1193660Y1460137D1*
X1191228Y1455384D1*
Y1450575D1*
X1193660Y1445822D1*
X1198414Y1443390D1*
X1207975Y1441014D1*
X1215160Y1438638D1*
X1219914Y1433829D1*
X1222291Y1429076D1*
Y1421891D1*
X1219914Y1417138D1*
X1217538Y1414706D1*
X1210353Y1412329D1*
X1200791D1*
X1193661Y1414705D1*
X1191229Y1417137D1*
X1188853Y1421890D1*
X1188852Y1429075D1*
X1191229Y1433828D1*
X1196037Y1438637D1*
X1203167Y1441014D1*
X1212728Y1443391D1*
X1217537Y1445823D1*
X1219913Y1450576D1*
Y1455385D1*
X1217536Y1460138D1*
X1210351Y1462514D1*
X1200789D1*
X1010946Y1438636D2*
X1032446D1*
X1039631Y1441069D1*
X1042063Y1443445D1*
X1044439Y1448198D1*
Y1453007D1*
X1042063Y1457760D1*
X1039631Y1460192D1*
X1032446Y1462568D1*
X1010946D1*
X1010947Y1412328D1*
X1027693Y1438636D2*
X1044440Y1412328D1*
X1090995Y1445823D2*
X1088564Y1438638D1*
X1083811Y1433829D1*
X1076626Y1431453D1*
X1074249D1*
X1067064Y1433829D1*
X1062311Y1438637D1*
X1059879Y1445822D1*
Y1448199D1*
X1062310Y1455384D1*
X1067063Y1460137D1*
X1074248Y1462514D1*
X1076625D1*
X1083810Y1460138D1*
X1088563Y1455385D1*
X1090995Y1445823D1*
X1090996Y1433830D1*
X1088564Y1421891D1*
X1083811Y1414706D1*
X1076626Y1412329D1*
X1071873D1*
X1064688Y1414706D1*
X1062311Y1419514D1*
X2196435Y991722D2*
X2217935D1*
X2225120Y994154D1*
X2227552Y996531D1*
X2229928Y1001284D1*
Y1006092D1*
X2227552Y1010845D1*
X2225120Y1013277D1*
X2217935Y1015654D1*
X2196435Y1015653D1*
X2196436Y965413D1*
X2213182Y991722D2*
X2229929Y965414D1*
X2245368Y1006037D2*
X2250176Y1008469D1*
X2257361Y1015599D1*
X2257362Y965414D1*
X2287170Y1015600D2*
X2279985Y1013223D1*
X2275177Y1006038D1*
X2272801Y994100D1*
Y986915D1*
X2275177Y974976D1*
X2279986Y967791D1*
X2287171Y965415D1*
X2291924D1*
X2299109Y967792D1*
X2303862Y974977D1*
X2306294Y986915D1*
Y994100D1*
X2303862Y1006038D1*
X2299108Y1013223D1*
X2291923Y1015600D1*
X2287170D1*
X2303862Y1006038D2*
X2275177Y974976D1*
X1878986Y2779916D2*
Y2744046D1*
X1881362Y2736861D1*
X1886171Y2732108D1*
X1893356Y2729676D1*
X1898109D1*
X1905294Y2732108D1*
X1910103Y2736861D1*
X1912479Y2744046D1*
Y2779916D1*
X1927918Y2770299D2*
X1932727Y2772731D1*
X1939912Y2779861D1*
Y2729676D1*
X1005244Y2225979D2*
Y2190109D1*
X1007620Y2182924D1*
X1012429Y2178171D1*
X1019614Y2175739D1*
X1024367D1*
X1031552Y2178171D1*
X1036360Y2182924D1*
X1038737Y2190109D1*
Y2225979D1*
X1056608Y2213985D2*
Y2216362D1*
X1058985Y2221171D1*
X1061361Y2223547D1*
X1066170Y2225924D1*
X1075731D1*
X1080485Y2223547D1*
X1082861Y2221171D1*
X1085293Y2216362D1*
Y2211609D1*
X1082861Y2206800D1*
X1078108Y2199671D1*
X1054176Y2175739D1*
X1087670D1*
X982409Y2439550D2*
Y2403680D1*
X984786Y2396495D1*
X989594Y2391742D1*
X996779Y2389310D1*
X1001532D1*
X1008717Y2391742D1*
X1013526Y2396495D1*
X1015902Y2403680D1*
Y2439550D1*
X1036150Y2439495D2*
X1062403D1*
X1048088Y2420371D1*
X1055273D1*
X1060027Y2417995D1*
X1062403Y2415618D1*
X1064835Y2408433D1*
Y2403680D1*
X1062403Y2396495D1*
X1057650Y2391686D1*
X1050465Y2389310D1*
X1043280D1*
X1036150Y2391686D1*
X1033774Y2394118D1*
X1031342Y2398871D1*
X1394607Y2598803D2*
Y2562933D1*
X1396983Y2555748D1*
X1401792Y2550995D1*
X1408977Y2548563D1*
X1413730D1*
X1420915Y2550995D1*
X1425723Y2555748D1*
X1428100Y2562933D1*
Y2598803D1*
X1467471Y2548563D2*
Y2598748D1*
X1443539Y2565310D1*
X1479409D1*
X765874Y3078710D2*
Y3042840D1*
X768250Y3035655D1*
X773059Y3030902D1*
X780244Y3028470D1*
X784997D1*
X792182Y3030902D1*
X796990Y3035655D1*
X799367Y3042840D1*
Y3078710D1*
X843491Y3078655D2*
X819615D1*
X817238Y3057155D1*
X819615Y3059531D1*
X826800Y3061963D1*
X833929D1*
X841115Y3059531D1*
X845923Y3054778D1*
X848300Y3047593D1*
Y3042840D1*
X845923Y3035655D1*
X841115Y3030847D1*
X833929Y3028470D1*
X826800D1*
X819615Y3030847D1*
X817238Y3033278D1*
X814806Y3038032D1*
X1091893Y3078710D2*
Y3042840D1*
X1094269Y3035655D1*
X1099078Y3030902D1*
X1106263Y3028470D1*
X1111016D1*
X1118201Y3030902D1*
X1123009Y3035655D1*
X1125386Y3042840D1*
Y3078710D1*
X1169510Y3071525D2*
X1167134Y3076278D1*
X1159949Y3078655D1*
X1155195D1*
X1148010Y3076278D1*
X1143202Y3069093D1*
X1140825Y3057155D1*
Y3045217D1*
X1143202Y3035655D1*
X1148010Y3030847D1*
X1155195Y3028470D1*
X1157572D1*
X1164702Y3030847D1*
X1169510Y3035655D1*
X1171887Y3042840D1*
Y3045217D1*
X1169510Y3052402D1*
X1164702Y3057155D1*
X1157572Y3059531D1*
X1155195D1*
X1148010Y3057155D1*
X1143202Y3052402D1*
X1140825Y3045217D1*
X1415480Y3078710D2*
Y3042840D1*
X1417857Y3035655D1*
X1422665Y3030902D1*
X1429850Y3028470D1*
X1434603D1*
X1441788Y3030902D1*
X1446597Y3035655D1*
X1448973Y3042840D1*
Y3078710D1*
X1473974Y3028470D2*
X1497906Y3078655D1*
X1464413D1*
X2055270Y3797633D2*
X2055271Y3761763D1*
X2057648Y3754578D1*
X2062456Y3749825D1*
X2069641Y3747393D1*
X2074394D1*
X2081579Y3749825D1*
X2086388Y3754579D1*
X2088764Y3761764D1*
X2088763Y3797634D1*
X2116141Y3797579D2*
X2109011Y3795202D1*
X2106579Y3790449D1*
X2106580Y3785641D1*
X2109012Y3780887D1*
X2113765Y3778456D1*
X2123326Y3776079D1*
X2130512Y3773703D1*
X2135265Y3768895D1*
X2137642Y3764141D1*
Y3756956D1*
X2135265Y3752203D1*
X2132889Y3749771D1*
X2125704Y3747394D1*
X2116142D1*
X2109012Y3749771D1*
X2106580Y3752203D1*
X2104204Y3756956D1*
X2104203Y3764141D1*
X2106580Y3768894D1*
X2111388Y3773702D1*
X2118518Y3776079D1*
X2128080Y3778456D1*
X2132888Y3780888D1*
X2135264Y3785641D1*
Y3790450D1*
X2132888Y3795203D1*
X2125703Y3797579D1*
X2116141D1*
M02*
