G04 DipTrace 4.3.0.5*
G04 TopSilk.gbr*
%MOIN*%
G04 #@! TF.FileFunction,Legend,Top*
G04 #@! TF.Part,Single*
%ADD10C,0.004724*%
%ADD19C,0.019685*%
%ADD20C,0.003937*%
%ADD48C,0.00772*%
%ADD49C,0.019685*%
%ADD50C,0.015439*%
%ADD51C,0.016983*%
%ADD52C,0.009264*%
%ADD53C,0.013123*%
%ADD54C,0.006176*%
%ADD55C,0.004632*%
%ADD56C,0.012351*%
%FSLAX26Y26*%
G04*
G70*
G90*
G75*
G01*
G04 TopSilk*
%LPD*%
G36*
X1870087Y2268504D2*
X1871371Y2268420D1*
X1872634Y2268169D1*
X1873853Y2267755D1*
X1875008Y2267185D1*
X1876078Y2266470D1*
X1877046Y2265621D1*
X1877895Y2264653D1*
X1878611Y2263583D1*
X1879180Y2262428D1*
X1879594Y2261209D1*
X1879845Y2259946D1*
X1879929Y2258661D1*
X1879845Y2257377D1*
X1879594Y2256114D1*
X1879180Y2254895D1*
X1878611Y2253740D1*
X1877895Y2252670D1*
X1877046Y2251702D1*
X1876078Y2250853D1*
X1875008Y2250138D1*
X1873853Y2249568D1*
X1872634Y2249154D1*
X1871371Y2248903D1*
X1870087Y2248819D1*
D1*
X1868802Y2248903D1*
X1867539Y2249154D1*
X1866320Y2249568D1*
X1865165Y2250138D1*
X1864095Y2250853D1*
X1863127Y2251702D1*
X1862278Y2252670D1*
X1861563Y2253740D1*
X1860993Y2254895D1*
X1860580Y2256114D1*
X1860328Y2257377D1*
X1860244Y2258661D1*
X1860328Y2259946D1*
X1860580Y2261209D1*
X1860993Y2262428D1*
X1861563Y2263583D1*
X1862278Y2264653D1*
X1863127Y2265621D1*
X1864095Y2266470D1*
X1865165Y2267185D1*
X1866320Y2267755D1*
X1867539Y2268169D1*
X1868802Y2268420D1*
X1870087Y2268504D1*
D1*
G37*
X1950795Y2049016D2*
D10*
Y2079528D1*
X1789378Y2049016D2*
Y2079528D1*
X1950795Y1436024D2*
Y1342913D1*
X1789378Y1436024D2*
Y1342913D1*
X1950795D2*
X1926386D1*
X1813787D2*
X1789378D1*
Y2049016D2*
G03X1789378Y1436024I80708J-306496D01*
G01*
X1950795D2*
G03X1950795Y2049016I-80710J306496D01*
G01*
X1454732Y1711811D2*
Y1693701D1*
X1419299Y1711811D2*
Y1693701D1*
X799614Y2777559D2*
X755520D1*
X799614Y2852362D2*
X755520D1*
X799614Y2875984D2*
X755520D1*
X799614Y2950787D2*
X755520D1*
X757094Y2718504D2*
X738984D1*
X757094Y2753937D2*
X738984D1*
X1031503Y2659843D2*
X1031505Y2615749D1*
X956700Y2659842D2*
X956701Y2615747D1*
X885047Y2590551D2*
X866937D1*
X885047Y2625984D2*
X866937D1*
X1606307Y2438583D2*
Y2482677D1*
X1681110Y2438583D2*
Y2482677D1*
X1547252Y2481102D2*
Y2499213D1*
X1582685Y2481102D2*
Y2499213D1*
X2275599Y2185826D2*
X2275598Y2203937D1*
X2311032Y2185827D2*
X2311031Y2203937D1*
X1772449Y2507874D2*
X1790559D1*
X1772449Y2472441D2*
X1790559D1*
X2275599Y2323622D2*
X2275598Y2341732D1*
X2311032Y2323622D2*
X2311031Y2341733D1*
X1772449Y2557087D2*
X1790559D1*
X1772449Y2521654D2*
X1790559D1*
X2059063Y2146457D2*
Y2164567D1*
X2094496Y2146457D2*
Y2164567D1*
X2124024Y2902756D2*
Y2884646D1*
X2088591Y2902756D2*
Y2884646D1*
X1281504Y3376772D2*
Y3394882D1*
X1316937Y3376772D2*
Y3394882D1*
X956701Y3376772D2*
Y3394882D1*
X992134Y3376772D2*
Y3394882D1*
X622055Y3376772D2*
Y3394882D1*
X657488Y3376772D2*
Y3394882D1*
X2254732Y3482283D2*
X2272842Y3482284D1*
X2254733Y3446850D2*
X2272843Y3446851D1*
X1582685Y1012992D2*
Y994882D1*
X1547252Y1012992D2*
Y994882D1*
X907488Y3553937D2*
Y3572047D1*
X942921Y3553937D2*
Y3572048D1*
X956701Y1526378D2*
Y1544488D1*
X992134Y1526378D2*
Y1544489D1*
X1652764Y1049213D2*
X1660638D1*
Y978346D1*
X1652764D1*
X1614969Y1049213D2*
X1607094D1*
Y978346D1*
X1614969D1*
G36*
X1633866Y1093307D2*
X1635151Y1093223D1*
X1636414Y1092972D1*
X1637633Y1092558D1*
X1638787Y1091988D1*
X1639858Y1091273D1*
X1640826Y1090424D1*
X1641675Y1089456D1*
X1642390Y1088386D1*
X1642959Y1087231D1*
X1643373Y1086012D1*
X1643624Y1084749D1*
X1643709Y1083465D1*
X1643624Y1082180D1*
X1643373Y1080917D1*
X1642959Y1079698D1*
X1642390Y1078543D1*
X1641675Y1077473D1*
X1640826Y1076505D1*
X1639858Y1075656D1*
X1638787Y1074941D1*
X1637633Y1074371D1*
X1636414Y1073957D1*
X1635151Y1073706D1*
X1633866Y1073622D1*
D1*
X1632581Y1073706D1*
X1631319Y1073957D1*
X1630100Y1074371D1*
X1628945Y1074941D1*
X1627874Y1075656D1*
X1626906Y1076505D1*
X1626058Y1077473D1*
X1625342Y1078543D1*
X1624773Y1079698D1*
X1624359Y1080917D1*
X1624108Y1082180D1*
X1624024Y1083465D1*
X1624108Y1084749D1*
X1624359Y1086012D1*
X1624773Y1087231D1*
X1625342Y1088386D1*
X1626058Y1089456D1*
X1626906Y1090424D1*
X1627874Y1091273D1*
X1628945Y1091988D1*
X1630100Y1092558D1*
X1631319Y1092972D1*
X1632581Y1093223D1*
X1633866Y1093307D1*
D1*
G37*
X1647645Y2223621D2*
D10*
Y2231495D1*
X1718511Y2231497D1*
Y2223623D1*
X1647646Y2185826D2*
Y2177952D1*
X1718513Y2177954D1*
X1718512Y2185828D1*
G36*
X1603551Y2204722D2*
X1603635Y2206007D1*
X1603886Y2207270D1*
X1604300Y2208489D1*
X1604870Y2209644D1*
X1605585Y2210714D1*
X1606434Y2211682D1*
X1607402Y2212531D1*
X1608472Y2213246D1*
X1609627Y2213816D1*
X1610846Y2214230D1*
X1612109Y2214481D1*
X1613393Y2214565D1*
X1614678Y2214481D1*
X1615941Y2214230D1*
X1617160Y2213816D1*
X1618315Y2213247D1*
X1619385Y2212531D1*
X1620353Y2211683D1*
X1621202Y2210715D1*
X1621917Y2209644D1*
X1622487Y2208489D1*
X1622901Y2207270D1*
X1623152Y2206008D1*
X1623236Y2204723D1*
D1*
X1623152Y2203438D1*
X1622901Y2202175D1*
X1622487Y2200956D1*
X1621918Y2199802D1*
X1621202Y2198731D1*
X1620354Y2197763D1*
X1619386Y2196914D1*
X1618315Y2196199D1*
X1617161Y2195629D1*
X1615941Y2195216D1*
X1614679Y2194964D1*
X1613394Y2194880D1*
X1612109Y2194964D1*
X1610847Y2195215D1*
X1609627Y2195629D1*
X1608473Y2196199D1*
X1607402Y2196914D1*
X1606434Y2197763D1*
X1605585Y2198731D1*
X1604870Y2199801D1*
X1604301Y2200956D1*
X1603887Y2202175D1*
X1603635Y2203438D1*
X1603551Y2204722D1*
D1*
G37*
X1135834Y1593700D2*
D10*
X1135833Y1601574D1*
X1206700Y1601577D1*
Y1593703D1*
X1135835Y1555904D2*
X1135836Y1548030D1*
X1206702Y1548033D1*
Y1555907D1*
G36*
X1091740Y1574800D2*
X1091824Y1576085D1*
X1092075Y1577347D1*
X1092489Y1578567D1*
X1093059Y1579721D1*
X1093774Y1580792D1*
X1094623Y1581760D1*
X1095591Y1582609D1*
X1096661Y1583324D1*
X1097816Y1583894D1*
X1099035Y1584308D1*
X1100298Y1584559D1*
X1101582Y1584643D1*
X1102867Y1584559D1*
X1104130Y1584308D1*
X1105349Y1583894D1*
X1106504Y1583325D1*
X1107574Y1582609D1*
X1108542Y1581761D1*
X1109391Y1580793D1*
X1110106Y1579722D1*
X1110676Y1578567D1*
X1111090Y1577348D1*
X1111341Y1576086D1*
X1111425Y1574801D1*
D1*
X1111341Y1573516D1*
X1111090Y1572253D1*
X1110676Y1571034D1*
X1110107Y1569880D1*
X1109392Y1568809D1*
X1108543Y1567841D1*
X1107575Y1566992D1*
X1106504Y1566277D1*
X1105350Y1565707D1*
X1104131Y1565293D1*
X1102868Y1565042D1*
X1101583Y1564958D1*
X1100298Y1565042D1*
X1099036Y1565293D1*
X1097817Y1565707D1*
X1096662Y1566276D1*
X1095591Y1566992D1*
X1094623Y1567840D1*
X1093774Y1568808D1*
X1093059Y1569879D1*
X1092490Y1571034D1*
X1092076Y1572253D1*
X1091824Y1573515D1*
X1091740Y1574800D1*
D1*
G37*
X2258276Y780315D2*
D20*
X2229930D1*
X2258275Y833859D2*
X2229929Y833858D1*
X2300008Y783859D2*
X2300007Y830316D1*
X393701Y4133681D2*
D10*
Y3848248D1*
X2519701D1*
Y4133681D1*
X393701D1*
X1449824Y750463D2*
G03X1514462Y815932I2939J61741D01*
G01*
G36*
X1541740Y1112205D2*
X1541656Y1110920D1*
X1541405Y1109657D1*
X1540991Y1108438D1*
X1540422Y1107283D1*
X1539706Y1106213D1*
X1538858Y1105245D1*
X1537890Y1104396D1*
X1536819Y1103681D1*
X1535664Y1103111D1*
X1534445Y1102698D1*
X1533183Y1102446D1*
X1531898Y1102362D1*
X1530613Y1102446D1*
X1529350Y1102698D1*
X1528131Y1103111D1*
X1526977Y1103681D1*
X1525906Y1104396D1*
X1524938Y1105245D1*
X1524089Y1106213D1*
X1523374Y1107283D1*
X1522805Y1108438D1*
X1522391Y1109657D1*
X1522140Y1110920D1*
X1522055Y1112205D1*
D1*
X1522140Y1113489D1*
X1522391Y1114752D1*
X1522805Y1115971D1*
X1523374Y1117126D1*
X1524089Y1118196D1*
X1524938Y1119164D1*
X1525906Y1120013D1*
X1526977Y1120729D1*
X1528131Y1121298D1*
X1529350Y1121712D1*
X1530613Y1121963D1*
X1531898Y1122047D1*
X1533183Y1121963D1*
X1534445Y1121712D1*
X1535664Y1121298D1*
X1536819Y1120729D1*
X1537890Y1120013D1*
X1538858Y1119164D1*
X1539706Y1118196D1*
X1540422Y1117126D1*
X1540991Y1115971D1*
X1541405Y1114752D1*
X1541656Y1113489D1*
X1541740Y1112205D1*
D1*
G37*
X690235Y815144D2*
D10*
G03X755704Y750507I61741J-2939D01*
G01*
X754916Y1473946D2*
G03X690278Y1408478I-2939J-61741D01*
G01*
X1449824Y750394D2*
X755717D1*
X689969Y815144D2*
Y1408465D1*
X754916Y1474016D2*
X1435047D1*
X1514969Y1394094D1*
X1514772D2*
Y815945D1*
X881505Y874803D2*
X815756D1*
Y941340D1*
Y1283070D2*
Y1304331D1*
X737016Y1383071D1*
X783473Y1429528D1*
X862213Y1349606D1*
X881505D1*
X1323235Y1340409D2*
X1379684Y1283070D1*
X1388984Y941340D2*
Y920079D1*
X1467725Y841339D1*
X1421268Y794882D1*
X1342528Y874803D1*
X1323235D1*
X2073631Y775591D2*
X1735440D1*
G36*
X1764772Y954724D2*
X1764687Y953440D1*
X1764436Y952177D1*
X1764022Y950958D1*
X1763453Y949803D1*
X1762738Y948733D1*
X1761889Y947765D1*
X1760921Y946916D1*
X1759850Y946201D1*
X1758696Y945631D1*
X1757477Y945217D1*
X1756214Y944966D1*
X1754929Y944882D1*
X1753644Y944966D1*
X1752382Y945217D1*
X1751163Y945631D1*
X1750008Y946201D1*
X1748937Y946916D1*
X1747969Y947765D1*
X1747121Y948733D1*
X1746405Y949803D1*
X1745836Y950958D1*
X1745422Y952177D1*
X1745171Y953440D1*
X1745087Y954724D1*
D1*
X1745171Y956009D1*
X1745422Y957272D1*
X1745836Y958491D1*
X1746405Y959646D1*
X1747121Y960716D1*
X1747969Y961684D1*
X1748937Y962533D1*
X1750008Y963248D1*
X1751163Y963818D1*
X1752382Y964232D1*
X1753644Y964483D1*
X1754929Y964567D1*
X1756214Y964483D1*
X1757477Y964232D1*
X1758696Y963818D1*
X1759850Y963248D1*
X1760921Y962533D1*
X1761889Y961684D1*
X1762738Y960716D1*
X1763453Y959646D1*
X1764022Y958491D1*
X1764436Y957272D1*
X1764687Y956009D1*
X1764772Y954724D1*
D1*
G37*
X1692921Y879133D2*
D10*
Y935039D1*
X1762608D1*
X2046463D2*
X2116150D1*
Y879133D1*
X2191741Y3246063D2*
X1853550D1*
G36*
X1882882Y3425197D2*
X1882798Y3423912D1*
X1882547Y3422649D1*
X1882133Y3421430D1*
X1881563Y3420276D1*
X1880848Y3419205D1*
X1879999Y3418237D1*
X1879031Y3417388D1*
X1877961Y3416673D1*
X1876806Y3416104D1*
X1875587Y3415690D1*
X1874324Y3415439D1*
X1873039Y3415354D1*
X1871755Y3415439D1*
X1870492Y3415690D1*
X1869273Y3416104D1*
X1868118Y3416673D1*
X1867048Y3417388D1*
X1866080Y3418237D1*
X1865231Y3419205D1*
X1864515Y3420276D1*
X1863946Y3421430D1*
X1863532Y3422649D1*
X1863281Y3423912D1*
X1863197Y3425197D1*
D1*
X1863281Y3426482D1*
X1863532Y3427744D1*
X1863946Y3428963D1*
X1864515Y3430118D1*
X1865231Y3431189D1*
X1866080Y3432157D1*
X1867048Y3433005D1*
X1868118Y3433721D1*
X1869273Y3434290D1*
X1870492Y3434704D1*
X1871755Y3434955D1*
X1873039Y3435039D1*
X1874324Y3434955D1*
X1875587Y3434704D1*
X1876806Y3434290D1*
X1877961Y3433721D1*
X1879031Y3433005D1*
X1879999Y3432157D1*
X1880848Y3431189D1*
X1881563Y3430118D1*
X1882133Y3428963D1*
X1882547Y3427744D1*
X1882798Y3426482D1*
X1882882Y3425197D1*
D1*
G37*
X1811031Y3349605D2*
D10*
Y3405512D1*
X1880718D1*
X2164573D2*
X2234260D1*
Y3349605D1*
X1272449Y1498819D2*
Y1472441D1*
X1325992D1*
X1272449Y1532677D2*
Y1559055D1*
X1325992D1*
G36*
X1343315Y1455906D2*
X1342030Y1455990D1*
X1340768Y1456241D1*
X1339548Y1456655D1*
X1338394Y1457224D1*
X1337323Y1457939D1*
X1336355Y1458788D1*
X1335506Y1459756D1*
X1334791Y1460827D1*
X1334222Y1461981D1*
X1333808Y1463201D1*
X1333557Y1464463D1*
X1333472Y1465748D1*
X1333557Y1467033D1*
X1333808Y1468295D1*
X1334222Y1469515D1*
X1334791Y1470669D1*
X1335506Y1471740D1*
X1336355Y1472708D1*
X1337323Y1473557D1*
X1338394Y1474272D1*
X1339548Y1474841D1*
X1340768Y1475255D1*
X1342030Y1475506D1*
X1343315Y1475591D1*
D1*
X1344600Y1475506D1*
X1345862Y1475255D1*
X1347082Y1474841D1*
X1348236Y1474272D1*
X1349307Y1473557D1*
X1350275Y1472708D1*
X1351124Y1471740D1*
X1351839Y1470669D1*
X1352408Y1469515D1*
X1352822Y1468295D1*
X1353073Y1467033D1*
X1353157Y1465748D1*
X1353073Y1464463D1*
X1352822Y1463201D1*
X1352408Y1461981D1*
X1351839Y1460827D1*
X1351124Y1459756D1*
X1350275Y1458788D1*
X1349307Y1457939D1*
X1348236Y1457224D1*
X1347082Y1456655D1*
X1345862Y1456241D1*
X1344600Y1455990D1*
X1343315Y1455906D1*
D1*
G37*
X1571662Y2187008D2*
D10*
X1558276D1*
X1571661Y2222441D2*
X1558275D1*
X2168512Y1129921D2*
X2181898D1*
X2168512Y1094488D2*
X2181898D1*
X2168512Y1188976D2*
X2181898D1*
X2168512Y1153543D2*
X2181898D1*
X2168512Y1248031D2*
X2181898D1*
X2168512Y1212598D2*
X2181898D1*
X992134Y3569686D2*
Y3556300D1*
X956701Y3569684D2*
Y3556298D1*
X1848433Y3628741D2*
Y3615355D1*
X1813000Y3628740D2*
Y3615354D1*
X1410637Y1513779D2*
X1424023Y1513780D1*
X1410638Y1478346D2*
X1424024Y1478347D1*
X1187804Y1488189D2*
X1174418D1*
X1187802Y1523622D2*
X1174417D1*
X1051189Y1542126D2*
Y1528741D1*
X1015756Y1542126D2*
Y1528740D1*
X2187016Y898819D2*
Y912204D1*
X2222449Y898819D2*
Y912205D1*
X2202764Y3520472D2*
Y3507087D1*
X2167331Y3520472D2*
Y3507087D1*
G36*
X1923236Y2704724D2*
X1923304Y2705752D1*
X1923505Y2706762D1*
X1923836Y2707738D1*
X1924291Y2708661D1*
X1924863Y2709518D1*
X1925542Y2710292D1*
X1926317Y2710971D1*
X1927173Y2711544D1*
X1928097Y2711999D1*
X1929072Y2712330D1*
X1930082Y2712531D1*
X1931110Y2712598D1*
X1932138Y2712531D1*
X1933148Y2712330D1*
X1934123Y2711999D1*
X1935047Y2711544D1*
X1935904Y2710971D1*
X1936678Y2710292D1*
X1937357Y2709518D1*
X1937929Y2708661D1*
X1938385Y2707738D1*
X1938716Y2706762D1*
X1938917Y2705752D1*
X1938984Y2704724D1*
D1*
X1938917Y2703697D1*
X1938716Y2702686D1*
X1938385Y2701711D1*
X1937929Y2700787D1*
X1937357Y2699931D1*
X1936678Y2699157D1*
X1935904Y2698478D1*
X1935047Y2697905D1*
X1934123Y2697450D1*
X1933148Y2697119D1*
X1932138Y2696918D1*
X1931110Y2696850D1*
X1930082Y2696918D1*
X1929072Y2697119D1*
X1928097Y2697450D1*
X1927173Y2697905D1*
X1926317Y2698478D1*
X1925542Y2699157D1*
X1924863Y2699931D1*
X1924291Y2700787D1*
X1923836Y2701711D1*
X1923505Y2702686D1*
X1923304Y2703697D1*
X1923236Y2704724D1*
D1*
G37*
X1388591Y1720472D2*
D10*
X1391740D1*
Y2059055D1*
X1388591D1*
X698039Y1720472D2*
X694890D1*
Y2059055D1*
X698039D1*
G36*
X1405913Y2135039D2*
X1405829Y2133755D1*
X1405578Y2132492D1*
X1405164Y2131273D1*
X1404595Y2130118D1*
X1403879Y2129048D1*
X1403031Y2128080D1*
X1402063Y2127231D1*
X1400992Y2126515D1*
X1399837Y2125946D1*
X1398618Y2125532D1*
X1397356Y2125281D1*
X1396071Y2125197D1*
X1394786Y2125281D1*
X1393523Y2125532D1*
X1392304Y2125946D1*
X1391150Y2126515D1*
X1390079Y2127231D1*
X1389111Y2128080D1*
X1388262Y2129048D1*
X1387547Y2130118D1*
X1386978Y2131273D1*
X1386564Y2132492D1*
X1386313Y2133755D1*
X1386228Y2135039D1*
D1*
X1386313Y2136324D1*
X1386564Y2137587D1*
X1386978Y2138806D1*
X1387547Y2139961D1*
X1388262Y2141031D1*
X1389111Y2141999D1*
X1390079Y2142848D1*
X1391150Y2143563D1*
X1392304Y2144133D1*
X1393523Y2144547D1*
X1394786Y2144798D1*
X1396071Y2144882D1*
X1397356Y2144798D1*
X1398618Y2144547D1*
X1399837Y2144133D1*
X1400992Y2143563D1*
X1402063Y2142848D1*
X1403031Y2141999D1*
X1403879Y2141031D1*
X1404595Y2139961D1*
X1405164Y2138806D1*
X1405578Y2137587D1*
X1405829Y2136324D1*
X1405913Y2135039D1*
D1*
G37*
X898039Y2338583D2*
D10*
X958669D1*
Y2484252D1*
X944102D1*
X755520Y2338583D2*
X694890D1*
Y2484252D1*
X709457D1*
G36*
X961425Y2555512D2*
X961341Y2554227D1*
X961090Y2552964D1*
X960676Y2551745D1*
X960107Y2550591D1*
X959391Y2549520D1*
X958542Y2548552D1*
X957574Y2547703D1*
X956504Y2546988D1*
X955349Y2546419D1*
X954130Y2546005D1*
X952867Y2545753D1*
X951583Y2545669D1*
X950298Y2545753D1*
X949035Y2546005D1*
X947816Y2546419D1*
X946661Y2546988D1*
X945591Y2547703D1*
X944623Y2548552D1*
X943774Y2549520D1*
X943059Y2550591D1*
X942489Y2551745D1*
X942076Y2552964D1*
X941824Y2554227D1*
X941740Y2555512D1*
D1*
X941824Y2556797D1*
X942076Y2558059D1*
X942489Y2559278D1*
X943059Y2560433D1*
X943774Y2561504D1*
X944623Y2562472D1*
X945591Y2563320D1*
X946661Y2564036D1*
X947816Y2564605D1*
X949035Y2565019D1*
X950298Y2565270D1*
X951583Y2565354D1*
X952867Y2565270D1*
X954130Y2565019D1*
X955349Y2564605D1*
X956504Y2564036D1*
X957574Y2563320D1*
X958542Y2562472D1*
X959391Y2561504D1*
X960107Y2560433D1*
X960676Y2559278D1*
X961090Y2558059D1*
X961341Y2556797D1*
X961425Y2555512D1*
D1*
G37*
X1470480Y2529528D2*
D10*
X1403551D1*
X1470480Y2411417D2*
X1403551D1*
G36*
X1375205Y2544094D2*
X1376489Y2544010D1*
X1377752Y2543759D1*
X1378971Y2543345D1*
X1380126Y2542776D1*
X1381196Y2542061D1*
X1382164Y2541212D1*
X1383013Y2540244D1*
X1383729Y2539173D1*
X1384298Y2538019D1*
X1384712Y2536799D1*
X1384963Y2535537D1*
X1385047Y2534252D1*
X1384963Y2532967D1*
X1384712Y2531705D1*
X1384298Y2530485D1*
X1383729Y2529331D1*
X1383013Y2528260D1*
X1382164Y2527292D1*
X1381196Y2526443D1*
X1380126Y2525728D1*
X1378971Y2525159D1*
X1377752Y2524745D1*
X1376489Y2524494D1*
X1375205Y2524409D1*
D1*
X1373920Y2524494D1*
X1372657Y2524745D1*
X1371438Y2525159D1*
X1370283Y2525728D1*
X1369213Y2526443D1*
X1368245Y2527292D1*
X1367396Y2528260D1*
X1366681Y2529331D1*
X1366111Y2530485D1*
X1365698Y2531705D1*
X1365446Y2532967D1*
X1365362Y2534252D1*
X1365446Y2535537D1*
X1365698Y2536799D1*
X1366111Y2538019D1*
X1366681Y2539173D1*
X1367396Y2540244D1*
X1368245Y2541212D1*
X1369213Y2542061D1*
X1370283Y2542776D1*
X1371438Y2543345D1*
X1372657Y2543759D1*
X1373920Y2544010D1*
X1375205Y2544094D1*
D1*
G37*
X900008Y3161417D2*
D10*
X933079D1*
Y3374016D1*
X900008D1*
X714181Y3161417D2*
X681110D1*
Y3374016D1*
X714181D1*
G36*
X917331Y3422047D2*
X917247Y3420763D1*
X916995Y3419500D1*
X916581Y3418281D1*
X916012Y3417126D1*
X915297Y3416055D1*
X914448Y3415088D1*
X913480Y3414239D1*
X912409Y3413523D1*
X911255Y3412954D1*
X910036Y3412540D1*
X908773Y3412289D1*
X907488Y3412205D1*
X906203Y3412289D1*
X904941Y3412540D1*
X903722Y3412954D1*
X902567Y3413523D1*
X901496Y3414239D1*
X900528Y3415088D1*
X899680Y3416055D1*
X898964Y3417126D1*
X898395Y3418281D1*
X897981Y3419500D1*
X897730Y3420763D1*
X897646Y3422047D1*
D1*
X897730Y3423332D1*
X897981Y3424595D1*
X898395Y3425814D1*
X898964Y3426969D1*
X899680Y3428039D1*
X900528Y3429007D1*
X901496Y3429856D1*
X902567Y3430571D1*
X903722Y3431141D1*
X904941Y3431554D1*
X906203Y3431806D1*
X907488Y3431890D1*
X908773Y3431806D1*
X910036Y3431554D1*
X911255Y3431141D1*
X912409Y3430571D1*
X913480Y3429856D1*
X914448Y3429007D1*
X915297Y3428039D1*
X916012Y3426969D1*
X916581Y3425814D1*
X916995Y3424595D1*
X917247Y3423332D1*
X917331Y3422047D1*
D1*
G37*
X1224811Y3161417D2*
D10*
X1257882D1*
Y3374016D1*
X1224811D1*
X1038984Y3161417D2*
X1005913D1*
Y3374016D1*
X1038984D1*
G36*
X1242134Y3422047D2*
X1242050Y3420763D1*
X1241798Y3419500D1*
X1241385Y3418281D1*
X1240815Y3417126D1*
X1240100Y3416055D1*
X1239251Y3415088D1*
X1238283Y3414239D1*
X1237213Y3413523D1*
X1236058Y3412954D1*
X1234839Y3412540D1*
X1233576Y3412289D1*
X1232291Y3412205D1*
X1231007Y3412289D1*
X1229744Y3412540D1*
X1228525Y3412954D1*
X1227370Y3413523D1*
X1226300Y3414239D1*
X1225332Y3415088D1*
X1224483Y3416055D1*
X1223767Y3417126D1*
X1223198Y3418281D1*
X1222784Y3419500D1*
X1222533Y3420763D1*
X1222449Y3422047D1*
D1*
X1222533Y3423332D1*
X1222784Y3424595D1*
X1223198Y3425814D1*
X1223767Y3426969D1*
X1224483Y3428039D1*
X1225332Y3429007D1*
X1226300Y3429856D1*
X1227370Y3430571D1*
X1228525Y3431141D1*
X1229744Y3431554D1*
X1231007Y3431806D1*
X1232291Y3431890D1*
X1233576Y3431806D1*
X1234839Y3431554D1*
X1236058Y3431141D1*
X1237213Y3430571D1*
X1238283Y3429856D1*
X1239251Y3429007D1*
X1240100Y3428039D1*
X1240815Y3426969D1*
X1241385Y3425814D1*
X1241798Y3424595D1*
X1242050Y3423332D1*
X1242134Y3422047D1*
D1*
G37*
X1549614Y3161417D2*
D10*
X1582685D1*
Y3374016D1*
X1549614D1*
X1363787Y3161417D2*
X1330717D1*
Y3374016D1*
X1363787D1*
G36*
X1566937Y3422047D2*
X1566853Y3420763D1*
X1566602Y3419500D1*
X1566188Y3418281D1*
X1565618Y3417126D1*
X1564903Y3416055D1*
X1564054Y3415088D1*
X1563086Y3414239D1*
X1562016Y3413523D1*
X1560861Y3412954D1*
X1559642Y3412540D1*
X1558379Y3412289D1*
X1557094Y3412205D1*
X1555810Y3412289D1*
X1554547Y3412540D1*
X1553328Y3412954D1*
X1552173Y3413523D1*
X1551103Y3414239D1*
X1550135Y3415088D1*
X1549286Y3416055D1*
X1548571Y3417126D1*
X1548001Y3418281D1*
X1547587Y3419500D1*
X1547336Y3420763D1*
X1547252Y3422047D1*
D1*
X1547336Y3423332D1*
X1547587Y3424595D1*
X1548001Y3425814D1*
X1548571Y3426969D1*
X1549286Y3428039D1*
X1550135Y3429007D1*
X1551103Y3429856D1*
X1552173Y3430571D1*
X1553328Y3431141D1*
X1554547Y3431554D1*
X1555810Y3431806D1*
X1557094Y3431890D1*
X1558379Y3431806D1*
X1559642Y3431554D1*
X1560861Y3431141D1*
X1562016Y3430571D1*
X1563086Y3429856D1*
X1564054Y3429007D1*
X1564903Y3428039D1*
X1565618Y3426969D1*
X1566188Y3425814D1*
X1566602Y3424595D1*
X1566853Y3423332D1*
X1566937Y3422047D1*
D1*
G37*
X2029549Y3724407D2*
D10*
X2029553Y3519685D1*
X2163376Y3724410D2*
X2163380Y3519688D1*
X2029553Y3519685D2*
X2163380Y3519688D1*
X2029549Y3724407D2*
X2088576Y3724408D1*
X2104348D2*
X2163376Y3724410D1*
X2088576Y3724408D2*
G03X2104348Y3724408I7886J-12649D01*
G01*
X2322843Y3740157D2*
X2519693D1*
Y748031D1*
X2322843D1*
Y3740157D1*
X393709D2*
X590559D1*
Y748031D1*
X393709D1*
Y3740157D1*
X1476386Y1653543D2*
G02X1476386Y1653543I393701J0D01*
G01*
D19*
X1624024Y2234252D3*
X1140890Y2954181D2*
D49*
X1084880D1*
Y2863749D1*
Y2911104D2*
X1119302D1*
X1180260Y2954181D2*
Y2863749D1*
X1271263Y2924037D2*
Y2863749D1*
Y2911104D2*
X1262707Y2919759D1*
X1254052Y2924037D1*
X1241218D1*
X1232563Y2919759D1*
X1224007Y2911104D1*
X1219630Y2898171D1*
Y2889615D1*
X1224007Y2876682D1*
X1232563Y2868127D1*
X1241218Y2863749D1*
X1254052D1*
X1262707Y2868127D1*
X1271263Y2876682D1*
X1357988Y2911104D2*
X1353710Y2919759D1*
X1340777Y2924037D1*
X1327844D1*
X1314911Y2919759D1*
X1310633Y2911104D1*
X1314911Y2902548D1*
X1323566Y2898171D1*
X1345055Y2893893D1*
X1353710Y2889615D1*
X1357988Y2880960D1*
Y2876682D1*
X1353710Y2868127D1*
X1340777Y2863749D1*
X1327844D1*
X1314911Y2868127D1*
X1310633Y2876682D1*
X1397358Y2954181D2*
Y2863749D1*
Y2906826D2*
X1410291Y2919759D1*
X1418946Y2924037D1*
X1431879D1*
X1440435Y2919759D1*
X1444713Y2906826D1*
Y2863749D1*
X1484083Y2908916D2*
X1533825D1*
X1629206Y2954181D2*
X1573196D1*
Y2863749D1*
Y2911104D2*
X1607617D1*
X1728864Y2954181D2*
Y2863749D1*
X1668576Y2954181D1*
Y2863749D1*
X1828522Y2941248D2*
X1819966Y2949903D1*
X1807033Y2954181D1*
X1789822D1*
X1776889Y2949903D1*
X1768234Y2941248D1*
Y2932692D1*
X1772611Y2924037D1*
X1776889Y2919759D1*
X1785445Y2915482D1*
X1811311Y2906826D1*
X1819966Y2902548D1*
X1824244Y2898171D1*
X1828522Y2889615D1*
Y2876682D1*
X1819966Y2868127D1*
X1807033Y2863749D1*
X1789822D1*
X1776889Y2868127D1*
X1768234Y2876682D1*
X2356760Y814806D2*
D50*
X2457240Y838793D1*
X2356760Y862670D1*
X2457240Y886546D1*
X2356760Y910533D1*
X2390253Y998781D2*
X2457240D1*
X2404623D2*
X2395006Y989275D1*
X2390253Y979658D1*
Y965399D1*
X2395006Y955782D1*
X2404623Y946275D1*
X2418993Y941412D1*
X2428500D1*
X2442870Y946275D1*
X2452376Y955782D1*
X2457240Y965399D1*
Y979658D1*
X2452376Y989275D1*
X2442870Y998781D1*
X2390253Y1034524D2*
X2457240Y1063153D1*
X2476363Y1053647D1*
X2485980Y1044030D1*
X2490733Y1034524D1*
Y1029660D1*
X2390253Y1091893D2*
X2457240Y1063153D1*
X2356760Y1122772D2*
X2457240Y1146759D1*
X2356760Y1170635D1*
X2457240Y1194512D1*
X2356760Y1218499D1*
X2390253Y1306747D2*
X2457240D1*
X2404623D2*
X2395006Y1297241D1*
X2390253Y1287624D1*
Y1273364D1*
X2395006Y1263747D1*
X2404623Y1254241D1*
X2418993Y1249377D1*
X2428500D1*
X2442870Y1254241D1*
X2452376Y1263747D1*
X2457240Y1273364D1*
Y1287624D1*
X2452376Y1297241D1*
X2442870Y1306747D1*
X2390253Y1342489D2*
X2457240Y1371119D1*
X2476363Y1361612D1*
X2485980Y1351995D1*
X2490733Y1342489D1*
Y1337625D1*
X2390253Y1399859D2*
X2457240Y1371119D1*
X2356760Y1430737D2*
X2457240Y1454724D1*
X2356760Y1478601D1*
X2457240Y1502477D1*
X2356760Y1526464D1*
X2390253Y1614713D2*
X2457240D1*
X2404623D2*
X2395006Y1605206D1*
X2390253Y1595589D1*
Y1581330D1*
X2395006Y1571713D1*
X2404623Y1562206D1*
X2418993Y1557343D1*
X2428500D1*
X2442870Y1562206D1*
X2452376Y1571713D1*
X2457240Y1581330D1*
Y1595589D1*
X2452376Y1605206D1*
X2442870Y1614713D1*
X2390253Y1650455D2*
X2457240Y1679084D1*
X2476363Y1669578D1*
X2485980Y1659961D1*
X2490733Y1650455D1*
Y1645591D1*
X2390253Y1707824D2*
X2457240Y1679084D1*
X1758555Y2316931D2*
D51*
Y2222210D1*
X1711255Y2269510D2*
X1805976D1*
X1864066Y3217839D2*
D52*
Y3171943D1*
X1861214Y3163321D1*
X1858296Y3160469D1*
X1852592Y3157551D1*
X1846822D1*
X1841118Y3160469D1*
X1838267Y3163321D1*
X1835348Y3171943D1*
Y3177647D1*
X1922785Y3209216D2*
X1917082Y3214987D1*
X1908460Y3217839D1*
X1896986D1*
X1888364Y3214987D1*
X1882593Y3209216D1*
Y3203513D1*
X1885512Y3197743D1*
X1888364Y3194891D1*
X1894067Y3192039D1*
X1911312Y3186269D1*
X1917082Y3183417D1*
X1919934Y3180498D1*
X1922785Y3174795D1*
Y3166173D1*
X1917082Y3160469D1*
X1908460Y3157551D1*
X1896986D1*
X1888364Y3160469D1*
X1882593Y3166173D1*
X1961409Y3217839D2*
Y3157551D1*
X1941313Y3217839D2*
X1981505D1*
X2058353Y3206298D2*
X2064123Y3209216D1*
X2072745Y3217772D1*
Y3157551D1*
X2094124Y3163321D2*
X2091272Y3160402D1*
X2094124Y3157551D1*
X2097042Y3160402D1*
X2094124Y3163321D1*
X2118488Y3203446D2*
Y3206298D1*
X2121339Y3212068D1*
X2124191Y3214920D1*
X2129962Y3217772D1*
X2141435D1*
X2147139Y3214920D1*
X2149991Y3212068D1*
X2152909Y3206298D1*
Y3200594D1*
X2149991Y3194824D1*
X2144287Y3186269D1*
X2115569Y3157551D1*
X2155761D1*
X2208710Y3217772D2*
X2180059D1*
X2177207Y3191972D1*
X2180059Y3194824D1*
X2188681Y3197743D1*
X2197236D1*
X2205858Y3194824D1*
X2211629Y3189120D1*
X2214480Y3180498D1*
Y3174795D1*
X2211629Y3166173D1*
X2205858Y3160402D1*
X2197236Y3157551D1*
X2188681D1*
X2180059Y3160402D1*
X2177207Y3163321D1*
X2174288Y3169024D1*
X1114278Y2809349D2*
D53*
Y2749061D1*
X1094182Y2809349D2*
X1134374D1*
X1192190Y2780631D2*
X1189338Y2786401D1*
X1180716Y2789253D1*
X1172094D1*
X1163472Y2786401D1*
X1160620Y2780631D1*
X1163472Y2774927D1*
X1169242Y2772009D1*
X1183568Y2769157D1*
X1189338Y2766305D1*
X1192190Y2760535D1*
Y2757683D1*
X1189338Y2751979D1*
X1180716Y2749061D1*
X1172094D1*
X1163472Y2751979D1*
X1160620Y2757683D1*
X1218437Y2789253D2*
Y2760535D1*
X1221289Y2751979D1*
X1227059Y2749061D1*
X1235681D1*
X1241385Y2751979D1*
X1250007Y2760535D1*
Y2789253D2*
Y2749061D1*
X1276254Y2789253D2*
Y2760535D1*
X1279106Y2751979D1*
X1284876Y2749061D1*
X1293498D1*
X1299202Y2751979D1*
X1307824Y2760535D1*
Y2789253D2*
Y2749061D1*
X1365640Y2780631D2*
X1362788Y2786401D1*
X1354166Y2789253D1*
X1345544D1*
X1336922Y2786401D1*
X1334070Y2780631D1*
X1336922Y2774927D1*
X1342692Y2772009D1*
X1357018Y2769157D1*
X1362788Y2766305D1*
X1365640Y2760535D1*
Y2757683D1*
X1362788Y2751979D1*
X1354166Y2749061D1*
X1345544D1*
X1336922Y2751979D1*
X1334070Y2757683D1*
X1391887Y2809349D2*
Y2749061D1*
Y2777779D2*
X1400509Y2786401D1*
X1406279Y2789253D1*
X1414901D1*
X1420605Y2786401D1*
X1423457Y2777779D1*
Y2749061D1*
X1449704Y2809349D2*
X1452556Y2806497D1*
X1455474Y2809349D1*
X1452556Y2812267D1*
X1449704Y2809349D1*
X1452556Y2789253D2*
Y2749061D1*
X1481721Y2789253D2*
Y2749061D1*
Y2777779D2*
X1490343Y2786401D1*
X1496113Y2789253D1*
X1504668D1*
X1510439Y2786401D1*
X1513290Y2777779D1*
Y2749061D1*
X1648622Y2795023D2*
X1645770Y2800727D1*
X1640000Y2806497D1*
X1634296Y2809349D1*
X1622822D1*
X1617052Y2806497D1*
X1611348Y2800727D1*
X1608430Y2795023D1*
X1605578Y2786401D1*
Y2772009D1*
X1608430Y2763453D1*
X1611348Y2757683D1*
X1617052Y2751979D1*
X1622822Y2749061D1*
X1634296D1*
X1640000Y2751979D1*
X1645770Y2757683D1*
X1648622Y2763453D1*
X1709290Y2789253D2*
Y2749061D1*
Y2780631D2*
X1703587Y2786401D1*
X1697817Y2789253D1*
X1689261D1*
X1683491Y2786401D1*
X1677787Y2780631D1*
X1674869Y2772009D1*
Y2766305D1*
X1677787Y2757683D1*
X1683491Y2751979D1*
X1689261Y2749061D1*
X1697817D1*
X1703587Y2751979D1*
X1709290Y2757683D1*
X1735537Y2789253D2*
Y2749061D1*
Y2772009D2*
X1738455Y2780631D1*
X1744159Y2786401D1*
X1749929Y2789253D1*
X1758551D1*
X1819220Y2809349D2*
Y2749061D1*
Y2780631D2*
X1813516Y2786401D1*
X1807746Y2789253D1*
X1799124D1*
X1793420Y2786401D1*
X1787650Y2780631D1*
X1784798Y2772009D1*
Y2766305D1*
X1787650Y2757683D1*
X1793420Y2751979D1*
X1799124Y2749061D1*
X1807746D1*
X1813516Y2751979D1*
X1819220Y2757683D1*
X1840919Y3780158D2*
D48*
X1838542Y3784911D1*
X1833734Y3789720D1*
X1828980Y3792096D1*
X1819419D1*
X1814610Y3789720D1*
X1809857Y3784911D1*
X1807425Y3780158D1*
X1805049Y3772973D1*
Y3760980D1*
X1807425Y3753850D1*
X1809857Y3749041D1*
X1814610Y3744288D1*
X1819419Y3741856D1*
X1828980D1*
X1833734Y3744288D1*
X1838542Y3749041D1*
X1840919Y3753850D1*
X1856358Y3792096D2*
Y3741856D1*
X1885043D1*
X1905291Y3792041D2*
X1931544D1*
X1917229Y3772918D1*
X1924414D1*
X1929167Y3770541D1*
X1931544Y3768165D1*
X1933975Y3760980D1*
Y3756226D1*
X1931544Y3749041D1*
X1926790Y3744233D1*
X1919605Y3741856D1*
X1912420D1*
X1905291Y3744233D1*
X1902914Y3746665D1*
X1900482Y3751418D1*
X2047612Y3091182D2*
X2045235Y3095935D1*
X2040427Y3100743D1*
X2035673Y3103120D1*
X2026112D1*
X2021303Y3100743D1*
X2016550Y3095935D1*
X2014118Y3091182D1*
X2011742Y3083997D1*
Y3072003D1*
X2014118Y3064874D1*
X2016550Y3060065D1*
X2021303Y3055312D1*
X2026112Y3052880D1*
X2035673D1*
X2040427Y3055312D1*
X2045235Y3060065D1*
X2047612Y3064874D1*
X2063051Y3103120D2*
Y3052880D1*
X2091736D1*
X2109607Y3091127D2*
Y3093503D1*
X2111983Y3098312D1*
X2114360Y3100688D1*
X2119168Y3103065D1*
X2128730D1*
X2133483Y3100688D1*
X2135860Y3098312D1*
X2138292Y3093503D1*
Y3088750D1*
X2135860Y3083942D1*
X2131107Y3076812D1*
X2107175Y3052880D1*
X2140668D1*
X2349170Y3155724D2*
D54*
Y3115532D1*
X2335773Y3155724D2*
X2362568D1*
X2374919Y3134678D2*
X2392163D1*
X2397867Y3136579D1*
X2399812Y3138525D1*
X2401714Y3142327D1*
Y3148075D1*
X2399812Y3151878D1*
X2397867Y3153823D1*
X2392163Y3155724D1*
X2374919D1*
Y3115532D1*
X2433210D2*
Y3155680D1*
X2414065Y3128930D1*
X2442761D1*
X2480006Y3142327D2*
X2478060Y3136579D1*
X2474258Y3132732D1*
X2468510Y3130831D1*
X2466608D1*
X2460860Y3132732D1*
X2457058Y3136579D1*
X2455112Y3142327D1*
Y3144228D1*
X2457058Y3149976D1*
X2460860Y3153779D1*
X2466608Y3155680D1*
X2468510D1*
X2474258Y3153779D1*
X2478060Y3149976D1*
X2480006Y3142327D1*
Y3132732D1*
X2478060Y3123182D1*
X2474258Y3117434D1*
X2468510Y3115532D1*
X2464707D1*
X2458959Y3117434D1*
X2457058Y3121280D1*
X2349170Y3076984D2*
Y3036792D1*
X2335773Y3076984D2*
X2362568D1*
X2374919Y3055938D2*
X2392163D1*
X2397867Y3057839D1*
X2399812Y3059784D1*
X2401714Y3063587D1*
Y3069335D1*
X2399812Y3073137D1*
X2397867Y3075083D1*
X2392163Y3076984D1*
X2374919D1*
Y3036792D1*
X2433210D2*
Y3076940D1*
X2414065Y3050190D1*
X2442761D1*
X2474258Y3036792D2*
Y3076940D1*
X2455112Y3050190D1*
X2483808D1*
X2349170Y2998244D2*
Y2958052D1*
X2335773Y2998244D2*
X2362568D1*
X2374919Y2977197D2*
X2392163D1*
X2397867Y2979099D1*
X2399812Y2981044D1*
X2401714Y2984847D1*
Y2990595D1*
X2399812Y2994397D1*
X2397867Y2996343D1*
X2392163Y2998244D1*
X2374919D1*
Y2958052D1*
X2433210D2*
Y2998200D1*
X2414065Y2971449D1*
X2442761D1*
X2478060Y2998200D2*
X2458959D1*
X2457058Y2981000D1*
X2458959Y2982901D1*
X2464707Y2984847D1*
X2470411D1*
X2476159Y2982901D1*
X2480006Y2979099D1*
X2481907Y2973351D1*
Y2969548D1*
X2480006Y2963800D1*
X2476159Y2959953D1*
X2470411Y2958052D1*
X2464707D1*
X2458959Y2959953D1*
X2457058Y2961899D1*
X2455112Y2965701D1*
X2349170Y2919504D2*
Y2879312D1*
X2335773Y2919504D2*
X2362568D1*
X2374919Y2898457D2*
X2392163D1*
X2397867Y2900359D1*
X2399812Y2902304D1*
X2401714Y2906107D1*
Y2911855D1*
X2399812Y2915657D1*
X2397867Y2917603D1*
X2392163Y2919504D1*
X2374919D1*
Y2879312D1*
X2433210D2*
Y2919460D1*
X2414065Y2892709D1*
X2442761D1*
X2478060Y2913756D2*
X2476159Y2917558D1*
X2470411Y2919460D1*
X2466608D1*
X2460860Y2917558D1*
X2457014Y2911810D1*
X2455112Y2902260D1*
Y2892709D1*
X2457014Y2885060D1*
X2460860Y2881213D1*
X2466608Y2879312D1*
X2468510D1*
X2474214Y2881213D1*
X2478060Y2885060D1*
X2479962Y2890808D1*
Y2892709D1*
X2478060Y2898457D1*
X2474214Y2902260D1*
X2468510Y2904161D1*
X2466608D1*
X2460860Y2902260D1*
X2457014Y2898457D1*
X2455112Y2892709D1*
X2349170Y2840764D2*
Y2800572D1*
X2335773Y2840764D2*
X2362568D1*
X2374919Y2819717D2*
X2392163D1*
X2397867Y2821618D1*
X2399812Y2823564D1*
X2401714Y2827366D1*
Y2833114D1*
X2399812Y2836917D1*
X2397867Y2838862D1*
X2392163Y2840764D1*
X2374919D1*
Y2800572D1*
X2433210D2*
Y2840720D1*
X2414065Y2813969D1*
X2442761D1*
X2462762Y2800572D2*
X2481907Y2840720D1*
X2455112D1*
X2349170Y2762024D2*
Y2721832D1*
X2335773Y2762024D2*
X2362568D1*
X2374919Y2740977D2*
X2392163D1*
X2397867Y2742878D1*
X2399812Y2744824D1*
X2401714Y2748626D1*
Y2754374D1*
X2399812Y2758177D1*
X2397867Y2760122D1*
X2392163Y2762024D1*
X2374919D1*
Y2721832D1*
X2433210D2*
Y2761979D1*
X2414065Y2735229D1*
X2442761D1*
X2464663Y2761979D2*
X2458959Y2760078D1*
X2457014Y2756276D1*
Y2752429D1*
X2458959Y2748626D1*
X2462762Y2746681D1*
X2470411Y2744780D1*
X2476159Y2742878D1*
X2479962Y2739031D1*
X2481863Y2735229D1*
Y2729481D1*
X2479962Y2725678D1*
X2478060Y2723733D1*
X2472312Y2721832D1*
X2464663D1*
X2458959Y2723733D1*
X2457014Y2725678D1*
X2455112Y2729481D1*
Y2735229D1*
X2457014Y2739031D1*
X2460860Y2742878D1*
X2466564Y2744780D1*
X2474214Y2746681D1*
X2478060Y2748626D1*
X2479962Y2752429D1*
Y2756276D1*
X2478060Y2760078D1*
X2472312Y2761979D1*
X2464663D1*
X2132635Y2092732D2*
Y2052540D1*
X2119237Y2092732D2*
X2146032D1*
X2158384Y2071686D2*
X2175628D1*
X2181331Y2073587D1*
X2183277Y2075532D1*
X2185178Y2079335D1*
Y2085083D1*
X2183277Y2088886D1*
X2181331Y2090831D1*
X2175628Y2092732D1*
X2158384D1*
Y2052540D1*
X2201376Y2092688D2*
X2222379D1*
X2210927Y2077389D1*
X2216675D1*
X2220478Y2075488D1*
X2222379Y2073587D1*
X2224324Y2067839D1*
Y2064036D1*
X2222379Y2058288D1*
X2218576Y2054442D1*
X2212828Y2052540D1*
X2207080D1*
X2201376Y2054442D1*
X2199475Y2056387D1*
X2197530Y2060190D1*
X2236676Y2085039D2*
X2240522Y2086984D1*
X2246270Y2092688D1*
Y2052540D1*
X2152612Y2013948D2*
X2173614D1*
X2162162Y1998649D1*
X2167910D1*
X2171713Y1996748D1*
X2173614Y1994847D1*
X2175560Y1989099D1*
Y1985296D1*
X2173614Y1979548D1*
X2169812Y1975701D1*
X2164064Y1973800D1*
X2158316D1*
X2152612Y1975701D1*
X2150711Y1977647D1*
X2148765Y1981449D1*
X2187911Y2000595D2*
X2199407Y1973800D1*
X2210859Y2000595D1*
X2227057Y2013948D2*
X2248060D1*
X2236608Y1998649D1*
X2242356D1*
X2246158Y1996748D1*
X2248060Y1994847D1*
X2250005Y1989099D1*
Y1985296D1*
X2248060Y1979548D1*
X2244257Y1975701D1*
X2238509Y1973800D1*
X2232761D1*
X2227057Y1975701D1*
X2225156Y1977647D1*
X2223210Y1981449D1*
X2167618Y1925701D2*
X2165717Y1929504D1*
X2161870Y1933351D1*
X2158068Y1935252D1*
X2150419D1*
X2146572Y1933351D1*
X2142769Y1929504D1*
X2140824Y1925701D1*
X2138922Y1919953D1*
Y1910359D1*
X2140824Y1904655D1*
X2142769Y1900808D1*
X2146572Y1897005D1*
X2150419Y1895060D1*
X2158068D1*
X2161870Y1897005D1*
X2165717Y1900808D1*
X2167618Y1904655D1*
Y1910359D1*
X2158068D1*
X2206765Y1935252D2*
Y1895060D1*
X2179970Y1935252D1*
Y1895060D1*
X2219116Y1935252D2*
Y1895060D1*
X2232513D1*
X2238261Y1897005D1*
X2242108Y1900808D1*
X2244009Y1904655D1*
X2245911Y1910359D1*
Y1919953D1*
X2244009Y1925701D1*
X2242108Y1929504D1*
X2238261Y1933351D1*
X2232513Y1935252D1*
X2219116D1*
X2021877Y1065339D2*
D55*
X2020451Y1068191D1*
X2017566Y1071076D1*
X2014714Y1072502D1*
X2008977D1*
X2006092Y1071076D1*
X2003240Y1068191D1*
X2001781Y1065339D1*
X2000355Y1061028D1*
Y1053832D1*
X2001781Y1049554D1*
X2003240Y1046669D1*
X2006092Y1043817D1*
X2008977Y1042358D1*
X2014714D1*
X2017566Y1043817D1*
X2020451Y1046669D1*
X2021877Y1049554D1*
X2031141Y1072502D2*
Y1042358D1*
X2048352D1*
X2057615Y1066732D2*
X2060500Y1068191D1*
X2064811Y1072469D1*
Y1042358D1*
X2020451Y1013572D2*
X2017599Y1016458D1*
X2013288Y1017883D1*
X2007551D1*
X2003240Y1016458D1*
X2000355Y1013572D1*
Y1010721D1*
X2001814Y1007835D1*
X2003240Y1006410D1*
X2006092Y1004984D1*
X2014714Y1002098D1*
X2017599Y1000673D1*
X2019025Y999213D1*
X2020451Y996362D1*
Y992050D1*
X2017599Y989199D1*
X2013288Y987739D1*
X2007551D1*
X2003240Y989199D1*
X2000355Y992050D1*
X2029715Y1017883D2*
Y987739D1*
X2046926D1*
X2056189Y1012113D2*
X2059074Y1013572D1*
X2063385Y1017850D1*
Y987739D1*
X1989832Y1256184D2*
D48*
Y1205944D1*
X2011387D1*
X2018572Y1208376D1*
X2020949Y1210752D1*
X2023326Y1215505D1*
Y1222690D1*
X2020949Y1227499D1*
X2018572Y1229875D1*
X2011387Y1232252D1*
X2018572Y1234684D1*
X2020949Y1237060D1*
X2023326Y1241814D1*
Y1246622D1*
X2020949Y1251375D1*
X2018572Y1253807D1*
X2011387Y1256184D1*
X1989832D1*
Y1232252D2*
X2011387D1*
X2038765Y1246567D2*
X2043573Y1248999D1*
X2050758Y1256128D1*
Y1205944D1*
X1510998Y1710104D2*
X1508622Y1714857D1*
X1503813Y1719665D1*
X1499060Y1722042D1*
X1489498D1*
X1484690Y1719665D1*
X1479937Y1714857D1*
X1477505Y1710104D1*
X1475128Y1702919D1*
Y1690925D1*
X1477505Y1683795D1*
X1479937Y1678987D1*
X1484690Y1674234D1*
X1489498Y1671802D1*
X1499060D1*
X1503813Y1674234D1*
X1508622Y1678987D1*
X1510998Y1683795D1*
X1526437Y1712425D2*
X1531246Y1714857D1*
X1538431Y1721987D1*
Y1671802D1*
X908242Y2831155D2*
X905865Y2835908D1*
X901057Y2840717D1*
X896303Y2843093D1*
X886742D1*
X881933Y2840717D1*
X877180Y2835908D1*
X874748Y2831155D1*
X872372Y2823970D1*
Y2811976D1*
X874748Y2804847D1*
X877180Y2800038D1*
X881933Y2795285D1*
X886742Y2792853D1*
X896303D1*
X901057Y2795285D1*
X905865Y2800038D1*
X908242Y2804847D1*
X926113Y2831100D2*
Y2833476D1*
X928489Y2838285D1*
X930866Y2840661D1*
X935674Y2843038D1*
X945236D1*
X949989Y2840661D1*
X952366Y2838285D1*
X954798Y2833476D1*
Y2828723D1*
X952366Y2823915D1*
X947613Y2816785D1*
X923681Y2792853D1*
X957174D1*
X908242Y2929580D2*
X905865Y2934333D1*
X901057Y2939142D1*
X896303Y2941518D1*
X886742D1*
X881933Y2939142D1*
X877180Y2934333D1*
X874748Y2929580D1*
X872372Y2922395D1*
Y2910402D1*
X874748Y2903272D1*
X877180Y2898463D1*
X881933Y2893710D1*
X886742Y2891278D1*
X896303D1*
X901057Y2893710D1*
X905865Y2898463D1*
X908242Y2903272D1*
X928489Y2941463D2*
X954742D1*
X940428Y2922340D1*
X947613D1*
X952366Y2919963D1*
X954742Y2917587D1*
X957174Y2910402D1*
Y2905648D1*
X954742Y2898463D1*
X949989Y2893655D1*
X942804Y2891278D1*
X935619D1*
X928489Y2893655D1*
X926113Y2896087D1*
X923681Y2900840D1*
X845233Y2740000D2*
X842857Y2744753D1*
X838048Y2749562D1*
X833295Y2751938D1*
X823733D1*
X818925Y2749562D1*
X814172Y2744753D1*
X811740Y2740000D1*
X809363Y2732815D1*
Y2720822D1*
X811740Y2713692D1*
X814172Y2708883D1*
X818925Y2704130D1*
X823733Y2701698D1*
X833295D1*
X838048Y2704130D1*
X842857Y2708883D1*
X845233Y2713692D1*
X884604Y2701698D2*
Y2751883D1*
X860672Y2718445D1*
X896542D1*
X1088173Y2653992D2*
X1085796Y2658745D1*
X1080988Y2663553D1*
X1076234Y2665930D1*
X1066673D1*
X1061864Y2663553D1*
X1057111Y2658744D1*
X1054680Y2653991D1*
X1052303Y2646806D1*
X1052304Y2634813D1*
X1054680Y2627683D1*
X1057112Y2622874D1*
X1061866Y2618121D1*
X1066674Y2615690D1*
X1076236D1*
X1080989Y2618122D1*
X1085797Y2622875D1*
X1088174Y2627684D1*
X1132297Y2665876D2*
X1108420Y2665875D1*
X1106044Y2644376D1*
X1108421Y2646752D1*
X1115606Y2649184D1*
X1122736D1*
X1129921Y2646753D1*
X1134729Y2642000D1*
X1137106Y2634815D1*
Y2630062D1*
X1134730Y2622876D1*
X1129921Y2618068D1*
X1122736Y2615691D1*
X1115607D1*
X1108422Y2618067D1*
X1106045Y2620499D1*
X1103613Y2625252D1*
X771695Y2624462D2*
X769319Y2629215D1*
X764510Y2634024D1*
X759757Y2636400D1*
X750195D1*
X745387Y2634024D1*
X740634Y2629215D1*
X738202Y2624462D1*
X735825Y2617277D1*
Y2605283D1*
X738202Y2598154D1*
X740634Y2593345D1*
X745387Y2588592D1*
X750195Y2586160D1*
X759757D1*
X764510Y2588592D1*
X769319Y2593345D1*
X771695Y2598154D1*
X815819Y2629215D2*
X813443Y2633968D1*
X806258Y2636345D1*
X801504D1*
X794319Y2633968D1*
X789511Y2626783D1*
X787134Y2614845D1*
Y2602907D1*
X789511Y2593345D1*
X794319Y2588537D1*
X801504Y2586160D1*
X803881D1*
X811011Y2588537D1*
X815819Y2593345D1*
X818196Y2600530D1*
Y2602907D1*
X815819Y2610092D1*
X811011Y2614845D1*
X803881Y2617222D1*
X801504D1*
X794319Y2614845D1*
X789511Y2610092D1*
X787134Y2602907D1*
X1637177Y2348871D2*
X1634801Y2353625D1*
X1629992Y2358433D1*
X1625239Y2360810D1*
X1615677D1*
X1610869Y2358433D1*
X1606116Y2353625D1*
X1603684Y2348871D1*
X1601307Y2341686D1*
Y2329693D1*
X1603684Y2322563D1*
X1606116Y2317755D1*
X1610869Y2313002D1*
X1615677Y2310570D1*
X1625239D1*
X1629992Y2313002D1*
X1634801Y2317755D1*
X1637177Y2322563D1*
X1662178Y2310570D2*
X1686110Y2360754D1*
X1652617D1*
X1546051Y2605379D2*
X1543675Y2610133D1*
X1538866Y2614941D1*
X1534113Y2617318D1*
X1524552D1*
X1519743Y2614941D1*
X1514990Y2610133D1*
X1512558Y2605379D1*
X1510181Y2598194D1*
Y2586201D1*
X1512558Y2579071D1*
X1514990Y2574263D1*
X1519743Y2569509D1*
X1524552Y2567078D1*
X1534113D1*
X1538866Y2569509D1*
X1543675Y2574263D1*
X1546051Y2579071D1*
X1573429Y2617262D2*
X1566299Y2614886D1*
X1563867Y2610133D1*
Y2605324D1*
X1566299Y2600571D1*
X1571052Y2598139D1*
X1580614Y2595762D1*
X1587799Y2593386D1*
X1592552Y2588577D1*
X1594929Y2583824D1*
Y2576639D1*
X1592552Y2571886D1*
X1590176Y2569454D1*
X1582991Y2567078D1*
X1573429D1*
X1566299Y2569454D1*
X1563867Y2571886D1*
X1561491Y2576639D1*
Y2583824D1*
X1563867Y2588577D1*
X1568676Y2593386D1*
X1575805Y2595762D1*
X1585367Y2598139D1*
X1590176Y2600571D1*
X1592552Y2605324D1*
Y2610133D1*
X1590176Y2614886D1*
X1582991Y2617262D1*
X1573429D1*
X2216503Y2211075D2*
X2214126Y2215828D1*
X2209318Y2220636D1*
X2204565Y2223013D1*
X2195003D1*
X2190195Y2220636D1*
X2185442Y2215827D1*
X2183010Y2211074D1*
X2180633Y2203889D1*
X2180634Y2191896D1*
X2183010Y2184766D1*
X2185442Y2179957D1*
X2190195Y2175204D1*
X2195004Y2172773D1*
X2204566D1*
X2209319Y2175205D1*
X2214127Y2179958D1*
X2216504Y2184766D1*
X2263059Y2206267D2*
X2260627Y2199082D1*
X2255874Y2194274D1*
X2248689Y2191897D1*
X2246313D1*
X2239128Y2194273D1*
X2234374Y2199082D1*
X2231942Y2206267D1*
Y2208643D1*
X2234374Y2215828D1*
X2239127Y2220582D1*
X2246312Y2222958D1*
X2248689D1*
X2255874Y2220582D1*
X2260627Y2215829D1*
X2263059Y2206267D1*
Y2194274D1*
X2260628Y2182335D1*
X2255875Y2175150D1*
X2248690Y2172774D1*
X2243937D1*
X2236751Y2175150D1*
X2234375Y2179958D1*
X1761256Y2440025D2*
X1758880Y2444778D1*
X1754071Y2449587D1*
X1749318Y2451963D1*
X1739756D1*
X1734948Y2449587D1*
X1730195Y2444778D1*
X1727763Y2440025D1*
X1725386Y2432840D1*
Y2420846D1*
X1727763Y2413717D1*
X1730195Y2408908D1*
X1734948Y2404155D1*
X1739756Y2401723D1*
X1749318D1*
X1754071Y2404155D1*
X1758880Y2408908D1*
X1761256Y2413717D1*
X1776695Y2442346D2*
X1781504Y2444778D1*
X1788689Y2451908D1*
Y2401723D1*
X1818498Y2451908D2*
X1811313Y2449531D1*
X1806505Y2442346D1*
X1804128Y2430408D1*
Y2423223D1*
X1806505Y2411285D1*
X1811313Y2404100D1*
X1818498Y2401723D1*
X1823251D1*
X1830437Y2404100D1*
X1835190Y2411285D1*
X1837622Y2423223D1*
Y2430408D1*
X1835190Y2442346D1*
X1830437Y2449531D1*
X1823251Y2451908D1*
X1818498D1*
X1835190Y2442346D2*
X1806505Y2411285D1*
X2202506Y2340025D2*
X2200129Y2344778D1*
X2195321Y2349586D1*
X2190568Y2351963D1*
X2181006Y2351962D1*
X2176198Y2349586D1*
X2171444Y2344777D1*
X2169013Y2340024D1*
X2166636Y2332839D1*
Y2320845D1*
X2169013Y2313716D1*
X2171445Y2308907D1*
X2176198Y2304154D1*
X2181007Y2301722D1*
X2190569Y2301723D1*
X2195322Y2304155D1*
X2200130Y2308908D1*
X2202507Y2313716D1*
X2217945Y2342346D2*
X2222754Y2344778D1*
X2229939Y2351908D1*
Y2301723D1*
X2245378Y2342347D2*
X2250186Y2344779D1*
X2257371Y2351909D1*
X2257372Y2301724D1*
X1761256Y2617190D2*
X1758880Y2621944D1*
X1754071Y2626752D1*
X1749318Y2629129D1*
X1739756D1*
X1734948Y2626752D1*
X1730195Y2621944D1*
X1727763Y2617190D1*
X1725386Y2610005D1*
Y2598012D1*
X1727763Y2590882D1*
X1730195Y2586074D1*
X1734948Y2581320D1*
X1739756Y2578889D1*
X1749318D1*
X1754071Y2581320D1*
X1758880Y2586074D1*
X1761256Y2590882D1*
X1776695Y2619512D2*
X1781504Y2621944D1*
X1788689Y2629073D1*
Y2578889D1*
X1806560Y2617135D2*
Y2619512D1*
X1808937Y2624320D1*
X1811313Y2626697D1*
X1816122Y2629073D1*
X1825683D1*
X1830437Y2626697D1*
X1832813Y2624320D1*
X1835245Y2619512D1*
Y2614759D1*
X1832813Y2609950D1*
X1828060Y2602820D1*
X1804128Y2578889D1*
X1837622D1*
X2023271Y2260289D2*
X2020894Y2265042D1*
X2016086Y2269850D1*
X2011332Y2272227D1*
X2001771D1*
X1996962Y2269850D1*
X1992209Y2265042D1*
X1989777Y2260289D1*
X1987401Y2253104D1*
Y2241110D1*
X1989777Y2233980D1*
X1992209Y2229172D1*
X1996962Y2224419D1*
X2001771Y2221987D1*
X2011332D1*
X2016086Y2224419D1*
X2020894Y2229172D1*
X2023271Y2233980D1*
X2038710Y2262610D2*
X2043518Y2265042D1*
X2050703Y2272172D1*
Y2221987D1*
X2070951Y2272172D2*
X2097204D1*
X2082889Y2253048D1*
X2090074D1*
X2094828Y2250672D1*
X2097204Y2248295D1*
X2099636Y2241110D1*
Y2236357D1*
X2097204Y2229172D1*
X2092451Y2224364D1*
X2085266Y2221987D1*
X2078081D1*
X2070951Y2224364D1*
X2068575Y2226795D1*
X2066143Y2231549D1*
X1989017Y2909895D2*
X1986640Y2914648D1*
X1981832Y2919457D1*
X1977079Y2921833D1*
X1967517D1*
X1962708Y2919457D1*
X1957955Y2914648D1*
X1955523Y2909895D1*
X1953147Y2902710D1*
Y2890717D1*
X1955523Y2883587D1*
X1957955Y2878778D1*
X1962708Y2874025D1*
X1967517Y2871593D1*
X1977079D1*
X1981832Y2874025D1*
X1986640Y2878778D1*
X1989017Y2883587D1*
X2004456Y2912216D2*
X2009264Y2914648D1*
X2016450Y2921778D1*
Y2871593D1*
X2055820D2*
Y2921778D1*
X2031889Y2888340D1*
X2067759D1*
X1278973Y3480761D2*
X1276596Y3485514D1*
X1271788Y3490323D1*
X1267035Y3492699D1*
X1257473D1*
X1252664Y3490323D1*
X1247911Y3485514D1*
X1245479Y3480761D1*
X1243103Y3473576D1*
Y3461583D1*
X1245479Y3454453D1*
X1247911Y3449644D1*
X1252664Y3444891D1*
X1257473Y3442459D1*
X1267035D1*
X1271788Y3444891D1*
X1276596Y3449644D1*
X1278973Y3454453D1*
X1294412Y3483083D2*
X1299220Y3485514D1*
X1306406Y3492644D1*
Y3442459D1*
X1350530Y3492644D2*
X1326653D1*
X1324277Y3471144D1*
X1326653Y3473521D1*
X1333838Y3475953D1*
X1340968D1*
X1348153Y3473521D1*
X1352962Y3468768D1*
X1355338Y3461583D1*
Y3456830D1*
X1352962Y3449644D1*
X1348153Y3444836D1*
X1340968Y3442459D1*
X1333838D1*
X1326653Y3444836D1*
X1324277Y3447268D1*
X1321845Y3452021D1*
X962657Y3480761D2*
X960281Y3485514D1*
X955472Y3490323D1*
X950719Y3492699D1*
X941157D1*
X936349Y3490323D1*
X931596Y3485514D1*
X929164Y3480761D1*
X926787Y3473576D1*
Y3461583D1*
X929164Y3454453D1*
X931596Y3449644D1*
X936349Y3444891D1*
X941157Y3442459D1*
X950719D1*
X955472Y3444891D1*
X960281Y3449644D1*
X962657Y3454453D1*
X978096Y3483083D2*
X982905Y3485514D1*
X990090Y3492644D1*
Y3442459D1*
X1034214Y3485514D2*
X1031837Y3490268D1*
X1024652Y3492644D1*
X1019899D1*
X1012714Y3490268D1*
X1007906Y3483083D1*
X1005529Y3471144D1*
Y3459206D1*
X1007906Y3449644D1*
X1012714Y3444836D1*
X1019899Y3442459D1*
X1022276D1*
X1029406Y3444836D1*
X1034214Y3449644D1*
X1036591Y3456830D1*
Y3459206D1*
X1034214Y3466391D1*
X1029406Y3471144D1*
X1022276Y3473521D1*
X1019899D1*
X1012714Y3471144D1*
X1007906Y3466391D1*
X1005529Y3459206D1*
X636638Y3480761D2*
X634262Y3485514D1*
X629453Y3490323D1*
X624700Y3492699D1*
X615138D1*
X610330Y3490323D1*
X605577Y3485514D1*
X603145Y3480761D1*
X600768Y3473576D1*
Y3461583D1*
X603145Y3454453D1*
X605577Y3449644D1*
X610330Y3444891D1*
X615138Y3442459D1*
X624700D1*
X629453Y3444891D1*
X634262Y3449644D1*
X636638Y3454453D1*
X652077Y3483083D2*
X656886Y3485514D1*
X664071Y3492644D1*
Y3442459D1*
X689072D2*
X713003Y3492644D1*
X679510D1*
X2237554Y3423957D2*
X2235177Y3428710D1*
X2230369Y3433519D1*
X2225616Y3435895D1*
X2216054D1*
X2211246Y3433518D1*
X2206492Y3428710D1*
X2204061Y3423956D1*
X2201684Y3416771D1*
X2201685Y3404778D1*
X2204062Y3397648D1*
X2206494Y3392840D1*
X2211247Y3388087D1*
X2216055Y3385655D1*
X2225617D1*
X2230370Y3388087D1*
X2235178Y3392840D1*
X2237555Y3397649D1*
X2252993Y3426279D2*
X2257802Y3428711D1*
X2264986Y3435841D1*
X2264988Y3385656D1*
X2292364Y3435842D2*
X2285234Y3433465D1*
X2282803Y3428712D1*
Y3423903D1*
X2285235Y3419150D1*
X2289988Y3416719D1*
X2299550Y3414342D1*
X2306735Y3411966D1*
X2311488Y3407158D1*
X2313865Y3402404D1*
Y3395219D1*
X2311489Y3390466D1*
X2309112Y3388034D1*
X2301927Y3385657D1*
X2292365D1*
X2285236Y3388034D1*
X2282804Y3390465D1*
X2280427Y3395218D1*
Y3402403D1*
X2282803Y3407157D1*
X2287611Y3411965D1*
X2294741Y3414342D1*
X2304303Y3416719D1*
X2309111Y3419151D1*
X2311488Y3423904D1*
X2311487Y3428713D1*
X2309111Y3433466D1*
X2301926Y3435842D1*
X2292364D1*
X1568165Y921706D2*
X1565788Y926459D1*
X1560980Y931268D1*
X1556227Y933644D1*
X1546665D1*
X1541857Y931268D1*
X1537104Y926459D1*
X1534672Y921706D1*
X1532295Y914521D1*
Y902528D1*
X1534672Y895398D1*
X1537104Y890589D1*
X1541857Y885836D1*
X1546665Y883404D1*
X1556227D1*
X1560980Y885836D1*
X1565788Y890589D1*
X1568165Y895398D1*
X1583604Y924027D2*
X1588413Y926459D1*
X1595598Y933589D1*
Y883404D1*
X1642154Y916898D2*
X1639722Y909713D1*
X1634969Y904904D1*
X1627784Y902528D1*
X1625407D1*
X1618222Y904904D1*
X1613469Y909713D1*
X1611037Y916898D1*
Y919274D1*
X1613469Y926459D1*
X1618222Y931212D1*
X1625407Y933589D1*
X1627784D1*
X1634969Y931212D1*
X1639722Y926459D1*
X1642154Y916898D1*
Y904904D1*
X1639722Y892966D1*
X1634969Y885781D1*
X1627784Y883404D1*
X1623030D1*
X1615845Y885781D1*
X1613469Y890589D1*
X793211Y3579188D2*
X790834Y3583941D1*
X786026Y3588749D1*
X781272Y3591126D1*
X771711D1*
X766902Y3588749D1*
X762149Y3583941D1*
X759717Y3579187D1*
X757341Y3572002D1*
Y3560009D1*
X759718Y3552879D1*
X762150Y3548071D1*
X766903Y3543318D1*
X771712Y3540886D1*
X781273D1*
X786026Y3543318D1*
X790835Y3548071D1*
X793211Y3552880D1*
X811082Y3579133D2*
Y3581510D1*
X813458Y3586318D1*
X815835Y3588695D1*
X820643Y3591071D1*
X830205Y3591072D1*
X834958Y3588695D1*
X837335Y3586319D1*
X839767Y3581510D1*
Y3576757D1*
X837335Y3571948D1*
X832582Y3564819D1*
X808651Y3540886D1*
X842144Y3540887D1*
X871952Y3591072D2*
X864767Y3588696D1*
X859959Y3581510D1*
X857583Y3569572D1*
Y3562387D1*
X859960Y3550449D1*
X864768Y3543264D1*
X871953Y3540888D1*
X876707D1*
X883892Y3543264D1*
X888645Y3550450D1*
X891076Y3562388D1*
Y3569573D1*
X888644Y3581511D1*
X883891Y3588696D1*
X876706Y3591072D1*
X871952D1*
X888644Y3581511D2*
X859960Y3550449D1*
X853173Y1551626D2*
X850797Y1556380D1*
X845988Y1561188D1*
X841235Y1563564D1*
X831673D1*
X826865Y1561188D1*
X822112Y1556379D1*
X819680Y1551626D1*
X817303Y1544441D1*
X817304Y1532447D1*
X819680Y1525318D1*
X822112Y1520509D1*
X826866Y1515756D1*
X831674Y1513324D1*
X841236D1*
X845989Y1515756D1*
X850797Y1520510D1*
X853174Y1525318D1*
X871044Y1551572D2*
Y1553948D1*
X873421Y1558757D1*
X875797Y1561133D1*
X880606Y1563510D1*
X890167D1*
X894921Y1561134D1*
X897297Y1558757D1*
X899729Y1553949D1*
Y1549195D1*
X897298Y1544387D1*
X892544Y1537257D1*
X868613Y1513325D1*
X902107Y1513326D1*
X917545Y1553949D2*
X922353Y1556381D1*
X929538Y1563511D1*
X929539Y1513326D1*
X1682143Y1041912D2*
Y991672D1*
X1698890D1*
X1706075Y994104D1*
X1710883Y998857D1*
X1713260Y1003666D1*
X1715637Y1010795D1*
Y1022789D1*
X1713260Y1029974D1*
X1710883Y1034727D1*
X1706075Y1039535D1*
X1698890Y1041912D1*
X1682143D1*
X1731076Y1032295D2*
X1735884Y1034727D1*
X1743069Y1041857D1*
Y991672D1*
X1641865Y2155084D2*
X1641866Y2104844D1*
X1658613Y2104845D1*
X1665798Y2107277D1*
X1670606Y2112030D1*
X1672982Y2116839D1*
X1675359Y2123969D1*
Y2135962D1*
X1672982Y2143147D1*
X1670605Y2147900D1*
X1665796Y2152708D1*
X1658611Y2155085D1*
X1641865Y2155084D1*
X1693229Y2143092D2*
Y2145469D1*
X1695606Y2150277D1*
X1697982Y2152654D1*
X1702791Y2155031D1*
X1712352D1*
X1717106Y2152655D1*
X1719482Y2150278D1*
X1721914Y2145470D1*
Y2140717D1*
X1719483Y2135908D1*
X1714730Y2128778D1*
X1690799Y2104846D1*
X1724292Y2104847D1*
X1238908Y1621646D2*
X1238911Y1571406D1*
X1255657Y1571407D1*
X1262842Y1573839D1*
X1267650Y1578593D1*
X1270027Y1583401D1*
X1272403Y1590531D1*
Y1602525D1*
X1270026Y1609710D1*
X1267649Y1614463D1*
X1262840Y1619271D1*
X1255655Y1621647D1*
X1238908Y1621646D1*
X1292649Y1621594D2*
X1318902Y1621595D1*
X1304588Y1602471D1*
X1311773D1*
X1316527Y1600095D1*
X1318903Y1597718D1*
X1321336Y1590533D1*
Y1585780D1*
X1318904Y1578595D1*
X1314151Y1573786D1*
X1306966Y1571409D1*
X1299781D1*
X1292651Y1573785D1*
X1290275Y1576217D1*
X1287843Y1580970D1*
X2256323Y853268D2*
X2306563Y853269D1*
Y870016D1*
X2304131Y877201D1*
X2299377Y882009D1*
X2294569Y884386D1*
X2287439Y886762D1*
X2275446D1*
X2268261Y884385D1*
X2263508Y882009D1*
X2258699Y877200D1*
X2256323Y870015D1*
Y853268D1*
X2306562Y926134D2*
X2256377Y926133D1*
X2289815Y902202D1*
Y938072D1*
X488467Y3959861D2*
D56*
X496161Y3963752D1*
X507657Y3975160D1*
Y3894864D1*
X2405034D2*
Y3975160D1*
X2378231Y3921659D1*
X2418405D1*
X2438421Y3956058D2*
Y3959861D1*
X2441083Y3967554D1*
X2443744Y3971357D1*
X2449130Y3975160D1*
X2459839D1*
X2465162Y3971357D1*
X2467824Y3967554D1*
X2470548Y3959861D1*
Y3952256D1*
X2467824Y3944562D1*
X2462501Y3933155D1*
X2435697Y3894864D1*
X2473210D1*
X1449263Y3821446D2*
D48*
Y3783200D1*
X1446886Y3776015D1*
X1444454Y3773638D1*
X1439701Y3771206D1*
X1434893D1*
X1430139Y3773638D1*
X1427763Y3776015D1*
X1425331Y3783200D1*
Y3787953D1*
X1464702Y3811829D2*
X1469510Y3814261D1*
X1476695Y3821391D1*
Y3771206D1*
X1556227Y1193672D2*
Y1155425D1*
X1553850Y1148240D1*
X1551418Y1145864D1*
X1546665Y1143432D1*
X1541857D1*
X1537104Y1145864D1*
X1534727Y1148240D1*
X1532295Y1155425D1*
Y1160179D1*
X1574098Y1181678D2*
Y1184055D1*
X1576474Y1188863D1*
X1578851Y1191240D1*
X1583660Y1193617D1*
X1593221D1*
X1597974Y1191240D1*
X1600351Y1188863D1*
X1602783Y1184055D1*
Y1179302D1*
X1600351Y1174493D1*
X1595598Y1167364D1*
X1571666Y1143432D1*
X1605159D1*
X1574724Y828646D2*
Y790399D1*
X1572347Y783214D1*
X1569916Y780838D1*
X1565162Y778406D1*
X1560354D1*
X1555601Y780838D1*
X1553224Y783214D1*
X1550792Y790399D1*
Y795152D1*
X1594972Y828590D2*
X1621225D1*
X1606910Y809467D1*
X1614095D1*
X1618848Y807091D1*
X1621225Y804714D1*
X1623657Y797529D1*
Y792776D1*
X1621225Y785591D1*
X1616472Y780782D1*
X1609286Y778406D1*
X1602101D1*
X1594972Y780782D1*
X1592595Y783214D1*
X1590163Y787967D1*
X1743209Y3435896D2*
Y3397650D1*
X1740832Y3390465D1*
X1738400Y3388088D1*
X1733647Y3385656D1*
X1728839D1*
X1724086Y3388088D1*
X1721709Y3390465D1*
X1719277Y3397650D1*
Y3402403D1*
X1782580Y3385656D2*
Y3435841D1*
X1758648Y3402403D1*
X1794518D1*
X1380515Y1588762D2*
X1375761Y1586441D1*
X1370953Y1581633D1*
X1368576Y1576824D1*
X1366145Y1569639D1*
Y1557701D1*
X1368576Y1550516D1*
X1370953Y1545763D1*
X1375761Y1540954D1*
X1380515Y1538578D1*
X1390076D1*
X1394885Y1540954D1*
X1399638Y1545763D1*
X1402014Y1550516D1*
X1404446Y1557701D1*
Y1569639D1*
X1402014Y1576824D1*
X1399638Y1581633D1*
X1394885Y1586441D1*
X1390076Y1588762D1*
X1380515D1*
X1387700Y1548139D2*
X1402014Y1533769D1*
X1419886Y1579146D2*
X1424694Y1581577D1*
X1431879Y1588707D1*
Y1538522D1*
X1534506Y2131154D2*
X1556006Y2131155D1*
X1563191Y2133587D1*
X1565622Y2135963D1*
X1567999Y2140717D1*
Y2145525D1*
X1565622Y2150278D1*
X1563190Y2152710D1*
X1556005Y2155086D1*
X1534505D1*
X1534506Y2104846D1*
X1551252Y2131155D2*
X1568000Y2104847D1*
X1583438Y2145470D2*
X1588246Y2147902D1*
X1595431Y2155032D1*
X1595432Y2104847D1*
X2233001Y1099291D2*
X2254501D1*
X2261686Y1101723D1*
X2264118Y1104100D1*
X2266494Y1108853D1*
Y1113661D1*
X2264118Y1118415D1*
X2261686Y1120846D1*
X2254501Y1123223D1*
X2233001D1*
Y1072983D1*
X2249748Y1099291D2*
X2266494Y1072983D1*
X2284365Y1111230D2*
Y1113606D1*
X2286742Y1118415D1*
X2289119Y1120791D1*
X2293927Y1123168D1*
X2303489D1*
X2308242Y1120791D1*
X2310618Y1118415D1*
X2313050Y1113606D1*
Y1108853D1*
X2310618Y1104045D1*
X2305865Y1096915D1*
X2281934Y1072983D1*
X2315427D1*
X2233001Y1175461D2*
X2254501D1*
X2261686Y1177893D1*
X2264118Y1180269D1*
X2266494Y1185022D1*
Y1189831D1*
X2264118Y1194584D1*
X2261686Y1197016D1*
X2254501Y1199392D1*
X2233001D1*
Y1149152D1*
X2249748Y1175461D2*
X2266494Y1149152D1*
X2286742Y1199337D2*
X2312995D1*
X2298680Y1180214D1*
X2305865D1*
X2310618Y1177837D1*
X2312995Y1175461D1*
X2315427Y1168276D1*
Y1163522D1*
X2312995Y1156337D1*
X2308242Y1151529D1*
X2301057Y1149152D1*
X2293872D1*
X2286742Y1151529D1*
X2284365Y1153961D1*
X2281934Y1158714D1*
X2231813Y1246929D2*
X2253313D1*
X2260498Y1249361D1*
X2262929Y1251738D1*
X2265306Y1256491D1*
Y1261299D1*
X2262929Y1266052D1*
X2260498Y1268484D1*
X2253313Y1270861D1*
X2231813D1*
Y1220621D1*
X2248559Y1246929D2*
X2265306Y1220621D1*
X2304677D2*
Y1270806D1*
X2280745Y1237368D1*
X2316615D1*
X1014515Y3567193D2*
X1036015Y3567194D1*
X1043200Y3569626D1*
X1045632Y3572003D1*
X1048008Y3576756D1*
Y3581565D1*
X1045631Y3586318D1*
X1043199Y3588750D1*
X1036014Y3591126D1*
X1014514Y3591125D1*
X1014516Y3540885D1*
X1031262Y3567194D2*
X1048010Y3540886D1*
X1092132Y3591073D2*
X1068255Y3591072D1*
X1065880Y3569572D1*
X1068256Y3571949D1*
X1075441Y3574381D1*
X1082571D1*
X1089756Y3571949D1*
X1094565Y3567196D1*
X1096941Y3560012D1*
X1096942Y3555258D1*
X1094565Y3548073D1*
X1089757Y3543265D1*
X1082572Y3540888D1*
X1075442Y3540887D1*
X1068257Y3543264D1*
X1065881Y3545695D1*
X1063448Y3550449D1*
X1790719Y3537664D2*
X1812219Y3537665D1*
X1819404Y3540097D1*
X1821836Y3542474D1*
X1824212Y3547227D1*
Y3552035D1*
X1821835Y3556788D1*
X1819403Y3559220D1*
X1812218Y3561597D1*
X1790718Y3561596D1*
X1790720Y3511356D1*
X1807466Y3537665D2*
X1824213Y3511357D1*
X1868336Y3554413D2*
X1865959Y3559166D1*
X1858774Y3561543D1*
X1854021Y3561542D1*
X1846836Y3559166D1*
X1842028Y3551980D1*
X1839652Y3540042D1*
Y3528104D1*
X1842029Y3518542D1*
X1846837Y3513734D1*
X1854022Y3511358D1*
X1856399D1*
X1863529Y3513735D1*
X1868337Y3518543D1*
X1870713Y3525728D1*
Y3528105D1*
X1868337Y3535290D1*
X1863528Y3540043D1*
X1856398Y3542419D1*
X1854022D1*
X1846837Y3540042D1*
X1842028Y3535289D1*
X1839652Y3528104D1*
X1475130Y1492991D2*
X1496629Y1492992D1*
X1503814Y1495424D1*
X1506246Y1497801D1*
X1508623Y1502554D1*
Y1507362D1*
X1506246Y1512115D1*
X1503814Y1514547D1*
X1496629Y1516924D1*
X1475129Y1516923D1*
X1475130Y1466683D1*
X1491876Y1492992D2*
X1508624Y1466684D1*
X1533625Y1466685D2*
X1557555Y1516870D1*
X1524062Y1516869D1*
X1139924Y1448478D2*
X1161424D1*
X1168609Y1450910D1*
X1171041Y1453287D1*
X1173417Y1458040D1*
Y1462849D1*
X1171040Y1467602D1*
X1168608Y1470034D1*
X1161423Y1472410D1*
X1139924Y1472409D1*
X1139925Y1422169D1*
X1156671Y1448478D2*
X1173419Y1422170D1*
X1200794Y1472356D2*
X1193665Y1469979D1*
X1191233Y1465226D1*
Y1460418D1*
X1193665Y1455665D1*
X1198418Y1453233D1*
X1207980Y1450857D1*
X1215165Y1448480D1*
X1219919Y1443672D1*
X1222295Y1438919D1*
X1222296Y1431734D1*
X1219919Y1426981D1*
X1217543Y1424549D1*
X1210358Y1422172D1*
X1200796Y1422171D1*
X1193666Y1424548D1*
X1191234Y1426980D1*
X1188858Y1431733D1*
X1188857Y1438918D1*
X1191234Y1443671D1*
X1196042Y1448480D1*
X1203172Y1450856D1*
X1212733Y1453233D1*
X1217542Y1455665D1*
X1219918Y1460419D1*
Y1465227D1*
X1217541Y1469980D1*
X1210356Y1472357D1*
X1200794Y1472356D1*
X1010954Y1448478D2*
X1032454Y1448479D1*
X1039639Y1450911D1*
X1042071Y1453288D1*
X1044447Y1458041D1*
Y1462849D1*
X1042070Y1467603D1*
X1039638Y1470034D1*
X1032453Y1472411D1*
X1010953Y1472410D1*
X1010955Y1422170D1*
X1027701Y1448479D2*
X1044448Y1422171D1*
X1091003Y1455666D2*
X1088571Y1448480D1*
X1083818Y1443672D1*
X1076633Y1441295D1*
X1074257D1*
X1067072Y1443671D1*
X1062318Y1448480D1*
X1059886Y1455665D1*
Y1458041D1*
X1062318Y1465226D1*
X1067071Y1469980D1*
X1074256Y1472357D1*
X1076633D1*
X1083818Y1469980D1*
X1088571Y1465227D1*
X1091003Y1455666D1*
Y1443672D1*
X1088572Y1431734D1*
X1083819Y1424549D1*
X1076634Y1422172D1*
X1071881D1*
X1064696Y1424548D1*
X1062319Y1429357D1*
X2196443Y991722D2*
X2217943D1*
X2225128Y994154D1*
X2227560Y996531D1*
X2229936Y1001284D1*
Y1006092D1*
X2227560Y1010845D1*
X2225128Y1013277D1*
X2217943Y1015654D1*
X2196443Y1015653D1*
X2196444Y965413D1*
X2213190Y991722D2*
X2229937Y965414D1*
X2245375Y1006037D2*
X2250184Y1008469D1*
X2257369Y1015599D1*
X2257370Y965414D1*
X2287178Y1015600D2*
X2279993Y1013223D1*
X2275185Y1006038D1*
X2272808Y994100D1*
X2272809Y986915D1*
X2275185Y974976D1*
X2279994Y967791D1*
X2287179Y965415D1*
X2291932D1*
X2299117Y967792D1*
X2303870Y974977D1*
X2306302Y986915D1*
Y994100D1*
X2303870Y1006038D1*
X2299116Y1013223D1*
X2291931Y1015600D1*
X2287178D1*
X2303870Y1006038D2*
X2275185Y974976D1*
X2064699Y3517980D2*
X2086198D1*
X2093383Y3520412D1*
X2095815Y3522789D1*
X2098192Y3527542D1*
Y3532350D1*
X2095815Y3537104D1*
X2093383Y3539535D1*
X2086198Y3541912D1*
X2064699D1*
Y3491672D1*
X2081445Y3517980D2*
X2098192Y3491672D1*
X2113631Y3532295D2*
X2118440Y3534727D1*
X2125625Y3541857D1*
Y3491672D1*
X2141064Y3532295D2*
X2145872Y3534727D1*
X2153057Y3541857D1*
Y3491672D1*
X1878994Y2779916D2*
Y2744046D1*
X1881370Y2736861D1*
X1886179Y2732108D1*
X1893364Y2729676D1*
X1898117D1*
X1905302Y2732108D1*
X1910110Y2736861D1*
X1912487Y2744046D1*
Y2779916D1*
X1927926Y2770299D2*
X1932735Y2772731D1*
X1939920Y2779861D1*
Y2729676D1*
X1005252Y2225979D2*
Y2190109D1*
X1007628Y2182924D1*
X1012437Y2178171D1*
X1019622Y2175739D1*
X1024375D1*
X1031560Y2178171D1*
X1036368Y2182924D1*
X1038745Y2190109D1*
Y2225979D1*
X1056616Y2213985D2*
Y2216362D1*
X1058993Y2221171D1*
X1061369Y2223547D1*
X1066178Y2225924D1*
X1075739D1*
X1080492Y2223547D1*
X1082869Y2221171D1*
X1085301Y2216362D1*
Y2211609D1*
X1082869Y2206800D1*
X1078116Y2199671D1*
X1054184Y2175739D1*
X1087678D1*
X982417Y2439550D2*
Y2403680D1*
X984794Y2396495D1*
X989602Y2391742D1*
X996787Y2389310D1*
X1001540D1*
X1008725Y2391742D1*
X1013534Y2396495D1*
X1015910Y2403680D1*
Y2439550D1*
X1036158Y2439495D2*
X1062411D1*
X1048096Y2420371D1*
X1055281D1*
X1060034Y2417995D1*
X1062411Y2415618D1*
X1064843Y2408433D1*
Y2403680D1*
X1062411Y2396495D1*
X1057658Y2391686D1*
X1050473Y2389310D1*
X1043288D1*
X1036158Y2391686D1*
X1033781Y2394118D1*
X1031350Y2398871D1*
X1394614Y2598803D2*
Y2562933D1*
X1396991Y2555748D1*
X1401800Y2550995D1*
X1408985Y2548563D1*
X1413738D1*
X1420923Y2550995D1*
X1425731Y2555748D1*
X1428108Y2562933D1*
Y2598803D1*
X1467479Y2548563D2*
Y2598748D1*
X1443547Y2565310D1*
X1479417D1*
X765882Y3078710D2*
Y3042840D1*
X768258Y3035655D1*
X773067Y3030902D1*
X780252Y3028470D1*
X785005D1*
X792190Y3030902D1*
X796998Y3035655D1*
X799375Y3042840D1*
Y3078710D1*
X843499Y3078655D2*
X819623D1*
X817246Y3057155D1*
X819623Y3059531D1*
X826808Y3061963D1*
X833937D1*
X841122Y3059531D1*
X845931Y3054778D1*
X848307Y3047593D1*
Y3042840D1*
X845931Y3035655D1*
X841122Y3030847D1*
X833937Y3028470D1*
X826808D1*
X819623Y3030847D1*
X817246Y3033278D1*
X814814Y3038032D1*
X1091901Y3078710D2*
Y3042840D1*
X1094277Y3035655D1*
X1099086Y3030902D1*
X1106271Y3028470D1*
X1111024D1*
X1118209Y3030902D1*
X1123017Y3035655D1*
X1125394Y3042840D1*
Y3078710D1*
X1169518Y3071525D2*
X1167141Y3076278D1*
X1159956Y3078655D1*
X1155203D1*
X1148018Y3076278D1*
X1143210Y3069093D1*
X1140833Y3057155D1*
Y3045217D1*
X1143210Y3035655D1*
X1148018Y3030847D1*
X1155203Y3028470D1*
X1157580D1*
X1164710Y3030847D1*
X1169518Y3035655D1*
X1171895Y3042840D1*
Y3045217D1*
X1169518Y3052402D1*
X1164710Y3057155D1*
X1157580Y3059531D1*
X1155203D1*
X1148018Y3057155D1*
X1143210Y3052402D1*
X1140833Y3045217D1*
X1415488Y3078710D2*
Y3042840D1*
X1417864Y3035655D1*
X1422673Y3030902D1*
X1429858Y3028470D1*
X1434611D1*
X1441796Y3030902D1*
X1446605Y3035655D1*
X1448981Y3042840D1*
Y3078710D1*
X1473982Y3028470D2*
X1497914Y3078655D1*
X1464420D1*
X2055278Y3797633D2*
X2055279Y3761763D1*
X2057656Y3754578D1*
X2062464Y3749825D1*
X2069649Y3747393D1*
X2074402D1*
X2081587Y3749825D1*
X2086396Y3754579D1*
X2088772Y3761764D1*
X2088771Y3797634D1*
X2116149Y3797579D2*
X2109019Y3795202D1*
X2106587Y3790449D1*
Y3785641D1*
X2109019Y3780887D1*
X2113773Y3778456D1*
X2123334Y3776079D1*
X2130519Y3773703D1*
X2135273Y3768895D1*
X2137649Y3764141D1*
X2137650Y3756956D1*
X2135273Y3752203D1*
X2132897Y3749771D1*
X2125712Y3747394D1*
X2116150D1*
X2109020Y3749771D1*
X2106588Y3752203D1*
X2104211Y3756956D1*
Y3764141D1*
X2106588Y3768894D1*
X2111396Y3773702D1*
X2118526Y3776079D1*
X2128087Y3778456D1*
X2132896Y3780888D1*
X2135272Y3785641D1*
Y3790450D1*
X2132896Y3795203D1*
X2125710Y3797579D1*
X2116149D1*
M02*
